M48
; DRILL file {KiCad (5.99.0-670-ga8d9fcb4e)} date 2020-04-27 16:46:51
; FORMAT={-:-/ absolute / inch / decimal}
; #@! TF.CreationDate,2020-04-27T16:46:51+02:00
; #@! TF.GenerationSoftware,Kicad,Pcbnew,(5.99.0-670-ga8d9fcb4e)
FMAT,2
INCH
T1C0.0157
T2C0.0276
T3C0.0315
T4C0.0394
T5C0.0591
T6C0.0866
T7C0.0669
T8C0.1201
T9C0.1575
%
G90
G05
T1
X5.9415Y-1.6152
X5.9419Y-1.7078
X5.942Y-1.6657
X6.0713Y-1.4547
X6.0879Y-1.0248
X6.4112Y-1.4148
X6.4112Y-1.4948
X6.4412Y-1.1848
X6.5308Y-3.2694
X6.573Y-1.548
X6.6008Y-1.3499
X6.6608Y-1.2799
X6.6758Y-1.1849
X6.685Y-1.431
X6.6908Y-2.3299
X6.7142Y-1.0915
X6.7408Y-2.0399
X6.8158Y-1.5599
X6.8215Y-3.9417
X6.8708Y-1.4799
X6.8908Y-1.7799
X7.0238Y-3.2699
X7.0658Y-2.3299
X7.1365Y-4.0204
X7.1512Y-1.3548
X7.199Y-1.357
X7.2012Y-1.0648
X7.2505Y-1.3555
X7.2841Y-4.67
X7.3012Y-1.4048
X7.3015Y-1.3545
X7.3305Y-1.2755
X7.4711Y-4.7094
X7.5427Y-1.1737
X7.6412Y-1.25
X7.7058Y-1.8399
X7.7308Y-1.8099
X7.7558Y-1.7799
X7.7808Y-1.7499
X7.7812Y-1.1048
X7.8058Y-1.7199
X7.8156Y-3.1086
X7.9908Y-1.3549
X8.3408Y-1.2549
X8.3471Y-3.7642
X8.7408Y-5.9098
X8.7703Y-4.4588
X8.8983Y-5.1535
T2
X6.8278Y-1.2299
X6.8593Y-1.1826
X6.8908Y-1.2299
X6.9223Y-1.1826
X6.9538Y-1.2299
T4
X5.6512Y-1.0261
X5.3512Y-1.0261
X8.4812Y-1.0261
X5.8512Y-1.0261
X8.5812Y-1.0261
X8.2812Y-1.0261
X5.9512Y-1.0261
X5.4512Y-1.0261
X8.1812Y-1.0261
X5.7512Y-1.0261
X5.5518Y-1.0261
X8.3812Y-1.0261
X8.6743Y-1.026
T5
X5.0465Y-5.7177
X5.3118Y-5.6718
X8.1863Y-5.8385
X8.41Y-5.6887
X7.8115Y-3.6211
X4.2323Y-3.2469
X4.4976Y-3.201
X11.0473Y-2.3569
X11.2973Y-2.2569
X13.0672Y-5.5444
X13.3172Y-5.4444
X11.8363Y-3.0069
X11.7973Y-2.3569
X11.5863Y-3.1069
X12.0473Y-2.2569
X3.207Y-2.2964
X3.457Y-2.1964
X8.0352Y-3.4713
X12.2955Y-1.4185
X12.5455Y-1.3185
X1.6853Y-4.6074
X1.9353Y-4.5074
X8.8843Y-4.1585
X9.1081Y-4.0087
X12.3172Y-5.5444
X12.5672Y-5.4444
X10.8172Y-4.6069
X11.0672Y-4.5069
X9.6619Y-1.501
X9.8856Y-1.3513
X2.6676Y-3.1055
X2.9176Y-3.0055
X8.152Y-4.314
X8.3758Y-4.1642
X2.457Y-2.3555
X2.707Y-2.2555
X3.5262Y-3.8635
X3.7915Y-3.8177
X5.4889Y-2.7458
X5.7542Y-2.6999
X11.1922Y-3.8569
X11.4422Y-3.7569
X10.4963Y-1.3594
X10.7463Y-1.2594
X2.6955Y-3.8566
X2.9455Y-3.7566
X12.4117Y-3.8574
X12.6617Y-3.7574
X10.0123Y-3.1526
X10.236Y-3.0028
X7.0792Y-3.7747
X4.2598Y-4.0195
X4.5251Y-3.9736
X3.7369Y-4.6749
X4.0023Y-4.6291
X3.0081Y-1.3594
X3.2581Y-1.2594
X10.8363Y-3.1069
X11.0863Y-3.0069
X1.6656Y-3.8555
X8.0123Y-1.8514
X2.2581Y-1.3594
X12.5259Y-3.1074
X12.7759Y-3.0074
X1.9156Y-3.7555
X2.5081Y-1.2594
X10.2973Y-2.2979
X10.5473Y-2.1979
X7.303Y-3.6249
X5.6995Y-3.5587
X8.236Y-1.7016
X1.478Y-3.8554
X1.728Y-3.7554
X7.7564Y-5.1644
X7.9801Y-5.0146
X4.0224Y-2.4347
X3.4987Y-3.0909
X3.764Y-3.0451
X4.4692Y-4.8304
X4.2877Y-2.3889
X7.278Y-2.0089
X7.5018Y-1.8591
X5.727Y-4.3313
X5.9649Y-3.5129
X4.7345Y-4.7846
X4.7546Y-2.5902
X5.02Y-2.5444
X12.7973Y-2.2569
X1.7286Y-3.1055
X1.9786Y-3.0055
X13.8172Y-3.6694
X14.0672Y-3.5694
X8.7564Y-2.6526
X8.9801Y-2.5028
X13.8172Y-5.5444
X14.0672Y-5.4444
X12.5473Y-2.3569
X13.0672Y-4.7944
X13.3172Y-4.6944
X9.1533Y-1.5068
X5.2312Y-3.357
X7.5136Y-2.8138
X10.4422Y-3.8569
X10.6922Y-3.7569
X5.9923Y-4.2855
X13.3192Y-1.4185
X1.3133Y-1.4185
X8.9296Y-1.6566
X4.9659Y-3.4028
X7.2898Y-2.9636
X1.5633Y-1.3185
X7.4178Y-4.4695
X7.6415Y-4.3198
X13.5692Y-1.3185
X5.9377Y-5.1414
X6.203Y-5.0956
X4.8487Y-1.5503
X3.7645Y-5.4465
X4.0298Y-5.4007
X8.4906Y-5.0089
X5.4987Y-1.791
X5.7641Y-1.7452
X13.8991Y-2.8194
X3.8511Y-1.4406
X8.5438Y-3.4656
X8.7144Y-4.8591
X13.6491Y-2.9194
X11.8475Y-4.6043
X6.4137Y-5.9066
X5.2035Y-4.9859
X5.4688Y-4.9401
X4.1164Y-1.3948
X8.7675Y-3.3158
X9.956Y-4.6978
X10.1798Y-4.548
X4.9934Y-4.1754
X5.2587Y-4.1296
X9.6186Y-4.003
X9.8423Y-3.8532
X6.233Y-1.9465
X13.4848Y-2.1694
X9.4906Y-2.4971
X6.1484Y-5.9524
X1.4038Y-5.3594
X2.9048Y-4.6069
X3.1548Y-4.5069
X6.4983Y-1.9007
X13.7348Y-2.0694
X1.6538Y-5.2594
X9.7144Y-2.3473
X4.5834Y-1.5962
X9.7465Y-5.5069
X1.707Y-2.3555
X9.2249Y-4.8534
X9.4486Y-4.7036
X1.957Y-2.2555
X6.2232Y-2.9013
X6.4885Y-2.8554
X9.278Y-3.3081
X9.5018Y-3.1583
X12.0975Y-4.5043
X8.2478Y-2.6583
X9.9703Y-5.3572
X11.2463Y-1.3594
X11.4963Y-1.2594
X8.0241Y-2.8081
T6
X13.5912Y-5.2668
X4.3199Y-5.6783
X2.2296Y-2.8293
X13.4231Y-2.6418
X2.0065Y-5.4543
X4.7408Y-1.1799
X9.4814Y-5.6783
X8.9908Y-1.1799
T7
X12.4973Y-2.4569
X12.8973Y-2.4569
X7.0511Y-3.8829
X7.4424Y-3.7997
X5.6298Y-3.6462
X3.6948Y-5.534
X6.0211Y-3.7293
X9.2499Y-3.4163
X9.6412Y-3.3332
X2.6455Y-3.9566
X3.0455Y-3.9566
X3.9527Y-2.5222
X4.3439Y-2.6053
X2.6176Y-3.2055
X8.9015Y-1.7648
X9.2927Y-1.6816
X4.0861Y-5.6171
X3.0176Y-3.2055
X4.8962Y-3.4902
X5.2875Y-3.5734
X3.429Y-3.1784
X3.8203Y-3.2615
X4.5539Y-3.4175
X9.7184Y-5.6152
X4.1626Y-3.3343
X4.9237Y-4.2628
X10.3922Y-3.9569
X10.7922Y-3.9569
X5.868Y-5.2288
X6.2593Y-5.312
X3.7814Y-1.5281
X5.3149Y-4.346
X9.4625Y-2.6053
X9.8538Y-2.5222
X10.1097Y-5.532
X11.7975Y-4.7043
X12.1975Y-4.7043
X8.4625Y-5.1171
X8.8538Y-5.034
X5.429Y-1.8785
X5.8203Y-1.9616
X13.5991Y-3.0194
X13.9991Y-3.0194
X4.1727Y-1.6112
X9.9279Y-4.806
X10.3192Y-4.7228
X9.5905Y-4.1112
X9.9817Y-4.0281
X6.1633Y-2.034
X6.5546Y-2.1171
X13.7672Y-5.6444
X1.657Y-2.4555
X2.057Y-2.4555
X11.1963Y-1.4594
X11.5963Y-1.4594
X6.1535Y-2.9887
X6.5447Y-3.0719
X7.7834Y-3.7293
X1.3538Y-5.4594
X1.7538Y-5.4594
X4.5137Y-1.6836
X4.905Y-1.7667
X13.4348Y-2.2694
X13.8348Y-2.2694
X8.1746Y-3.6462
X12.2455Y-1.5185
X12.6455Y-1.5185
X2.2081Y-1.4594
X11.5363Y-3.2069
X11.9363Y-3.2069
X1.6353Y-4.7074
X2.0353Y-4.7074
X12.2672Y-5.6444
X2.6081Y-1.4594
X8.1239Y-4.4222
X8.5152Y-4.3391
X2.407Y-2.4555
X2.807Y-2.4555
X3.4565Y-3.951
X3.8477Y-4.0341
X9.9842Y-3.2608
X10.3754Y-3.1777
X4.1901Y-4.1069
X4.5813Y-4.1901
X8.3754Y-1.8765
X7.7283Y-5.2726
X1.6786Y-3.2055
X2.0786Y-3.2055
X7.2617Y-3.0719
X7.653Y-2.9887
X7.9842Y-1.9596
X1.428Y-3.9554
X1.828Y-3.9554
X8.1195Y-5.1895
X2.9581Y-1.4594
X3.3581Y-1.4594
X13.7672Y-3.7694
X14.1672Y-3.7694
X8.1582Y-5.9467
X8.5494Y-5.8636
X7.2499Y-2.1171
X7.6412Y-2.034
X7.3897Y-4.5778
X7.7809Y-4.4946
X13.2692Y-1.5185
X13.6692Y-1.5185
X9.1968Y-4.9616
X9.588Y-4.8785
X11.7473Y-2.4569
X12.1473Y-2.4569
X6.0787Y-6.0399
X6.4699Y-6.123
X8.7283Y-2.7608
X9.1195Y-2.6777
X10.9973Y-2.4569
X11.3973Y-2.4569
X14.1672Y-5.6444
X5.4192Y-2.8332
X5.8105Y-2.9163
X13.0172Y-5.6444
X2.8548Y-4.7069
X3.6672Y-4.7623
X5.1338Y-5.0733
X5.525Y-5.1565
X3.157Y-2.3964
X11.5422Y-3.9569
X13.4172Y-5.6444
X3.2548Y-4.7069
X7.996Y-2.9163
X10.4463Y-1.4594
X10.8463Y-1.4594
X8.3872Y-2.8332
X3.557Y-2.3964
X12.6672Y-5.6444
X10.7672Y-4.7069
X11.1672Y-4.7069
X10.7863Y-3.2069
X11.1863Y-3.2069
X4.3995Y-4.9178
X4.7908Y-5.001
X1.2633Y-1.5185
X1.6633Y-1.5185
X13.0172Y-4.8944
X13.4172Y-4.8944
X5.3681Y-5.8883
X12.3617Y-3.9574
X8.8562Y-4.2667
X10.2473Y-2.3979
X10.6473Y-2.3979
X4.9768Y-5.8051
X11.1422Y-3.9569
X9.2475Y-4.1836
X4.685Y-2.6777
X5.0762Y-2.7608
X1.6156Y-3.9555
X2.0156Y-3.9555
X10.025Y-1.5261
X8.9069Y-3.4907
X12.4759Y-3.2074
X6.0486Y-4.5019
X9.6338Y-1.6093
X5.6573Y-4.4188
X8.5157Y-3.5738
X12.7617Y-3.9574
X4.0585Y-4.8455
X12.8759Y-3.2074
T8
X1.3668Y-4.4318
X2.3038Y-4.4318
X4.6569Y-6.0188
X12.0932Y-4.233
X13.0302Y-4.233
X5.5734Y-6.2137
X7.9528Y-6.2721
X8.8693Y-6.0773
T9
X4.8806Y-2.7192
X8.6581Y-5.0755
X9.7861Y-4.0696
X12.6973Y-2.4569
X7.2467Y-3.8413
X6.3589Y-2.0755
X13.6348Y-2.2694
X8.9239Y-2.7192
X9.914Y-5.5736
X6.3491Y-3.0303
X9.4455Y-3.3748
X7.979Y-3.6878
X12.4455Y-1.5185
X11.7363Y-3.2069
X9.8294Y-1.5677
X5.8255Y-3.6878
X8.7113Y-3.5322
X7.5853Y-4.5362
X13.7991Y-3.0194
X2.8455Y-3.9566
X2.8176Y-3.2055
X7.4574Y-3.0303
X3.6246Y-3.2199
X13.9672Y-3.7694
X10.5922Y-3.9569
X10.1236Y-4.7644
X1.8786Y-3.2055
X3.1581Y-1.4594
X7.4455Y-2.0755
X5.0919Y-3.5318
X5.6247Y-1.92
X1.857Y-2.4555
X4.1483Y-2.5637
X9.0971Y-1.7232
X4.3582Y-3.3759
X3.8904Y-5.5755
X5.1193Y-4.3044
X9.6581Y-2.5637
X9.3924Y-4.92
X3.977Y-1.5696
X11.3963Y-1.4594
X13.4692Y-1.5185
X6.0637Y-5.2704
X11.9975Y-4.7043
X1.3668Y-5.0318
X1.8353Y-4.7074
X2.3038Y-5.0318
X12.4672Y-5.6444
X11.9473Y-2.4569
X6.2743Y-6.0815
X4.7093Y-1.7252
X8.1916Y-2.8748
X5.6148Y-2.8748
X12.0932Y-3.633
X12.5617Y-3.9574
X13.0302Y-3.633
X3.0548Y-4.7069
X8.3196Y-4.3807
X3.8629Y-4.8039
X5.3294Y-5.1149
X3.6521Y-3.9925
X10.6463Y-1.4594
X4.3857Y-4.1485
X12.6759Y-3.2074
X10.9863Y-3.2069
X8.1798Y-1.9181
X4.5951Y-4.9594
X1.628Y-3.9554
X2.4081Y-1.4594
X5.8529Y-4.4603
X10.4473Y-2.3979
X2.607Y-2.4555
X3.357Y-2.3964
X10.9672Y-4.7069
X11.3422Y-3.9569
X10.1798Y-3.2192
X1.8156Y-3.9555
X7.9239Y-5.2311
X1.4633Y-1.5185
X13.2172Y-4.8944
X7.8281Y-5.6852
X8.3538Y-5.9051
X8.7446Y-5.4904
X1.5538Y-5.4594
X11.1973Y-2.4569
X13.9672Y-5.6444
X13.2172Y-5.6444
X9.0518Y-4.2252
X4.7816Y-5.432
X5.1724Y-5.8467
X5.6981Y-5.6268
T3
G00X6.7471Y-1.0027
M15
G01X6.7471Y-1.0303
M16
G05
G00X7.0345Y-1.0027
M15
G01X7.0345Y-1.0303
M16
G05
T0
M30
