G04 #@! TF.GenerationSoftware,KiCad,Pcbnew,(5.99.0-670-ga8d9fcb4e)*
G04 #@! TF.CreationDate,2020-04-16T07:58:52+02:00*
G04 #@! TF.ProjectId,adelheid,6164656c-6865-4696-942e-6b696361645f,1.1*
G04 #@! TF.SameCoordinates,Original*
G04 #@! TF.FileFunction,Legend,Bot*
G04 #@! TF.FilePolarity,Positive*
%FSLAX46Y46*%
G04 Gerber Fmt 4.6, Leading zero omitted, Abs format (unit mm)*
G04 Created by KiCad (PCBNEW (5.99.0-670-ga8d9fcb4e)) date 2020-04-16 07:58:52*
%MOMM*%
%LPD*%
G04 APERTURE LIST*
%ADD10C,0.300000*%
%ADD11C,0.200000*%
%ADD12C,0.120000*%
%ADD13C,0.150000*%
%ADD14C,1.802000*%
%ADD15C,4.102000*%
%ADD16C,2.302000*%
%ADD17C,1.202000*%
%ADD18O,1.302000X2.002000*%
%ADD19R,1.302000X1.002000*%
%ADD20C,4.502000*%
%ADD21R,1.352000X1.602000*%
%ADD22R,1.602000X1.352000*%
%ADD23R,1.802000X1.802000*%
%ADD24R,1.602000X1.402000*%
%ADD25R,1.402000X1.602000*%
%ADD26C,3.152000*%
%ADD27R,1.802000X1.102000*%
%ADD28R,1.662000X0.752000*%
%ADD29R,0.652000X1.602000*%
%ADD30R,1.602000X0.652000*%
G04 APERTURE END LIST*
D10*
X301341428Y-119121071D02*
X300770000Y-119121071D01*
X301127142Y-120121071D02*
X301127142Y-118835357D01*
X301055714Y-118692500D01*
X300912857Y-118621071D01*
X300770000Y-118621071D01*
X300055714Y-120121071D02*
X300198571Y-120049642D01*
X300270000Y-119978214D01*
X300341428Y-119835357D01*
X300341428Y-119406785D01*
X300270000Y-119263928D01*
X300198571Y-119192500D01*
X300055714Y-119121071D01*
X299841428Y-119121071D01*
X299698571Y-119192500D01*
X299627142Y-119263928D01*
X299555714Y-119406785D01*
X299555714Y-119835357D01*
X299627142Y-119978214D01*
X299698571Y-120049642D01*
X299841428Y-120121071D01*
X300055714Y-120121071D01*
X298912857Y-120121071D02*
X298912857Y-119121071D01*
X298912857Y-119406785D02*
X298841428Y-119263928D01*
X298770000Y-119192500D01*
X298627142Y-119121071D01*
X298484285Y-119121071D01*
X297984285Y-120121071D02*
X297984285Y-118621071D01*
X297841428Y-119549642D02*
X297412857Y-120121071D01*
X297412857Y-119121071D02*
X297984285Y-119692500D01*
X295412857Y-120121071D02*
X295555714Y-120049642D01*
X295627142Y-119978214D01*
X295698571Y-119835357D01*
X295698571Y-119406785D01*
X295627142Y-119263928D01*
X295555714Y-119192500D01*
X295412857Y-119121071D01*
X295198571Y-119121071D01*
X295055714Y-119192500D01*
X294984285Y-119263928D01*
X294912857Y-119406785D01*
X294912857Y-119835357D01*
X294984285Y-119978214D01*
X295055714Y-120049642D01*
X295198571Y-120121071D01*
X295412857Y-120121071D01*
X294484285Y-119121071D02*
X293912857Y-119121071D01*
X294270000Y-120121071D02*
X294270000Y-118835357D01*
X294198571Y-118692500D01*
X294055714Y-118621071D01*
X293912857Y-118621071D01*
X291770000Y-119335357D02*
X292270000Y-119335357D01*
X292270000Y-120121071D02*
X292270000Y-118621071D01*
X291555714Y-118621071D01*
X290341428Y-120121071D02*
X290341428Y-119335357D01*
X290412857Y-119192500D01*
X290555714Y-119121071D01*
X290841428Y-119121071D01*
X290984285Y-119192500D01*
X290341428Y-120049642D02*
X290484285Y-120121071D01*
X290841428Y-120121071D01*
X290984285Y-120049642D01*
X291055714Y-119906785D01*
X291055714Y-119763928D01*
X290984285Y-119621071D01*
X290841428Y-119549642D01*
X290484285Y-119549642D01*
X290341428Y-119478214D01*
X289841428Y-119121071D02*
X289270000Y-119121071D01*
X289627142Y-118621071D02*
X289627142Y-119906785D01*
X289555714Y-120049642D01*
X289412857Y-120121071D01*
X289270000Y-120121071D01*
X288198571Y-120049642D02*
X288341428Y-120121071D01*
X288627142Y-120121071D01*
X288770000Y-120049642D01*
X288841428Y-119906785D01*
X288841428Y-119335357D01*
X288770000Y-119192500D01*
X288627142Y-119121071D01*
X288341428Y-119121071D01*
X288198571Y-119192500D01*
X288127142Y-119335357D01*
X288127142Y-119478214D01*
X288841428Y-119621071D01*
X287484285Y-120121071D02*
X287484285Y-118621071D01*
X286627142Y-120121071D01*
X286627142Y-118621071D01*
X285698571Y-120121071D02*
X285841428Y-120049642D01*
X285912857Y-119978214D01*
X285984285Y-119835357D01*
X285984285Y-119406785D01*
X285912857Y-119263928D01*
X285841428Y-119192500D01*
X285698571Y-119121071D01*
X285484285Y-119121071D01*
X285341428Y-119192500D01*
X285270000Y-119263928D01*
X285198571Y-119406785D01*
X285198571Y-119835357D01*
X285270000Y-119978214D01*
X285341428Y-120049642D01*
X285484285Y-120121071D01*
X285698571Y-120121071D01*
X284698571Y-119121071D02*
X283912857Y-119121071D01*
X284698571Y-120121071D01*
X283912857Y-120121071D01*
X283127142Y-120121071D02*
X283270000Y-120049642D01*
X283341428Y-119978214D01*
X283412857Y-119835357D01*
X283412857Y-119406785D01*
X283341428Y-119263928D01*
X283270000Y-119192500D01*
X283127142Y-119121071D01*
X282912857Y-119121071D01*
X282770000Y-119192500D01*
X282698571Y-119263928D01*
X282627142Y-119406785D01*
X282627142Y-119835357D01*
X282698571Y-119978214D01*
X282770000Y-120049642D01*
X282912857Y-120121071D01*
X283127142Y-120121071D01*
X281984285Y-120121071D02*
X281984285Y-119121071D01*
X281984285Y-119263928D02*
X281912857Y-119192500D01*
X281770000Y-119121071D01*
X281555714Y-119121071D01*
X281412857Y-119192500D01*
X281341428Y-119335357D01*
X281341428Y-120121071D01*
X281341428Y-119335357D02*
X281270000Y-119192500D01*
X281127142Y-119121071D01*
X280912857Y-119121071D01*
X280770000Y-119192500D01*
X280698571Y-119335357D01*
X280698571Y-120121071D01*
X279984285Y-120121071D02*
X279984285Y-119121071D01*
X279984285Y-118621071D02*
X280055714Y-118692500D01*
X279984285Y-118763928D01*
X279912857Y-118692500D01*
X279984285Y-118621071D01*
X279984285Y-118763928D01*
X278198571Y-118549642D02*
X279484285Y-120478214D01*
X277770000Y-119692500D02*
X277055714Y-119692500D01*
X277912857Y-120121071D02*
X277412857Y-118621071D01*
X276912857Y-120121071D01*
X276412857Y-120121071D02*
X276412857Y-119121071D01*
X276412857Y-119406785D02*
X276341428Y-119263928D01*
X276270000Y-119192500D01*
X276127142Y-119121071D01*
X275984285Y-119121071D01*
X275484285Y-120121071D02*
X275484285Y-119121071D01*
X275484285Y-118621071D02*
X275555714Y-118692500D01*
X275484285Y-118763928D01*
X275412857Y-118692500D01*
X275484285Y-118621071D01*
X275484285Y-118763928D01*
X274841428Y-120049642D02*
X274698571Y-120121071D01*
X274412857Y-120121071D01*
X274270000Y-120049642D01*
X274198571Y-119906785D01*
X274198571Y-119835357D01*
X274270000Y-119692500D01*
X274412857Y-119621071D01*
X274627142Y-119621071D01*
X274770000Y-119549642D01*
X274841428Y-119406785D01*
X274841428Y-119335357D01*
X274770000Y-119192500D01*
X274627142Y-119121071D01*
X274412857Y-119121071D01*
X274270000Y-119192500D01*
X272912857Y-119121071D02*
X272912857Y-120121071D01*
X273555714Y-119121071D02*
X273555714Y-119906785D01*
X273484285Y-120049642D01*
X273341428Y-120121071D01*
X273127142Y-120121071D01*
X272984285Y-120049642D01*
X272912857Y-119978214D01*
X296055714Y-122536071D02*
X296055714Y-121036071D01*
X296055714Y-121607500D02*
X295912857Y-121536071D01*
X295627142Y-121536071D01*
X295484285Y-121607500D01*
X295412857Y-121678928D01*
X295341428Y-121821785D01*
X295341428Y-122250357D01*
X295412857Y-122393214D01*
X295484285Y-122464642D01*
X295627142Y-122536071D01*
X295912857Y-122536071D01*
X296055714Y-122464642D01*
X294841428Y-121536071D02*
X294484285Y-122536071D01*
X294127142Y-121536071D02*
X294484285Y-122536071D01*
X294627142Y-122893214D01*
X294698571Y-122964642D01*
X294841428Y-123036071D01*
X292627142Y-121536071D02*
X292055714Y-121536071D01*
X292412857Y-122536071D02*
X292412857Y-121250357D01*
X292341428Y-121107500D01*
X292198571Y-121036071D01*
X292055714Y-121036071D01*
X291341428Y-122536071D02*
X291484285Y-122464642D01*
X291555714Y-122321785D01*
X291555714Y-121036071D01*
X290555714Y-122536071D02*
X290698571Y-122464642D01*
X290770000Y-122393214D01*
X290841428Y-122250357D01*
X290841428Y-121821785D01*
X290770000Y-121678928D01*
X290698571Y-121607500D01*
X290555714Y-121536071D01*
X290341428Y-121536071D01*
X290198571Y-121607500D01*
X290127142Y-121678928D01*
X290055714Y-121821785D01*
X290055714Y-122250357D01*
X290127142Y-122393214D01*
X290198571Y-122464642D01*
X290341428Y-122536071D01*
X290555714Y-122536071D01*
X289198571Y-122536071D02*
X289341428Y-122464642D01*
X289412857Y-122393214D01*
X289484285Y-122250357D01*
X289484285Y-121821785D01*
X289412857Y-121678928D01*
X289341428Y-121607500D01*
X289198571Y-121536071D01*
X288984285Y-121536071D01*
X288841428Y-121607500D01*
X288770000Y-121678928D01*
X288698571Y-121821785D01*
X288698571Y-122250357D01*
X288770000Y-122393214D01*
X288841428Y-122464642D01*
X288984285Y-122536071D01*
X289198571Y-122536071D01*
X287841428Y-122536071D02*
X287984285Y-122464642D01*
X288055714Y-122393214D01*
X288127142Y-122250357D01*
X288127142Y-121821785D01*
X288055714Y-121678928D01*
X287984285Y-121607500D01*
X287841428Y-121536071D01*
X287627142Y-121536071D01*
X287484285Y-121607500D01*
X287412857Y-121678928D01*
X287341428Y-121821785D01*
X287341428Y-122250357D01*
X287412857Y-122393214D01*
X287484285Y-122464642D01*
X287627142Y-122536071D01*
X287841428Y-122536071D01*
X286698571Y-122536071D02*
X286698571Y-121036071D01*
X286555714Y-121964642D02*
X286127142Y-122536071D01*
X286127142Y-121536071D02*
X286698571Y-122107500D01*
X284841428Y-122536071D02*
X284841428Y-121750357D01*
X284912857Y-121607500D01*
X285055714Y-121536071D01*
X285341428Y-121536071D01*
X285484285Y-121607500D01*
X284841428Y-122464642D02*
X284984285Y-122536071D01*
X285341428Y-122536071D01*
X285484285Y-122464642D01*
X285555714Y-122321785D01*
X285555714Y-122178928D01*
X285484285Y-122036071D01*
X285341428Y-121964642D01*
X284984285Y-121964642D01*
X284841428Y-121893214D01*
X284270000Y-121536071D02*
X283912857Y-122536071D01*
X283555714Y-121536071D02*
X283912857Y-122536071D01*
X284055714Y-122893214D01*
X284127142Y-122964642D01*
X284270000Y-123036071D01*
X281412857Y-123036071D02*
X281770000Y-123036071D01*
X281770000Y-120893214D01*
X281412857Y-120893214D01*
X280984285Y-121536071D02*
X280627142Y-122536071D01*
X280270000Y-121536071D01*
X278912857Y-122536071D02*
X279770000Y-122536071D01*
X279341428Y-122536071D02*
X279341428Y-121036071D01*
X279484285Y-121250357D01*
X279627142Y-121393214D01*
X279770000Y-121464642D01*
X278412857Y-123036071D02*
X278055714Y-123036071D01*
X278055714Y-120893214D01*
X278412857Y-120893214D01*
G36*
X272523506Y-108546253D02*
G01*
X272786582Y-108623193D01*
X273000359Y-108767933D01*
X273143946Y-108965707D01*
X273196450Y-109201751D01*
X273189431Y-109297847D01*
X273110553Y-109572142D01*
X272960878Y-109843930D01*
X272761520Y-110071018D01*
X272702072Y-110120482D01*
X272573574Y-110209773D01*
X272487953Y-110245153D01*
X272421789Y-110227214D01*
X272280673Y-110146688D01*
X272117354Y-110024415D01*
X271964722Y-109885821D01*
X271855663Y-109756330D01*
X271746784Y-109541352D01*
X271690430Y-109266067D01*
X271721195Y-109009183D01*
X271832342Y-108790427D01*
X272017137Y-108629528D01*
X272268842Y-108546213D01*
X272523506Y-108546253D01*
G37*
G36*
X303057344Y-108621564D02*
G01*
X303379025Y-108636528D01*
X303634755Y-108677337D01*
X303868240Y-108750739D01*
X304164762Y-108890723D01*
X304558606Y-109167237D01*
X304885640Y-109510969D01*
X305133965Y-109905577D01*
X305291684Y-110334716D01*
X305346901Y-110782043D01*
X305345571Y-110857112D01*
X305276006Y-111312261D01*
X305105400Y-111720606D01*
X304840112Y-112073341D01*
X304486500Y-112361661D01*
X304050923Y-112576760D01*
X303990592Y-112599710D01*
X303849908Y-112667757D01*
X303781711Y-112743317D01*
X303756495Y-112854193D01*
X303782639Y-113008379D01*
X303902008Y-113188472D01*
X304099174Y-113353548D01*
X304355655Y-113484174D01*
X304437752Y-113519264D01*
X304552361Y-113586011D01*
X304604405Y-113640058D01*
X304582307Y-113665572D01*
X304474491Y-113646717D01*
X304313087Y-113592982D01*
X303899938Y-113390696D01*
X303577546Y-113121035D01*
X303343135Y-112781874D01*
X303312066Y-112718464D01*
X303244475Y-112537293D01*
X303211418Y-112339128D01*
X303203354Y-112075784D01*
X303212768Y-111874925D01*
X303302806Y-111445093D01*
X303487298Y-111079080D01*
X303765235Y-110778541D01*
X304135610Y-110545132D01*
X304421953Y-110380571D01*
X304656251Y-110172732D01*
X304787850Y-109950321D01*
X304812898Y-109720210D01*
X304727544Y-109489269D01*
X304702032Y-109450391D01*
X304486783Y-109233301D01*
X304214859Y-109101776D01*
X303911069Y-109063782D01*
X303600219Y-109127283D01*
X303509732Y-109166454D01*
X303266836Y-109330329D01*
X303066499Y-109567992D01*
X302906729Y-109885518D01*
X302785534Y-110288984D01*
X302700922Y-110784466D01*
X302650900Y-111378041D01*
X302633477Y-112075784D01*
X302633482Y-112256974D01*
X302641416Y-112690759D01*
X302669100Y-113040577D01*
X302726838Y-113328164D01*
X302824935Y-113575257D01*
X302973694Y-113803590D01*
X303183420Y-114034900D01*
X303464417Y-114290921D01*
X303826988Y-114593390D01*
X304038728Y-114781557D01*
X304253566Y-115000293D01*
X304450186Y-115225823D01*
X304615550Y-115441127D01*
X304736618Y-115629182D01*
X304800352Y-115772967D01*
X304793713Y-115855458D01*
X304769875Y-115870545D01*
X304700782Y-115841049D01*
X304605482Y-115712123D01*
X304544138Y-115625717D01*
X304314432Y-115416176D01*
X304031677Y-115274341D01*
X303734908Y-115222180D01*
X303434954Y-115271393D01*
X303102482Y-115412823D01*
X302757694Y-115636101D01*
X302419832Y-115930858D01*
X302254623Y-116093335D01*
X302137067Y-116197552D01*
X302059241Y-116242403D01*
X302000453Y-116239519D01*
X301940013Y-116200526D01*
X301938894Y-116199649D01*
X301858562Y-116131280D01*
X301709692Y-115999851D01*
X301507709Y-115819162D01*
X301268042Y-115603011D01*
X301006117Y-115365198D01*
X300984409Y-115345433D01*
X300730536Y-115115596D01*
X300505812Y-114914470D01*
X300324025Y-114754217D01*
X300198961Y-114647000D01*
X300144407Y-114604982D01*
X300117436Y-114642018D01*
X300085832Y-114765547D01*
X300058453Y-114947899D01*
X299965663Y-115393043D01*
X299794248Y-115760541D01*
X299543404Y-116047367D01*
X299211750Y-116255656D01*
X299193077Y-116263771D01*
X299138489Y-116278222D01*
X299077193Y-116270318D01*
X298995939Y-116231249D01*
X298881475Y-116152203D01*
X298720552Y-116024370D01*
X298499918Y-115838937D01*
X298206323Y-115587095D01*
X298163414Y-115550068D01*
X297907399Y-115325426D01*
X297688071Y-115126737D01*
X297518123Y-114965959D01*
X297410245Y-114855045D01*
X297377127Y-114805952D01*
X297387923Y-114799708D01*
X297463711Y-114826767D01*
X297578899Y-114909009D01*
X297661950Y-114971030D01*
X297829724Y-115032848D01*
X297975305Y-114983555D01*
X298107292Y-114821730D01*
X298109550Y-114817863D01*
X298137175Y-114765920D01*
X298160113Y-114706629D01*
X298178889Y-114629284D01*
X298194033Y-114523178D01*
X298206072Y-114377604D01*
X298215534Y-114181857D01*
X298222946Y-113925229D01*
X298228836Y-113597014D01*
X298233732Y-113186506D01*
X298238162Y-112682998D01*
X298242654Y-112075784D01*
X298245279Y-111636071D01*
X298246831Y-110975566D01*
X298244669Y-110426889D01*
X298238767Y-109988448D01*
X298229101Y-109658649D01*
X298215645Y-109435899D01*
X298198372Y-109318605D01*
X298195140Y-109307922D01*
X298069212Y-109076038D01*
X297858069Y-108919496D01*
X297560454Y-108837346D01*
X297442570Y-108818690D01*
X297307310Y-108782001D01*
X297274014Y-108747908D01*
X297334726Y-108722625D01*
X297481492Y-108712368D01*
X297706357Y-108723351D01*
X297726376Y-108725217D01*
X298230714Y-108806541D01*
X298703357Y-108946142D01*
X299124179Y-109135052D01*
X299473054Y-109364305D01*
X299729856Y-109624932D01*
X299934185Y-109898624D01*
X300054154Y-109482685D01*
X300058100Y-109469128D01*
X300144518Y-109217535D01*
X300242176Y-109000240D01*
X300339970Y-108836043D01*
X300426796Y-108743744D01*
X300491549Y-108742144D01*
X300501299Y-108763149D01*
X300488652Y-108871393D01*
X300427292Y-109029856D01*
X300374963Y-109140275D01*
X300309556Y-109291069D01*
X300256163Y-109440622D01*
X300213418Y-109601784D01*
X300179957Y-109787407D01*
X300154418Y-110010340D01*
X300135436Y-110283435D01*
X300121648Y-110619541D01*
X300111689Y-111031510D01*
X300104195Y-111532191D01*
X300097804Y-112134436D01*
X300076697Y-114338359D01*
X300513061Y-114730453D01*
X300620579Y-114826873D01*
X300781689Y-114967448D01*
X300885429Y-115045476D01*
X300950191Y-115070374D01*
X300994365Y-115051562D01*
X301036340Y-114998458D01*
X301187075Y-114813839D01*
X301379182Y-114647163D01*
X301625632Y-114495871D01*
X301945851Y-114348119D01*
X302359269Y-114192066D01*
X302964522Y-113979086D01*
X302395750Y-113686927D01*
X302097476Y-113527206D01*
X301683222Y-113271016D01*
X301361608Y-113014259D01*
X301120510Y-112742105D01*
X300947802Y-112439725D01*
X300831359Y-112092286D01*
X300759059Y-111684960D01*
X300735131Y-111446119D01*
X300730866Y-110838765D01*
X300816954Y-110301042D01*
X300993853Y-109831956D01*
X301262021Y-109430511D01*
X301621915Y-109095713D01*
X302073993Y-108826567D01*
X302226525Y-108755668D01*
X302413632Y-108680581D01*
X302579815Y-108639612D01*
X302770150Y-108623078D01*
X303029711Y-108621299D01*
X303057344Y-108621564D01*
G37*
G36*
X270050131Y-113410406D02*
G01*
X270052524Y-113885368D01*
X270059395Y-114260743D01*
X270072259Y-114548492D01*
X270092634Y-114760571D01*
X270122037Y-114908940D01*
X270161982Y-115005557D01*
X270213989Y-115062381D01*
X270279572Y-115091370D01*
X270303489Y-115098220D01*
X270386028Y-115149541D01*
X270357076Y-115215214D01*
X270218176Y-115293781D01*
X269970871Y-115383778D01*
X269920906Y-115400407D01*
X269633232Y-115519721D01*
X269320759Y-115680494D01*
X269016733Y-115863046D01*
X268754397Y-116047699D01*
X268566996Y-116214775D01*
X268548037Y-116235240D01*
X268454352Y-116328445D01*
X268402982Y-116366325D01*
X268373636Y-116346685D01*
X268282977Y-116264432D01*
X268157882Y-116139863D01*
X267989225Y-115986092D01*
X267748123Y-115823536D01*
X267444911Y-115676093D01*
X267053828Y-115529524D01*
X266774315Y-115425621D01*
X266445224Y-115266323D01*
X266221109Y-115100321D01*
X266096301Y-114924029D01*
X266082540Y-114884363D01*
X266060253Y-114773813D01*
X266043227Y-114608645D01*
X266030921Y-114376905D01*
X266022798Y-114066640D01*
X266018864Y-113714649D01*
X267590144Y-113714649D01*
X267590147Y-113747541D01*
X267590723Y-114154524D01*
X267592200Y-114520174D01*
X267594445Y-114829875D01*
X267597323Y-115069009D01*
X267600702Y-115222962D01*
X267604446Y-115277116D01*
X267646139Y-115244042D01*
X267749671Y-115152780D01*
X267891161Y-115024080D01*
X268030774Y-114908228D01*
X268201677Y-114794359D01*
X268334517Y-114735770D01*
X268505459Y-114698225D01*
X268505459Y-113100968D01*
X268505378Y-112864209D01*
X268504396Y-112444271D01*
X268501673Y-112120500D01*
X268496435Y-111880525D01*
X268487904Y-111711977D01*
X268475306Y-111602486D01*
X268457864Y-111539681D01*
X268434803Y-111511194D01*
X268405347Y-111504653D01*
X268392875Y-111505171D01*
X268231623Y-111553320D01*
X268039973Y-111661624D01*
X267856693Y-111804509D01*
X267720552Y-111956399D01*
X267686517Y-112009164D01*
X267655306Y-112071062D01*
X267631682Y-112147710D01*
X267614590Y-112253344D01*
X267602973Y-112402204D01*
X267595777Y-112608526D01*
X267591943Y-112886549D01*
X267590418Y-113250511D01*
X267590144Y-113714649D01*
X266018864Y-113714649D01*
X266018319Y-113665897D01*
X266016946Y-113162721D01*
X266016946Y-111589523D01*
X266179500Y-111258483D01*
X266300672Y-111057422D01*
X266530020Y-110802299D01*
X266842253Y-110561016D01*
X267245211Y-110328567D01*
X267746736Y-110099950D01*
X268354668Y-109870158D01*
X268651244Y-109761853D01*
X268952702Y-109634702D01*
X269168421Y-109516720D01*
X269313225Y-109399475D01*
X269401937Y-109274537D01*
X269428291Y-109203492D01*
X269415147Y-109044697D01*
X269300499Y-108909745D01*
X269092942Y-108806257D01*
X268801073Y-108741853D01*
X268735819Y-108732519D01*
X268592580Y-108703920D01*
X268519804Y-108676765D01*
X268496727Y-108630147D01*
X268550301Y-108598288D01*
X268675314Y-108592546D01*
X268850440Y-108609710D01*
X269054354Y-108646571D01*
X269265729Y-108699917D01*
X269463240Y-108766538D01*
X269625560Y-108843225D01*
X269905729Y-109064242D01*
X270103522Y-109345416D01*
X270206327Y-109664170D01*
X270208174Y-110001793D01*
X270103092Y-110339576D01*
X270072403Y-110397528D01*
X269883683Y-110653369D01*
X269621541Y-110907762D01*
X269315722Y-111134686D01*
X268995970Y-111308119D01*
X268977891Y-111316069D01*
X268796830Y-111404681D01*
X268668572Y-111483459D01*
X268619874Y-111536179D01*
X268658964Y-111635351D01*
X268789961Y-111738016D01*
X268989508Y-111819421D01*
X269233025Y-111872440D01*
X269495929Y-111889948D01*
X269753639Y-111864819D01*
X270050054Y-111806211D01*
X270050054Y-113281643D01*
X270050131Y-113410406D01*
G37*
G36*
X283965707Y-108554139D02*
G01*
X283982132Y-108557585D01*
X284117216Y-108584928D01*
X284319593Y-108625048D01*
X284552081Y-108670562D01*
X284858131Y-108735740D01*
X285313213Y-108863187D01*
X285671487Y-109012246D01*
X285943780Y-109189080D01*
X286140918Y-109399855D01*
X286273727Y-109650733D01*
X286371652Y-109907146D01*
X286521926Y-109632794D01*
X286544211Y-109592502D01*
X286692833Y-109344095D01*
X286824891Y-109157033D01*
X286929518Y-109045304D01*
X286995843Y-109022896D01*
X287006971Y-109077379D01*
X286958198Y-109177970D01*
X286860840Y-109328297D01*
X286713488Y-109598391D01*
X286572538Y-109898183D01*
X286460963Y-110181314D01*
X286440451Y-110245067D01*
X286416919Y-110337743D01*
X286398055Y-110448043D01*
X286383352Y-110588065D01*
X286372303Y-110769909D01*
X286364400Y-111005672D01*
X286359136Y-111307453D01*
X286356005Y-111687352D01*
X286354498Y-112157466D01*
X286354108Y-112729894D01*
X286354125Y-112951879D01*
X286354784Y-113512685D01*
X286357437Y-113972586D01*
X286363475Y-114341590D01*
X286374290Y-114629703D01*
X286391272Y-114846934D01*
X286415813Y-115003289D01*
X286449304Y-115108776D01*
X286493137Y-115173401D01*
X286548702Y-115207172D01*
X286617391Y-115220096D01*
X286700595Y-115222180D01*
X286818895Y-115234061D01*
X286859834Y-115277246D01*
X286793720Y-115348986D01*
X286621675Y-115446103D01*
X286551772Y-115485310D01*
X286371747Y-115609863D01*
X286160161Y-115777543D01*
X285949490Y-115963361D01*
X285823227Y-116079623D01*
X285658149Y-116225334D01*
X285535725Y-116325624D01*
X285475926Y-116363615D01*
X285446307Y-116351087D01*
X285340083Y-116281106D01*
X285180675Y-116163251D01*
X284989665Y-116013080D01*
X284915784Y-115954244D01*
X284663243Y-115761838D01*
X284407016Y-115577196D01*
X284192603Y-115433406D01*
X284160754Y-115413193D01*
X283998387Y-115304664D01*
X283889674Y-115222586D01*
X283856703Y-115183399D01*
X283874747Y-115179278D01*
X283976489Y-115189957D01*
X284131686Y-115223126D01*
X284286759Y-115252615D01*
X284505555Y-115240505D01*
X284656592Y-115141956D01*
X284748546Y-114953170D01*
X284754578Y-114923117D01*
X284769270Y-114769662D01*
X284781725Y-114522019D01*
X284791953Y-114194918D01*
X284799964Y-113803089D01*
X284805769Y-113361263D01*
X284809377Y-112884168D01*
X284810800Y-112386536D01*
X284810046Y-111883097D01*
X284807127Y-111388581D01*
X284802053Y-110917717D01*
X284794834Y-110485237D01*
X284785479Y-110105870D01*
X284774000Y-109794347D01*
X284760407Y-109565397D01*
X284744710Y-109433751D01*
X284723573Y-109350565D01*
X284583454Y-109056737D01*
X284363801Y-108836650D01*
X284076666Y-108703479D01*
X284006326Y-108681424D01*
X283889789Y-108626089D01*
X283835794Y-108575153D01*
X283856911Y-108545531D01*
X283965707Y-108554139D01*
G37*
G36*
X296365446Y-113410406D02*
G01*
X296367840Y-113885368D01*
X296374710Y-114260743D01*
X296387575Y-114548492D01*
X296407950Y-114760571D01*
X296437352Y-114908940D01*
X296477298Y-115005557D01*
X296529304Y-115062381D01*
X296594887Y-115091370D01*
X296618804Y-115098220D01*
X296701343Y-115149541D01*
X296672391Y-115215214D01*
X296533492Y-115293781D01*
X296286186Y-115383778D01*
X296236222Y-115400407D01*
X295948547Y-115519721D01*
X295636075Y-115680494D01*
X295332048Y-115863046D01*
X295069713Y-116047699D01*
X294882312Y-116214775D01*
X294863352Y-116235240D01*
X294769668Y-116328445D01*
X294718297Y-116366325D01*
X294688951Y-116346685D01*
X294598292Y-116264432D01*
X294473198Y-116139863D01*
X294304540Y-115986092D01*
X294063438Y-115823536D01*
X293760226Y-115676093D01*
X293369143Y-115529524D01*
X293089630Y-115425621D01*
X292760539Y-115266323D01*
X292536424Y-115100321D01*
X292411616Y-114924029D01*
X292397855Y-114884363D01*
X292375569Y-114773813D01*
X292358542Y-114608645D01*
X292346236Y-114376905D01*
X292338113Y-114066640D01*
X292334179Y-113714649D01*
X293905459Y-113714649D01*
X293905463Y-113747541D01*
X293906039Y-114154524D01*
X293907516Y-114520174D01*
X293909760Y-114829875D01*
X293912639Y-115069009D01*
X293916017Y-115222962D01*
X293919761Y-115277116D01*
X293961455Y-115244042D01*
X294064986Y-115152780D01*
X294206476Y-115024080D01*
X294346089Y-114908228D01*
X294516992Y-114794359D01*
X294649832Y-114735770D01*
X294820775Y-114698225D01*
X294820775Y-113100968D01*
X294820694Y-112864209D01*
X294819711Y-112444271D01*
X294816989Y-112120500D01*
X294811750Y-111880525D01*
X294803219Y-111711977D01*
X294790621Y-111602486D01*
X294773179Y-111539681D01*
X294750118Y-111511194D01*
X294720662Y-111504653D01*
X294708190Y-111505171D01*
X294546938Y-111553320D01*
X294355288Y-111661624D01*
X294172008Y-111804509D01*
X294035867Y-111956399D01*
X294001833Y-112009164D01*
X293970621Y-112071062D01*
X293946997Y-112147710D01*
X293929905Y-112253344D01*
X293918289Y-112402204D01*
X293911092Y-112608526D01*
X293907259Y-112886549D01*
X293905733Y-113250511D01*
X293905459Y-113714649D01*
X292334179Y-113714649D01*
X292333634Y-113665897D01*
X292332261Y-113162721D01*
X292332261Y-111589523D01*
X292494815Y-111258483D01*
X292615987Y-111057422D01*
X292845335Y-110802299D01*
X293157568Y-110561016D01*
X293560527Y-110328567D01*
X294062052Y-110099950D01*
X294669983Y-109870158D01*
X294966560Y-109761853D01*
X295268018Y-109634702D01*
X295483737Y-109516720D01*
X295628540Y-109399475D01*
X295717252Y-109274537D01*
X295743606Y-109203492D01*
X295730463Y-109044697D01*
X295615814Y-108909745D01*
X295408257Y-108806257D01*
X295116388Y-108741853D01*
X295051134Y-108732519D01*
X294907896Y-108703920D01*
X294835119Y-108676765D01*
X294812043Y-108630147D01*
X294865617Y-108598288D01*
X294990630Y-108592546D01*
X295165756Y-108609710D01*
X295369669Y-108646571D01*
X295581044Y-108699917D01*
X295778555Y-108766538D01*
X295940876Y-108843225D01*
X296221044Y-109064242D01*
X296418837Y-109345416D01*
X296521642Y-109664170D01*
X296523490Y-110001793D01*
X296418408Y-110339576D01*
X296387719Y-110397528D01*
X296198998Y-110653369D01*
X295936856Y-110907762D01*
X295631038Y-111134686D01*
X295311286Y-111308119D01*
X295293206Y-111316069D01*
X295112145Y-111404681D01*
X294983887Y-111483459D01*
X294935189Y-111536179D01*
X294974279Y-111635351D01*
X295105276Y-111738016D01*
X295304823Y-111819421D01*
X295548340Y-111872440D01*
X295811244Y-111889948D01*
X296068955Y-111864819D01*
X296365369Y-111806211D01*
X296365369Y-113281643D01*
X296365446Y-113410406D01*
G37*
G36*
X272595297Y-110753799D02*
G01*
X272625450Y-110782374D01*
X272891138Y-111016795D01*
X273175755Y-111242646D01*
X273446670Y-111435184D01*
X273671254Y-111569666D01*
X273706410Y-111588400D01*
X273826458Y-111676634D01*
X273841048Y-111737727D01*
X273757144Y-111759293D01*
X273581710Y-111728944D01*
X273407197Y-111699184D01*
X273254491Y-111732095D01*
X273227082Y-111749120D01*
X273199033Y-111780594D01*
X273177662Y-111835219D01*
X273162049Y-111926034D01*
X273151271Y-112066076D01*
X273144408Y-112268382D01*
X273140538Y-112545990D01*
X273138740Y-112911937D01*
X273138093Y-113379261D01*
X273136063Y-113912171D01*
X273128424Y-114434276D01*
X273113069Y-114863660D01*
X273087859Y-115211943D01*
X273050655Y-115490748D01*
X272999319Y-115711695D01*
X272931711Y-115886407D01*
X272845692Y-116026505D01*
X272739123Y-116143610D01*
X272609866Y-116249345D01*
X272556041Y-116288087D01*
X272467012Y-116341284D01*
X272380675Y-116365124D01*
X272284343Y-116353038D01*
X272165332Y-116298456D01*
X272010956Y-116194810D01*
X271808530Y-116035529D01*
X271545368Y-115814045D01*
X271208785Y-115523789D01*
X271018171Y-115354075D01*
X270893001Y-115229406D01*
X270859792Y-115172651D01*
X270918521Y-115183763D01*
X271069160Y-115262695D01*
X271132058Y-115296220D01*
X271257836Y-115329456D01*
X271385546Y-115293841D01*
X271391948Y-115290860D01*
X271469805Y-115239375D01*
X271531005Y-115159339D01*
X271577192Y-115038501D01*
X271610008Y-114864613D01*
X271631097Y-114625424D01*
X271642101Y-114308685D01*
X271644663Y-113902148D01*
X271640428Y-113393561D01*
X271638090Y-113209362D01*
X271632529Y-112821129D01*
X271626161Y-112526330D01*
X271617444Y-112309974D01*
X271604832Y-112157066D01*
X271586782Y-112052613D01*
X271561750Y-111981622D01*
X271528192Y-111929100D01*
X271484564Y-111880053D01*
X271361654Y-111783680D01*
X271184226Y-111732541D01*
X271128691Y-111730844D01*
X271042372Y-111707745D01*
X271049864Y-111653125D01*
X271154421Y-111561291D01*
X271359301Y-111426550D01*
X271368372Y-111420904D01*
X271582494Y-111269083D01*
X271819957Y-111074073D01*
X272031009Y-110876607D01*
X272365991Y-110534503D01*
X272595297Y-110753799D01*
G37*
G36*
X278193738Y-113113667D02*
G01*
X278209764Y-113622655D01*
X278174696Y-114119781D01*
X278089606Y-114574361D01*
X277955565Y-114955711D01*
X277751951Y-115316693D01*
X277424731Y-115709448D01*
X277015221Y-116030411D01*
X276514468Y-116287856D01*
X276372399Y-116346592D01*
X276241866Y-116399704D01*
X276186263Y-116421114D01*
X276176617Y-116415293D01*
X276095251Y-116356024D01*
X275942233Y-116240885D01*
X275730751Y-116079895D01*
X275473990Y-115883073D01*
X275185137Y-115660439D01*
X275084555Y-115582256D01*
X274797634Y-115353773D01*
X274550489Y-115148884D01*
X274356087Y-114978812D01*
X274227397Y-114854785D01*
X274177385Y-114788029D01*
X274177295Y-114787541D01*
X274175645Y-114728120D01*
X274217257Y-114740207D01*
X274320403Y-114829042D01*
X274479521Y-114955307D01*
X274808906Y-115117362D01*
X275158690Y-115181275D01*
X275509258Y-115150048D01*
X275840997Y-115026680D01*
X276134292Y-114814173D01*
X276369530Y-114515528D01*
X276410544Y-114441134D01*
X276496421Y-114254599D01*
X276545504Y-114102715D01*
X276548327Y-114087394D01*
X276552262Y-114034529D01*
X276537190Y-113982891D01*
X276492053Y-113923507D01*
X276405788Y-113847405D01*
X276267337Y-113745611D01*
X276065638Y-113609154D01*
X275789632Y-113429061D01*
X275428257Y-113196359D01*
X275211232Y-113056517D01*
X275180478Y-113036556D01*
X275591331Y-113036556D01*
X275609198Y-113078467D01*
X275643326Y-113105632D01*
X275766701Y-113190945D01*
X275947993Y-113308826D01*
X276161455Y-113442312D01*
X276291571Y-113521625D01*
X276475251Y-113631402D01*
X276606135Y-113706783D01*
X276662018Y-113734793D01*
X276664972Y-113725440D01*
X276671722Y-113628986D01*
X276677529Y-113441292D01*
X276682072Y-113178811D01*
X276685032Y-112857997D01*
X276686090Y-112495303D01*
X276685871Y-112338935D01*
X276683724Y-111994794D01*
X276679576Y-111701174D01*
X276673788Y-111474048D01*
X276666721Y-111329388D01*
X276658735Y-111283169D01*
X276628784Y-111325255D01*
X276545238Y-111450071D01*
X276419310Y-111641264D01*
X276261524Y-111882842D01*
X276082406Y-112158814D01*
X275915197Y-112419394D01*
X275761611Y-112666996D01*
X275660878Y-112843762D01*
X275606337Y-112962635D01*
X275591331Y-113036556D01*
X275180478Y-113036556D01*
X274909202Y-112860488D01*
X274649595Y-112690298D01*
X274445917Y-112554876D01*
X274311670Y-112463154D01*
X274260361Y-112424062D01*
X274262811Y-112410816D01*
X274308658Y-112319609D01*
X274401458Y-112159501D01*
X274529390Y-111948981D01*
X274680633Y-111706540D01*
X274843365Y-111450667D01*
X275005767Y-111199854D01*
X275156016Y-110972591D01*
X275282293Y-110787367D01*
X275372774Y-110662674D01*
X275415641Y-110617000D01*
X275416363Y-110617049D01*
X275483697Y-110640557D01*
X275638237Y-110702224D01*
X275862995Y-110795037D01*
X276140979Y-110911985D01*
X276455200Y-111046054D01*
X276619454Y-111117182D01*
X277020708Y-111299221D01*
X277332817Y-111458912D01*
X277569828Y-111607434D01*
X277745790Y-111755967D01*
X277874750Y-111915688D01*
X277970757Y-112097776D01*
X278047858Y-112313411D01*
X278093429Y-112495303D01*
X278125547Y-112623504D01*
X278193738Y-113113667D01*
G37*
G36*
X291351396Y-113113667D02*
G01*
X291367422Y-113622655D01*
X291332353Y-114119781D01*
X291247263Y-114574361D01*
X291113223Y-114955711D01*
X290909609Y-115316693D01*
X290582389Y-115709448D01*
X290172878Y-116030411D01*
X289672126Y-116287856D01*
X289530057Y-116346592D01*
X289399523Y-116399704D01*
X289343921Y-116421114D01*
X289334275Y-116415293D01*
X289252908Y-116356024D01*
X289099891Y-116240885D01*
X288888409Y-116079895D01*
X288631648Y-115883073D01*
X288342795Y-115660439D01*
X288242213Y-115582256D01*
X287955291Y-115353773D01*
X287708146Y-115148884D01*
X287513745Y-114978812D01*
X287385054Y-114854785D01*
X287335042Y-114788029D01*
X287334952Y-114787541D01*
X287333302Y-114728120D01*
X287374915Y-114740207D01*
X287478060Y-114829042D01*
X287637178Y-114955307D01*
X287966564Y-115117362D01*
X288316348Y-115181275D01*
X288666916Y-115150048D01*
X288998654Y-115026680D01*
X289291949Y-114814173D01*
X289527187Y-114515528D01*
X289568201Y-114441134D01*
X289654079Y-114254599D01*
X289703162Y-114102715D01*
X289705985Y-114087394D01*
X289709919Y-114034529D01*
X289694848Y-113982891D01*
X289649710Y-113923507D01*
X289563446Y-113847405D01*
X289424994Y-113745611D01*
X289223296Y-113609154D01*
X288947289Y-113429061D01*
X288585915Y-113196359D01*
X288368890Y-113056517D01*
X288338136Y-113036556D01*
X288748988Y-113036556D01*
X288766856Y-113078467D01*
X288800984Y-113105632D01*
X288924359Y-113190945D01*
X289105650Y-113308826D01*
X289319112Y-113442312D01*
X289449228Y-113521625D01*
X289632909Y-113631402D01*
X289763793Y-113706783D01*
X289819675Y-113734793D01*
X289822629Y-113725440D01*
X289829380Y-113628986D01*
X289835186Y-113441292D01*
X289839730Y-113178811D01*
X289842690Y-112857997D01*
X289843748Y-112495303D01*
X289843529Y-112338935D01*
X289841381Y-111994794D01*
X289837233Y-111701174D01*
X289831446Y-111474048D01*
X289824378Y-111329388D01*
X289816392Y-111283169D01*
X289786441Y-111325255D01*
X289702896Y-111450071D01*
X289576967Y-111641264D01*
X289419182Y-111882842D01*
X289240064Y-112158814D01*
X289072855Y-112419394D01*
X288919269Y-112666996D01*
X288818536Y-112843762D01*
X288763995Y-112962635D01*
X288748988Y-113036556D01*
X288338136Y-113036556D01*
X288066860Y-112860488D01*
X287807253Y-112690298D01*
X287603574Y-112554876D01*
X287469328Y-112463154D01*
X287418019Y-112424062D01*
X287420468Y-112410816D01*
X287466315Y-112319609D01*
X287559115Y-112159501D01*
X287687047Y-111948981D01*
X287838290Y-111706540D01*
X288001023Y-111450667D01*
X288163425Y-111199854D01*
X288313674Y-110972591D01*
X288439950Y-110787367D01*
X288530432Y-110662674D01*
X288573298Y-110617000D01*
X288574021Y-110617049D01*
X288641354Y-110640557D01*
X288795895Y-110702224D01*
X289020652Y-110795037D01*
X289298637Y-110911985D01*
X289612858Y-111046054D01*
X289777112Y-111117182D01*
X290178366Y-111299221D01*
X290490475Y-111458912D01*
X290727486Y-111607434D01*
X290903448Y-111755967D01*
X291032408Y-111915688D01*
X291128415Y-112097776D01*
X291205515Y-112313411D01*
X291251086Y-112495303D01*
X291283205Y-112623504D01*
X291351396Y-113113667D01*
G37*
G36*
X281083014Y-108533726D02*
G01*
X281562786Y-108595856D01*
X282010004Y-108723189D01*
X282408774Y-108907326D01*
X282743197Y-109139870D01*
X282997379Y-109412423D01*
X283155422Y-109716585D01*
X283220926Y-109915064D01*
X283377292Y-109629126D01*
X283527851Y-109368147D01*
X283667084Y-109160061D01*
X283773756Y-109040607D01*
X283841594Y-109018043D01*
X283850405Y-109034359D01*
X283825283Y-109120617D01*
X283745984Y-109245755D01*
X283731625Y-109265453D01*
X283633557Y-109428118D01*
X283521443Y-109648864D01*
X283416814Y-109885819D01*
X283236315Y-110330964D01*
X283219137Y-112712402D01*
X283215272Y-113250339D01*
X283212397Y-113766712D01*
X283212407Y-114187142D01*
X283216590Y-114521482D01*
X283226237Y-114779586D01*
X283242636Y-114971307D01*
X283267077Y-115106499D01*
X283300850Y-115195015D01*
X283345243Y-115246708D01*
X283401547Y-115271432D01*
X283471049Y-115279041D01*
X283555041Y-115279388D01*
X283608313Y-115281426D01*
X283704768Y-115313457D01*
X283695781Y-115382560D01*
X283582637Y-115486398D01*
X283366618Y-115622631D01*
X283172053Y-115745498D01*
X282918746Y-115930252D01*
X282698772Y-116114760D01*
X282383482Y-116406664D01*
X282016762Y-116095565D01*
X282001963Y-116083062D01*
X281778039Y-115902687D01*
X281541773Y-115725216D01*
X281341940Y-115587376D01*
X281306749Y-115564671D01*
X281125695Y-115436872D01*
X281047145Y-115355192D01*
X281070037Y-115317735D01*
X281193306Y-115322608D01*
X281307928Y-115320003D01*
X281493644Y-115232023D01*
X281634513Y-115118032D01*
X281652127Y-113547285D01*
X281669740Y-111976539D01*
X281399188Y-111797332D01*
X281230234Y-111694736D01*
X281061310Y-111630161D01*
X280929306Y-111642158D01*
X280809713Y-111727837D01*
X280786338Y-111753777D01*
X280746320Y-111817263D01*
X280713516Y-111905806D01*
X280687376Y-112029332D01*
X280667350Y-112197765D01*
X280652889Y-112421034D01*
X280643444Y-112709064D01*
X280638466Y-113071780D01*
X280637405Y-113519111D01*
X280639713Y-114060980D01*
X280644839Y-114707316D01*
X280647885Y-115038702D01*
X280653067Y-115549159D01*
X280658509Y-115964068D01*
X280664918Y-116295531D01*
X280673003Y-116555649D01*
X280683474Y-116756521D01*
X280697037Y-116910251D01*
X280714403Y-117028937D01*
X280736279Y-117124682D01*
X280763373Y-117209586D01*
X280796396Y-117295751D01*
X280911404Y-117529816D01*
X281170715Y-117886640D01*
X281498855Y-118197355D01*
X281867822Y-118432258D01*
X281885223Y-118440883D01*
X282062202Y-118536064D01*
X282187581Y-118616768D01*
X282235189Y-118666321D01*
X282226984Y-118686970D01*
X282164558Y-118691563D01*
X282032480Y-118649480D01*
X281820932Y-118557221D01*
X281520099Y-118411285D01*
X281014819Y-118131980D01*
X280503140Y-117786722D01*
X280055381Y-117415847D01*
X279688011Y-117033134D01*
X279417501Y-116652361D01*
X279407191Y-116634409D01*
X279328950Y-116488881D01*
X279264744Y-116343876D01*
X279213151Y-116186624D01*
X279172753Y-116004354D01*
X279142128Y-115784297D01*
X279119857Y-115513683D01*
X279104520Y-115179742D01*
X279094698Y-114769703D01*
X279088970Y-114270797D01*
X279085916Y-113670253D01*
X279079113Y-111633425D01*
X279233730Y-111325438D01*
X279254026Y-111285846D01*
X279385555Y-111058944D01*
X279528481Y-110851892D01*
X279666392Y-110684910D01*
X279782875Y-110578219D01*
X279861515Y-110552040D01*
X279885352Y-110564887D01*
X279994073Y-110635113D01*
X280168383Y-110754071D01*
X280390186Y-110909315D01*
X280641385Y-111088399D01*
X280752191Y-111167950D01*
X281006814Y-111349838D01*
X281232020Y-111509503D01*
X281406702Y-111632019D01*
X281509750Y-111702459D01*
X281671022Y-111808087D01*
X281652768Y-110489034D01*
X281648444Y-110194085D01*
X281641698Y-109837571D01*
X281633399Y-109570285D01*
X281622162Y-109377123D01*
X281606600Y-109242979D01*
X281585326Y-109152746D01*
X281556955Y-109091321D01*
X281520099Y-109043597D01*
X281343881Y-108896931D01*
X281059127Y-108755568D01*
X280732157Y-108670908D01*
X280685842Y-108663545D01*
X280523683Y-108625996D01*
X280469810Y-108589669D01*
X280519172Y-108558656D01*
X280666720Y-108537049D01*
X280907404Y-108528937D01*
X281083014Y-108533726D01*
G37*
D11*
X178910000Y-7020000D02*
X171610000Y-7020000D01*
X171610000Y-7020000D02*
X171610000Y2180000D01*
X171610000Y2180000D02*
X178910000Y2180000D01*
X178910000Y2180000D02*
X178910000Y-7020000D01*
D12*
X301445000Y-44745000D02*
X301445000Y-40845000D01*
X299445000Y-44745000D02*
X299445000Y-40845000D01*
X301445000Y-44745000D02*
X299445000Y-44745000D01*
X45115000Y-44745000D02*
X45115000Y-40845000D01*
X43115000Y-44745000D02*
X43115000Y-40845000D01*
X45115000Y-44745000D02*
X43115000Y-44745000D01*
X39430200Y-82845000D02*
X39430200Y-78945000D01*
X37430200Y-82845000D02*
X37430200Y-78945000D01*
X39430200Y-82845000D02*
X37430200Y-82845000D01*
X89523864Y-83149261D02*
X90334720Y-79334485D01*
X87567569Y-82733437D02*
X88378425Y-78918662D01*
X89523864Y-83149261D02*
X87567569Y-82733437D01*
X94879946Y-103763330D02*
X95690802Y-99948554D01*
X92923651Y-103347506D02*
X93734507Y-99532731D01*
X94879946Y-103763330D02*
X92923651Y-103347506D01*
X282395000Y-44745000D02*
X282395000Y-40845000D01*
X280395000Y-44745000D02*
X280395000Y-40845000D01*
X282395000Y-44745000D02*
X280395000Y-44745000D01*
X144727327Y-75407548D02*
X145538183Y-71592772D01*
X142771032Y-74991724D02*
X143581888Y-71176949D01*
X144727327Y-75407548D02*
X142771032Y-74991724D01*
X302743769Y-101894998D02*
X302743769Y-97994998D01*
X300743769Y-101894998D02*
X300743769Y-97994998D01*
X302743769Y-101894998D02*
X300743769Y-101894998D01*
X296085000Y-63795000D02*
X296085000Y-59895000D01*
X294085000Y-63795000D02*
X294085000Y-59895000D01*
X296085000Y-63795000D02*
X294085000Y-63795000D01*
X158723455Y-34756143D02*
X159534311Y-30941367D01*
X156767160Y-34340319D02*
X157578016Y-30525544D01*
X158723455Y-34756143D02*
X156767160Y-34340319D01*
X188545949Y-35392920D02*
X187735093Y-31578145D01*
X186589654Y-35808744D02*
X185778798Y-31993968D01*
X188545949Y-35392920D02*
X186589654Y-35808744D01*
X211496015Y-132727958D02*
X210685159Y-128913183D01*
X209539720Y-133143782D02*
X208728864Y-129329006D01*
X211496015Y-132727958D02*
X209539720Y-133143782D01*
X286075000Y-82845000D02*
X286075000Y-78945000D01*
X284075000Y-82845000D02*
X284075000Y-78945000D01*
X286075000Y-82845000D02*
X284075000Y-82845000D01*
X126791284Y-91070715D02*
X127602140Y-87255939D01*
X124834989Y-90654891D02*
X125645845Y-86840116D01*
X126791284Y-91070715D02*
X124834989Y-90654891D01*
X102103855Y-46872025D02*
X102914711Y-43057249D01*
X100147560Y-46456201D02*
X100958416Y-42641426D01*
X102103855Y-46872025D02*
X100147560Y-46456201D01*
X340250000Y-20900000D02*
X340250000Y-17000000D01*
X338250000Y-20900000D02*
X338250000Y-17000000D01*
X340250000Y-20900000D02*
X338250000Y-20900000D01*
X128186639Y-130318493D02*
X128997495Y-126503717D01*
X126230344Y-129902669D02*
X127041200Y-126087894D01*
X128186639Y-130318493D02*
X126230344Y-129902669D01*
X210562204Y-93975281D02*
X209751348Y-90160506D01*
X208605909Y-94391105D02*
X207795053Y-90576329D01*
X210562204Y-93975281D02*
X208605909Y-94391105D01*
X207359058Y-55645521D02*
X206548202Y-51830746D01*
X205402763Y-56061345D02*
X204591907Y-52246569D01*
X207359058Y-55645521D02*
X205402763Y-56061345D01*
X150781075Y-115645510D02*
X151591931Y-111830734D01*
X148824780Y-115229686D02*
X149635636Y-111414911D01*
X150781075Y-115645510D02*
X148824780Y-115229686D01*
X220576795Y-72371012D02*
X219765939Y-68556237D01*
X218620500Y-72786836D02*
X217809644Y-68972060D01*
X220576795Y-72371012D02*
X218620500Y-72786836D01*
X277035000Y-63795000D02*
X277035000Y-59895000D01*
X275035000Y-63795000D02*
X275035000Y-59895000D01*
X277035000Y-63795000D02*
X275035000Y-63795000D01*
X244566734Y-47796195D02*
X243755878Y-43981420D01*
X242610439Y-48212019D02*
X241799583Y-44397243D01*
X244566734Y-47796195D02*
X242610439Y-48212019D01*
X229195916Y-90014564D02*
X228385060Y-86199789D01*
X227239621Y-90430388D02*
X226428765Y-86615612D01*
X229195916Y-90014564D02*
X227239621Y-90430388D01*
X333699949Y-125707503D02*
X333699949Y-121807503D01*
X331699949Y-125707503D02*
X331699949Y-121807503D01*
X333699949Y-125707503D02*
X331699949Y-125707503D01*
X247829628Y-86053846D02*
X247018772Y-82239071D01*
X245873333Y-86469670D02*
X245062477Y-82654894D01*
X247829628Y-86053846D02*
X245873333Y-86469670D01*
X333699949Y-106657503D02*
X333699949Y-102757503D01*
X331699949Y-106657503D02*
X331699949Y-102757503D01*
X333699949Y-106657503D02*
X331699949Y-106657503D01*
X225933023Y-51756913D02*
X225122167Y-47942138D01*
X223976728Y-52172737D02*
X223165872Y-48357961D01*
X225933023Y-51756913D02*
X223976728Y-52172737D01*
X314649949Y-125707503D02*
X314649949Y-121807503D01*
X312649949Y-125707503D02*
X312649949Y-121807503D01*
X314649949Y-125707503D02*
X312649949Y-125707503D01*
X45715000Y-63795000D02*
X45715000Y-59895000D01*
X43715000Y-63795000D02*
X43715000Y-59895000D01*
X45715000Y-63795000D02*
X43715000Y-63795000D01*
X64165000Y-44745000D02*
X64165000Y-40845000D01*
X62165000Y-44745000D02*
X62165000Y-40845000D01*
X64165000Y-44745000D02*
X62165000Y-44745000D01*
X69525000Y-63795000D02*
X69525000Y-59895000D01*
X67525000Y-63795000D02*
X67525000Y-59895000D01*
X69525000Y-63795000D02*
X67525000Y-63795000D01*
X317031250Y-82845000D02*
X317031250Y-78945000D01*
X315031250Y-82845000D02*
X315031250Y-78945000D01*
X317031250Y-82845000D02*
X315031250Y-82845000D01*
X37485000Y-120945000D02*
X37485000Y-117045000D01*
X35485000Y-120945000D02*
X35485000Y-117045000D01*
X37485000Y-120945000D02*
X35485000Y-120945000D01*
X70225000Y-82845000D02*
X70225000Y-78945000D01*
X68225000Y-82845000D02*
X68225000Y-78945000D01*
X70225000Y-82845000D02*
X68225000Y-82845000D01*
X314200000Y-20775000D02*
X314200000Y-16875000D01*
X312200000Y-20775000D02*
X312200000Y-16875000D01*
X314200000Y-20775000D02*
X312200000Y-20775000D01*
X75575000Y-101895000D02*
X75575000Y-97995000D01*
X73575000Y-101895000D02*
X73575000Y-97995000D01*
X75575000Y-101895000D02*
X73575000Y-101895000D01*
X230509058Y-26545521D02*
X229698202Y-22730746D01*
X228552763Y-26961345D02*
X227741907Y-23146569D01*
X230509058Y-26545521D02*
X228552763Y-26961345D01*
X239210507Y-68410294D02*
X238399651Y-64595519D01*
X237254212Y-68826118D02*
X236443356Y-65011342D01*
X239210507Y-68410294D02*
X237254212Y-68826118D01*
X44618750Y-101895000D02*
X44618750Y-97995000D01*
X42618750Y-101895000D02*
X42618750Y-97995000D01*
X44618750Y-101895000D02*
X42618750Y-101895000D01*
X201943083Y-76331729D02*
X201132227Y-72516954D01*
X199986788Y-76747553D02*
X199175932Y-72932777D01*
X201943083Y-76331729D02*
X199986788Y-76747553D01*
X34950000Y-20950000D02*
X34950000Y-17050000D01*
X32950000Y-20950000D02*
X32950000Y-17050000D01*
X34950000Y-20950000D02*
X32950000Y-20950000D01*
X116847237Y-26111345D02*
X117658093Y-22296569D01*
X114890942Y-25695521D02*
X115701798Y-21880746D01*
X116847237Y-26111345D02*
X114890942Y-25695521D01*
X257844219Y-64449576D02*
X257033363Y-60634801D01*
X255887924Y-64865400D02*
X255077068Y-61050624D01*
X257844219Y-64449576D02*
X255887924Y-64865400D01*
X251092651Y-124311446D02*
X250281795Y-120496671D01*
X249136356Y-124727270D02*
X248325500Y-120912494D01*
X251092651Y-124311446D02*
X249136356Y-124727270D01*
X183309372Y-80292447D02*
X182498516Y-76477672D01*
X181353077Y-80708271D02*
X180542221Y-76893495D01*
X183309372Y-80292447D02*
X181353077Y-80708271D01*
X200547614Y-115579551D02*
X199736758Y-111764776D01*
X198591319Y-115995375D02*
X197780463Y-112180599D01*
X200547614Y-115579551D02*
X198591319Y-115995375D01*
X352749949Y-125707503D02*
X352749949Y-121807503D01*
X350749949Y-125707503D02*
X350749949Y-121807503D01*
X352749949Y-125707503D02*
X350749949Y-125707503D01*
X263345000Y-43244615D02*
X263345000Y-39344615D01*
X261345000Y-43244615D02*
X261345000Y-39344615D01*
X263345000Y-43244615D02*
X261345000Y-43244615D01*
X126093617Y-71446821D02*
X126904473Y-67632045D01*
X124137322Y-71030997D02*
X124948178Y-67216222D01*
X126093617Y-71446821D02*
X124137322Y-71030997D01*
X98360346Y-21908744D02*
X99171202Y-18093968D01*
X96404051Y-21492920D02*
X97214907Y-17678145D01*
X98360346Y-21908744D02*
X96404051Y-21492920D01*
X158004990Y-58754178D02*
X158815846Y-54939402D01*
X156048695Y-58338354D02*
X156859551Y-54523579D01*
X158004990Y-58754178D02*
X156048695Y-58338354D01*
X140156551Y-30302239D02*
X140967407Y-26487463D01*
X138200256Y-29886415D02*
X139011112Y-26071640D01*
X140156551Y-30302239D02*
X138200256Y-29886415D01*
X188665599Y-59678348D02*
X187854743Y-55863573D01*
X186709304Y-60094172D02*
X185898448Y-56279396D01*
X188665599Y-59678348D02*
X186709304Y-60094172D01*
X237815037Y-107658116D02*
X237004181Y-103843341D01*
X235858742Y-108073940D02*
X235047886Y-104259164D01*
X237815037Y-107658116D02*
X235858742Y-108073940D01*
X352749949Y-78082519D02*
X352749949Y-74182519D01*
X350749949Y-78082519D02*
X350749949Y-74182519D01*
X352749949Y-78082519D02*
X350749949Y-78082519D01*
X256448749Y-103697398D02*
X255637893Y-99882623D01*
X254492454Y-104113222D02*
X253681598Y-100298446D01*
X256448749Y-103697398D02*
X254492454Y-104113222D01*
X219181326Y-111618833D02*
X218370470Y-107804058D01*
X217225031Y-112034657D02*
X216414175Y-108219881D01*
X219181326Y-111618833D02*
X217225031Y-112034657D01*
X320495000Y-44745000D02*
X320495000Y-40845000D01*
X318495000Y-44745000D02*
X318495000Y-40845000D01*
X320495000Y-44745000D02*
X318495000Y-44745000D01*
X344307542Y-39982509D02*
X344307542Y-36082509D01*
X342307542Y-39982509D02*
X342307542Y-36082509D01*
X344307542Y-39982509D02*
X342307542Y-39982509D01*
X207009058Y-31345521D02*
X206198202Y-27530746D01*
X205052763Y-31761345D02*
X204241907Y-27946569D01*
X207009058Y-31345521D02*
X205052763Y-31761345D01*
X267025000Y-82845000D02*
X267025000Y-78945000D01*
X265025000Y-82845000D02*
X265025000Y-78945000D01*
X267025000Y-82845000D02*
X265025000Y-82845000D01*
X319905000Y-63795000D02*
X319905000Y-59895000D01*
X317905000Y-63795000D02*
X317905000Y-59895000D01*
X319905000Y-63795000D02*
X317905000Y-63795000D01*
X108157574Y-87109988D02*
X108968430Y-83295212D01*
X106201279Y-86694164D02*
X107012135Y-82879389D01*
X108157574Y-87109988D02*
X106201279Y-86694164D01*
X113513656Y-107724056D02*
X114324512Y-103909280D01*
X111557361Y-107308232D02*
X112368217Y-103493457D01*
X113513656Y-107724056D02*
X111557361Y-107308232D01*
X132147365Y-111684783D02*
X132958221Y-107870007D01*
X130191070Y-111268959D02*
X131001926Y-107454184D01*
X132147365Y-111684783D02*
X130191070Y-111268959D01*
X95577647Y-123387218D02*
X96388503Y-119572442D01*
X93621352Y-122971394D02*
X94432208Y-119156619D01*
X95577647Y-123387218D02*
X93621352Y-122971394D01*
X83215000Y-43244615D02*
X83215000Y-39344615D01*
X81215000Y-43244615D02*
X81215000Y-39344615D01*
X83215000Y-43244615D02*
X81215000Y-43244615D01*
X107459907Y-67486094D02*
X108270763Y-63671318D01*
X105503612Y-67070270D02*
X106314468Y-63255495D01*
X107459907Y-67486094D02*
X105503612Y-67070270D01*
X268550000Y-19975000D02*
X268550000Y-16075000D01*
X266550000Y-19975000D02*
X266550000Y-16075000D01*
X268550000Y-19975000D02*
X266550000Y-19975000D01*
X145424994Y-95031442D02*
X146235850Y-91216666D01*
X143468699Y-94615618D02*
X144279555Y-90800843D01*
X145424994Y-95031442D02*
X143468699Y-94615618D01*
X120737566Y-50832743D02*
X121548422Y-47017967D01*
X118781271Y-50416919D02*
X119592127Y-46602144D01*
X120737566Y-50832743D02*
X118781271Y-50416919D01*
X88826197Y-63525368D02*
X89637053Y-59710592D01*
X86869902Y-63109544D02*
X87680758Y-59294769D01*
X88826197Y-63525368D02*
X86869902Y-63109544D01*
X249109058Y-22545521D02*
X248298202Y-18730746D01*
X247152763Y-22961345D02*
X246341907Y-19146569D01*
X249109058Y-22545521D02*
X247152763Y-22961345D01*
X348480000Y-59032516D02*
X348480000Y-55132516D01*
X346480000Y-59032516D02*
X346480000Y-55132516D01*
X348480000Y-59032516D02*
X346480000Y-59032516D01*
X287500000Y-20025000D02*
X287500000Y-16125000D01*
X285500000Y-20025000D02*
X285500000Y-16125000D01*
X287500000Y-20025000D02*
X285500000Y-20025000D01*
X276550019Y-101894998D02*
X276550019Y-97994998D01*
X274550019Y-101894998D02*
X274550019Y-97994998D01*
X276550019Y-101894998D02*
X274550019Y-101894998D01*
X156137212Y-136259539D02*
X156948068Y-132444763D01*
X154180917Y-135843715D02*
X154991773Y-132028940D01*
X156137212Y-136259539D02*
X154180917Y-135843715D01*
X191928493Y-97935999D02*
X191117637Y-94121224D01*
X189972198Y-98351823D02*
X189161342Y-94537047D01*
X191928493Y-97935999D02*
X189972198Y-98351823D01*
X59350000Y-19875000D02*
X59350000Y-15975000D01*
X57350000Y-19875000D02*
X57350000Y-15975000D01*
X59350000Y-19875000D02*
X57350000Y-19875000D01*
X78650000Y-19975000D02*
X78650000Y-16075000D01*
X76650000Y-19975000D02*
X76650000Y-16075000D01*
X78650000Y-19975000D02*
X76650000Y-19975000D01*
X139371278Y-54708744D02*
X140182134Y-50893968D01*
X137414983Y-54292920D02*
X138225839Y-50478145D01*
X139371278Y-54708744D02*
X137414983Y-54292920D01*
X186025314Y-16420894D02*
X186025314Y-17420894D01*
X184325314Y-17420894D02*
X184325314Y-16420894D01*
X186611314Y-16277894D02*
X186611314Y-15277894D01*
X188311314Y-15277894D02*
X188311314Y-16277894D01*
X182293314Y-6752894D02*
X182293314Y-5752894D01*
X183993314Y-5752894D02*
X183993314Y-6752894D01*
X180261314Y-6752894D02*
X180261314Y-5752894D01*
X181961314Y-5752894D02*
X181961314Y-6752894D01*
X166391314Y-13198894D02*
X165391314Y-13198894D01*
X165391314Y-11498894D02*
X166391314Y-11498894D01*
X166391314Y-15230894D02*
X165391314Y-15230894D01*
X165391314Y-13530894D02*
X166391314Y-13530894D01*
X180357314Y-25468894D02*
X181357314Y-25468894D01*
X181357314Y-27168894D02*
X180357314Y-27168894D01*
X164620000Y-20994000D02*
X165620000Y-20994000D01*
X165620000Y-22694000D02*
X164620000Y-22694000D01*
X187957314Y-11244894D02*
X188957314Y-11244894D01*
X188957314Y-12944894D02*
X187957314Y-12944894D01*
X219229314Y-3770894D02*
X220559314Y-3770894D01*
X219229314Y-2440894D02*
X219229314Y-3770894D01*
X219229314Y-1170894D02*
X221889314Y-1170894D01*
X221889314Y-1170894D02*
X221889314Y-1110894D01*
X219229314Y-1170894D02*
X219229314Y-1110894D01*
X219229314Y-1110894D02*
X221889314Y-1110894D01*
X216865314Y-3772894D02*
X218195314Y-3772894D01*
X216865314Y-2442894D02*
X216865314Y-3772894D01*
X216865314Y-1172894D02*
X219525314Y-1172894D01*
X219525314Y-1172894D02*
X219525314Y-1112894D01*
X216865314Y-1172894D02*
X216865314Y-1112894D01*
X216865314Y-1112894D02*
X219525314Y-1112894D01*
X214325314Y-3772894D02*
X215655314Y-3772894D01*
X214325314Y-2442894D02*
X214325314Y-3772894D01*
X214325314Y-1172894D02*
X216985314Y-1172894D01*
X216985314Y-1172894D02*
X216985314Y-1112894D01*
X214325314Y-1172894D02*
X214325314Y-1112894D01*
X214325314Y-1112894D02*
X216985314Y-1112894D01*
X211785314Y-3772894D02*
X213115314Y-3772894D01*
X211785314Y-2442894D02*
X211785314Y-3772894D01*
X211785314Y-1172894D02*
X214445314Y-1172894D01*
X214445314Y-1172894D02*
X214445314Y-1112894D01*
X211785314Y-1172894D02*
X211785314Y-1112894D01*
X211785314Y-1112894D02*
X214445314Y-1112894D01*
X209245314Y-3772894D02*
X210575314Y-3772894D01*
X209245314Y-2442894D02*
X209245314Y-3772894D01*
X209245314Y-1172894D02*
X211905314Y-1172894D01*
X211905314Y-1172894D02*
X211905314Y-1112894D01*
X209245314Y-1172894D02*
X209245314Y-1112894D01*
X209245314Y-1112894D02*
X211905314Y-1112894D01*
X206705314Y-3772894D02*
X208035314Y-3772894D01*
X206705314Y-2442894D02*
X206705314Y-3772894D01*
X206705314Y-1172894D02*
X209365314Y-1172894D01*
X209365314Y-1172894D02*
X209365314Y-1112894D01*
X206705314Y-1172894D02*
X206705314Y-1112894D01*
X206705314Y-1112894D02*
X209365314Y-1112894D01*
X137363314Y-3772894D02*
X138693314Y-3772894D01*
X137363314Y-2442894D02*
X137363314Y-3772894D01*
X137363314Y-1172894D02*
X140023314Y-1172894D01*
X140023314Y-1172894D02*
X140023314Y-1112894D01*
X137363314Y-1172894D02*
X137363314Y-1112894D01*
X137363314Y-1112894D02*
X140023314Y-1112894D01*
X134823314Y-3772894D02*
X136153314Y-3772894D01*
X134823314Y-2442894D02*
X134823314Y-3772894D01*
X134823314Y-1172894D02*
X137483314Y-1172894D01*
X137483314Y-1172894D02*
X137483314Y-1112894D01*
X134823314Y-1172894D02*
X134823314Y-1112894D01*
X134823314Y-1112894D02*
X137483314Y-1112894D01*
X139920000Y-3772894D02*
X141250000Y-3772894D01*
X139920000Y-2442894D02*
X139920000Y-3772894D01*
X139920000Y-1172894D02*
X142580000Y-1172894D01*
X142580000Y-1172894D02*
X142580000Y-1112894D01*
X139920000Y-1172894D02*
X139920000Y-1112894D01*
X139920000Y-1112894D02*
X142580000Y-1112894D01*
X161391314Y-6642894D02*
X160191314Y-6642894D01*
X160191314Y-8402894D02*
X161391314Y-8402894D01*
X160191314Y-6370894D02*
X161391314Y-6370894D01*
X161391314Y-4610894D02*
X160191314Y-4610894D01*
X193439314Y-4382894D02*
X193439314Y-5582894D01*
X195199314Y-5582894D02*
X195199314Y-4382894D01*
X168801314Y-27162894D02*
X168801314Y-28362894D01*
X170561314Y-28362894D02*
X170561314Y-27162894D01*
X202427314Y-2232894D02*
X199927314Y-2232894D01*
X203927314Y-3982894D02*
X203927314Y-5982894D01*
X202427314Y-7732894D02*
X199927314Y-7732894D01*
X198427314Y-3982894D02*
X198427314Y-5982894D01*
X202877314Y-2682894D02*
X202427314Y-2232894D01*
X199477314Y-2682894D02*
X199927314Y-2232894D01*
X199477314Y-7282894D02*
X199927314Y-7732894D01*
X202877314Y-7282894D02*
X202427314Y-7732894D01*
X194541583Y-18906150D02*
X189865045Y-16206150D01*
X196741583Y-15095638D02*
X194541583Y-18906150D01*
X165733314Y-4896894D02*
X167533314Y-4896894D01*
X167533314Y-8116894D02*
X164583314Y-8116894D01*
D13*
X170923314Y-13015894D02*
X170923314Y-11740894D01*
X170348314Y-23365894D02*
X170348314Y-22690894D01*
X180698314Y-23365894D02*
X180698314Y-22690894D01*
X180698314Y-13015894D02*
X180698314Y-13690894D01*
X170348314Y-13015894D02*
X170348314Y-13690894D01*
X180698314Y-13015894D02*
X180023314Y-13015894D01*
X180698314Y-23365894D02*
X180023314Y-23365894D01*
X170348314Y-23365894D02*
X171023314Y-23365894D01*
X170348314Y-13015894D02*
X170923314Y-13015894D01*
D12*
X150063314Y-3772894D02*
X151393314Y-3772894D01*
X150063314Y-2442894D02*
X150063314Y-3772894D01*
X150063314Y-1172894D02*
X152723314Y-1172894D01*
X152723314Y-1172894D02*
X152723314Y-1112894D01*
X150063314Y-1172894D02*
X150063314Y-1112894D01*
X150063314Y-1112894D02*
X152723314Y-1112894D01*
X144983314Y-3772894D02*
X146313314Y-3772894D01*
X144983314Y-2442894D02*
X144983314Y-3772894D01*
X144983314Y-1172894D02*
X147643314Y-1172894D01*
X147643314Y-1172894D02*
X147643314Y-1112894D01*
X144983314Y-1172894D02*
X144983314Y-1112894D01*
X144983314Y-1112894D02*
X147643314Y-1112894D01*
X147523314Y-1112894D02*
X150183314Y-1112894D01*
X147523314Y-1172894D02*
X147523314Y-1112894D01*
X150183314Y-1172894D02*
X150183314Y-1112894D01*
X147523314Y-1172894D02*
X150183314Y-1172894D01*
X147523314Y-2442894D02*
X147523314Y-3772894D01*
X147523314Y-3772894D02*
X148853314Y-3772894D01*
X142443314Y-1112894D02*
X145103314Y-1112894D01*
X142443314Y-1172894D02*
X142443314Y-1112894D01*
X145103314Y-1172894D02*
X145103314Y-1112894D01*
X142443314Y-1172894D02*
X145103314Y-1172894D01*
X142443314Y-2442894D02*
X142443314Y-3772894D01*
X142443314Y-3772894D02*
X143773314Y-3772894D01*
D13*
X178499047Y-4121904D02*
X178499047Y-4769523D01*
X178460952Y-4845714D01*
X178422857Y-4883809D01*
X178346666Y-4921904D01*
X178194285Y-4921904D01*
X178118095Y-4883809D01*
X178080000Y-4845714D01*
X178041904Y-4769523D01*
X178041904Y-4121904D01*
X177699047Y-4883809D02*
X177584761Y-4921904D01*
X177394285Y-4921904D01*
X177318095Y-4883809D01*
X177280000Y-4845714D01*
X177241904Y-4769523D01*
X177241904Y-4693333D01*
X177280000Y-4617142D01*
X177318095Y-4579047D01*
X177394285Y-4540952D01*
X177546666Y-4502857D01*
X177622857Y-4464761D01*
X177660952Y-4426666D01*
X177699047Y-4350476D01*
X177699047Y-4274285D01*
X177660952Y-4198095D01*
X177622857Y-4160000D01*
X177546666Y-4121904D01*
X177356190Y-4121904D01*
X177241904Y-4160000D01*
X176632380Y-4502857D02*
X176518095Y-4540952D01*
X176480000Y-4579047D01*
X176441904Y-4655238D01*
X176441904Y-4769523D01*
X176480000Y-4845714D01*
X176518095Y-4883809D01*
X176594285Y-4921904D01*
X176899047Y-4921904D01*
X176899047Y-4121904D01*
X176632380Y-4121904D01*
X176556190Y-4160000D01*
X176518095Y-4198095D01*
X176480000Y-4274285D01*
X176480000Y-4350476D01*
X176518095Y-4426666D01*
X176556190Y-4464761D01*
X176632380Y-4502857D01*
X176899047Y-4502857D01*
X176289523Y-4998095D02*
X175680000Y-4998095D01*
X175222857Y-4502857D02*
X175108571Y-4540952D01*
X175070476Y-4579047D01*
X175032380Y-4655238D01*
X175032380Y-4769523D01*
X175070476Y-4845714D01*
X175108571Y-4883809D01*
X175184761Y-4921904D01*
X175489523Y-4921904D01*
X175489523Y-4121904D01*
X175222857Y-4121904D01*
X175146666Y-4160000D01*
X175108571Y-4198095D01*
X175070476Y-4274285D01*
X175070476Y-4350476D01*
X175108571Y-4426666D01*
X175146666Y-4464761D01*
X175222857Y-4502857D01*
X175489523Y-4502857D01*
X174880000Y-4998095D02*
X174270476Y-4998095D01*
X174080000Y-4921904D02*
X174080000Y-4121904D01*
X173813333Y-4693333D01*
X173546666Y-4121904D01*
X173546666Y-4921904D01*
X173165714Y-4921904D02*
X173165714Y-4388571D01*
X173165714Y-4121904D02*
X173203809Y-4160000D01*
X173165714Y-4198095D01*
X173127619Y-4160000D01*
X173165714Y-4121904D01*
X173165714Y-4198095D01*
X172784761Y-4388571D02*
X172784761Y-4921904D01*
X172784761Y-4464761D02*
X172746666Y-4426666D01*
X172670476Y-4388571D01*
X172556190Y-4388571D01*
X172480000Y-4426666D01*
X172441904Y-4502857D01*
X172441904Y-4921904D01*
X172060952Y-4921904D02*
X172060952Y-4388571D01*
X172060952Y-4121904D02*
X172099047Y-4160000D01*
X172060952Y-4198095D01*
X172022857Y-4160000D01*
X172060952Y-4121904D01*
X172060952Y-4198095D01*
X302897380Y-41280714D02*
X301897380Y-41280714D01*
X301897380Y-41518809D01*
X301945000Y-41661666D01*
X302040238Y-41756904D01*
X302135476Y-41804523D01*
X302325952Y-41852142D01*
X302468809Y-41852142D01*
X302659285Y-41804523D01*
X302754523Y-41756904D01*
X302849761Y-41661666D01*
X302897380Y-41518809D01*
X302897380Y-41280714D01*
X301897380Y-42756904D02*
X301897380Y-42280714D01*
X302373571Y-42233095D01*
X302325952Y-42280714D01*
X302278333Y-42375952D01*
X302278333Y-42614047D01*
X302325952Y-42709285D01*
X302373571Y-42756904D01*
X302468809Y-42804523D01*
X302706904Y-42804523D01*
X302802142Y-42756904D01*
X302849761Y-42709285D01*
X302897380Y-42614047D01*
X302897380Y-42375952D01*
X302849761Y-42280714D01*
X302802142Y-42233095D01*
X302897380Y-43280714D02*
X302897380Y-43471190D01*
X302849761Y-43566428D01*
X302802142Y-43614047D01*
X302659285Y-43709285D01*
X302468809Y-43756904D01*
X302087857Y-43756904D01*
X301992619Y-43709285D01*
X301945000Y-43661666D01*
X301897380Y-43566428D01*
X301897380Y-43375952D01*
X301945000Y-43280714D01*
X301992619Y-43233095D01*
X302087857Y-43185476D01*
X302325952Y-43185476D01*
X302421190Y-43233095D01*
X302468809Y-43280714D01*
X302516428Y-43375952D01*
X302516428Y-43566428D01*
X302468809Y-43661666D01*
X302421190Y-43709285D01*
X302325952Y-43756904D01*
X46567380Y-41756904D02*
X45567380Y-41756904D01*
X45567380Y-41995000D01*
X45615000Y-42137857D01*
X45710238Y-42233095D01*
X45805476Y-42280714D01*
X45995952Y-42328333D01*
X46138809Y-42328333D01*
X46329285Y-42280714D01*
X46424523Y-42233095D01*
X46519761Y-42137857D01*
X46567380Y-41995000D01*
X46567380Y-41756904D01*
X46567380Y-43280714D02*
X46567380Y-42709285D01*
X46567380Y-42995000D02*
X45567380Y-42995000D01*
X45710238Y-42899761D01*
X45805476Y-42804523D01*
X45853095Y-42709285D01*
X40882580Y-79856904D02*
X39882580Y-79856904D01*
X39882580Y-80095000D01*
X39930200Y-80237857D01*
X40025438Y-80333095D01*
X40120676Y-80380714D01*
X40311152Y-80428333D01*
X40454009Y-80428333D01*
X40644485Y-80380714D01*
X40739723Y-80333095D01*
X40834961Y-80237857D01*
X40882580Y-80095000D01*
X40882580Y-79856904D01*
X39882580Y-80761666D02*
X39882580Y-81380714D01*
X40263533Y-81047380D01*
X40263533Y-81190238D01*
X40311152Y-81285476D01*
X40358771Y-81333095D01*
X40454009Y-81380714D01*
X40692104Y-81380714D01*
X40787342Y-81333095D01*
X40834961Y-81285476D01*
X40882580Y-81190238D01*
X40882580Y-80904523D01*
X40834961Y-80809285D01*
X40787342Y-80761666D01*
X91664772Y-80062644D02*
X90686624Y-79854732D01*
X90637122Y-80087625D01*
X90653998Y-80237261D01*
X90727354Y-80350219D01*
X90810611Y-80416598D01*
X90987024Y-80502779D01*
X91126759Y-80532481D01*
X91322974Y-80525504D01*
X91426031Y-80498727D01*
X91538989Y-80425371D01*
X91615269Y-80295536D01*
X91664772Y-80062644D01*
X91347954Y-81553155D02*
X91466761Y-80994213D01*
X91407358Y-81273684D02*
X90429210Y-81065772D01*
X90588746Y-81002317D01*
X90701704Y-80928961D01*
X90768084Y-80845705D01*
X90383759Y-81737672D02*
X90327280Y-81774350D01*
X90260901Y-81857606D01*
X90211398Y-82090498D01*
X90238175Y-82193556D01*
X90274853Y-82250035D01*
X90358109Y-82316414D01*
X90451266Y-82336216D01*
X90600902Y-82319339D01*
X91278650Y-81879204D01*
X91149943Y-82484724D01*
X97020854Y-100676713D02*
X96042706Y-100468801D01*
X95993204Y-100701694D01*
X96010080Y-100851330D01*
X96083436Y-100964288D01*
X96166693Y-101030667D01*
X96343106Y-101116848D01*
X96482841Y-101146550D01*
X96679056Y-101139573D01*
X96782113Y-101112796D01*
X96895071Y-101039440D01*
X96971351Y-100909605D01*
X97020854Y-100676713D01*
X96704036Y-102167224D02*
X96822843Y-101608282D01*
X96763440Y-101887753D02*
X95785292Y-101679841D01*
X95944828Y-101616386D01*
X96057786Y-101543030D01*
X96124166Y-101459774D01*
X95656585Y-102285361D02*
X95527877Y-102890881D01*
X95969809Y-102644036D01*
X95940107Y-102783772D01*
X95966885Y-102886829D01*
X96003563Y-102943308D01*
X96086819Y-103009688D01*
X96319711Y-103059191D01*
X96422769Y-103032413D01*
X96479248Y-102995735D01*
X96545627Y-102912479D01*
X96605031Y-102633008D01*
X96578253Y-102529951D01*
X96541575Y-102473472D01*
X283847380Y-41280714D02*
X282847380Y-41280714D01*
X282847380Y-41518809D01*
X282895000Y-41661666D01*
X282990238Y-41756904D01*
X283085476Y-41804523D01*
X283275952Y-41852142D01*
X283418809Y-41852142D01*
X283609285Y-41804523D01*
X283704523Y-41756904D01*
X283799761Y-41661666D01*
X283847380Y-41518809D01*
X283847380Y-41280714D01*
X282847380Y-42756904D02*
X282847380Y-42280714D01*
X283323571Y-42233095D01*
X283275952Y-42280714D01*
X283228333Y-42375952D01*
X283228333Y-42614047D01*
X283275952Y-42709285D01*
X283323571Y-42756904D01*
X283418809Y-42804523D01*
X283656904Y-42804523D01*
X283752142Y-42756904D01*
X283799761Y-42709285D01*
X283847380Y-42614047D01*
X283847380Y-42375952D01*
X283799761Y-42280714D01*
X283752142Y-42233095D01*
X282847380Y-43709285D02*
X282847380Y-43233095D01*
X283323571Y-43185476D01*
X283275952Y-43233095D01*
X283228333Y-43328333D01*
X283228333Y-43566428D01*
X283275952Y-43661666D01*
X283323571Y-43709285D01*
X283418809Y-43756904D01*
X283656904Y-43756904D01*
X283752142Y-43709285D01*
X283799761Y-43661666D01*
X283847380Y-43566428D01*
X283847380Y-43328333D01*
X283799761Y-43233095D01*
X283752142Y-43185476D01*
X146868235Y-72320931D02*
X145890087Y-72113019D01*
X145840585Y-72345912D01*
X145857461Y-72495548D01*
X145930817Y-72608506D01*
X146014074Y-72674885D01*
X146190487Y-72761066D01*
X146330222Y-72790768D01*
X146526437Y-72783791D01*
X146629494Y-72757014D01*
X146742452Y-72683658D01*
X146818732Y-72553823D01*
X146868235Y-72320931D01*
X145785233Y-73064390D02*
X145728754Y-73101068D01*
X145662375Y-73184324D01*
X145612872Y-73417216D01*
X145639649Y-73520274D01*
X145676327Y-73576753D01*
X145759583Y-73643132D01*
X145852740Y-73662933D01*
X146002376Y-73646057D01*
X146680124Y-73205922D01*
X146551417Y-73811442D01*
X145385159Y-74488521D02*
X145484165Y-74022736D01*
X145959850Y-74075163D01*
X145903371Y-74111841D01*
X145836991Y-74195098D01*
X145787488Y-74427990D01*
X145814266Y-74531047D01*
X145850944Y-74587526D01*
X145934200Y-74653906D01*
X146167092Y-74703409D01*
X146270150Y-74676631D01*
X146326629Y-74639953D01*
X146393008Y-74556697D01*
X146442511Y-74323805D01*
X146415734Y-74220747D01*
X146379056Y-74164268D01*
X304196149Y-98430712D02*
X303196149Y-98430712D01*
X303196149Y-98668807D01*
X303243769Y-98811664D01*
X303339007Y-98906902D01*
X303434245Y-98954521D01*
X303624721Y-99002140D01*
X303767578Y-99002140D01*
X303958054Y-98954521D01*
X304053292Y-98906902D01*
X304148530Y-98811664D01*
X304196149Y-98668807D01*
X304196149Y-98430712D01*
X303196149Y-99906902D02*
X303196149Y-99430712D01*
X303672340Y-99383093D01*
X303624721Y-99430712D01*
X303577102Y-99525950D01*
X303577102Y-99764045D01*
X303624721Y-99859283D01*
X303672340Y-99906902D01*
X303767578Y-99954521D01*
X304005673Y-99954521D01*
X304100911Y-99906902D01*
X304148530Y-99859283D01*
X304196149Y-99764045D01*
X304196149Y-99525950D01*
X304148530Y-99430712D01*
X304100911Y-99383093D01*
X303529483Y-100811664D02*
X304196149Y-100811664D01*
X303148530Y-100573569D02*
X303862816Y-100335474D01*
X303862816Y-100954521D01*
X297537380Y-60330714D02*
X296537380Y-60330714D01*
X296537380Y-60568809D01*
X296585000Y-60711666D01*
X296680238Y-60806904D01*
X296775476Y-60854523D01*
X296965952Y-60902142D01*
X297108809Y-60902142D01*
X297299285Y-60854523D01*
X297394523Y-60806904D01*
X297489761Y-60711666D01*
X297537380Y-60568809D01*
X297537380Y-60330714D01*
X296537380Y-61806904D02*
X296537380Y-61330714D01*
X297013571Y-61283095D01*
X296965952Y-61330714D01*
X296918333Y-61425952D01*
X296918333Y-61664047D01*
X296965952Y-61759285D01*
X297013571Y-61806904D01*
X297108809Y-61854523D01*
X297346904Y-61854523D01*
X297442142Y-61806904D01*
X297489761Y-61759285D01*
X297537380Y-61664047D01*
X297537380Y-61425952D01*
X297489761Y-61330714D01*
X297442142Y-61283095D01*
X296537380Y-62711666D02*
X296537380Y-62521190D01*
X296585000Y-62425952D01*
X296632619Y-62378333D01*
X296775476Y-62283095D01*
X296965952Y-62235476D01*
X297346904Y-62235476D01*
X297442142Y-62283095D01*
X297489761Y-62330714D01*
X297537380Y-62425952D01*
X297537380Y-62616428D01*
X297489761Y-62711666D01*
X297442142Y-62759285D01*
X297346904Y-62806904D01*
X297108809Y-62806904D01*
X297013571Y-62759285D01*
X296965952Y-62711666D01*
X296918333Y-62616428D01*
X296918333Y-62425952D01*
X296965952Y-62330714D01*
X297013571Y-62283095D01*
X297108809Y-62235476D01*
X160864363Y-31669526D02*
X159886215Y-31461614D01*
X159836713Y-31694507D01*
X159853589Y-31844143D01*
X159926945Y-31957101D01*
X160010202Y-32023480D01*
X160186615Y-32109661D01*
X160326350Y-32139363D01*
X160522565Y-32132386D01*
X160625622Y-32105609D01*
X160738580Y-32032253D01*
X160814860Y-31902418D01*
X160864363Y-31669526D01*
X159698105Y-32346605D02*
X159559497Y-32998704D01*
X160626750Y-32787409D01*
X159717237Y-33859841D02*
X160369335Y-33998449D01*
X159394112Y-33547744D02*
X160142292Y-33463361D01*
X160013584Y-34068880D01*
X188866263Y-34265982D02*
X189844411Y-34058071D01*
X189794908Y-33825178D01*
X189718628Y-33695344D01*
X189605670Y-33621988D01*
X189502613Y-33595211D01*
X189306398Y-33588234D01*
X189166663Y-33617936D01*
X188990250Y-33704117D01*
X188906993Y-33770496D01*
X188833637Y-33883454D01*
X188816761Y-34033090D01*
X188866263Y-34265982D01*
X189656300Y-33173080D02*
X189517693Y-32520982D01*
X188628650Y-33148099D01*
X189339483Y-31682569D02*
X189438488Y-32148354D01*
X188982604Y-32293938D01*
X189019282Y-32237459D01*
X189046059Y-32134402D01*
X188996557Y-31901509D01*
X188930177Y-31818253D01*
X188873698Y-31781575D01*
X188770641Y-31754798D01*
X188537748Y-31804300D01*
X188454492Y-31870680D01*
X188417814Y-31927159D01*
X188391037Y-32030217D01*
X188440539Y-32263109D01*
X188506919Y-32346365D01*
X188563398Y-32383043D01*
X211816329Y-131601020D02*
X212794477Y-131393109D01*
X212744974Y-131160216D01*
X212668694Y-131030382D01*
X212555736Y-130957026D01*
X212452679Y-130930249D01*
X212256464Y-130923272D01*
X212116729Y-130952974D01*
X211940316Y-131039155D01*
X211857059Y-131105534D01*
X211783703Y-131218492D01*
X211766827Y-131368128D01*
X211816329Y-131601020D01*
X212606366Y-130508118D02*
X212477659Y-129902598D01*
X212174335Y-130307852D01*
X212144634Y-130168116D01*
X212078254Y-130084860D01*
X212021775Y-130048182D01*
X211918718Y-130021405D01*
X211685825Y-130070908D01*
X211602569Y-130137287D01*
X211565891Y-130193766D01*
X211539114Y-130296824D01*
X211598517Y-130576294D01*
X211664897Y-130659551D01*
X211721376Y-130696229D01*
X212408355Y-129576549D02*
X212269747Y-128924451D01*
X211380705Y-129551568D01*
X287527380Y-79380714D02*
X286527380Y-79380714D01*
X286527380Y-79618809D01*
X286575000Y-79761666D01*
X286670238Y-79856904D01*
X286765476Y-79904523D01*
X286955952Y-79952142D01*
X287098809Y-79952142D01*
X287289285Y-79904523D01*
X287384523Y-79856904D01*
X287479761Y-79761666D01*
X287527380Y-79618809D01*
X287527380Y-79380714D01*
X286527380Y-80856904D02*
X286527380Y-80380714D01*
X287003571Y-80333095D01*
X286955952Y-80380714D01*
X286908333Y-80475952D01*
X286908333Y-80714047D01*
X286955952Y-80809285D01*
X287003571Y-80856904D01*
X287098809Y-80904523D01*
X287336904Y-80904523D01*
X287432142Y-80856904D01*
X287479761Y-80809285D01*
X287527380Y-80714047D01*
X287527380Y-80475952D01*
X287479761Y-80380714D01*
X287432142Y-80333095D01*
X286527380Y-81237857D02*
X286527380Y-81856904D01*
X286908333Y-81523571D01*
X286908333Y-81666428D01*
X286955952Y-81761666D01*
X287003571Y-81809285D01*
X287098809Y-81856904D01*
X287336904Y-81856904D01*
X287432142Y-81809285D01*
X287479761Y-81761666D01*
X287527380Y-81666428D01*
X287527380Y-81380714D01*
X287479761Y-81285476D01*
X287432142Y-81237857D01*
X128932192Y-87984098D02*
X127954044Y-87776186D01*
X127904542Y-88009079D01*
X127921418Y-88158715D01*
X127994774Y-88271673D01*
X128078031Y-88338052D01*
X128254444Y-88424233D01*
X128394179Y-88453935D01*
X128590394Y-88446958D01*
X128693451Y-88420181D01*
X128806409Y-88346825D01*
X128882689Y-88216990D01*
X128932192Y-87984098D01*
X127849190Y-88727557D02*
X127792711Y-88764235D01*
X127726332Y-88847491D01*
X127676829Y-89080383D01*
X127703606Y-89183441D01*
X127740284Y-89239920D01*
X127823540Y-89306299D01*
X127916697Y-89326100D01*
X128066333Y-89309224D01*
X128744081Y-88869089D01*
X128615374Y-89474609D01*
X128417363Y-90406178D02*
X128536170Y-89847236D01*
X128476766Y-90126707D02*
X127498619Y-89918795D01*
X127658155Y-89855340D01*
X127771113Y-89781984D01*
X127837493Y-89698728D01*
X104244763Y-43785408D02*
X103266615Y-43577496D01*
X103217113Y-43810389D01*
X103233989Y-43960025D01*
X103307345Y-44072983D01*
X103390602Y-44139362D01*
X103567015Y-44225543D01*
X103706750Y-44255245D01*
X103902965Y-44248268D01*
X104006022Y-44221491D01*
X104118980Y-44148135D01*
X104195260Y-44018300D01*
X104244763Y-43785408D01*
X103927945Y-45275919D02*
X104046752Y-44716977D01*
X103987349Y-44996448D02*
X103009201Y-44788536D01*
X103168737Y-44725081D01*
X103281695Y-44651725D01*
X103348075Y-44568469D01*
X102761687Y-45952998D02*
X102860693Y-45487213D01*
X103336378Y-45539640D01*
X103279899Y-45576318D01*
X103213519Y-45659575D01*
X103164016Y-45892467D01*
X103190794Y-45995524D01*
X103227472Y-46052003D01*
X103310728Y-46118383D01*
X103543620Y-46167886D01*
X103646678Y-46141108D01*
X103703157Y-46104430D01*
X103769536Y-46021174D01*
X103819039Y-45788282D01*
X103792262Y-45685224D01*
X103755584Y-45628745D01*
X341702380Y-17435714D02*
X340702380Y-17435714D01*
X340702380Y-17673809D01*
X340750000Y-17816666D01*
X340845238Y-17911904D01*
X340940476Y-17959523D01*
X341130952Y-18007142D01*
X341273809Y-18007142D01*
X341464285Y-17959523D01*
X341559523Y-17911904D01*
X341654761Y-17816666D01*
X341702380Y-17673809D01*
X341702380Y-17435714D01*
X341130952Y-18578571D02*
X341083333Y-18483333D01*
X341035714Y-18435714D01*
X340940476Y-18388095D01*
X340892857Y-18388095D01*
X340797619Y-18435714D01*
X340750000Y-18483333D01*
X340702380Y-18578571D01*
X340702380Y-18769047D01*
X340750000Y-18864285D01*
X340797619Y-18911904D01*
X340892857Y-18959523D01*
X340940476Y-18959523D01*
X341035714Y-18911904D01*
X341083333Y-18864285D01*
X341130952Y-18769047D01*
X341130952Y-18578571D01*
X341178571Y-18483333D01*
X341226190Y-18435714D01*
X341321428Y-18388095D01*
X341511904Y-18388095D01*
X341607142Y-18435714D01*
X341654761Y-18483333D01*
X341702380Y-18578571D01*
X341702380Y-18769047D01*
X341654761Y-18864285D01*
X341607142Y-18911904D01*
X341511904Y-18959523D01*
X341321428Y-18959523D01*
X341226190Y-18911904D01*
X341178571Y-18864285D01*
X341130952Y-18769047D01*
X340797619Y-19340476D02*
X340750000Y-19388095D01*
X340702380Y-19483333D01*
X340702380Y-19721428D01*
X340750000Y-19816666D01*
X340797619Y-19864285D01*
X340892857Y-19911904D01*
X340988095Y-19911904D01*
X341130952Y-19864285D01*
X341702380Y-19292857D01*
X341702380Y-19911904D01*
X130327547Y-127231876D02*
X129349399Y-127023964D01*
X129299897Y-127256857D01*
X129316773Y-127406493D01*
X129390129Y-127519451D01*
X129473386Y-127585830D01*
X129649799Y-127672011D01*
X129789534Y-127701713D01*
X129985749Y-127694736D01*
X130088806Y-127667959D01*
X130201764Y-127594603D01*
X130278044Y-127464768D01*
X130327547Y-127231876D01*
X129244545Y-127975335D02*
X129188066Y-128012013D01*
X129121687Y-128095269D01*
X129072184Y-128328161D01*
X129098961Y-128431219D01*
X129135639Y-128487698D01*
X129218895Y-128554077D01*
X129312052Y-128573878D01*
X129461688Y-128557002D01*
X130139436Y-128116867D01*
X130010729Y-128722387D01*
X128963278Y-128840524D02*
X128834570Y-129446044D01*
X129276502Y-129199199D01*
X129246800Y-129338935D01*
X129273578Y-129441992D01*
X129310256Y-129498471D01*
X129393512Y-129564851D01*
X129626404Y-129614354D01*
X129729462Y-129587576D01*
X129785941Y-129550898D01*
X129852320Y-129467642D01*
X129911724Y-129188171D01*
X129884946Y-129085114D01*
X129848268Y-129028635D01*
X210882518Y-92848343D02*
X211860666Y-92640432D01*
X211811163Y-92407539D01*
X211734883Y-92277705D01*
X211621925Y-92204349D01*
X211518868Y-92177572D01*
X211322653Y-92170595D01*
X211182918Y-92200297D01*
X211006505Y-92286478D01*
X210923248Y-92352857D01*
X210849892Y-92465815D01*
X210833016Y-92615451D01*
X210882518Y-92848343D01*
X211672555Y-91755441D02*
X211543848Y-91149921D01*
X211240524Y-91555175D01*
X211210823Y-91415439D01*
X211144443Y-91332183D01*
X211087964Y-91295505D01*
X210984907Y-91268728D01*
X210752014Y-91318231D01*
X210668758Y-91384610D01*
X210632080Y-91441089D01*
X210605303Y-91544147D01*
X210664706Y-91823617D01*
X210731086Y-91906874D01*
X210787565Y-91943552D01*
X211355738Y-90264930D02*
X211454743Y-90730715D01*
X210998859Y-90876299D01*
X211035537Y-90819820D01*
X211062314Y-90716763D01*
X211012812Y-90483870D01*
X210946432Y-90400614D01*
X210889953Y-90363936D01*
X210786896Y-90337159D01*
X210554003Y-90386661D01*
X210470747Y-90453041D01*
X210434069Y-90509520D01*
X210407292Y-90612578D01*
X210456794Y-90845470D01*
X210523174Y-90928726D01*
X210579653Y-90965404D01*
X207679372Y-54518583D02*
X208657520Y-54310672D01*
X208608017Y-54077779D01*
X208531737Y-53947945D01*
X208418779Y-53874589D01*
X208315722Y-53847812D01*
X208119507Y-53840835D01*
X207979772Y-53870537D01*
X207803359Y-53956718D01*
X207720102Y-54023097D01*
X207646746Y-54136055D01*
X207629870Y-54285691D01*
X207679372Y-54518583D01*
X208469409Y-53425681D02*
X208340702Y-52820161D01*
X208037378Y-53225415D01*
X208007677Y-53085679D01*
X207941297Y-53002423D01*
X207884818Y-52965745D01*
X207781761Y-52938968D01*
X207548868Y-52988471D01*
X207465612Y-53054850D01*
X207428934Y-53111329D01*
X207402157Y-53214387D01*
X207461560Y-53493857D01*
X207527940Y-53577114D01*
X207584419Y-53613792D01*
X207802689Y-52350325D02*
X207869069Y-52433581D01*
X207925548Y-52470259D01*
X208028605Y-52497036D01*
X208075184Y-52487136D01*
X208158440Y-52420756D01*
X208195118Y-52364277D01*
X208221895Y-52261220D01*
X208182293Y-52074906D01*
X208115914Y-51991649D01*
X208059435Y-51954972D01*
X207956377Y-51928194D01*
X207909799Y-51938095D01*
X207826542Y-52004474D01*
X207789864Y-52060953D01*
X207763087Y-52164011D01*
X207802689Y-52350325D01*
X207775912Y-52453382D01*
X207739234Y-52509861D01*
X207655978Y-52576241D01*
X207469664Y-52615843D01*
X207366606Y-52589066D01*
X207310127Y-52552388D01*
X207243748Y-52469131D01*
X207204146Y-52282818D01*
X207230923Y-52179760D01*
X207267601Y-52123281D01*
X207350857Y-52056901D01*
X207537171Y-52017299D01*
X207640229Y-52044077D01*
X207696708Y-52080754D01*
X207763087Y-52164011D01*
X152921983Y-112558893D02*
X151943835Y-112350981D01*
X151894333Y-112583874D01*
X151911209Y-112733510D01*
X151984565Y-112846468D01*
X152067822Y-112912847D01*
X152244235Y-112999028D01*
X152383970Y-113028730D01*
X152580185Y-113021753D01*
X152683242Y-112994976D01*
X152796200Y-112921620D01*
X152872480Y-112791785D01*
X152921983Y-112558893D01*
X151838981Y-113302352D02*
X151782502Y-113339030D01*
X151716123Y-113422286D01*
X151666620Y-113655178D01*
X151693397Y-113758236D01*
X151730075Y-113814715D01*
X151813331Y-113881094D01*
X151906488Y-113900895D01*
X152056124Y-113884019D01*
X152733872Y-113443884D01*
X152605165Y-114049404D01*
X151557714Y-114167541D02*
X151419106Y-114819640D01*
X152486359Y-114608345D01*
X220897109Y-71244074D02*
X221875257Y-71036163D01*
X221825754Y-70803270D01*
X221749474Y-70673436D01*
X221636516Y-70600080D01*
X221533459Y-70573303D01*
X221337244Y-70566326D01*
X221197509Y-70596028D01*
X221021096Y-70682209D01*
X220937839Y-70748588D01*
X220864483Y-70861546D01*
X220847607Y-71011182D01*
X220897109Y-71244074D01*
X221687146Y-70151172D02*
X221558439Y-69545652D01*
X221255115Y-69950906D01*
X221225414Y-69811170D01*
X221159034Y-69727914D01*
X221102555Y-69691236D01*
X220999498Y-69664459D01*
X220766605Y-69713962D01*
X220683349Y-69780341D01*
X220646671Y-69836820D01*
X220619894Y-69939878D01*
X220679297Y-70219348D01*
X220745677Y-70302605D01*
X220802156Y-70339283D01*
X220481286Y-69287779D02*
X220441684Y-69101465D01*
X220468461Y-68998408D01*
X220505139Y-68941929D01*
X220625073Y-68819070D01*
X220801487Y-68732890D01*
X221174114Y-68653685D01*
X221277172Y-68680463D01*
X221333651Y-68717140D01*
X221400030Y-68800397D01*
X221439632Y-68986711D01*
X221412855Y-69089768D01*
X221376177Y-69146247D01*
X221292921Y-69212627D01*
X221060029Y-69262129D01*
X220956971Y-69235352D01*
X220900492Y-69198674D01*
X220834113Y-69115418D01*
X220794510Y-68929104D01*
X220821288Y-68826047D01*
X220857966Y-68769568D01*
X220941222Y-68703188D01*
X278487380Y-60330714D02*
X277487380Y-60330714D01*
X277487380Y-60568809D01*
X277535000Y-60711666D01*
X277630238Y-60806904D01*
X277725476Y-60854523D01*
X277915952Y-60902142D01*
X278058809Y-60902142D01*
X278249285Y-60854523D01*
X278344523Y-60806904D01*
X278439761Y-60711666D01*
X278487380Y-60568809D01*
X278487380Y-60330714D01*
X277487380Y-61806904D02*
X277487380Y-61330714D01*
X277963571Y-61283095D01*
X277915952Y-61330714D01*
X277868333Y-61425952D01*
X277868333Y-61664047D01*
X277915952Y-61759285D01*
X277963571Y-61806904D01*
X278058809Y-61854523D01*
X278296904Y-61854523D01*
X278392142Y-61806904D01*
X278439761Y-61759285D01*
X278487380Y-61664047D01*
X278487380Y-61425952D01*
X278439761Y-61330714D01*
X278392142Y-61283095D01*
X277582619Y-62235476D02*
X277535000Y-62283095D01*
X277487380Y-62378333D01*
X277487380Y-62616428D01*
X277535000Y-62711666D01*
X277582619Y-62759285D01*
X277677857Y-62806904D01*
X277773095Y-62806904D01*
X277915952Y-62759285D01*
X278487380Y-62187857D01*
X278487380Y-62806904D01*
X244887048Y-46669257D02*
X245865196Y-46461346D01*
X245815693Y-46228453D01*
X245739413Y-46098619D01*
X245626455Y-46025263D01*
X245523398Y-45998486D01*
X245327183Y-45991509D01*
X245187448Y-46021211D01*
X245011035Y-46107392D01*
X244927778Y-46173771D01*
X244854422Y-46286729D01*
X244837546Y-46436365D01*
X244887048Y-46669257D01*
X245242130Y-45133296D02*
X244590032Y-45271904D01*
X245664260Y-45286984D02*
X245015086Y-45668384D01*
X244886379Y-45062864D01*
X245479074Y-44644786D02*
X245340466Y-43992688D01*
X244451424Y-44619805D01*
X229516230Y-88887626D02*
X230494378Y-88679715D01*
X230444875Y-88446822D01*
X230368595Y-88316988D01*
X230255637Y-88243632D01*
X230152580Y-88216855D01*
X229956365Y-88209878D01*
X229816630Y-88239580D01*
X229640217Y-88325761D01*
X229556960Y-88392140D01*
X229483604Y-88505098D01*
X229466728Y-88654734D01*
X229516230Y-88887626D01*
X229871312Y-87351665D02*
X229219214Y-87490273D01*
X230293442Y-87505353D02*
X229644268Y-87886753D01*
X229515561Y-87281233D01*
X230048853Y-86583684D02*
X230029052Y-86490527D01*
X229962672Y-86407271D01*
X229906193Y-86370593D01*
X229803136Y-86343816D01*
X229606921Y-86336839D01*
X229374029Y-86386342D01*
X229197616Y-86472523D01*
X229114359Y-86538902D01*
X229077682Y-86595381D01*
X229050904Y-86698439D01*
X229070705Y-86791596D01*
X229137085Y-86874852D01*
X229193564Y-86911530D01*
X229296621Y-86938307D01*
X229492836Y-86945284D01*
X229725728Y-86895781D01*
X229902141Y-86809600D01*
X229985398Y-86743221D01*
X230022076Y-86686742D01*
X230048853Y-86583684D01*
X335152329Y-122243217D02*
X334152329Y-122243217D01*
X334152329Y-122481312D01*
X334199949Y-122624169D01*
X334295187Y-122719407D01*
X334390425Y-122767026D01*
X334580901Y-122814645D01*
X334723758Y-122814645D01*
X334914234Y-122767026D01*
X335009472Y-122719407D01*
X335104710Y-122624169D01*
X335152329Y-122481312D01*
X335152329Y-122243217D01*
X334152329Y-123671788D02*
X334152329Y-123481312D01*
X334199949Y-123386074D01*
X334247568Y-123338455D01*
X334390425Y-123243217D01*
X334580901Y-123195598D01*
X334961853Y-123195598D01*
X335057091Y-123243217D01*
X335104710Y-123290836D01*
X335152329Y-123386074D01*
X335152329Y-123576550D01*
X335104710Y-123671788D01*
X335057091Y-123719407D01*
X334961853Y-123767026D01*
X334723758Y-123767026D01*
X334628520Y-123719407D01*
X334580901Y-123671788D01*
X334533282Y-123576550D01*
X334533282Y-123386074D01*
X334580901Y-123290836D01*
X334628520Y-123243217D01*
X334723758Y-123195598D01*
X334247568Y-124147979D02*
X334199949Y-124195598D01*
X334152329Y-124290836D01*
X334152329Y-124528931D01*
X334199949Y-124624169D01*
X334247568Y-124671788D01*
X334342806Y-124719407D01*
X334438044Y-124719407D01*
X334580901Y-124671788D01*
X335152329Y-124100360D01*
X335152329Y-124719407D01*
X248149942Y-84926908D02*
X249128090Y-84718997D01*
X249078587Y-84486104D01*
X249002307Y-84356270D01*
X248889349Y-84282914D01*
X248786292Y-84256137D01*
X248590077Y-84249160D01*
X248450342Y-84278862D01*
X248273929Y-84365043D01*
X248190672Y-84431422D01*
X248117316Y-84544380D01*
X248100440Y-84694016D01*
X248149942Y-84926908D01*
X248505024Y-83390947D02*
X247852926Y-83529555D01*
X248927154Y-83544635D02*
X248277980Y-83926035D01*
X248149273Y-83320515D01*
X248307013Y-82459378D02*
X247654915Y-82597986D01*
X248729143Y-82613066D02*
X248079969Y-82994466D01*
X247951262Y-82388946D01*
X335152329Y-103193217D02*
X334152329Y-103193217D01*
X334152329Y-103431312D01*
X334199949Y-103574169D01*
X334295187Y-103669407D01*
X334390425Y-103717026D01*
X334580901Y-103764645D01*
X334723758Y-103764645D01*
X334914234Y-103717026D01*
X335009472Y-103669407D01*
X335104710Y-103574169D01*
X335152329Y-103431312D01*
X335152329Y-103193217D01*
X334152329Y-104621788D02*
X334152329Y-104431312D01*
X334199949Y-104336074D01*
X334247568Y-104288455D01*
X334390425Y-104193217D01*
X334580901Y-104145598D01*
X334961853Y-104145598D01*
X335057091Y-104193217D01*
X335104710Y-104240836D01*
X335152329Y-104336074D01*
X335152329Y-104526550D01*
X335104710Y-104621788D01*
X335057091Y-104669407D01*
X334961853Y-104717026D01*
X334723758Y-104717026D01*
X334628520Y-104669407D01*
X334580901Y-104621788D01*
X334533282Y-104526550D01*
X334533282Y-104336074D01*
X334580901Y-104240836D01*
X334628520Y-104193217D01*
X334723758Y-104145598D01*
X335152329Y-105669407D02*
X335152329Y-105097979D01*
X335152329Y-105383693D02*
X334152329Y-105383693D01*
X334295187Y-105288455D01*
X334390425Y-105193217D01*
X334438044Y-105097979D01*
X226253337Y-50629975D02*
X227231485Y-50422064D01*
X227181982Y-50189171D01*
X227105702Y-50059337D01*
X226992744Y-49985981D01*
X226889687Y-49959204D01*
X226693472Y-49952227D01*
X226553737Y-49981929D01*
X226377324Y-50068110D01*
X226294067Y-50134489D01*
X226220711Y-50247447D01*
X226203835Y-50397083D01*
X226253337Y-50629975D01*
X226608419Y-49094014D02*
X225956321Y-49232622D01*
X227030549Y-49247702D02*
X226381375Y-49629102D01*
X226252668Y-49023582D01*
X226742306Y-48578727D02*
X226778984Y-48522248D01*
X226805761Y-48419190D01*
X226756258Y-48186298D01*
X226689879Y-48103041D01*
X226633400Y-48066364D01*
X226530342Y-48039586D01*
X226437185Y-48059387D01*
X226307350Y-48135667D01*
X225867216Y-48813416D01*
X225738508Y-48207896D01*
X316102329Y-122243217D02*
X315102329Y-122243217D01*
X315102329Y-122481312D01*
X315149949Y-122624169D01*
X315245187Y-122719407D01*
X315340425Y-122767026D01*
X315530901Y-122814645D01*
X315673758Y-122814645D01*
X315864234Y-122767026D01*
X315959472Y-122719407D01*
X316054710Y-122624169D01*
X316102329Y-122481312D01*
X316102329Y-122243217D01*
X315102329Y-123719407D02*
X315102329Y-123243217D01*
X315578520Y-123195598D01*
X315530901Y-123243217D01*
X315483282Y-123338455D01*
X315483282Y-123576550D01*
X315530901Y-123671788D01*
X315578520Y-123719407D01*
X315673758Y-123767026D01*
X315911853Y-123767026D01*
X316007091Y-123719407D01*
X316054710Y-123671788D01*
X316102329Y-123576550D01*
X316102329Y-123338455D01*
X316054710Y-123243217D01*
X316007091Y-123195598D01*
X315530901Y-124338455D02*
X315483282Y-124243217D01*
X315435663Y-124195598D01*
X315340425Y-124147979D01*
X315292806Y-124147979D01*
X315197568Y-124195598D01*
X315149949Y-124243217D01*
X315102329Y-124338455D01*
X315102329Y-124528931D01*
X315149949Y-124624169D01*
X315197568Y-124671788D01*
X315292806Y-124719407D01*
X315340425Y-124719407D01*
X315435663Y-124671788D01*
X315483282Y-124624169D01*
X315530901Y-124528931D01*
X315530901Y-124338455D01*
X315578520Y-124243217D01*
X315626139Y-124195598D01*
X315721377Y-124147979D01*
X315911853Y-124147979D01*
X316007091Y-124195598D01*
X316054710Y-124243217D01*
X316102329Y-124338455D01*
X316102329Y-124528931D01*
X316054710Y-124624169D01*
X316007091Y-124671788D01*
X315911853Y-124719407D01*
X315721377Y-124719407D01*
X315626139Y-124671788D01*
X315578520Y-124624169D01*
X315530901Y-124528931D01*
X47167380Y-60806904D02*
X46167380Y-60806904D01*
X46167380Y-61045000D01*
X46215000Y-61187857D01*
X46310238Y-61283095D01*
X46405476Y-61330714D01*
X46595952Y-61378333D01*
X46738809Y-61378333D01*
X46929285Y-61330714D01*
X47024523Y-61283095D01*
X47119761Y-61187857D01*
X47167380Y-61045000D01*
X47167380Y-60806904D01*
X46262619Y-61759285D02*
X46215000Y-61806904D01*
X46167380Y-61902142D01*
X46167380Y-62140238D01*
X46215000Y-62235476D01*
X46262619Y-62283095D01*
X46357857Y-62330714D01*
X46453095Y-62330714D01*
X46595952Y-62283095D01*
X47167380Y-61711666D01*
X47167380Y-62330714D01*
X65617380Y-41756904D02*
X64617380Y-41756904D01*
X64617380Y-41995000D01*
X64665000Y-42137857D01*
X64760238Y-42233095D01*
X64855476Y-42280714D01*
X65045952Y-42328333D01*
X65188809Y-42328333D01*
X65379285Y-42280714D01*
X65474523Y-42233095D01*
X65569761Y-42137857D01*
X65617380Y-41995000D01*
X65617380Y-41756904D01*
X64617380Y-43185476D02*
X64617380Y-42995000D01*
X64665000Y-42899761D01*
X64712619Y-42852142D01*
X64855476Y-42756904D01*
X65045952Y-42709285D01*
X65426904Y-42709285D01*
X65522142Y-42756904D01*
X65569761Y-42804523D01*
X65617380Y-42899761D01*
X65617380Y-43090238D01*
X65569761Y-43185476D01*
X65522142Y-43233095D01*
X65426904Y-43280714D01*
X65188809Y-43280714D01*
X65093571Y-43233095D01*
X65045952Y-43185476D01*
X64998333Y-43090238D01*
X64998333Y-42899761D01*
X65045952Y-42804523D01*
X65093571Y-42756904D01*
X65188809Y-42709285D01*
X70977380Y-60806904D02*
X69977380Y-60806904D01*
X69977380Y-61045000D01*
X70025000Y-61187857D01*
X70120238Y-61283095D01*
X70215476Y-61330714D01*
X70405952Y-61378333D01*
X70548809Y-61378333D01*
X70739285Y-61330714D01*
X70834523Y-61283095D01*
X70929761Y-61187857D01*
X70977380Y-61045000D01*
X70977380Y-60806904D01*
X69977380Y-61711666D02*
X69977380Y-62378333D01*
X70977380Y-61949761D01*
X318483630Y-79380714D02*
X317483630Y-79380714D01*
X317483630Y-79618809D01*
X317531250Y-79761666D01*
X317626488Y-79856904D01*
X317721726Y-79904523D01*
X317912202Y-79952142D01*
X318055059Y-79952142D01*
X318245535Y-79904523D01*
X318340773Y-79856904D01*
X318436011Y-79761666D01*
X318483630Y-79618809D01*
X318483630Y-79380714D01*
X317483630Y-80856904D02*
X317483630Y-80380714D01*
X317959821Y-80333095D01*
X317912202Y-80380714D01*
X317864583Y-80475952D01*
X317864583Y-80714047D01*
X317912202Y-80809285D01*
X317959821Y-80856904D01*
X318055059Y-80904523D01*
X318293154Y-80904523D01*
X318388392Y-80856904D01*
X318436011Y-80809285D01*
X318483630Y-80714047D01*
X318483630Y-80475952D01*
X318436011Y-80380714D01*
X318388392Y-80333095D01*
X317483630Y-81237857D02*
X317483630Y-81904523D01*
X318483630Y-81475952D01*
X38937380Y-117956904D02*
X37937380Y-117956904D01*
X37937380Y-118195000D01*
X37985000Y-118337857D01*
X38080238Y-118433095D01*
X38175476Y-118480714D01*
X38365952Y-118528333D01*
X38508809Y-118528333D01*
X38699285Y-118480714D01*
X38794523Y-118433095D01*
X38889761Y-118337857D01*
X38937380Y-118195000D01*
X38937380Y-117956904D01*
X37937380Y-119433095D02*
X37937380Y-118956904D01*
X38413571Y-118909285D01*
X38365952Y-118956904D01*
X38318333Y-119052142D01*
X38318333Y-119290238D01*
X38365952Y-119385476D01*
X38413571Y-119433095D01*
X38508809Y-119480714D01*
X38746904Y-119480714D01*
X38842142Y-119433095D01*
X38889761Y-119385476D01*
X38937380Y-119290238D01*
X38937380Y-119052142D01*
X38889761Y-118956904D01*
X38842142Y-118909285D01*
X71677380Y-79856904D02*
X70677380Y-79856904D01*
X70677380Y-80095000D01*
X70725000Y-80237857D01*
X70820238Y-80333095D01*
X70915476Y-80380714D01*
X71105952Y-80428333D01*
X71248809Y-80428333D01*
X71439285Y-80380714D01*
X71534523Y-80333095D01*
X71629761Y-80237857D01*
X71677380Y-80095000D01*
X71677380Y-79856904D01*
X71105952Y-80999761D02*
X71058333Y-80904523D01*
X71010714Y-80856904D01*
X70915476Y-80809285D01*
X70867857Y-80809285D01*
X70772619Y-80856904D01*
X70725000Y-80904523D01*
X70677380Y-80999761D01*
X70677380Y-81190238D01*
X70725000Y-81285476D01*
X70772619Y-81333095D01*
X70867857Y-81380714D01*
X70915476Y-81380714D01*
X71010714Y-81333095D01*
X71058333Y-81285476D01*
X71105952Y-81190238D01*
X71105952Y-80999761D01*
X71153571Y-80904523D01*
X71201190Y-80856904D01*
X71296428Y-80809285D01*
X71486904Y-80809285D01*
X71582142Y-80856904D01*
X71629761Y-80904523D01*
X71677380Y-80999761D01*
X71677380Y-81190238D01*
X71629761Y-81285476D01*
X71582142Y-81333095D01*
X71486904Y-81380714D01*
X71296428Y-81380714D01*
X71201190Y-81333095D01*
X71153571Y-81285476D01*
X71105952Y-81190238D01*
X315652380Y-17310714D02*
X314652380Y-17310714D01*
X314652380Y-17548809D01*
X314700000Y-17691666D01*
X314795238Y-17786904D01*
X314890476Y-17834523D01*
X315080952Y-17882142D01*
X315223809Y-17882142D01*
X315414285Y-17834523D01*
X315509523Y-17786904D01*
X315604761Y-17691666D01*
X315652380Y-17548809D01*
X315652380Y-17310714D01*
X315080952Y-18453571D02*
X315033333Y-18358333D01*
X314985714Y-18310714D01*
X314890476Y-18263095D01*
X314842857Y-18263095D01*
X314747619Y-18310714D01*
X314700000Y-18358333D01*
X314652380Y-18453571D01*
X314652380Y-18644047D01*
X314700000Y-18739285D01*
X314747619Y-18786904D01*
X314842857Y-18834523D01*
X314890476Y-18834523D01*
X314985714Y-18786904D01*
X315033333Y-18739285D01*
X315080952Y-18644047D01*
X315080952Y-18453571D01*
X315128571Y-18358333D01*
X315176190Y-18310714D01*
X315271428Y-18263095D01*
X315461904Y-18263095D01*
X315557142Y-18310714D01*
X315604761Y-18358333D01*
X315652380Y-18453571D01*
X315652380Y-18644047D01*
X315604761Y-18739285D01*
X315557142Y-18786904D01*
X315461904Y-18834523D01*
X315271428Y-18834523D01*
X315176190Y-18786904D01*
X315128571Y-18739285D01*
X315080952Y-18644047D01*
X315652380Y-19786904D02*
X315652380Y-19215476D01*
X315652380Y-19501190D02*
X314652380Y-19501190D01*
X314795238Y-19405952D01*
X314890476Y-19310714D01*
X314938095Y-19215476D01*
X77027380Y-98906904D02*
X76027380Y-98906904D01*
X76027380Y-99145000D01*
X76075000Y-99287857D01*
X76170238Y-99383095D01*
X76265476Y-99430714D01*
X76455952Y-99478333D01*
X76598809Y-99478333D01*
X76789285Y-99430714D01*
X76884523Y-99383095D01*
X76979761Y-99287857D01*
X77027380Y-99145000D01*
X77027380Y-98906904D01*
X77027380Y-99954523D02*
X77027380Y-100145000D01*
X76979761Y-100240238D01*
X76932142Y-100287857D01*
X76789285Y-100383095D01*
X76598809Y-100430714D01*
X76217857Y-100430714D01*
X76122619Y-100383095D01*
X76075000Y-100335476D01*
X76027380Y-100240238D01*
X76027380Y-100049761D01*
X76075000Y-99954523D01*
X76122619Y-99906904D01*
X76217857Y-99859285D01*
X76455952Y-99859285D01*
X76551190Y-99906904D01*
X76598809Y-99954523D01*
X76646428Y-100049761D01*
X76646428Y-100240238D01*
X76598809Y-100335476D01*
X76551190Y-100383095D01*
X76455952Y-100430714D01*
X230829372Y-25418583D02*
X231807520Y-25210672D01*
X231758017Y-24977779D01*
X231681737Y-24847945D01*
X231568779Y-24774589D01*
X231465722Y-24747812D01*
X231269507Y-24740835D01*
X231129772Y-24770537D01*
X230953359Y-24856718D01*
X230870102Y-24923097D01*
X230796746Y-25036055D01*
X230779870Y-25185691D01*
X230829372Y-25418583D01*
X231619409Y-24325681D02*
X231480802Y-23673583D01*
X230591759Y-24300700D01*
X231421398Y-23394112D02*
X231282790Y-22742014D01*
X230393748Y-23369131D01*
X239530821Y-67283356D02*
X240508969Y-67075445D01*
X240459466Y-66842552D01*
X240383186Y-66712718D01*
X240270228Y-66639362D01*
X240167171Y-66612585D01*
X239970956Y-66605608D01*
X239831221Y-66635310D01*
X239654808Y-66721491D01*
X239571551Y-66787870D01*
X239498195Y-66900828D01*
X239481319Y-67050464D01*
X239530821Y-67283356D01*
X239885903Y-65747395D02*
X239233805Y-65886003D01*
X240308033Y-65901083D02*
X239658859Y-66282483D01*
X239530152Y-65676963D01*
X240122847Y-65258885D02*
X239994140Y-64653365D01*
X239690816Y-65058619D01*
X239661115Y-64918883D01*
X239594735Y-64835627D01*
X239538256Y-64798949D01*
X239435199Y-64772172D01*
X239202306Y-64821674D01*
X239119050Y-64888054D01*
X239082372Y-64944533D01*
X239055595Y-65047591D01*
X239114998Y-65327061D01*
X239181378Y-65410318D01*
X239237857Y-65446996D01*
X46071130Y-98906904D02*
X45071130Y-98906904D01*
X45071130Y-99145000D01*
X45118750Y-99287857D01*
X45213988Y-99383095D01*
X45309226Y-99430714D01*
X45499702Y-99478333D01*
X45642559Y-99478333D01*
X45833035Y-99430714D01*
X45928273Y-99383095D01*
X46023511Y-99287857D01*
X46071130Y-99145000D01*
X46071130Y-98906904D01*
X45404464Y-100335476D02*
X46071130Y-100335476D01*
X45023511Y-100097380D02*
X45737797Y-99859285D01*
X45737797Y-100478333D01*
X202263397Y-75204791D02*
X203241545Y-74996880D01*
X203192042Y-74763987D01*
X203115762Y-74634153D01*
X203002804Y-74560797D01*
X202899747Y-74534020D01*
X202703532Y-74527043D01*
X202563797Y-74556745D01*
X202387384Y-74642926D01*
X202304127Y-74709305D01*
X202230771Y-74822263D01*
X202213895Y-74971899D01*
X202263397Y-75204791D01*
X203053434Y-74111889D02*
X202924727Y-73506369D01*
X202621403Y-73911623D01*
X202591702Y-73771887D01*
X202525322Y-73688631D01*
X202468843Y-73651953D01*
X202365786Y-73625176D01*
X202132893Y-73674679D01*
X202049637Y-73741058D01*
X202012959Y-73797537D01*
X201986182Y-73900595D01*
X202045585Y-74180065D01*
X202111965Y-74263322D01*
X202168444Y-74300000D01*
X202420468Y-72737261D02*
X201768370Y-72875869D01*
X202842598Y-72890949D02*
X202193424Y-73272349D01*
X202064717Y-72666829D01*
X36402380Y-17485714D02*
X35402380Y-17485714D01*
X35402380Y-17723809D01*
X35450000Y-17866666D01*
X35545238Y-17961904D01*
X35640476Y-18009523D01*
X35830952Y-18057142D01*
X35973809Y-18057142D01*
X36164285Y-18009523D01*
X36259523Y-17961904D01*
X36354761Y-17866666D01*
X36402380Y-17723809D01*
X36402380Y-17485714D01*
X35402380Y-18914285D02*
X35402380Y-18723809D01*
X35450000Y-18628571D01*
X35497619Y-18580952D01*
X35640476Y-18485714D01*
X35830952Y-18438095D01*
X36211904Y-18438095D01*
X36307142Y-18485714D01*
X36354761Y-18533333D01*
X36402380Y-18628571D01*
X36402380Y-18819047D01*
X36354761Y-18914285D01*
X36307142Y-18961904D01*
X36211904Y-19009523D01*
X35973809Y-19009523D01*
X35878571Y-18961904D01*
X35830952Y-18914285D01*
X35783333Y-18819047D01*
X35783333Y-18628571D01*
X35830952Y-18533333D01*
X35878571Y-18485714D01*
X35973809Y-18438095D01*
X35830952Y-19580952D02*
X35783333Y-19485714D01*
X35735714Y-19438095D01*
X35640476Y-19390476D01*
X35592857Y-19390476D01*
X35497619Y-19438095D01*
X35450000Y-19485714D01*
X35402380Y-19580952D01*
X35402380Y-19771428D01*
X35450000Y-19866666D01*
X35497619Y-19914285D01*
X35592857Y-19961904D01*
X35640476Y-19961904D01*
X35735714Y-19914285D01*
X35783333Y-19866666D01*
X35830952Y-19771428D01*
X35830952Y-19580952D01*
X35878571Y-19485714D01*
X35926190Y-19438095D01*
X36021428Y-19390476D01*
X36211904Y-19390476D01*
X36307142Y-19438095D01*
X36354761Y-19485714D01*
X36402380Y-19580952D01*
X36402380Y-19771428D01*
X36354761Y-19866666D01*
X36307142Y-19914285D01*
X36211904Y-19961904D01*
X36021428Y-19961904D01*
X35926190Y-19914285D01*
X35878571Y-19866666D01*
X35830952Y-19771428D01*
X118988145Y-23024728D02*
X118009997Y-22816816D01*
X117960495Y-23049709D01*
X117977371Y-23199345D01*
X118050727Y-23312303D01*
X118133984Y-23378682D01*
X118310397Y-23464863D01*
X118450132Y-23494565D01*
X118646347Y-23487588D01*
X118749404Y-23460811D01*
X118862362Y-23387455D01*
X118938642Y-23257620D01*
X118988145Y-23024728D01*
X117821887Y-23701807D02*
X117683279Y-24353906D01*
X118750532Y-24142611D01*
X117707132Y-24699756D02*
X117650653Y-24736434D01*
X117584274Y-24819690D01*
X117534771Y-25052582D01*
X117561548Y-25155640D01*
X117598226Y-25212119D01*
X117681482Y-25278498D01*
X117774639Y-25298300D01*
X117924275Y-25281423D01*
X118602023Y-24841288D01*
X118473316Y-25446808D01*
X258164533Y-63322638D02*
X259142681Y-63114727D01*
X259093178Y-62881834D01*
X259016898Y-62752000D01*
X258903940Y-62678644D01*
X258800883Y-62651867D01*
X258604668Y-62644890D01*
X258464933Y-62674592D01*
X258288520Y-62760773D01*
X258205263Y-62827152D01*
X258131907Y-62940110D01*
X258115031Y-63089746D01*
X258164533Y-63322638D01*
X258519615Y-61786677D02*
X257867517Y-61925285D01*
X258941745Y-61940365D02*
X258292571Y-62321765D01*
X258163864Y-61716245D01*
X258287850Y-61154380D02*
X258354230Y-61237636D01*
X258410709Y-61274314D01*
X258513766Y-61301091D01*
X258560345Y-61291191D01*
X258643601Y-61224811D01*
X258680279Y-61168332D01*
X258707056Y-61065275D01*
X258667454Y-60878961D01*
X258601075Y-60795704D01*
X258544596Y-60759027D01*
X258441538Y-60732249D01*
X258394960Y-60742150D01*
X258311703Y-60808529D01*
X258275025Y-60865008D01*
X258248248Y-60968066D01*
X258287850Y-61154380D01*
X258261073Y-61257437D01*
X258224395Y-61313916D01*
X258141139Y-61380296D01*
X257954825Y-61419898D01*
X257851767Y-61393121D01*
X257795288Y-61356443D01*
X257728909Y-61273186D01*
X257689307Y-61086873D01*
X257716084Y-60983815D01*
X257752762Y-60927336D01*
X257836018Y-60860956D01*
X258022332Y-60821354D01*
X258125390Y-60848132D01*
X258181869Y-60884809D01*
X258248248Y-60968066D01*
X251412965Y-123184508D02*
X252391113Y-122976597D01*
X252341610Y-122743704D01*
X252265330Y-122613870D01*
X252152372Y-122540514D01*
X252049315Y-122513737D01*
X251853100Y-122506760D01*
X251713365Y-122536462D01*
X251536952Y-122622643D01*
X251453695Y-122689022D01*
X251380339Y-122801980D01*
X251363463Y-122951616D01*
X251412965Y-123184508D01*
X251768047Y-121648547D02*
X251115949Y-121787155D01*
X252190177Y-121802235D02*
X251541003Y-122183635D01*
X251412296Y-121578115D01*
X251896085Y-120647674D02*
X251935687Y-120833988D01*
X251908910Y-120937045D01*
X251872232Y-120993524D01*
X251752298Y-121116383D01*
X251575885Y-121202563D01*
X251203257Y-121281768D01*
X251100199Y-121254991D01*
X251043720Y-121218313D01*
X250977341Y-121135056D01*
X250937739Y-120948743D01*
X250964516Y-120845685D01*
X251001194Y-120789206D01*
X251084450Y-120722826D01*
X251317343Y-120673324D01*
X251420400Y-120700101D01*
X251476879Y-120736779D01*
X251543259Y-120820035D01*
X251582861Y-121006349D01*
X251556083Y-121109407D01*
X251519406Y-121165886D01*
X251436149Y-121232265D01*
X183629686Y-79165509D02*
X184607834Y-78957598D01*
X184558331Y-78724705D01*
X184482051Y-78594871D01*
X184369093Y-78521515D01*
X184266036Y-78494738D01*
X184069821Y-78487761D01*
X183930086Y-78517463D01*
X183753673Y-78603644D01*
X183670416Y-78670023D01*
X183597060Y-78782981D01*
X183580184Y-78932617D01*
X183629686Y-79165509D01*
X184419723Y-78072607D02*
X184291016Y-77467087D01*
X183987692Y-77872341D01*
X183957991Y-77732605D01*
X183891611Y-77649349D01*
X183835132Y-77612671D01*
X183732075Y-77585894D01*
X183499182Y-77635397D01*
X183415926Y-77701776D01*
X183379248Y-77758255D01*
X183352471Y-77861313D01*
X183411874Y-78140783D01*
X183478254Y-78224040D01*
X183534733Y-78260718D01*
X184162309Y-76861567D02*
X184142508Y-76768410D01*
X184076128Y-76685154D01*
X184019649Y-76648476D01*
X183916592Y-76621699D01*
X183720377Y-76614722D01*
X183487485Y-76664225D01*
X183311072Y-76750406D01*
X183227815Y-76816785D01*
X183191138Y-76873264D01*
X183164360Y-76976322D01*
X183184161Y-77069479D01*
X183250541Y-77152735D01*
X183307020Y-77189413D01*
X183410077Y-77216190D01*
X183606292Y-77223167D01*
X183839184Y-77173664D01*
X184015597Y-77087483D01*
X184098854Y-77021104D01*
X184135532Y-76964625D01*
X184162309Y-76861567D01*
X200867928Y-114452613D02*
X201846076Y-114244702D01*
X201796573Y-114011809D01*
X201720293Y-113881975D01*
X201607335Y-113808619D01*
X201504278Y-113781842D01*
X201308063Y-113774865D01*
X201168328Y-113804567D01*
X200991915Y-113890748D01*
X200908658Y-113957127D01*
X200835302Y-114070085D01*
X200818426Y-114219721D01*
X200867928Y-114452613D01*
X201657965Y-113359711D02*
X201529258Y-112754191D01*
X201225934Y-113159445D01*
X201196233Y-113019709D01*
X201129853Y-112936453D01*
X201073374Y-112899775D01*
X200970317Y-112872998D01*
X200737424Y-112922501D01*
X200654168Y-112988880D01*
X200617490Y-113045359D01*
X200590713Y-113148417D01*
X200650116Y-113427887D01*
X200716496Y-113511144D01*
X200772975Y-113547822D01*
X201356897Y-112401365D02*
X201393575Y-112344886D01*
X201420352Y-112241828D01*
X201370849Y-112008936D01*
X201304470Y-111925679D01*
X201247991Y-111889002D01*
X201144933Y-111862224D01*
X201051776Y-111882025D01*
X200921941Y-111958305D01*
X200481807Y-112636054D01*
X200353099Y-112030534D01*
X354202329Y-122243217D02*
X353202329Y-122243217D01*
X353202329Y-122481312D01*
X353249949Y-122624169D01*
X353345187Y-122719407D01*
X353440425Y-122767026D01*
X353630901Y-122814645D01*
X353773758Y-122814645D01*
X353964234Y-122767026D01*
X354059472Y-122719407D01*
X354154710Y-122624169D01*
X354202329Y-122481312D01*
X354202329Y-122243217D01*
X353202329Y-123671788D02*
X353202329Y-123481312D01*
X353249949Y-123386074D01*
X353297568Y-123338455D01*
X353440425Y-123243217D01*
X353630901Y-123195598D01*
X354011853Y-123195598D01*
X354107091Y-123243217D01*
X354154710Y-123290836D01*
X354202329Y-123386074D01*
X354202329Y-123576550D01*
X354154710Y-123671788D01*
X354107091Y-123719407D01*
X354011853Y-123767026D01*
X353773758Y-123767026D01*
X353678520Y-123719407D01*
X353630901Y-123671788D01*
X353583282Y-123576550D01*
X353583282Y-123386074D01*
X353630901Y-123290836D01*
X353678520Y-123243217D01*
X353773758Y-123195598D01*
X353202329Y-124100360D02*
X353202329Y-124767026D01*
X354202329Y-124338455D01*
X264797380Y-39780329D02*
X263797380Y-39780329D01*
X263797380Y-40018424D01*
X263845000Y-40161281D01*
X263940238Y-40256519D01*
X264035476Y-40304138D01*
X264225952Y-40351757D01*
X264368809Y-40351757D01*
X264559285Y-40304138D01*
X264654523Y-40256519D01*
X264749761Y-40161281D01*
X264797380Y-40018424D01*
X264797380Y-39780329D01*
X263797380Y-41256519D02*
X263797380Y-40780329D01*
X264273571Y-40732710D01*
X264225952Y-40780329D01*
X264178333Y-40875567D01*
X264178333Y-41113662D01*
X264225952Y-41208900D01*
X264273571Y-41256519D01*
X264368809Y-41304138D01*
X264606904Y-41304138D01*
X264702142Y-41256519D01*
X264749761Y-41208900D01*
X264797380Y-41113662D01*
X264797380Y-40875567D01*
X264749761Y-40780329D01*
X264702142Y-40732710D01*
X264797380Y-42256519D02*
X264797380Y-41685091D01*
X264797380Y-41970805D02*
X263797380Y-41970805D01*
X263940238Y-41875567D01*
X264035476Y-41780329D01*
X264083095Y-41685091D01*
X128234525Y-68360204D02*
X127256377Y-68152292D01*
X127206875Y-68385185D01*
X127223751Y-68534821D01*
X127297107Y-68647779D01*
X127380364Y-68714158D01*
X127556777Y-68800339D01*
X127696512Y-68830041D01*
X127892727Y-68823064D01*
X127995784Y-68796287D01*
X128108742Y-68722931D01*
X128185022Y-68593096D01*
X128234525Y-68360204D01*
X127151523Y-69103663D02*
X127095044Y-69140341D01*
X127028665Y-69223597D01*
X126979162Y-69456489D01*
X127005939Y-69559547D01*
X127042617Y-69616026D01*
X127125873Y-69682405D01*
X127219030Y-69702206D01*
X127368666Y-69685330D01*
X128046414Y-69245195D01*
X127917707Y-69850715D01*
X126810852Y-70248323D02*
X126791051Y-70341480D01*
X126817829Y-70444537D01*
X126854507Y-70501016D01*
X126937763Y-70567396D01*
X127114176Y-70653577D01*
X127347068Y-70703079D01*
X127543283Y-70696103D01*
X127646340Y-70669326D01*
X127702819Y-70632648D01*
X127769199Y-70549392D01*
X127789000Y-70456235D01*
X127762223Y-70353177D01*
X127725545Y-70296698D01*
X127642288Y-70230319D01*
X127465875Y-70144138D01*
X127232983Y-70094635D01*
X127036768Y-70101611D01*
X126933711Y-70128389D01*
X126877232Y-70165067D01*
X126810852Y-70248323D01*
X100501254Y-18822127D02*
X99523106Y-18614215D01*
X99473604Y-18847108D01*
X99490480Y-18996744D01*
X99563836Y-19109702D01*
X99647093Y-19176081D01*
X99823506Y-19262262D01*
X99963241Y-19291964D01*
X100159456Y-19284987D01*
X100262513Y-19258210D01*
X100375471Y-19184854D01*
X100451751Y-19055019D01*
X100501254Y-18822127D01*
X99334996Y-19499206D02*
X99196388Y-20151305D01*
X100263641Y-19940010D01*
X99986425Y-21244207D02*
X100105232Y-20685265D01*
X100045828Y-20964736D02*
X99067681Y-20756824D01*
X99227217Y-20693369D01*
X99340175Y-20620013D01*
X99406555Y-20536757D01*
X160145898Y-55667561D02*
X159167750Y-55459649D01*
X159118248Y-55692542D01*
X159135124Y-55842178D01*
X159208480Y-55955136D01*
X159291737Y-56021515D01*
X159468150Y-56107696D01*
X159607885Y-56137398D01*
X159804100Y-56130421D01*
X159907157Y-56103644D01*
X160020115Y-56030288D01*
X160096395Y-55900453D01*
X160145898Y-55667561D01*
X159062896Y-56411020D02*
X159006417Y-56447698D01*
X158940038Y-56530954D01*
X158890535Y-56763846D01*
X158917312Y-56866904D01*
X158953990Y-56923383D01*
X159037246Y-56989762D01*
X159130403Y-57009563D01*
X159280039Y-56992687D01*
X159957787Y-56552552D01*
X159829080Y-57158072D01*
X159730075Y-57623856D02*
X159690472Y-57810170D01*
X159624093Y-57893427D01*
X159567614Y-57930104D01*
X159408077Y-57993560D01*
X159211863Y-58000536D01*
X158839235Y-57921331D01*
X158755979Y-57854952D01*
X158719301Y-57798473D01*
X158692524Y-57695415D01*
X158732126Y-57509102D01*
X158798506Y-57425845D01*
X158854985Y-57389167D01*
X158958042Y-57362390D01*
X159190934Y-57411893D01*
X159274191Y-57478272D01*
X159310869Y-57534751D01*
X159337646Y-57637809D01*
X159298044Y-57824123D01*
X159231664Y-57907379D01*
X159175185Y-57944057D01*
X159072128Y-57970834D01*
X142297459Y-27215622D02*
X141319311Y-27007710D01*
X141269809Y-27240603D01*
X141286685Y-27390239D01*
X141360041Y-27503197D01*
X141443298Y-27569576D01*
X141619711Y-27655757D01*
X141759446Y-27685459D01*
X141955661Y-27678482D01*
X142058718Y-27651705D01*
X142171676Y-27578349D01*
X142247956Y-27448514D01*
X142297459Y-27215622D01*
X141131201Y-27892701D02*
X140992593Y-28544800D01*
X142059846Y-28333505D01*
X140933190Y-28824270D02*
X140804482Y-29429790D01*
X141246414Y-29182945D01*
X141216712Y-29322681D01*
X141243490Y-29425738D01*
X141280168Y-29482217D01*
X141363424Y-29548597D01*
X141596316Y-29598100D01*
X141699374Y-29571322D01*
X141755853Y-29534644D01*
X141822232Y-29451388D01*
X141881636Y-29171917D01*
X141854858Y-29068860D01*
X141818180Y-29012381D01*
X188985913Y-58551410D02*
X189964061Y-58343499D01*
X189914558Y-58110606D01*
X189838278Y-57980772D01*
X189725320Y-57907416D01*
X189622263Y-57880639D01*
X189426048Y-57873662D01*
X189286313Y-57903364D01*
X189109900Y-57989545D01*
X189026643Y-58055924D01*
X188953287Y-58168882D01*
X188936411Y-58318518D01*
X188985913Y-58551410D01*
X189775950Y-57458508D02*
X189647243Y-56852988D01*
X189343919Y-57258242D01*
X189314218Y-57118506D01*
X189247838Y-57035250D01*
X189191359Y-56998572D01*
X189088302Y-56971795D01*
X188855409Y-57021298D01*
X188772153Y-57087677D01*
X188735475Y-57144156D01*
X188708698Y-57247214D01*
X188768101Y-57526684D01*
X188834481Y-57609941D01*
X188890960Y-57646619D01*
X189577939Y-56526939D02*
X189449232Y-55921419D01*
X189145908Y-56326673D01*
X189116207Y-56186937D01*
X189049827Y-56103681D01*
X188993348Y-56067003D01*
X188890291Y-56040226D01*
X188657398Y-56089728D01*
X188574142Y-56156108D01*
X188537464Y-56212587D01*
X188510687Y-56315645D01*
X188570090Y-56595115D01*
X188636470Y-56678372D01*
X188692949Y-56715050D01*
X238135351Y-106531178D02*
X239113499Y-106323267D01*
X239063996Y-106090374D01*
X238987716Y-105960540D01*
X238874758Y-105887184D01*
X238771701Y-105860407D01*
X238575486Y-105853430D01*
X238435751Y-105883132D01*
X238259338Y-105969313D01*
X238176081Y-106035692D01*
X238102725Y-106148650D01*
X238085849Y-106298286D01*
X238135351Y-106531178D01*
X238490433Y-104995217D02*
X237838335Y-105133825D01*
X238912563Y-105148905D02*
X238263389Y-105530305D01*
X238134682Y-104924785D01*
X237620522Y-104109099D02*
X237739329Y-104668040D01*
X237679926Y-104388569D02*
X238658073Y-104180658D01*
X238538139Y-104303516D01*
X238464783Y-104416474D01*
X238438006Y-104519532D01*
X354202329Y-74618233D02*
X353202329Y-74618233D01*
X353202329Y-74856328D01*
X353249949Y-74999185D01*
X353345187Y-75094423D01*
X353440425Y-75142042D01*
X353630901Y-75189661D01*
X353773758Y-75189661D01*
X353964234Y-75142042D01*
X354059472Y-75094423D01*
X354154710Y-74999185D01*
X354202329Y-74856328D01*
X354202329Y-74618233D01*
X353202329Y-76046804D02*
X353202329Y-75856328D01*
X353249949Y-75761090D01*
X353297568Y-75713471D01*
X353440425Y-75618233D01*
X353630901Y-75570614D01*
X354011853Y-75570614D01*
X354107091Y-75618233D01*
X354154710Y-75665852D01*
X354202329Y-75761090D01*
X354202329Y-75951566D01*
X354154710Y-76046804D01*
X354107091Y-76094423D01*
X354011853Y-76142042D01*
X353773758Y-76142042D01*
X353678520Y-76094423D01*
X353630901Y-76046804D01*
X353583282Y-75951566D01*
X353583282Y-75761090D01*
X353630901Y-75665852D01*
X353678520Y-75618233D01*
X353773758Y-75570614D01*
X353202329Y-76999185D02*
X353202329Y-76808709D01*
X353249949Y-76713471D01*
X353297568Y-76665852D01*
X353440425Y-76570614D01*
X353630901Y-76522995D01*
X354011853Y-76522995D01*
X354107091Y-76570614D01*
X354154710Y-76618233D01*
X354202329Y-76713471D01*
X354202329Y-76903947D01*
X354154710Y-76999185D01*
X354107091Y-77046804D01*
X354011853Y-77094423D01*
X353773758Y-77094423D01*
X353678520Y-77046804D01*
X353630901Y-76999185D01*
X353583282Y-76903947D01*
X353583282Y-76713471D01*
X353630901Y-76618233D01*
X353678520Y-76570614D01*
X353773758Y-76522995D01*
X256769063Y-102570460D02*
X257747211Y-102362549D01*
X257697708Y-102129656D01*
X257621428Y-101999822D01*
X257508470Y-101926466D01*
X257405413Y-101899689D01*
X257209198Y-101892712D01*
X257069463Y-101922414D01*
X256893050Y-102008595D01*
X256809793Y-102074974D01*
X256736437Y-102187932D01*
X256719561Y-102337568D01*
X256769063Y-102570460D01*
X257124145Y-101034499D02*
X256472047Y-101173107D01*
X257546275Y-101188187D02*
X256897101Y-101569587D01*
X256768394Y-100964067D01*
X257242283Y-99987047D02*
X257341288Y-100452832D01*
X256885404Y-100598416D01*
X256922082Y-100541937D01*
X256948859Y-100438880D01*
X256899357Y-100205987D01*
X256832977Y-100122731D01*
X256776498Y-100086053D01*
X256673441Y-100059276D01*
X256440548Y-100108778D01*
X256357292Y-100175158D01*
X256320614Y-100231637D01*
X256293837Y-100334695D01*
X256343339Y-100567587D01*
X256409719Y-100650843D01*
X256466198Y-100687521D01*
X219501640Y-110491895D02*
X220479788Y-110283984D01*
X220430285Y-110051091D01*
X220354005Y-109921257D01*
X220241047Y-109847901D01*
X220137990Y-109821124D01*
X219941775Y-109814147D01*
X219802040Y-109843849D01*
X219625627Y-109930030D01*
X219542370Y-109996409D01*
X219469014Y-110109367D01*
X219452138Y-110259003D01*
X219501640Y-110491895D01*
X220291677Y-109398993D02*
X220162970Y-108793473D01*
X219859646Y-109198727D01*
X219829945Y-109058991D01*
X219763565Y-108975735D01*
X219707086Y-108939057D01*
X219604029Y-108912280D01*
X219371136Y-108961783D01*
X219287880Y-109028162D01*
X219251202Y-109084641D01*
X219224425Y-109187699D01*
X219283828Y-109467169D01*
X219350208Y-109550426D01*
X219406687Y-109587104D01*
X219984760Y-107955061D02*
X220024362Y-108141375D01*
X219997585Y-108244432D01*
X219960907Y-108300911D01*
X219840973Y-108423770D01*
X219664560Y-108509950D01*
X219291932Y-108589155D01*
X219188874Y-108562378D01*
X219132395Y-108525700D01*
X219066016Y-108442443D01*
X219026414Y-108256130D01*
X219053191Y-108153072D01*
X219089869Y-108096593D01*
X219173125Y-108030213D01*
X219406018Y-107980711D01*
X219509075Y-108007488D01*
X219565554Y-108044166D01*
X219631934Y-108127422D01*
X219671536Y-108313736D01*
X219644758Y-108416794D01*
X219608081Y-108473273D01*
X219524824Y-108539652D01*
X321947380Y-41280714D02*
X320947380Y-41280714D01*
X320947380Y-41518809D01*
X320995000Y-41661666D01*
X321090238Y-41756904D01*
X321185476Y-41804523D01*
X321375952Y-41852142D01*
X321518809Y-41852142D01*
X321709285Y-41804523D01*
X321804523Y-41756904D01*
X321899761Y-41661666D01*
X321947380Y-41518809D01*
X321947380Y-41280714D01*
X320947380Y-42709285D02*
X320947380Y-42518809D01*
X320995000Y-42423571D01*
X321042619Y-42375952D01*
X321185476Y-42280714D01*
X321375952Y-42233095D01*
X321756904Y-42233095D01*
X321852142Y-42280714D01*
X321899761Y-42328333D01*
X321947380Y-42423571D01*
X321947380Y-42614047D01*
X321899761Y-42709285D01*
X321852142Y-42756904D01*
X321756904Y-42804523D01*
X321518809Y-42804523D01*
X321423571Y-42756904D01*
X321375952Y-42709285D01*
X321328333Y-42614047D01*
X321328333Y-42423571D01*
X321375952Y-42328333D01*
X321423571Y-42280714D01*
X321518809Y-42233095D01*
X320947380Y-43137857D02*
X320947380Y-43756904D01*
X321328333Y-43423571D01*
X321328333Y-43566428D01*
X321375952Y-43661666D01*
X321423571Y-43709285D01*
X321518809Y-43756904D01*
X321756904Y-43756904D01*
X321852142Y-43709285D01*
X321899761Y-43661666D01*
X321947380Y-43566428D01*
X321947380Y-43280714D01*
X321899761Y-43185476D01*
X321852142Y-43137857D01*
X345759922Y-36518223D02*
X344759922Y-36518223D01*
X344759922Y-36756318D01*
X344807542Y-36899175D01*
X344902780Y-36994413D01*
X344998018Y-37042032D01*
X345188494Y-37089651D01*
X345331351Y-37089651D01*
X345521827Y-37042032D01*
X345617065Y-36994413D01*
X345712303Y-36899175D01*
X345759922Y-36756318D01*
X345759922Y-36518223D01*
X344759922Y-37946794D02*
X344759922Y-37756318D01*
X344807542Y-37661080D01*
X344855161Y-37613461D01*
X344998018Y-37518223D01*
X345188494Y-37470604D01*
X345569446Y-37470604D01*
X345664684Y-37518223D01*
X345712303Y-37565842D01*
X345759922Y-37661080D01*
X345759922Y-37851556D01*
X345712303Y-37946794D01*
X345664684Y-37994413D01*
X345569446Y-38042032D01*
X345331351Y-38042032D01*
X345236113Y-37994413D01*
X345188494Y-37946794D01*
X345140875Y-37851556D01*
X345140875Y-37661080D01*
X345188494Y-37565842D01*
X345236113Y-37518223D01*
X345331351Y-37470604D01*
X345093256Y-38899175D02*
X345759922Y-38899175D01*
X344712303Y-38661080D02*
X345426589Y-38422985D01*
X345426589Y-39042032D01*
X207329372Y-30218583D02*
X208307520Y-30010672D01*
X208258017Y-29777779D01*
X208181737Y-29647945D01*
X208068779Y-29574589D01*
X207965722Y-29547812D01*
X207769507Y-29540835D01*
X207629772Y-29570537D01*
X207453359Y-29656718D01*
X207370102Y-29723097D01*
X207296746Y-29836055D01*
X207279870Y-29985691D01*
X207329372Y-30218583D01*
X208119409Y-29125681D02*
X207980802Y-28473583D01*
X207091759Y-29100700D01*
X207812492Y-27681749D02*
X207852094Y-27868063D01*
X207825317Y-27971120D01*
X207788639Y-28027599D01*
X207668705Y-28150458D01*
X207492292Y-28236638D01*
X207119664Y-28315843D01*
X207016606Y-28289066D01*
X206960127Y-28252388D01*
X206893748Y-28169131D01*
X206854146Y-27982818D01*
X206880923Y-27879760D01*
X206917601Y-27823281D01*
X207000857Y-27756901D01*
X207233750Y-27707399D01*
X207336807Y-27734176D01*
X207393286Y-27770854D01*
X207459666Y-27854110D01*
X207499268Y-28040424D01*
X207472490Y-28143482D01*
X207435813Y-28199961D01*
X207352556Y-28266340D01*
X268477380Y-79380714D02*
X267477380Y-79380714D01*
X267477380Y-79618809D01*
X267525000Y-79761666D01*
X267620238Y-79856904D01*
X267715476Y-79904523D01*
X267905952Y-79952142D01*
X268048809Y-79952142D01*
X268239285Y-79904523D01*
X268334523Y-79856904D01*
X268429761Y-79761666D01*
X268477380Y-79618809D01*
X268477380Y-79380714D01*
X267810714Y-80809285D02*
X268477380Y-80809285D01*
X267429761Y-80571190D02*
X268144047Y-80333095D01*
X268144047Y-80952142D01*
X268477380Y-81380714D02*
X268477380Y-81571190D01*
X268429761Y-81666428D01*
X268382142Y-81714047D01*
X268239285Y-81809285D01*
X268048809Y-81856904D01*
X267667857Y-81856904D01*
X267572619Y-81809285D01*
X267525000Y-81761666D01*
X267477380Y-81666428D01*
X267477380Y-81475952D01*
X267525000Y-81380714D01*
X267572619Y-81333095D01*
X267667857Y-81285476D01*
X267905952Y-81285476D01*
X268001190Y-81333095D01*
X268048809Y-81380714D01*
X268096428Y-81475952D01*
X268096428Y-81666428D01*
X268048809Y-81761666D01*
X268001190Y-81809285D01*
X267905952Y-81856904D01*
X321357380Y-60330714D02*
X320357380Y-60330714D01*
X320357380Y-60568809D01*
X320405000Y-60711666D01*
X320500238Y-60806904D01*
X320595476Y-60854523D01*
X320785952Y-60902142D01*
X320928809Y-60902142D01*
X321119285Y-60854523D01*
X321214523Y-60806904D01*
X321309761Y-60711666D01*
X321357380Y-60568809D01*
X321357380Y-60330714D01*
X320357380Y-61759285D02*
X320357380Y-61568809D01*
X320405000Y-61473571D01*
X320452619Y-61425952D01*
X320595476Y-61330714D01*
X320785952Y-61283095D01*
X321166904Y-61283095D01*
X321262142Y-61330714D01*
X321309761Y-61378333D01*
X321357380Y-61473571D01*
X321357380Y-61664047D01*
X321309761Y-61759285D01*
X321262142Y-61806904D01*
X321166904Y-61854523D01*
X320928809Y-61854523D01*
X320833571Y-61806904D01*
X320785952Y-61759285D01*
X320738333Y-61664047D01*
X320738333Y-61473571D01*
X320785952Y-61378333D01*
X320833571Y-61330714D01*
X320928809Y-61283095D01*
X320357380Y-62473571D02*
X320357380Y-62568809D01*
X320405000Y-62664047D01*
X320452619Y-62711666D01*
X320547857Y-62759285D01*
X320738333Y-62806904D01*
X320976428Y-62806904D01*
X321166904Y-62759285D01*
X321262142Y-62711666D01*
X321309761Y-62664047D01*
X321357380Y-62568809D01*
X321357380Y-62473571D01*
X321309761Y-62378333D01*
X321262142Y-62330714D01*
X321166904Y-62283095D01*
X320976428Y-62235476D01*
X320738333Y-62235476D01*
X320547857Y-62283095D01*
X320452619Y-62330714D01*
X320405000Y-62378333D01*
X320357380Y-62473571D01*
X110298482Y-84023371D02*
X109320334Y-83815459D01*
X109270832Y-84048352D01*
X109287708Y-84197988D01*
X109361064Y-84310946D01*
X109444321Y-84377325D01*
X109620734Y-84463506D01*
X109760469Y-84493208D01*
X109956684Y-84486231D01*
X110059741Y-84459454D01*
X110172699Y-84386098D01*
X110248979Y-84256263D01*
X110298482Y-84023371D01*
X109981664Y-85513882D02*
X110100471Y-84954940D01*
X110041068Y-85234411D02*
X109062920Y-85026499D01*
X109222456Y-84963044D01*
X109335414Y-84889688D01*
X109401794Y-84806432D01*
X108934213Y-85632019D02*
X108795605Y-86284118D01*
X109862858Y-86072823D01*
X115654564Y-104637439D02*
X114676416Y-104429527D01*
X114626914Y-104662420D01*
X114643790Y-104812056D01*
X114717146Y-104925014D01*
X114800403Y-104991393D01*
X114976816Y-105077574D01*
X115116551Y-105107276D01*
X115312766Y-105100299D01*
X115415823Y-105073522D01*
X115528781Y-105000166D01*
X115605061Y-104870331D01*
X115654564Y-104637439D01*
X115337746Y-106127950D02*
X115456553Y-105569008D01*
X115397150Y-105848479D02*
X114419002Y-105640567D01*
X114578538Y-105577112D01*
X114691496Y-105503756D01*
X114757876Y-105420500D01*
X114659998Y-106568085D02*
X114633221Y-106465027D01*
X114596543Y-106408548D01*
X114513286Y-106342169D01*
X114466708Y-106332268D01*
X114363651Y-106359045D01*
X114307172Y-106395723D01*
X114240792Y-106478980D01*
X114201190Y-106665293D01*
X114227967Y-106768351D01*
X114264645Y-106824830D01*
X114347901Y-106891209D01*
X114394480Y-106901110D01*
X114497537Y-106874333D01*
X114554016Y-106837655D01*
X114620396Y-106754398D01*
X114659998Y-106568085D01*
X114726378Y-106484828D01*
X114782857Y-106448150D01*
X114885914Y-106421373D01*
X115072228Y-106460975D01*
X115155484Y-106527355D01*
X115192162Y-106583834D01*
X115218940Y-106686891D01*
X115179337Y-106873205D01*
X115112958Y-106956461D01*
X115056479Y-106993139D01*
X114953421Y-107019917D01*
X114767107Y-106980314D01*
X114683851Y-106913935D01*
X114647173Y-106857456D01*
X114620396Y-106754398D01*
X134288273Y-108598166D02*
X133310125Y-108390254D01*
X133260623Y-108623147D01*
X133277499Y-108772783D01*
X133350855Y-108885741D01*
X133434112Y-108952120D01*
X133610525Y-109038301D01*
X133750260Y-109068003D01*
X133946475Y-109061026D01*
X134049532Y-109034249D01*
X134162490Y-108960893D01*
X134238770Y-108831058D01*
X134288273Y-108598166D01*
X133205271Y-109341625D02*
X133148792Y-109378303D01*
X133082413Y-109461559D01*
X133032910Y-109694451D01*
X133059687Y-109797509D01*
X133096365Y-109853988D01*
X133179621Y-109920367D01*
X133272778Y-109940168D01*
X133422414Y-109923292D01*
X134100162Y-109483157D01*
X133971455Y-110088677D01*
X133007260Y-110273194D02*
X132950781Y-110309872D01*
X132884402Y-110393128D01*
X132834899Y-110626020D01*
X132861676Y-110729078D01*
X132898354Y-110785557D01*
X132981610Y-110851936D01*
X133074767Y-110871738D01*
X133224403Y-110854861D01*
X133902151Y-110414726D01*
X133773444Y-111020246D01*
X97718555Y-120300601D02*
X96740407Y-120092689D01*
X96690905Y-120325582D01*
X96707781Y-120475218D01*
X96781137Y-120588176D01*
X96864394Y-120654555D01*
X97040807Y-120740736D01*
X97180542Y-120770438D01*
X97376757Y-120763461D01*
X97479814Y-120736684D01*
X97592772Y-120663328D01*
X97669052Y-120533493D01*
X97718555Y-120300601D01*
X97401737Y-121791112D02*
X97520544Y-121232170D01*
X97461141Y-121511641D02*
X96482993Y-121303729D01*
X96642529Y-121240274D01*
X96755487Y-121166918D01*
X96821867Y-121083662D01*
X96571429Y-122490916D02*
X97223527Y-122629524D01*
X96248304Y-122178819D02*
X96996484Y-122094436D01*
X96867776Y-122699955D01*
X84667380Y-39780329D02*
X83667380Y-39780329D01*
X83667380Y-40018424D01*
X83715000Y-40161281D01*
X83810238Y-40256519D01*
X83905476Y-40304138D01*
X84095952Y-40351757D01*
X84238809Y-40351757D01*
X84429285Y-40304138D01*
X84524523Y-40256519D01*
X84619761Y-40161281D01*
X84667380Y-40018424D01*
X84667380Y-39780329D01*
X84667380Y-41304138D02*
X84667380Y-40732710D01*
X84667380Y-41018424D02*
X83667380Y-41018424D01*
X83810238Y-40923186D01*
X83905476Y-40827948D01*
X83953095Y-40732710D01*
X83667380Y-41923186D02*
X83667380Y-42018424D01*
X83715000Y-42113662D01*
X83762619Y-42161281D01*
X83857857Y-42208900D01*
X84048333Y-42256519D01*
X84286428Y-42256519D01*
X84476904Y-42208900D01*
X84572142Y-42161281D01*
X84619761Y-42113662D01*
X84667380Y-42018424D01*
X84667380Y-41923186D01*
X84619761Y-41827948D01*
X84572142Y-41780329D01*
X84476904Y-41732710D01*
X84286428Y-41685091D01*
X84048333Y-41685091D01*
X83857857Y-41732710D01*
X83762619Y-41780329D01*
X83715000Y-41827948D01*
X83667380Y-41923186D01*
X109600815Y-64399477D02*
X108622667Y-64191565D01*
X108573165Y-64424458D01*
X108590041Y-64574094D01*
X108663397Y-64687052D01*
X108746654Y-64753431D01*
X108923067Y-64839612D01*
X109062802Y-64869314D01*
X109259017Y-64862337D01*
X109362074Y-64835560D01*
X109475032Y-64762204D01*
X109551312Y-64632369D01*
X109600815Y-64399477D01*
X109283997Y-65889988D02*
X109402804Y-65331046D01*
X109343401Y-65610517D02*
X108365253Y-65402605D01*
X108524789Y-65339150D01*
X108637747Y-65265794D01*
X108704127Y-65182538D01*
X108127640Y-66520488D02*
X108167242Y-66334174D01*
X108233621Y-66250918D01*
X108290100Y-66214240D01*
X108449637Y-66150785D01*
X108645851Y-66143809D01*
X109018479Y-66223013D01*
X109101735Y-66289393D01*
X109138413Y-66345872D01*
X109165191Y-66448929D01*
X109125588Y-66635243D01*
X109059209Y-66718499D01*
X109002730Y-66755177D01*
X108899672Y-66781955D01*
X108666780Y-66732452D01*
X108583524Y-66666072D01*
X108546846Y-66609593D01*
X108520068Y-66506536D01*
X108559671Y-66320222D01*
X108626050Y-66236966D01*
X108682529Y-66200288D01*
X108785587Y-66173510D01*
X270002380Y-16510714D02*
X269002380Y-16510714D01*
X269002380Y-16748809D01*
X269050000Y-16891666D01*
X269145238Y-16986904D01*
X269240476Y-17034523D01*
X269430952Y-17082142D01*
X269573809Y-17082142D01*
X269764285Y-17034523D01*
X269859523Y-16986904D01*
X269954761Y-16891666D01*
X270002380Y-16748809D01*
X270002380Y-16510714D01*
X269002380Y-17415476D02*
X269002380Y-18082142D01*
X270002380Y-17653571D01*
X270002380Y-18510714D02*
X270002380Y-18701190D01*
X269954761Y-18796428D01*
X269907142Y-18844047D01*
X269764285Y-18939285D01*
X269573809Y-18986904D01*
X269192857Y-18986904D01*
X269097619Y-18939285D01*
X269050000Y-18891666D01*
X269002380Y-18796428D01*
X269002380Y-18605952D01*
X269050000Y-18510714D01*
X269097619Y-18463095D01*
X269192857Y-18415476D01*
X269430952Y-18415476D01*
X269526190Y-18463095D01*
X269573809Y-18510714D01*
X269621428Y-18605952D01*
X269621428Y-18796428D01*
X269573809Y-18891666D01*
X269526190Y-18939285D01*
X269430952Y-18986904D01*
X147565902Y-91944825D02*
X146587754Y-91736913D01*
X146538252Y-91969806D01*
X146555128Y-92119442D01*
X146628484Y-92232400D01*
X146711741Y-92298779D01*
X146888154Y-92384960D01*
X147027889Y-92414662D01*
X147224104Y-92407685D01*
X147327161Y-92380908D01*
X147440119Y-92307552D01*
X147516399Y-92177717D01*
X147565902Y-91944825D01*
X146482900Y-92688284D02*
X146426421Y-92724962D01*
X146360042Y-92808218D01*
X146310539Y-93041110D01*
X146337316Y-93144168D01*
X146373994Y-93200647D01*
X146457250Y-93267026D01*
X146550407Y-93286827D01*
X146700043Y-93269951D01*
X147377791Y-92829816D01*
X147249084Y-93435336D01*
X146092727Y-94065836D02*
X146132329Y-93879522D01*
X146198708Y-93796266D01*
X146255187Y-93759588D01*
X146414724Y-93696133D01*
X146610938Y-93689157D01*
X146983566Y-93768361D01*
X147066822Y-93834741D01*
X147103500Y-93891220D01*
X147130278Y-93994277D01*
X147090675Y-94180591D01*
X147024296Y-94263847D01*
X146967817Y-94300525D01*
X146864759Y-94327303D01*
X146631867Y-94277800D01*
X146548611Y-94211420D01*
X146511933Y-94154941D01*
X146485155Y-94051884D01*
X146524758Y-93865570D01*
X146591137Y-93782314D01*
X146647616Y-93745636D01*
X146750674Y-93718858D01*
X122878474Y-47746126D02*
X121900326Y-47538214D01*
X121850824Y-47771107D01*
X121867700Y-47920743D01*
X121941056Y-48033701D01*
X122024313Y-48100080D01*
X122200726Y-48186261D01*
X122340461Y-48215963D01*
X122536676Y-48208986D01*
X122639733Y-48182209D01*
X122752691Y-48108853D01*
X122828971Y-47979018D01*
X122878474Y-47746126D01*
X122561656Y-49236637D02*
X122680463Y-48677695D01*
X122621060Y-48957166D02*
X121642912Y-48749254D01*
X121802448Y-48685799D01*
X121915406Y-48612443D01*
X121981786Y-48529187D01*
X122462651Y-49702421D02*
X122423048Y-49888735D01*
X122356669Y-49971992D01*
X122300190Y-50008669D01*
X122140653Y-50072125D01*
X121944439Y-50079101D01*
X121571811Y-49999896D01*
X121488555Y-49933517D01*
X121451877Y-49877038D01*
X121425100Y-49773980D01*
X121464702Y-49587667D01*
X121531082Y-49504410D01*
X121587561Y-49467732D01*
X121690618Y-49440955D01*
X121923510Y-49490458D01*
X122006767Y-49556837D01*
X122043445Y-49613316D01*
X122070222Y-49716374D01*
X122030620Y-49902688D01*
X121964240Y-49985944D01*
X121907761Y-50022622D01*
X121804704Y-50049399D01*
X90967105Y-60438751D02*
X89988957Y-60230839D01*
X89939455Y-60463732D01*
X89956331Y-60613368D01*
X90029687Y-60726326D01*
X90112944Y-60792705D01*
X90289357Y-60878886D01*
X90429092Y-60908588D01*
X90625307Y-60901611D01*
X90728364Y-60874834D01*
X90841322Y-60801478D01*
X90917602Y-60671643D01*
X90967105Y-60438751D01*
X90650287Y-61929262D02*
X90769094Y-61370320D01*
X90709691Y-61649791D02*
X89731543Y-61441879D01*
X89891079Y-61378424D01*
X90004037Y-61305068D01*
X90070417Y-61221812D01*
X90452276Y-62860831D02*
X90571083Y-62301889D01*
X90511679Y-62581360D02*
X89533532Y-62373448D01*
X89693068Y-62309993D01*
X89806026Y-62236637D01*
X89872406Y-62153381D01*
X249429372Y-21418583D02*
X250407520Y-21210672D01*
X250358017Y-20977779D01*
X250281737Y-20847945D01*
X250168779Y-20774589D01*
X250065722Y-20747812D01*
X249869507Y-20740835D01*
X249729772Y-20770537D01*
X249553359Y-20856718D01*
X249470102Y-20923097D01*
X249396746Y-21036055D01*
X249379870Y-21185691D01*
X249429372Y-21418583D01*
X250219409Y-20325681D02*
X250080802Y-19673583D01*
X249191759Y-20300700D01*
X249552689Y-19250325D02*
X249619069Y-19333581D01*
X249675548Y-19370259D01*
X249778605Y-19397036D01*
X249825184Y-19387136D01*
X249908440Y-19320756D01*
X249945118Y-19264277D01*
X249971895Y-19161220D01*
X249932293Y-18974906D01*
X249865914Y-18891649D01*
X249809435Y-18854972D01*
X249706377Y-18828194D01*
X249659799Y-18838095D01*
X249576542Y-18904474D01*
X249539864Y-18960953D01*
X249513087Y-19064011D01*
X249552689Y-19250325D01*
X249525912Y-19353382D01*
X249489234Y-19409861D01*
X249405978Y-19476241D01*
X249219664Y-19515843D01*
X249116606Y-19489066D01*
X249060127Y-19452388D01*
X248993748Y-19369131D01*
X248954146Y-19182818D01*
X248980923Y-19079760D01*
X249017601Y-19023281D01*
X249100857Y-18956901D01*
X249287171Y-18917299D01*
X249390229Y-18944077D01*
X249446708Y-18980754D01*
X249513087Y-19064011D01*
X349932380Y-55568230D02*
X348932380Y-55568230D01*
X348932380Y-55806325D01*
X348980000Y-55949182D01*
X349075238Y-56044420D01*
X349170476Y-56092039D01*
X349360952Y-56139658D01*
X349503809Y-56139658D01*
X349694285Y-56092039D01*
X349789523Y-56044420D01*
X349884761Y-55949182D01*
X349932380Y-55806325D01*
X349932380Y-55568230D01*
X348932380Y-56996801D02*
X348932380Y-56806325D01*
X348980000Y-56711087D01*
X349027619Y-56663468D01*
X349170476Y-56568230D01*
X349360952Y-56520611D01*
X349741904Y-56520611D01*
X349837142Y-56568230D01*
X349884761Y-56615849D01*
X349932380Y-56711087D01*
X349932380Y-56901563D01*
X349884761Y-56996801D01*
X349837142Y-57044420D01*
X349741904Y-57092039D01*
X349503809Y-57092039D01*
X349408571Y-57044420D01*
X349360952Y-56996801D01*
X349313333Y-56901563D01*
X349313333Y-56711087D01*
X349360952Y-56615849D01*
X349408571Y-56568230D01*
X349503809Y-56520611D01*
X348932380Y-57996801D02*
X348932380Y-57520611D01*
X349408571Y-57472992D01*
X349360952Y-57520611D01*
X349313333Y-57615849D01*
X349313333Y-57853944D01*
X349360952Y-57949182D01*
X349408571Y-57996801D01*
X349503809Y-58044420D01*
X349741904Y-58044420D01*
X349837142Y-57996801D01*
X349884761Y-57949182D01*
X349932380Y-57853944D01*
X349932380Y-57615849D01*
X349884761Y-57520611D01*
X349837142Y-57472992D01*
X288952380Y-16560714D02*
X287952380Y-16560714D01*
X287952380Y-16798809D01*
X288000000Y-16941666D01*
X288095238Y-17036904D01*
X288190476Y-17084523D01*
X288380952Y-17132142D01*
X288523809Y-17132142D01*
X288714285Y-17084523D01*
X288809523Y-17036904D01*
X288904761Y-16941666D01*
X288952380Y-16798809D01*
X288952380Y-16560714D01*
X288380952Y-17703571D02*
X288333333Y-17608333D01*
X288285714Y-17560714D01*
X288190476Y-17513095D01*
X288142857Y-17513095D01*
X288047619Y-17560714D01*
X288000000Y-17608333D01*
X287952380Y-17703571D01*
X287952380Y-17894047D01*
X288000000Y-17989285D01*
X288047619Y-18036904D01*
X288142857Y-18084523D01*
X288190476Y-18084523D01*
X288285714Y-18036904D01*
X288333333Y-17989285D01*
X288380952Y-17894047D01*
X288380952Y-17703571D01*
X288428571Y-17608333D01*
X288476190Y-17560714D01*
X288571428Y-17513095D01*
X288761904Y-17513095D01*
X288857142Y-17560714D01*
X288904761Y-17608333D01*
X288952380Y-17703571D01*
X288952380Y-17894047D01*
X288904761Y-17989285D01*
X288857142Y-18036904D01*
X288761904Y-18084523D01*
X288571428Y-18084523D01*
X288476190Y-18036904D01*
X288428571Y-17989285D01*
X288380952Y-17894047D01*
X287952380Y-18703571D02*
X287952380Y-18798809D01*
X288000000Y-18894047D01*
X288047619Y-18941666D01*
X288142857Y-18989285D01*
X288333333Y-19036904D01*
X288571428Y-19036904D01*
X288761904Y-18989285D01*
X288857142Y-18941666D01*
X288904761Y-18894047D01*
X288952380Y-18798809D01*
X288952380Y-18703571D01*
X288904761Y-18608333D01*
X288857142Y-18560714D01*
X288761904Y-18513095D01*
X288571428Y-18465476D01*
X288333333Y-18465476D01*
X288142857Y-18513095D01*
X288047619Y-18560714D01*
X288000000Y-18608333D01*
X287952380Y-18703571D01*
X278002399Y-98430712D02*
X277002399Y-98430712D01*
X277002399Y-98668807D01*
X277050019Y-98811664D01*
X277145257Y-98906902D01*
X277240495Y-98954521D01*
X277430971Y-99002140D01*
X277573828Y-99002140D01*
X277764304Y-98954521D01*
X277859542Y-98906902D01*
X277954780Y-98811664D01*
X278002399Y-98668807D01*
X278002399Y-98430712D01*
X277002399Y-99906902D02*
X277002399Y-99430712D01*
X277478590Y-99383093D01*
X277430971Y-99430712D01*
X277383352Y-99525950D01*
X277383352Y-99764045D01*
X277430971Y-99859283D01*
X277478590Y-99906902D01*
X277573828Y-99954521D01*
X277811923Y-99954521D01*
X277907161Y-99906902D01*
X277954780Y-99859283D01*
X278002399Y-99764045D01*
X278002399Y-99525950D01*
X277954780Y-99430712D01*
X277907161Y-99383093D01*
X277002399Y-100573569D02*
X277002399Y-100668807D01*
X277050019Y-100764045D01*
X277097638Y-100811664D01*
X277192876Y-100859283D01*
X277383352Y-100906902D01*
X277621447Y-100906902D01*
X277811923Y-100859283D01*
X277907161Y-100811664D01*
X277954780Y-100764045D01*
X278002399Y-100668807D01*
X278002399Y-100573569D01*
X277954780Y-100478331D01*
X277907161Y-100430712D01*
X277811923Y-100383093D01*
X277621447Y-100335474D01*
X277383352Y-100335474D01*
X277192876Y-100383093D01*
X277097638Y-100430712D01*
X277050019Y-100478331D01*
X277002399Y-100573569D01*
X158278120Y-133172922D02*
X157299972Y-132965010D01*
X157250470Y-133197903D01*
X157267346Y-133347539D01*
X157340702Y-133460497D01*
X157423959Y-133526876D01*
X157600372Y-133613057D01*
X157740107Y-133642759D01*
X157936322Y-133635782D01*
X158039379Y-133609005D01*
X158152337Y-133535649D01*
X158228617Y-133405814D01*
X158278120Y-133172922D01*
X157195118Y-133916381D02*
X157138639Y-133953059D01*
X157072260Y-134036315D01*
X157022757Y-134269207D01*
X157049534Y-134372265D01*
X157086212Y-134428744D01*
X157169468Y-134495123D01*
X157262625Y-134514924D01*
X157412261Y-134498048D01*
X158090009Y-134057913D01*
X157961302Y-134663433D01*
X157283554Y-135103568D02*
X157256777Y-135000510D01*
X157220099Y-134944031D01*
X157136842Y-134877652D01*
X157090264Y-134867751D01*
X156987207Y-134894528D01*
X156930728Y-134931206D01*
X156864348Y-135014463D01*
X156824746Y-135200776D01*
X156851523Y-135303834D01*
X156888201Y-135360313D01*
X156971457Y-135426692D01*
X157018036Y-135436593D01*
X157121093Y-135409816D01*
X157177572Y-135373138D01*
X157243952Y-135289881D01*
X157283554Y-135103568D01*
X157349934Y-135020311D01*
X157406413Y-134983633D01*
X157509470Y-134956856D01*
X157695784Y-134996458D01*
X157779040Y-135062838D01*
X157815718Y-135119317D01*
X157842496Y-135222374D01*
X157802893Y-135408688D01*
X157736514Y-135491944D01*
X157680035Y-135528622D01*
X157576977Y-135555400D01*
X157390663Y-135515797D01*
X157307407Y-135449418D01*
X157270729Y-135392939D01*
X157243952Y-135289881D01*
X192248807Y-96809061D02*
X193226955Y-96601150D01*
X193177452Y-96368257D01*
X193101172Y-96238423D01*
X192988214Y-96165067D01*
X192885157Y-96138290D01*
X192688942Y-96131313D01*
X192549207Y-96161015D01*
X192372794Y-96247196D01*
X192289537Y-96313575D01*
X192216181Y-96426533D01*
X192199305Y-96576169D01*
X192248807Y-96809061D01*
X193038844Y-95716159D02*
X192910137Y-95110639D01*
X192606813Y-95515893D01*
X192577112Y-95376157D01*
X192510732Y-95292901D01*
X192454253Y-95256223D01*
X192351196Y-95229446D01*
X192118303Y-95278949D01*
X192035047Y-95345328D01*
X191998369Y-95401807D01*
X191971592Y-95504865D01*
X192030995Y-95784335D01*
X192097375Y-95867592D01*
X192153854Y-95904270D01*
X191733978Y-94386982D02*
X191852785Y-94945923D01*
X191793382Y-94666452D02*
X192771529Y-94458541D01*
X192651595Y-94581399D01*
X192578239Y-94694357D01*
X192551462Y-94797415D01*
X60802380Y-16410714D02*
X59802380Y-16410714D01*
X59802380Y-16648809D01*
X59850000Y-16791666D01*
X59945238Y-16886904D01*
X60040476Y-16934523D01*
X60230952Y-16982142D01*
X60373809Y-16982142D01*
X60564285Y-16934523D01*
X60659523Y-16886904D01*
X60754761Y-16791666D01*
X60802380Y-16648809D01*
X60802380Y-16410714D01*
X59802380Y-17839285D02*
X59802380Y-17648809D01*
X59850000Y-17553571D01*
X59897619Y-17505952D01*
X60040476Y-17410714D01*
X60230952Y-17363095D01*
X60611904Y-17363095D01*
X60707142Y-17410714D01*
X60754761Y-17458333D01*
X60802380Y-17553571D01*
X60802380Y-17744047D01*
X60754761Y-17839285D01*
X60707142Y-17886904D01*
X60611904Y-17934523D01*
X60373809Y-17934523D01*
X60278571Y-17886904D01*
X60230952Y-17839285D01*
X60183333Y-17744047D01*
X60183333Y-17553571D01*
X60230952Y-17458333D01*
X60278571Y-17410714D01*
X60373809Y-17363095D01*
X60802380Y-18410714D02*
X60802380Y-18601190D01*
X60754761Y-18696428D01*
X60707142Y-18744047D01*
X60564285Y-18839285D01*
X60373809Y-18886904D01*
X59992857Y-18886904D01*
X59897619Y-18839285D01*
X59850000Y-18791666D01*
X59802380Y-18696428D01*
X59802380Y-18505952D01*
X59850000Y-18410714D01*
X59897619Y-18363095D01*
X59992857Y-18315476D01*
X60230952Y-18315476D01*
X60326190Y-18363095D01*
X60373809Y-18410714D01*
X60421428Y-18505952D01*
X60421428Y-18696428D01*
X60373809Y-18791666D01*
X60326190Y-18839285D01*
X60230952Y-18886904D01*
X80102380Y-16510714D02*
X79102380Y-16510714D01*
X79102380Y-16748809D01*
X79150000Y-16891666D01*
X79245238Y-16986904D01*
X79340476Y-17034523D01*
X79530952Y-17082142D01*
X79673809Y-17082142D01*
X79864285Y-17034523D01*
X79959523Y-16986904D01*
X80054761Y-16891666D01*
X80102380Y-16748809D01*
X80102380Y-16510714D01*
X79102380Y-17415476D02*
X79102380Y-18082142D01*
X80102380Y-17653571D01*
X79102380Y-18653571D02*
X79102380Y-18748809D01*
X79150000Y-18844047D01*
X79197619Y-18891666D01*
X79292857Y-18939285D01*
X79483333Y-18986904D01*
X79721428Y-18986904D01*
X79911904Y-18939285D01*
X80007142Y-18891666D01*
X80054761Y-18844047D01*
X80102380Y-18748809D01*
X80102380Y-18653571D01*
X80054761Y-18558333D01*
X80007142Y-18510714D01*
X79911904Y-18463095D01*
X79721428Y-18415476D01*
X79483333Y-18415476D01*
X79292857Y-18463095D01*
X79197619Y-18510714D01*
X79150000Y-18558333D01*
X79102380Y-18653571D01*
X141512186Y-51622127D02*
X140534038Y-51414215D01*
X140484536Y-51647108D01*
X140501412Y-51796744D01*
X140574768Y-51909702D01*
X140658025Y-51976081D01*
X140834438Y-52062262D01*
X140974173Y-52091964D01*
X141170388Y-52084987D01*
X141273445Y-52058210D01*
X141386403Y-51984854D01*
X141462683Y-51855019D01*
X141512186Y-51622127D01*
X140429184Y-52365586D02*
X140372705Y-52402264D01*
X140306326Y-52485520D01*
X140256823Y-52718412D01*
X140283600Y-52821470D01*
X140320278Y-52877949D01*
X140403534Y-52944328D01*
X140496691Y-52964129D01*
X140646327Y-52947253D01*
X141324075Y-52507118D01*
X141195368Y-53112638D01*
X140365060Y-53812442D02*
X141017158Y-53951050D01*
X140041935Y-53500345D02*
X140790115Y-53415962D01*
X140661407Y-54021481D01*
X183068171Y-17087560D02*
X183020552Y-17135179D01*
X182972933Y-17278036D01*
X182972933Y-17373274D01*
X183020552Y-17516132D01*
X183115790Y-17611370D01*
X183211028Y-17658989D01*
X183401504Y-17706608D01*
X183544361Y-17706608D01*
X183734837Y-17658989D01*
X183830075Y-17611370D01*
X183925314Y-17516132D01*
X183972933Y-17373274D01*
X183972933Y-17278036D01*
X183925314Y-17135179D01*
X183877694Y-17087560D01*
X182972933Y-16135179D02*
X182972933Y-16706608D01*
X182972933Y-16420894D02*
X183972933Y-16420894D01*
X183830075Y-16516132D01*
X183734837Y-16611370D01*
X183687218Y-16706608D01*
X189568456Y-15611227D02*
X189616075Y-15563608D01*
X189663694Y-15420751D01*
X189663694Y-15325513D01*
X189616075Y-15182655D01*
X189520837Y-15087417D01*
X189425599Y-15039798D01*
X189235123Y-14992179D01*
X189092266Y-14992179D01*
X188901790Y-15039798D01*
X188806552Y-15087417D01*
X188711314Y-15182655D01*
X188663694Y-15325513D01*
X188663694Y-15420751D01*
X188711314Y-15563608D01*
X188758933Y-15611227D01*
X188758933Y-15992179D02*
X188711314Y-16039798D01*
X188663694Y-16135036D01*
X188663694Y-16373132D01*
X188711314Y-16468370D01*
X188758933Y-16515989D01*
X188854171Y-16563608D01*
X188949409Y-16563608D01*
X189092266Y-16515989D01*
X189663694Y-15944560D01*
X189663694Y-16563608D01*
X185250456Y-6086227D02*
X185298075Y-6038608D01*
X185345694Y-5895751D01*
X185345694Y-5800513D01*
X185298075Y-5657655D01*
X185202837Y-5562417D01*
X185107599Y-5514798D01*
X184917123Y-5467179D01*
X184774266Y-5467179D01*
X184583790Y-5514798D01*
X184488552Y-5562417D01*
X184393314Y-5657655D01*
X184345694Y-5800513D01*
X184345694Y-5895751D01*
X184393314Y-6038608D01*
X184440933Y-6086227D01*
X184345694Y-6419560D02*
X184345694Y-7038608D01*
X184726647Y-6705274D01*
X184726647Y-6848132D01*
X184774266Y-6943370D01*
X184821885Y-6990989D01*
X184917123Y-7038608D01*
X185155218Y-7038608D01*
X185250456Y-6990989D01*
X185298075Y-6943370D01*
X185345694Y-6848132D01*
X185345694Y-6562417D01*
X185298075Y-6467179D01*
X185250456Y-6419560D01*
X179718456Y-6086227D02*
X179766075Y-6038608D01*
X179813694Y-5895751D01*
X179813694Y-5800513D01*
X179766075Y-5657655D01*
X179670837Y-5562417D01*
X179575599Y-5514798D01*
X179385123Y-5467179D01*
X179242266Y-5467179D01*
X179051790Y-5514798D01*
X178956552Y-5562417D01*
X178861314Y-5657655D01*
X178813694Y-5800513D01*
X178813694Y-5895751D01*
X178861314Y-6038608D01*
X178908933Y-6086227D01*
X179147028Y-6943370D02*
X179813694Y-6943370D01*
X178766075Y-6705274D02*
X179480361Y-6467179D01*
X179480361Y-7086227D01*
X166057980Y-10956036D02*
X166105599Y-11003655D01*
X166248456Y-11051274D01*
X166343694Y-11051274D01*
X166486552Y-11003655D01*
X166581790Y-10908417D01*
X166629409Y-10813179D01*
X166677028Y-10622703D01*
X166677028Y-10479846D01*
X166629409Y-10289370D01*
X166581790Y-10194132D01*
X166486552Y-10098894D01*
X166343694Y-10051274D01*
X166248456Y-10051274D01*
X166105599Y-10098894D01*
X166057980Y-10146513D01*
X165153218Y-10051274D02*
X165629409Y-10051274D01*
X165677028Y-10527465D01*
X165629409Y-10479846D01*
X165534171Y-10432227D01*
X165296075Y-10432227D01*
X165200837Y-10479846D01*
X165153218Y-10527465D01*
X165105599Y-10622703D01*
X165105599Y-10860798D01*
X165153218Y-10956036D01*
X165200837Y-11003655D01*
X165296075Y-11051274D01*
X165534171Y-11051274D01*
X165629409Y-11003655D01*
X165677028Y-10956036D01*
X166057980Y-16488036D02*
X166105599Y-16535655D01*
X166248456Y-16583274D01*
X166343694Y-16583274D01*
X166486552Y-16535655D01*
X166581790Y-16440417D01*
X166629409Y-16345179D01*
X166677028Y-16154703D01*
X166677028Y-16011846D01*
X166629409Y-15821370D01*
X166581790Y-15726132D01*
X166486552Y-15630894D01*
X166343694Y-15583274D01*
X166248456Y-15583274D01*
X166105599Y-15630894D01*
X166057980Y-15678513D01*
X165200837Y-15583274D02*
X165391314Y-15583274D01*
X165486552Y-15630894D01*
X165534171Y-15678513D01*
X165629409Y-15821370D01*
X165677028Y-16011846D01*
X165677028Y-16392798D01*
X165629409Y-16488036D01*
X165581790Y-16535655D01*
X165486552Y-16583274D01*
X165296075Y-16583274D01*
X165200837Y-16535655D01*
X165153218Y-16488036D01*
X165105599Y-16392798D01*
X165105599Y-16154703D01*
X165153218Y-16059465D01*
X165200837Y-16011846D01*
X165296075Y-15964227D01*
X165486552Y-15964227D01*
X165581790Y-16011846D01*
X165629409Y-16059465D01*
X165677028Y-16154703D01*
X181023980Y-28426036D02*
X181071599Y-28473655D01*
X181214456Y-28521274D01*
X181309694Y-28521274D01*
X181452552Y-28473655D01*
X181547790Y-28378417D01*
X181595409Y-28283179D01*
X181643028Y-28092703D01*
X181643028Y-27949846D01*
X181595409Y-27759370D01*
X181547790Y-27664132D01*
X181452552Y-27568894D01*
X181309694Y-27521274D01*
X181214456Y-27521274D01*
X181071599Y-27568894D01*
X181023980Y-27616513D01*
X180690647Y-27521274D02*
X180023980Y-27521274D01*
X180452552Y-28521274D01*
X165786666Y-20451142D02*
X165834285Y-20498761D01*
X165977142Y-20546380D01*
X166072380Y-20546380D01*
X166215238Y-20498761D01*
X166310476Y-20403523D01*
X166358095Y-20308285D01*
X166405714Y-20117809D01*
X166405714Y-19974952D01*
X166358095Y-19784476D01*
X166310476Y-19689238D01*
X166215238Y-19594000D01*
X166072380Y-19546380D01*
X165977142Y-19546380D01*
X165834285Y-19594000D01*
X165786666Y-19641619D01*
X165215238Y-19974952D02*
X165310476Y-19927333D01*
X165358095Y-19879714D01*
X165405714Y-19784476D01*
X165405714Y-19736857D01*
X165358095Y-19641619D01*
X165310476Y-19594000D01*
X165215238Y-19546380D01*
X165024761Y-19546380D01*
X164929523Y-19594000D01*
X164881904Y-19641619D01*
X164834285Y-19736857D01*
X164834285Y-19784476D01*
X164881904Y-19879714D01*
X164929523Y-19927333D01*
X165024761Y-19974952D01*
X165215238Y-19974952D01*
X165310476Y-20022571D01*
X165358095Y-20070190D01*
X165405714Y-20165428D01*
X165405714Y-20355904D01*
X165358095Y-20451142D01*
X165310476Y-20498761D01*
X165215238Y-20546380D01*
X165024761Y-20546380D01*
X164929523Y-20498761D01*
X164881904Y-20451142D01*
X164834285Y-20355904D01*
X164834285Y-20165428D01*
X164881904Y-20070190D01*
X164929523Y-20022571D01*
X165024761Y-19974952D01*
X188623980Y-10702036D02*
X188671599Y-10749655D01*
X188814456Y-10797274D01*
X188909694Y-10797274D01*
X189052552Y-10749655D01*
X189147790Y-10654417D01*
X189195409Y-10559179D01*
X189243028Y-10368703D01*
X189243028Y-10225846D01*
X189195409Y-10035370D01*
X189147790Y-9940132D01*
X189052552Y-9844894D01*
X188909694Y-9797274D01*
X188814456Y-9797274D01*
X188671599Y-9844894D01*
X188623980Y-9892513D01*
X188147790Y-10797274D02*
X187957314Y-10797274D01*
X187862075Y-10749655D01*
X187814456Y-10702036D01*
X187719218Y-10559179D01*
X187671599Y-10368703D01*
X187671599Y-9987751D01*
X187719218Y-9892513D01*
X187766837Y-9844894D01*
X187862075Y-9797274D01*
X188052552Y-9797274D01*
X188147790Y-9844894D01*
X188195409Y-9892513D01*
X188243028Y-9987751D01*
X188243028Y-10225846D01*
X188195409Y-10321084D01*
X188147790Y-10368703D01*
X188052552Y-10416322D01*
X187862075Y-10416322D01*
X187766837Y-10368703D01*
X187719218Y-10321084D01*
X187671599Y-10225846D01*
X220792647Y-4387560D02*
X220792647Y-4887560D01*
X220825980Y-4987560D01*
X220892647Y-5054227D01*
X220992647Y-5087560D01*
X221059314Y-5087560D01*
X220492647Y-4454227D02*
X220459314Y-4420894D01*
X220392647Y-4387560D01*
X220225980Y-4387560D01*
X220159314Y-4420894D01*
X220125980Y-4454227D01*
X220092647Y-4520894D01*
X220092647Y-4587560D01*
X220125980Y-4687560D01*
X220525980Y-5087560D01*
X220092647Y-5087560D01*
X218428647Y-4389560D02*
X218428647Y-4889560D01*
X218461980Y-4989560D01*
X218528647Y-5056227D01*
X218628647Y-5089560D01*
X218695314Y-5089560D01*
X218161980Y-4389560D02*
X217728647Y-4389560D01*
X217961980Y-4656227D01*
X217861980Y-4656227D01*
X217795314Y-4689560D01*
X217761980Y-4722894D01*
X217728647Y-4789560D01*
X217728647Y-4956227D01*
X217761980Y-5022894D01*
X217795314Y-5056227D01*
X217861980Y-5089560D01*
X218061980Y-5089560D01*
X218128647Y-5056227D01*
X218161980Y-5022894D01*
X215888647Y-4389560D02*
X215888647Y-4889560D01*
X215921980Y-4989560D01*
X215988647Y-5056227D01*
X216088647Y-5089560D01*
X216155314Y-5089560D01*
X215255314Y-4622894D02*
X215255314Y-5089560D01*
X215421980Y-4356227D02*
X215588647Y-4856227D01*
X215155314Y-4856227D01*
X213348647Y-4389560D02*
X213348647Y-4889560D01*
X213381980Y-4989560D01*
X213448647Y-5056227D01*
X213548647Y-5089560D01*
X213615314Y-5089560D01*
X212681980Y-4389560D02*
X213015314Y-4389560D01*
X213048647Y-4722894D01*
X213015314Y-4689560D01*
X212948647Y-4656227D01*
X212781980Y-4656227D01*
X212715314Y-4689560D01*
X212681980Y-4722894D01*
X212648647Y-4789560D01*
X212648647Y-4956227D01*
X212681980Y-5022894D01*
X212715314Y-5056227D01*
X212781980Y-5089560D01*
X212948647Y-5089560D01*
X213015314Y-5056227D01*
X213048647Y-5022894D01*
X210808647Y-4389560D02*
X210808647Y-4889560D01*
X210841980Y-4989560D01*
X210908647Y-5056227D01*
X211008647Y-5089560D01*
X211075314Y-5089560D01*
X210175314Y-4389560D02*
X210308647Y-4389560D01*
X210375314Y-4422894D01*
X210408647Y-4456227D01*
X210475314Y-4556227D01*
X210508647Y-4689560D01*
X210508647Y-4956227D01*
X210475314Y-5022894D01*
X210441980Y-5056227D01*
X210375314Y-5089560D01*
X210241980Y-5089560D01*
X210175314Y-5056227D01*
X210141980Y-5022894D01*
X210108647Y-4956227D01*
X210108647Y-4789560D01*
X210141980Y-4722894D01*
X210175314Y-4689560D01*
X210241980Y-4656227D01*
X210375314Y-4656227D01*
X210441980Y-4689560D01*
X210475314Y-4722894D01*
X210508647Y-4789560D01*
X208268647Y-4389560D02*
X208268647Y-4889560D01*
X208301980Y-4989560D01*
X208368647Y-5056227D01*
X208468647Y-5089560D01*
X208535314Y-5089560D01*
X208001980Y-4389560D02*
X207535314Y-4389560D01*
X207835314Y-5089560D01*
X138926647Y-4389560D02*
X138926647Y-4889560D01*
X138959980Y-4989560D01*
X139026647Y-5056227D01*
X139126647Y-5089560D01*
X139193314Y-5089560D01*
X138559980Y-5089560D02*
X138426647Y-5089560D01*
X138359980Y-5056227D01*
X138326647Y-5022894D01*
X138259980Y-4922894D01*
X138226647Y-4789560D01*
X138226647Y-4522894D01*
X138259980Y-4456227D01*
X138293314Y-4422894D01*
X138359980Y-4389560D01*
X138493314Y-4389560D01*
X138559980Y-4422894D01*
X138593314Y-4456227D01*
X138626647Y-4522894D01*
X138626647Y-4689560D01*
X138593314Y-4756227D01*
X138559980Y-4789560D01*
X138493314Y-4822894D01*
X138359980Y-4822894D01*
X138293314Y-4789560D01*
X138259980Y-4756227D01*
X138226647Y-4689560D01*
X136719980Y-4389560D02*
X136719980Y-4889560D01*
X136753314Y-4989560D01*
X136819980Y-5056227D01*
X136919980Y-5089560D01*
X136986647Y-5089560D01*
X136019980Y-5089560D02*
X136419980Y-5089560D01*
X136219980Y-5089560D02*
X136219980Y-4389560D01*
X136286647Y-4489560D01*
X136353314Y-4556227D01*
X136419980Y-4589560D01*
X135586647Y-4389560D02*
X135519980Y-4389560D01*
X135453314Y-4422894D01*
X135419980Y-4456227D01*
X135386647Y-4522894D01*
X135353314Y-4656227D01*
X135353314Y-4822894D01*
X135386647Y-4956227D01*
X135419980Y-5022894D01*
X135453314Y-5056227D01*
X135519980Y-5089560D01*
X135586647Y-5089560D01*
X135653314Y-5056227D01*
X135686647Y-5022894D01*
X135719980Y-4956227D01*
X135753314Y-4822894D01*
X135753314Y-4656227D01*
X135719980Y-4522894D01*
X135686647Y-4456227D01*
X135653314Y-4422894D01*
X135586647Y-4389560D01*
X141816666Y-4389560D02*
X141816666Y-4889560D01*
X141850000Y-4989560D01*
X141916666Y-5056227D01*
X142016666Y-5089560D01*
X142083333Y-5089560D01*
X141116666Y-5089560D02*
X141516666Y-5089560D01*
X141316666Y-5089560D02*
X141316666Y-4389560D01*
X141383333Y-4489560D01*
X141450000Y-4556227D01*
X141516666Y-4589560D01*
X140450000Y-5089560D02*
X140850000Y-5089560D01*
X140650000Y-5089560D02*
X140650000Y-4389560D01*
X140716666Y-4489560D01*
X140783333Y-4556227D01*
X140850000Y-4589560D01*
X160957980Y-9725274D02*
X161291314Y-9249084D01*
X161529409Y-9725274D02*
X161529409Y-8725274D01*
X161148456Y-8725274D01*
X161053218Y-8772894D01*
X161005599Y-8820513D01*
X160957980Y-8915751D01*
X160957980Y-9058608D01*
X161005599Y-9153846D01*
X161053218Y-9201465D01*
X161148456Y-9249084D01*
X161529409Y-9249084D01*
X160005599Y-9725274D02*
X160577028Y-9725274D01*
X160291314Y-9725274D02*
X160291314Y-8725274D01*
X160386552Y-8868132D01*
X160481790Y-8963370D01*
X160577028Y-9010989D01*
X160957980Y-4193274D02*
X161291314Y-3717084D01*
X161529409Y-4193274D02*
X161529409Y-3193274D01*
X161148456Y-3193274D01*
X161053218Y-3240894D01*
X161005599Y-3288513D01*
X160957980Y-3383751D01*
X160957980Y-3526608D01*
X161005599Y-3621846D01*
X161053218Y-3669465D01*
X161148456Y-3717084D01*
X161529409Y-3717084D01*
X160577028Y-3288513D02*
X160529409Y-3240894D01*
X160434171Y-3193274D01*
X160196075Y-3193274D01*
X160100837Y-3240894D01*
X160053218Y-3288513D01*
X160005599Y-3383751D01*
X160005599Y-3478989D01*
X160053218Y-3621846D01*
X160624647Y-4193274D01*
X160005599Y-4193274D01*
X192166933Y-5149560D02*
X192643123Y-5482894D01*
X192166933Y-5720989D02*
X193166933Y-5720989D01*
X193166933Y-5340036D01*
X193119314Y-5244798D01*
X193071694Y-5197179D01*
X192976456Y-5149560D01*
X192833599Y-5149560D01*
X192738361Y-5197179D01*
X192690742Y-5244798D01*
X192643123Y-5340036D01*
X192643123Y-5720989D01*
X193166933Y-4816227D02*
X193166933Y-4197179D01*
X192785980Y-4530513D01*
X192785980Y-4387655D01*
X192738361Y-4292417D01*
X192690742Y-4244798D01*
X192595504Y-4197179D01*
X192357409Y-4197179D01*
X192262171Y-4244798D01*
X192214552Y-4292417D01*
X192166933Y-4387655D01*
X192166933Y-4673370D01*
X192214552Y-4768608D01*
X192262171Y-4816227D01*
X167528933Y-27929560D02*
X168005123Y-28262894D01*
X167528933Y-28500989D02*
X168528933Y-28500989D01*
X168528933Y-28120036D01*
X168481314Y-28024798D01*
X168433694Y-27977179D01*
X168338456Y-27929560D01*
X168195599Y-27929560D01*
X168100361Y-27977179D01*
X168052742Y-28024798D01*
X168005123Y-28120036D01*
X168005123Y-28500989D01*
X168195599Y-27072417D02*
X167528933Y-27072417D01*
X168576552Y-27310513D02*
X167862266Y-27548608D01*
X167862266Y-26929560D01*
X203010647Y-9137655D02*
X202867790Y-9185274D01*
X202629694Y-9185274D01*
X202534456Y-9137655D01*
X202486837Y-9090036D01*
X202439218Y-8994798D01*
X202439218Y-8899560D01*
X202486837Y-8804322D01*
X202534456Y-8756703D01*
X202629694Y-8709084D01*
X202820171Y-8661465D01*
X202915409Y-8613846D01*
X202963028Y-8566227D01*
X203010647Y-8470989D01*
X203010647Y-8375751D01*
X202963028Y-8280513D01*
X202915409Y-8232894D01*
X202820171Y-8185274D01*
X202582075Y-8185274D01*
X202439218Y-8232894D01*
X202105885Y-8185274D02*
X201867790Y-9185274D01*
X201677314Y-8470989D01*
X201486837Y-9185274D01*
X201248742Y-8185274D01*
X200296361Y-9185274D02*
X200629694Y-8709084D01*
X200867790Y-9185274D02*
X200867790Y-8185274D01*
X200486837Y-8185274D01*
X200391599Y-8232894D01*
X200343980Y-8280513D01*
X200296361Y-8375751D01*
X200296361Y-8518608D01*
X200343980Y-8613846D01*
X200391599Y-8661465D01*
X200486837Y-8709084D01*
X200867790Y-8709084D01*
X199343980Y-9185274D02*
X199915409Y-9185274D01*
X199629694Y-9185274D02*
X199629694Y-8185274D01*
X199724933Y-8328132D01*
X199820171Y-8423370D01*
X199915409Y-8470989D01*
X195227611Y-13270293D02*
X194989516Y-13682686D01*
X195778191Y-12983327D02*
X195227611Y-13270293D01*
X195200841Y-12649994D01*
X193958533Y-13087448D02*
X194453405Y-13373162D01*
X194205969Y-13230305D02*
X194705969Y-12364280D01*
X194717019Y-12535617D01*
X194751879Y-12665714D01*
X194810548Y-12754573D01*
X167395218Y-3059274D02*
X167395218Y-3868798D01*
X167347599Y-3964036D01*
X167299980Y-4011655D01*
X167204742Y-4059274D01*
X167014266Y-4059274D01*
X166919028Y-4011655D01*
X166871409Y-3964036D01*
X166823790Y-3868798D01*
X166823790Y-3059274D01*
X165823790Y-4059274D02*
X166395218Y-4059274D01*
X166109504Y-4059274D02*
X166109504Y-3059274D01*
X166204742Y-3202132D01*
X166299980Y-3297370D01*
X166395218Y-3344989D01*
X168620933Y-18952798D02*
X167811409Y-18952798D01*
X167716171Y-18905179D01*
X167668552Y-18857560D01*
X167620933Y-18762322D01*
X167620933Y-18571846D01*
X167668552Y-18476608D01*
X167716171Y-18428989D01*
X167811409Y-18381370D01*
X168620933Y-18381370D01*
X168525694Y-17952798D02*
X168573314Y-17905179D01*
X168620933Y-17809941D01*
X168620933Y-17571846D01*
X168573314Y-17476608D01*
X168525694Y-17428989D01*
X168430456Y-17381370D01*
X168335218Y-17381370D01*
X168192361Y-17428989D01*
X167620933Y-18000417D01*
X167620933Y-17381370D01*
X151959980Y-4389560D02*
X151959980Y-4889560D01*
X151993314Y-4989560D01*
X152059980Y-5056227D01*
X152159980Y-5089560D01*
X152226647Y-5089560D01*
X151259980Y-5089560D02*
X151659980Y-5089560D01*
X151459980Y-5089560D02*
X151459980Y-4389560D01*
X151526647Y-4489560D01*
X151593314Y-4556227D01*
X151659980Y-4589560D01*
X150993314Y-4456227D02*
X150959980Y-4422894D01*
X150893314Y-4389560D01*
X150726647Y-4389560D01*
X150659980Y-4422894D01*
X150626647Y-4456227D01*
X150593314Y-4522894D01*
X150593314Y-4589560D01*
X150626647Y-4689560D01*
X151026647Y-5089560D01*
X150593314Y-5089560D01*
X146879980Y-4389560D02*
X146879980Y-4889560D01*
X146913314Y-4989560D01*
X146979980Y-5056227D01*
X147079980Y-5089560D01*
X147146647Y-5089560D01*
X146179980Y-5089560D02*
X146579980Y-5089560D01*
X146379980Y-5089560D02*
X146379980Y-4389560D01*
X146446647Y-4489560D01*
X146513314Y-4556227D01*
X146579980Y-4589560D01*
X145946647Y-4389560D02*
X145513314Y-4389560D01*
X145746647Y-4656227D01*
X145646647Y-4656227D01*
X145579980Y-4689560D01*
X145546647Y-4722894D01*
X145513314Y-4789560D01*
X145513314Y-4956227D01*
X145546647Y-5022894D01*
X145579980Y-5056227D01*
X145646647Y-5089560D01*
X145846647Y-5089560D01*
X145913314Y-5056227D01*
X145946647Y-5022894D01*
X149419980Y-4389560D02*
X149419980Y-4889560D01*
X149453314Y-4989560D01*
X149519980Y-5056227D01*
X149619980Y-5089560D01*
X149686647Y-5089560D01*
X148719980Y-5089560D02*
X149119980Y-5089560D01*
X148919980Y-5089560D02*
X148919980Y-4389560D01*
X148986647Y-4489560D01*
X149053314Y-4556227D01*
X149119980Y-4589560D01*
X148119980Y-4622894D02*
X148119980Y-5089560D01*
X148286647Y-4356227D02*
X148453314Y-4856227D01*
X148019980Y-4856227D01*
X144339980Y-4389560D02*
X144339980Y-4889560D01*
X144373314Y-4989560D01*
X144439980Y-5056227D01*
X144539980Y-5089560D01*
X144606647Y-5089560D01*
X143639980Y-5089560D02*
X144039980Y-5089560D01*
X143839980Y-5089560D02*
X143839980Y-4389560D01*
X143906647Y-4489560D01*
X143973314Y-4556227D01*
X144039980Y-4589560D01*
X143006647Y-4389560D02*
X143339980Y-4389560D01*
X143373314Y-4722894D01*
X143339980Y-4689560D01*
X143273314Y-4656227D01*
X143106647Y-4656227D01*
X143039980Y-4689560D01*
X143006647Y-4722894D01*
X142973314Y-4789560D01*
X142973314Y-4956227D01*
X143006647Y-5022894D01*
X143039980Y-5056227D01*
X143106647Y-5089560D01*
X143273314Y-5089560D01*
X143339980Y-5056227D01*
X143373314Y-5022894D01*
%LPC*%
D14*
X46665400Y-76847700D03*
X36505400Y-76847700D03*
D15*
X41585400Y-76847700D03*
D16*
X37775400Y-74307700D03*
X44125400Y-71767700D03*
D17*
X173660000Y-7620000D03*
X174460000Y-6420000D03*
X175260000Y-7620000D03*
X176060000Y-6420000D03*
X176860000Y-7620000D03*
D18*
X171610000Y-2200000D03*
X178910000Y-2200000D03*
D16*
X209428304Y-19602914D03*
X203745162Y-23407648D03*
D15*
X208000000Y-25100000D03*
D14*
X203031011Y-26156191D03*
X212968990Y-24043808D03*
D19*
X300445000Y-40845000D03*
X300445000Y-44145000D03*
X44115000Y-40845000D03*
X44115000Y-44145000D03*
X38430200Y-78945000D03*
X38430200Y-82245000D03*
G36*
X89889182Y-79751975D02*
G01*
X88615634Y-79481274D01*
X88823962Y-78501171D01*
X90097510Y-78771872D01*
X89889182Y-79751975D01*
G37*
G36*
X89203074Y-82979863D02*
G01*
X87929526Y-82709162D01*
X88137854Y-81729059D01*
X89411402Y-81999760D01*
X89203074Y-82979863D01*
G37*
G36*
X95245264Y-100366044D02*
G01*
X93971716Y-100095343D01*
X94180044Y-99115240D01*
X95453592Y-99385941D01*
X95245264Y-100366044D01*
G37*
G36*
X94559156Y-103593932D02*
G01*
X93285608Y-103323231D01*
X93493936Y-102343128D01*
X94767484Y-102613829D01*
X94559156Y-103593932D01*
G37*
X281395000Y-40845000D03*
X281395000Y-44145000D03*
G36*
X145092645Y-72010262D02*
G01*
X143819097Y-71739561D01*
X144027425Y-70759458D01*
X145300973Y-71030159D01*
X145092645Y-72010262D01*
G37*
G36*
X144406537Y-75238150D02*
G01*
X143132989Y-74967449D01*
X143341317Y-73987346D01*
X144614865Y-74258047D01*
X144406537Y-75238150D01*
G37*
X301743769Y-97994998D03*
X301743769Y-101294998D03*
X295085000Y-59895000D03*
X295085000Y-63195000D03*
G36*
X159088773Y-31358857D02*
G01*
X157815225Y-31088156D01*
X158023553Y-30108053D01*
X159297101Y-30378754D01*
X159088773Y-31358857D01*
G37*
G36*
X158402665Y-34586745D02*
G01*
X157129117Y-34316044D01*
X157337445Y-33335941D01*
X158610993Y-33606642D01*
X158402665Y-34586745D01*
G37*
G36*
X187497884Y-32140757D02*
G01*
X186224336Y-32411458D01*
X186016008Y-31431355D01*
X187289556Y-31160654D01*
X187497884Y-32140757D01*
G37*
G36*
X188183992Y-35368645D02*
G01*
X186910444Y-35639346D01*
X186702116Y-34659243D01*
X187975664Y-34388542D01*
X188183992Y-35368645D01*
G37*
G36*
X210447950Y-129475795D02*
G01*
X209174402Y-129746496D01*
X208966074Y-128766393D01*
X210239622Y-128495692D01*
X210447950Y-129475795D01*
G37*
G36*
X211134058Y-132703683D02*
G01*
X209860510Y-132974384D01*
X209652182Y-131994281D01*
X210925730Y-131723580D01*
X211134058Y-132703683D01*
G37*
X285075000Y-78945000D03*
X285075000Y-82245000D03*
G36*
X127156602Y-87673429D02*
G01*
X125883054Y-87402728D01*
X126091382Y-86422625D01*
X127364930Y-86693326D01*
X127156602Y-87673429D01*
G37*
G36*
X126470494Y-90901317D02*
G01*
X125196946Y-90630616D01*
X125405274Y-89650513D01*
X126678822Y-89921214D01*
X126470494Y-90901317D01*
G37*
G36*
X102469173Y-43474739D02*
G01*
X101195625Y-43204038D01*
X101403953Y-42223935D01*
X102677501Y-42494636D01*
X102469173Y-43474739D01*
G37*
G36*
X101783065Y-46702627D02*
G01*
X100509517Y-46431926D01*
X100717845Y-45451823D01*
X101991393Y-45722524D01*
X101783065Y-46702627D01*
G37*
X339250000Y-17000000D03*
X339250000Y-20300000D03*
G36*
X128551957Y-126921207D02*
G01*
X127278409Y-126650506D01*
X127486737Y-125670403D01*
X128760285Y-125941104D01*
X128551957Y-126921207D01*
G37*
G36*
X127865849Y-130149095D02*
G01*
X126592301Y-129878394D01*
X126800629Y-128898291D01*
X128074177Y-129168992D01*
X127865849Y-130149095D01*
G37*
G36*
X209514139Y-90723118D02*
G01*
X208240591Y-90993819D01*
X208032263Y-90013716D01*
X209305811Y-89743015D01*
X209514139Y-90723118D01*
G37*
G36*
X210200247Y-93951006D02*
G01*
X208926699Y-94221707D01*
X208718371Y-93241604D01*
X209991919Y-92970903D01*
X210200247Y-93951006D01*
G37*
G36*
X206310993Y-52393358D02*
G01*
X205037445Y-52664059D01*
X204829117Y-51683956D01*
X206102665Y-51413255D01*
X206310993Y-52393358D01*
G37*
G36*
X206997101Y-55621246D02*
G01*
X205723553Y-55891947D01*
X205515225Y-54911844D01*
X206788773Y-54641143D01*
X206997101Y-55621246D01*
G37*
G36*
X151146393Y-112248224D02*
G01*
X149872845Y-111977523D01*
X150081173Y-110997420D01*
X151354721Y-111268121D01*
X151146393Y-112248224D01*
G37*
G36*
X150460285Y-115476112D02*
G01*
X149186737Y-115205411D01*
X149395065Y-114225308D01*
X150668613Y-114496009D01*
X150460285Y-115476112D01*
G37*
G36*
X219528730Y-69118849D02*
G01*
X218255182Y-69389550D01*
X218046854Y-68409447D01*
X219320402Y-68138746D01*
X219528730Y-69118849D01*
G37*
G36*
X220214838Y-72346737D02*
G01*
X218941290Y-72617438D01*
X218732962Y-71637335D01*
X220006510Y-71366634D01*
X220214838Y-72346737D01*
G37*
X276035000Y-59895000D03*
X276035000Y-63195000D03*
G36*
X243518669Y-44544032D02*
G01*
X242245121Y-44814733D01*
X242036793Y-43834630D01*
X243310341Y-43563929D01*
X243518669Y-44544032D01*
G37*
G36*
X244204777Y-47771920D02*
G01*
X242931229Y-48042621D01*
X242722901Y-47062518D01*
X243996449Y-46791817D01*
X244204777Y-47771920D01*
G37*
G36*
X228147851Y-86762401D02*
G01*
X226874303Y-87033102D01*
X226665975Y-86052999D01*
X227939523Y-85782298D01*
X228147851Y-86762401D01*
G37*
G36*
X228833959Y-89990289D02*
G01*
X227560411Y-90260990D01*
X227352083Y-89280887D01*
X228625631Y-89010186D01*
X228833959Y-89990289D01*
G37*
X332699949Y-121807503D03*
X332699949Y-125107503D03*
G36*
X246781563Y-82801683D02*
G01*
X245508015Y-83072384D01*
X245299687Y-82092281D01*
X246573235Y-81821580D01*
X246781563Y-82801683D01*
G37*
G36*
X247467671Y-86029571D02*
G01*
X246194123Y-86300272D01*
X245985795Y-85320169D01*
X247259343Y-85049468D01*
X247467671Y-86029571D01*
G37*
X332699949Y-102757503D03*
X332699949Y-106057503D03*
G36*
X224884958Y-48504750D02*
G01*
X223611410Y-48775451D01*
X223403082Y-47795348D01*
X224676630Y-47524647D01*
X224884958Y-48504750D01*
G37*
G36*
X225571066Y-51732638D02*
G01*
X224297518Y-52003339D01*
X224089190Y-51023236D01*
X225362738Y-50752535D01*
X225571066Y-51732638D01*
G37*
X313649949Y-121807503D03*
X313649949Y-125107503D03*
X44715000Y-59895000D03*
X44715000Y-63195000D03*
X63165000Y-40845000D03*
X63165000Y-44145000D03*
X68525000Y-59895000D03*
X68525000Y-63195000D03*
X316031250Y-78945000D03*
X316031250Y-82245000D03*
X36485000Y-117045000D03*
X36485000Y-120345000D03*
X69225000Y-78945000D03*
X69225000Y-82245000D03*
X313200000Y-16875000D03*
X313200000Y-20175000D03*
X74575000Y-97995000D03*
X74575000Y-101295000D03*
G36*
X229460993Y-23293358D02*
G01*
X228187445Y-23564059D01*
X227979117Y-22583956D01*
X229252665Y-22313255D01*
X229460993Y-23293358D01*
G37*
G36*
X230147101Y-26521246D02*
G01*
X228873553Y-26791947D01*
X228665225Y-25811844D01*
X229938773Y-25541143D01*
X230147101Y-26521246D01*
G37*
G36*
X238162442Y-65158131D02*
G01*
X236888894Y-65428832D01*
X236680566Y-64448729D01*
X237954114Y-64178028D01*
X238162442Y-65158131D01*
G37*
G36*
X238848550Y-68386019D02*
G01*
X237575002Y-68656720D01*
X237366674Y-67676617D01*
X238640222Y-67405916D01*
X238848550Y-68386019D01*
G37*
X43618750Y-97995000D03*
X43618750Y-101295000D03*
G36*
X200895018Y-73079566D02*
G01*
X199621470Y-73350267D01*
X199413142Y-72370164D01*
X200686690Y-72099463D01*
X200895018Y-73079566D01*
G37*
G36*
X201581126Y-76307454D02*
G01*
X200307578Y-76578155D01*
X200099250Y-75598052D01*
X201372798Y-75327351D01*
X201581126Y-76307454D01*
G37*
X33950000Y-17050000D03*
X33950000Y-20350000D03*
G36*
X117212555Y-22714059D02*
G01*
X115939007Y-22443358D01*
X116147335Y-21463255D01*
X117420883Y-21733956D01*
X117212555Y-22714059D01*
G37*
G36*
X116526447Y-25941947D02*
G01*
X115252899Y-25671246D01*
X115461227Y-24691143D01*
X116734775Y-24961844D01*
X116526447Y-25941947D01*
G37*
G36*
X256796154Y-61197413D02*
G01*
X255522606Y-61468114D01*
X255314278Y-60488011D01*
X256587826Y-60217310D01*
X256796154Y-61197413D01*
G37*
G36*
X257482262Y-64425301D02*
G01*
X256208714Y-64696002D01*
X256000386Y-63715899D01*
X257273934Y-63445198D01*
X257482262Y-64425301D01*
G37*
G36*
X250044586Y-121059283D02*
G01*
X248771038Y-121329984D01*
X248562710Y-120349881D01*
X249836258Y-120079180D01*
X250044586Y-121059283D01*
G37*
G36*
X250730694Y-124287171D02*
G01*
X249457146Y-124557872D01*
X249248818Y-123577769D01*
X250522366Y-123307068D01*
X250730694Y-124287171D01*
G37*
G36*
X182261307Y-77040284D02*
G01*
X180987759Y-77310985D01*
X180779431Y-76330882D01*
X182052979Y-76060181D01*
X182261307Y-77040284D01*
G37*
G36*
X182947415Y-80268172D02*
G01*
X181673867Y-80538873D01*
X181465539Y-79558770D01*
X182739087Y-79288069D01*
X182947415Y-80268172D01*
G37*
G36*
X199499549Y-112327388D02*
G01*
X198226001Y-112598089D01*
X198017673Y-111617986D01*
X199291221Y-111347285D01*
X199499549Y-112327388D01*
G37*
G36*
X200185657Y-115555276D02*
G01*
X198912109Y-115825977D01*
X198703781Y-114845874D01*
X199977329Y-114575173D01*
X200185657Y-115555276D01*
G37*
X351749949Y-121807503D03*
X351749949Y-125107503D03*
X262345000Y-39344615D03*
X262345000Y-42644615D03*
G36*
X126458935Y-68049535D02*
G01*
X125185387Y-67778834D01*
X125393715Y-66798731D01*
X126667263Y-67069432D01*
X126458935Y-68049535D01*
G37*
G36*
X125772827Y-71277423D02*
G01*
X124499279Y-71006722D01*
X124707607Y-70026619D01*
X125981155Y-70297320D01*
X125772827Y-71277423D01*
G37*
G36*
X98725664Y-18511458D02*
G01*
X97452116Y-18240757D01*
X97660444Y-17260654D01*
X98933992Y-17531355D01*
X98725664Y-18511458D01*
G37*
G36*
X98039556Y-21739346D02*
G01*
X96766008Y-21468645D01*
X96974336Y-20488542D01*
X98247884Y-20759243D01*
X98039556Y-21739346D01*
G37*
G36*
X158370308Y-55356892D02*
G01*
X157096760Y-55086191D01*
X157305088Y-54106088D01*
X158578636Y-54376789D01*
X158370308Y-55356892D01*
G37*
G36*
X157684200Y-58584780D02*
G01*
X156410652Y-58314079D01*
X156618980Y-57333976D01*
X157892528Y-57604677D01*
X157684200Y-58584780D01*
G37*
G36*
X140521869Y-26904953D02*
G01*
X139248321Y-26634252D01*
X139456649Y-25654149D01*
X140730197Y-25924850D01*
X140521869Y-26904953D01*
G37*
G36*
X139835761Y-30132841D02*
G01*
X138562213Y-29862140D01*
X138770541Y-28882037D01*
X140044089Y-29152738D01*
X139835761Y-30132841D01*
G37*
G36*
X187617534Y-56426185D02*
G01*
X186343986Y-56696886D01*
X186135658Y-55716783D01*
X187409206Y-55446082D01*
X187617534Y-56426185D01*
G37*
G36*
X188303642Y-59654073D02*
G01*
X187030094Y-59924774D01*
X186821766Y-58944671D01*
X188095314Y-58673970D01*
X188303642Y-59654073D01*
G37*
G36*
X236766972Y-104405953D02*
G01*
X235493424Y-104676654D01*
X235285096Y-103696551D01*
X236558644Y-103425850D01*
X236766972Y-104405953D01*
G37*
G36*
X237453080Y-107633841D02*
G01*
X236179532Y-107904542D01*
X235971204Y-106924439D01*
X237244752Y-106653738D01*
X237453080Y-107633841D01*
G37*
X351749949Y-74182519D03*
X351749949Y-77482519D03*
G36*
X255400684Y-100445235D02*
G01*
X254127136Y-100715936D01*
X253918808Y-99735833D01*
X255192356Y-99465132D01*
X255400684Y-100445235D01*
G37*
G36*
X256086792Y-103673123D02*
G01*
X254813244Y-103943824D01*
X254604916Y-102963721D01*
X255878464Y-102693020D01*
X256086792Y-103673123D01*
G37*
G36*
X218133261Y-108366670D02*
G01*
X216859713Y-108637371D01*
X216651385Y-107657268D01*
X217924933Y-107386567D01*
X218133261Y-108366670D01*
G37*
G36*
X218819369Y-111594558D02*
G01*
X217545821Y-111865259D01*
X217337493Y-110885156D01*
X218611041Y-110614455D01*
X218819369Y-111594558D01*
G37*
X319495000Y-40845000D03*
X319495000Y-44145000D03*
X343307542Y-36082509D03*
X343307542Y-39382509D03*
G36*
X205960993Y-28093358D02*
G01*
X204687445Y-28364059D01*
X204479117Y-27383956D01*
X205752665Y-27113255D01*
X205960993Y-28093358D01*
G37*
G36*
X206647101Y-31321246D02*
G01*
X205373553Y-31591947D01*
X205165225Y-30611844D01*
X206438773Y-30341143D01*
X206647101Y-31321246D01*
G37*
X266025000Y-78945000D03*
X266025000Y-82245000D03*
X318905000Y-59895000D03*
X318905000Y-63195000D03*
G36*
X108522892Y-83712702D02*
G01*
X107249344Y-83442001D01*
X107457672Y-82461898D01*
X108731220Y-82732599D01*
X108522892Y-83712702D01*
G37*
G36*
X107836784Y-86940590D02*
G01*
X106563236Y-86669889D01*
X106771564Y-85689786D01*
X108045112Y-85960487D01*
X107836784Y-86940590D01*
G37*
G36*
X113878974Y-104326770D02*
G01*
X112605426Y-104056069D01*
X112813754Y-103075966D01*
X114087302Y-103346667D01*
X113878974Y-104326770D01*
G37*
G36*
X113192866Y-107554658D02*
G01*
X111919318Y-107283957D01*
X112127646Y-106303854D01*
X113401194Y-106574555D01*
X113192866Y-107554658D01*
G37*
G36*
X132512683Y-108287497D02*
G01*
X131239135Y-108016796D01*
X131447463Y-107036693D01*
X132721011Y-107307394D01*
X132512683Y-108287497D01*
G37*
G36*
X131826575Y-111515385D02*
G01*
X130553027Y-111244684D01*
X130761355Y-110264581D01*
X132034903Y-110535282D01*
X131826575Y-111515385D01*
G37*
G36*
X95942965Y-119989932D02*
G01*
X94669417Y-119719231D01*
X94877745Y-118739128D01*
X96151293Y-119009829D01*
X95942965Y-119989932D01*
G37*
G36*
X95256857Y-123217820D02*
G01*
X93983309Y-122947119D01*
X94191637Y-121967016D01*
X95465185Y-122237717D01*
X95256857Y-123217820D01*
G37*
X82215000Y-39344615D03*
X82215000Y-42644615D03*
G36*
X107825225Y-64088808D02*
G01*
X106551677Y-63818107D01*
X106760005Y-62838004D01*
X108033553Y-63108705D01*
X107825225Y-64088808D01*
G37*
G36*
X107139117Y-67316696D02*
G01*
X105865569Y-67045995D01*
X106073897Y-66065892D01*
X107347445Y-66336593D01*
X107139117Y-67316696D01*
G37*
X267550000Y-16075000D03*
X267550000Y-19375000D03*
G36*
X145790312Y-91634156D02*
G01*
X144516764Y-91363455D01*
X144725092Y-90383352D01*
X145998640Y-90654053D01*
X145790312Y-91634156D01*
G37*
G36*
X145104204Y-94862044D02*
G01*
X143830656Y-94591343D01*
X144038984Y-93611240D01*
X145312532Y-93881941D01*
X145104204Y-94862044D01*
G37*
G36*
X121102884Y-47435457D02*
G01*
X119829336Y-47164756D01*
X120037664Y-46184653D01*
X121311212Y-46455354D01*
X121102884Y-47435457D01*
G37*
G36*
X120416776Y-50663345D02*
G01*
X119143228Y-50392644D01*
X119351556Y-49412541D01*
X120625104Y-49683242D01*
X120416776Y-50663345D01*
G37*
G36*
X89191515Y-60128082D02*
G01*
X87917967Y-59857381D01*
X88126295Y-58877278D01*
X89399843Y-59147979D01*
X89191515Y-60128082D01*
G37*
G36*
X88505407Y-63355970D02*
G01*
X87231859Y-63085269D01*
X87440187Y-62105166D01*
X88713735Y-62375867D01*
X88505407Y-63355970D01*
G37*
G36*
X248060993Y-19293358D02*
G01*
X246787445Y-19564059D01*
X246579117Y-18583956D01*
X247852665Y-18313255D01*
X248060993Y-19293358D01*
G37*
G36*
X248747101Y-22521246D02*
G01*
X247473553Y-22791947D01*
X247265225Y-21811844D01*
X248538773Y-21541143D01*
X248747101Y-22521246D01*
G37*
X347480000Y-55132516D03*
X347480000Y-58432516D03*
X286500000Y-16125000D03*
X286500000Y-19425000D03*
X275550019Y-97994998D03*
X275550019Y-101294998D03*
G36*
X156502530Y-132862253D02*
G01*
X155228982Y-132591552D01*
X155437310Y-131611449D01*
X156710858Y-131882150D01*
X156502530Y-132862253D01*
G37*
G36*
X155816422Y-136090141D02*
G01*
X154542874Y-135819440D01*
X154751202Y-134839337D01*
X156024750Y-135110038D01*
X155816422Y-136090141D01*
G37*
G36*
X190880428Y-94683836D02*
G01*
X189606880Y-94954537D01*
X189398552Y-93974434D01*
X190672100Y-93703733D01*
X190880428Y-94683836D01*
G37*
G36*
X191566536Y-97911724D02*
G01*
X190292988Y-98182425D01*
X190084660Y-97202322D01*
X191358208Y-96931621D01*
X191566536Y-97911724D01*
G37*
X58350000Y-15975000D03*
X58350000Y-19275000D03*
X77650000Y-16075000D03*
X77650000Y-19375000D03*
G36*
X139736596Y-51311458D02*
G01*
X138463048Y-51040757D01*
X138671376Y-50060654D01*
X139944924Y-50331355D01*
X139736596Y-51311458D01*
G37*
G36*
X139050488Y-54539346D02*
G01*
X137776940Y-54268645D01*
X137985268Y-53288542D01*
X139258816Y-53559243D01*
X139050488Y-54539346D01*
G37*
D14*
X207868990Y-68993808D03*
X197931011Y-71106191D03*
D15*
X202900000Y-70050000D03*
D16*
X198645162Y-68357648D03*
X204328304Y-64552914D03*
D14*
X216518990Y-86593808D03*
X206581011Y-88706191D03*
D15*
X211550000Y-87650000D03*
D16*
X207295162Y-85957648D03*
X212978304Y-82152914D03*
D14*
X225118990Y-104243808D03*
X215181011Y-106356191D03*
D15*
X220150000Y-105300000D03*
D16*
X215895162Y-103607648D03*
X221578304Y-99802914D03*
D14*
X129168990Y-46506192D03*
X119231010Y-44393809D03*
D15*
X124200000Y-45450000D03*
D16*
X121001353Y-42173362D03*
X127740686Y-41009106D03*
D14*
X197868990Y-90543808D03*
X187931011Y-92656191D03*
D15*
X192900000Y-91600000D03*
D16*
X188645162Y-89907648D03*
X194328304Y-86102914D03*
D14*
X115901570Y-63184738D03*
X105963590Y-61072355D03*
D15*
X110932580Y-62128546D03*
D16*
X107733933Y-58851908D03*
X114473266Y-57687652D03*
D14*
X194618990Y-52293808D03*
X184681011Y-54406191D03*
D15*
X189650000Y-53350000D03*
D16*
X185395162Y-51657648D03*
X191078304Y-47852914D03*
D14*
X341030000Y-100700000D03*
X330870000Y-100700000D03*
D15*
X335950000Y-100700000D03*
D16*
X332140000Y-98160000D03*
X338490000Y-95620000D03*
D14*
X226468990Y-65043808D03*
X216531011Y-67156191D03*
D15*
X221500000Y-66100000D03*
D16*
X217245162Y-64407648D03*
X222928304Y-60602914D03*
D14*
X289725051Y-38787497D03*
X279565051Y-38787497D03*
D15*
X284645051Y-38787497D03*
D16*
X280835051Y-36247497D03*
X287185051Y-33707497D03*
D14*
X341030000Y-119750000D03*
X330870000Y-119750000D03*
D15*
X335950000Y-119750000D03*
D16*
X332140000Y-117210000D03*
X338490000Y-114670000D03*
D14*
X327825051Y-38787497D03*
X317665051Y-38787497D03*
D15*
X322745051Y-38787497D03*
D16*
X318935051Y-36247497D03*
X325285051Y-33707497D03*
D14*
X308775051Y-38787497D03*
X298615051Y-38787497D03*
D15*
X303695051Y-38787497D03*
D16*
X299885051Y-36247497D03*
X306235051Y-33707497D03*
D14*
X253768990Y-78693808D03*
X243831011Y-80806191D03*
D15*
X248800000Y-79750000D03*
D16*
X244545162Y-78057648D03*
X250228304Y-74252914D03*
D14*
X284365051Y-57837497D03*
X274205051Y-57837497D03*
D15*
X279285051Y-57837497D03*
D16*
X275475051Y-55297497D03*
X281825051Y-52757497D03*
D14*
X274355051Y-76887497D03*
X264195051Y-76887497D03*
D15*
X269275051Y-76887497D03*
D16*
X265465051Y-74347497D03*
X271815051Y-71807497D03*
D14*
X262340686Y-96340894D03*
X252402707Y-98453277D03*
D15*
X257371696Y-97397086D03*
D16*
X253116858Y-95704734D03*
X258800000Y-91900000D03*
D14*
X303415051Y-57837497D03*
X293255051Y-57837497D03*
D15*
X298335051Y-57837497D03*
D16*
X294525051Y-55297497D03*
X300875051Y-52757497D03*
D14*
X321980000Y-119750000D03*
X311820000Y-119750000D03*
D15*
X316900000Y-119750000D03*
D16*
X313090000Y-117210000D03*
X319440000Y-114670000D03*
D14*
X263768990Y-57093808D03*
X253831011Y-59206191D03*
D15*
X258800000Y-58150000D03*
D16*
X254545162Y-56457648D03*
X260228304Y-52652914D03*
D14*
X351637593Y-34025006D03*
X341477593Y-34025006D03*
D15*
X346557593Y-34025006D03*
D16*
X342747593Y-31485006D03*
X349097593Y-28945006D03*
D14*
X355810051Y-53075013D03*
X345650051Y-53075013D03*
D15*
X350730051Y-53075013D03*
D16*
X346920051Y-50535013D03*
X353270051Y-47995013D03*
D14*
X231868990Y-44393808D03*
X221931011Y-46506191D03*
D15*
X226900000Y-45450000D03*
D16*
X222645162Y-43757648D03*
X228328304Y-39952914D03*
D14*
X293405051Y-76887497D03*
X283245051Y-76887497D03*
D15*
X288325051Y-76887497D03*
D16*
X284515051Y-74347497D03*
X290865051Y-71807497D03*
D14*
X76880000Y-57800000D03*
X66720000Y-57800000D03*
D15*
X71800000Y-57800000D03*
D16*
X67990000Y-55260000D03*
X74340000Y-52720000D03*
D14*
X52480000Y-38750000D03*
X42320000Y-38750000D03*
D15*
X47400000Y-38750000D03*
D16*
X43590000Y-36210000D03*
X49940000Y-33670000D03*
D14*
X90580000Y-37250000D03*
X80420000Y-37250000D03*
D15*
X85500000Y-37250000D03*
D16*
X81690000Y-34710000D03*
X88040000Y-32170000D03*
D14*
X71530000Y-38750000D03*
X61370000Y-38750000D03*
D15*
X66450000Y-38750000D03*
D16*
X62640000Y-36210000D03*
X68990000Y-33670000D03*
D14*
X77590000Y-76880000D03*
X67430000Y-76880000D03*
D15*
X72510000Y-76880000D03*
D16*
X68700000Y-74340000D03*
X75050000Y-71800000D03*
D14*
X82905051Y-95937497D03*
X72745051Y-95937497D03*
D15*
X77825051Y-95937497D03*
D16*
X74015051Y-93397497D03*
X80365051Y-90857497D03*
D14*
X121918990Y-103406192D03*
X111981010Y-101293809D03*
D15*
X116950000Y-102350000D03*
D16*
X113751353Y-99073362D03*
X120490686Y-97909106D03*
D14*
X159218990Y-111306192D03*
X149281010Y-109193809D03*
D15*
X154250000Y-110250000D03*
D16*
X151051353Y-106973362D03*
X157790686Y-105809106D03*
D14*
X189268990Y-72893808D03*
X179331011Y-75006191D03*
D15*
X184300000Y-73950000D03*
D16*
X180045162Y-72257648D03*
X185728304Y-68452914D03*
D14*
X166468990Y-54406192D03*
X156531010Y-52293809D03*
D15*
X161500000Y-53350000D03*
D16*
X158301353Y-50073362D03*
X165040686Y-48909106D03*
D14*
X213268990Y-48343808D03*
X203331011Y-50456191D03*
D15*
X208300000Y-49400000D03*
D16*
X204045162Y-47707648D03*
X209728304Y-43902914D03*
D14*
X97965527Y-78847905D03*
X88027547Y-76735522D03*
D15*
X92996537Y-77791713D03*
D16*
X89797890Y-74515075D03*
X96537223Y-73350819D03*
D14*
X140568990Y-107356192D03*
X130631010Y-105243809D03*
D15*
X135600000Y-106300000D03*
D16*
X132401353Y-103023362D03*
X139140686Y-101859106D03*
D14*
X153866657Y-90730086D03*
X143928677Y-88617703D03*
D15*
X148897667Y-89673894D03*
D16*
X145699020Y-86397256D03*
X152438353Y-85233000D03*
D14*
X153168990Y-71106192D03*
X143231010Y-68993809D03*
D15*
X148200000Y-70050000D03*
D16*
X145001353Y-66773362D03*
X151740686Y-65609106D03*
D14*
X164568990Y-131906192D03*
X154631010Y-129793809D03*
D15*
X159600000Y-130850000D03*
D16*
X156401353Y-127573362D03*
X163140686Y-126409106D03*
D14*
X97267860Y-59224012D03*
X87329880Y-57111629D03*
D15*
X92298870Y-58167820D03*
D16*
X89100223Y-54891182D03*
X95839556Y-53726926D03*
D14*
X147818990Y-50456192D03*
X137881010Y-48343809D03*
D15*
X142850000Y-49400000D03*
D16*
X139651353Y-46123362D03*
X146390686Y-44959106D03*
D14*
X103318990Y-99456192D03*
X93381010Y-97343809D03*
D15*
X98350000Y-98400000D03*
D16*
X95151353Y-95123362D03*
X101890686Y-93959106D03*
D14*
X206468990Y-108193808D03*
X196531011Y-110306191D03*
D15*
X201500000Y-109250000D03*
D16*
X197245162Y-107557648D03*
X202928304Y-103752914D03*
D14*
X116599237Y-82808632D03*
X106661257Y-80696249D03*
D15*
X111630247Y-81752440D03*
D16*
X108431600Y-78475802D03*
X115170933Y-77311546D03*
D14*
X134535280Y-67145465D03*
X124597300Y-65033082D03*
D15*
X129566290Y-66089273D03*
D16*
X126367643Y-62812635D03*
X133106976Y-61648379D03*
D14*
X110568990Y-42556192D03*
X100631010Y-40443809D03*
D15*
X105600000Y-41500000D03*
D16*
X102401353Y-38223362D03*
X109140686Y-37059106D03*
D14*
X135232947Y-86769359D03*
X125294967Y-84656976D03*
D15*
X130263957Y-85713167D03*
D16*
X127065310Y-82436529D03*
X133804643Y-81272273D03*
D14*
X235118990Y-82643808D03*
X225181011Y-84756191D03*
D15*
X230150000Y-83700000D03*
D16*
X225895162Y-82007648D03*
X231578304Y-78202914D03*
D14*
X250518990Y-40443808D03*
X240581011Y-42556191D03*
D15*
X245550000Y-41500000D03*
D16*
X241295162Y-39807648D03*
X246978304Y-36002914D03*
D14*
X360080000Y-119750000D03*
X349920000Y-119750000D03*
D15*
X355000000Y-119750000D03*
D16*
X351190000Y-117210000D03*
X357540000Y-114670000D03*
D14*
X243768990Y-100293808D03*
X233831011Y-102406191D03*
D15*
X238800000Y-101350000D03*
D16*
X234545162Y-99657648D03*
X240228304Y-95852914D03*
D14*
X283880070Y-95937495D03*
X273720070Y-95937495D03*
D15*
X278800070Y-95937495D03*
D16*
X274990070Y-93397495D03*
X281340070Y-90857495D03*
D14*
X360080000Y-72125016D03*
X349920000Y-72125016D03*
D15*
X355000000Y-72125016D03*
D16*
X351190000Y-69585016D03*
X357540000Y-67045016D03*
D14*
X245118990Y-61043808D03*
X235181011Y-63156191D03*
D15*
X240150000Y-62100000D03*
D16*
X235895162Y-60407648D03*
X241578304Y-56602914D03*
D14*
X270675051Y-37287112D03*
X260515051Y-37287112D03*
D15*
X265595051Y-37287112D03*
D16*
X261785051Y-34747112D03*
X268135051Y-32207112D03*
D14*
X44780000Y-115050000D03*
X34620000Y-115050000D03*
D15*
X39700000Y-115050000D03*
D16*
X35890000Y-112510000D03*
X42240000Y-109970000D03*
D14*
X53030000Y-57800000D03*
X42870000Y-57800000D03*
D15*
X47950000Y-57800000D03*
D16*
X44140000Y-55260000D03*
X50490000Y-52720000D03*
D14*
X257018990Y-116893808D03*
X247081011Y-119006191D03*
D15*
X252050000Y-117950000D03*
D16*
X247795162Y-116257648D03*
X253478304Y-112452914D03*
D14*
X104018990Y-119056192D03*
X94081010Y-116943809D03*
D15*
X99050000Y-118000000D03*
D16*
X95851353Y-114723362D03*
X102590686Y-113559106D03*
D14*
X327280000Y-57850000D03*
X317120000Y-57850000D03*
D15*
X322200000Y-57850000D03*
D16*
X318390000Y-55310000D03*
X324740000Y-52770000D03*
D14*
X66480000Y-13450000D03*
X56320000Y-13450000D03*
D15*
X61400000Y-13450000D03*
D16*
X57590000Y-10910000D03*
X63940000Y-8370000D03*
X39940000Y-9870000D03*
X33590000Y-12410000D03*
D15*
X37400000Y-14950000D03*
D14*
X32320000Y-14950000D03*
X42480000Y-14950000D03*
D16*
X82990000Y-8370000D03*
X76640000Y-10910000D03*
D15*
X80450000Y-13450000D03*
D14*
X75370000Y-13450000D03*
X85530000Y-13450000D03*
D16*
X165290686Y-24659106D03*
X158551353Y-25823362D03*
D15*
X161750000Y-29100000D03*
D14*
X156781010Y-28043809D03*
X166718990Y-30156192D03*
D16*
X146640686Y-20709106D03*
X139901353Y-21873362D03*
D15*
X143100000Y-25150000D03*
D14*
X138131010Y-24093809D03*
X148068990Y-26206192D03*
D16*
X232728304Y-14652914D03*
X227045162Y-18457648D03*
D15*
X231300000Y-20150000D03*
D14*
X226331011Y-21206191D03*
X236268990Y-19093808D03*
D16*
X318890000Y-9870000D03*
X312540000Y-12410000D03*
D15*
X316350000Y-14950000D03*
D14*
X311270000Y-14950000D03*
X321430000Y-14950000D03*
D16*
X273190000Y-8370000D03*
X266840000Y-10910000D03*
D15*
X270650000Y-13450000D03*
D14*
X265570000Y-13450000D03*
X275730000Y-13450000D03*
D16*
X190778304Y-23602914D03*
X185095162Y-27407648D03*
D15*
X189350000Y-29100000D03*
D14*
X184381011Y-30156191D03*
X194318990Y-28043808D03*
D16*
X104790686Y-11809106D03*
X98051353Y-12973362D03*
D15*
X101250000Y-16250000D03*
D14*
X96281010Y-15193809D03*
X106218990Y-17306192D03*
D16*
X251328304Y-10702914D03*
X245645162Y-14507648D03*
D15*
X249900000Y-16200000D03*
D14*
X244931011Y-17256191D03*
X254868990Y-15143808D03*
D16*
X123390686Y-15759106D03*
X116651353Y-16923362D03*
D15*
X119850000Y-20200000D03*
D14*
X114881010Y-19143809D03*
X124818990Y-21256192D03*
D16*
X344890000Y-9870000D03*
X338540000Y-12410000D03*
D15*
X342350000Y-14950000D03*
D14*
X337270000Y-14950000D03*
X347430000Y-14950000D03*
D16*
X292240000Y-8370000D03*
X285890000Y-10910000D03*
D15*
X289700000Y-13450000D03*
D14*
X284620000Y-13450000D03*
X294780000Y-13450000D03*
D20*
X241060266Y-120608720D03*
X345449949Y-110157503D03*
D21*
X185175314Y-15670894D03*
X185175314Y-18170894D03*
X187461314Y-17027894D03*
X187461314Y-14527894D03*
X183143314Y-7502894D03*
X183143314Y-5002894D03*
X181111314Y-7502894D03*
X181111314Y-5002894D03*
D22*
X167141314Y-12348894D03*
X164641314Y-12348894D03*
X167141314Y-14380894D03*
X164641314Y-14380894D03*
X179607314Y-26318894D03*
X182107314Y-26318894D03*
X163870000Y-21844000D03*
X166370000Y-21844000D03*
X187207314Y-12094894D03*
X189707314Y-12094894D03*
D23*
X220559314Y-2440894D03*
X218195314Y-2442894D03*
X215655314Y-2442894D03*
X213115314Y-2442894D03*
X210575314Y-2442894D03*
X208035314Y-2442894D03*
X138693314Y-2442894D03*
X136153314Y-2442894D03*
X141250000Y-2442894D03*
D24*
X162141314Y-7522894D03*
X159441314Y-7522894D03*
X159441314Y-5490894D03*
X162141314Y-5490894D03*
D25*
X194319314Y-3632894D03*
X194319314Y-6332894D03*
X169681314Y-26412894D03*
X169681314Y-29112894D03*
D14*
X51430000Y-76850000D03*
X41270000Y-76850000D03*
D15*
X46350000Y-76850000D03*
D16*
X42540000Y-74310000D03*
X48890000Y-71770000D03*
D26*
X58750000Y-88950000D03*
X34950000Y-88950000D03*
D15*
X34950000Y-104190000D03*
X58750000Y-104190000D03*
D14*
X51930000Y-95950000D03*
X41770000Y-95950000D03*
D15*
X46850000Y-95950000D03*
D16*
X43040000Y-93410000D03*
X49390000Y-90870000D03*
D26*
X141797364Y-134208124D03*
X118517451Y-129259826D03*
D15*
X121686025Y-114352856D03*
X144965938Y-119301154D03*
D14*
X136581779Y-125943133D03*
X126643799Y-123830750D03*
D15*
X131612789Y-124886942D03*
D16*
X128414142Y-121610303D03*
X135153475Y-120446047D03*
D26*
X225514604Y-130744422D03*
X202234691Y-135692720D03*
D15*
X199066117Y-120785751D03*
X222346030Y-115837453D03*
D14*
X217388255Y-125315347D03*
X207450276Y-127427729D03*
D15*
X212419266Y-126371538D03*
D16*
X208164428Y-124679187D03*
X213847569Y-120874453D03*
D14*
X310048769Y-95869998D03*
X299888769Y-95869998D03*
D15*
X304968769Y-95869998D03*
D16*
X301158769Y-93329998D03*
X307508769Y-90789998D03*
D26*
X331200000Y-83900000D03*
X307400000Y-83900000D03*
D15*
X307400000Y-68660000D03*
X331200000Y-68660000D03*
D14*
X324380000Y-76900000D03*
X314220000Y-76900000D03*
D15*
X319300000Y-76900000D03*
D16*
X315490000Y-74360000D03*
X321840000Y-71820000D03*
D27*
X204327314Y-3082894D03*
X198027314Y-3082894D03*
X204327314Y-6882894D03*
X198027314Y-6882894D03*
G36*
X195438045Y-17055432D02*
G01*
X194487045Y-18702612D01*
X192580057Y-17601612D01*
X193531057Y-15954432D01*
X195438045Y-17055432D01*
G37*
G36*
X192926571Y-15605432D02*
G01*
X191975571Y-17252612D01*
X190068583Y-16151612D01*
X191019583Y-14504432D01*
X192926571Y-15605432D01*
G37*
G36*
X194026571Y-13700176D02*
G01*
X193075571Y-15347356D01*
X191168583Y-14246356D01*
X192119583Y-12599176D01*
X194026571Y-13700176D01*
G37*
G36*
X196538045Y-15150176D02*
G01*
X195587045Y-16797356D01*
X193680057Y-15696356D01*
X194631057Y-14049176D01*
X196538045Y-15150176D01*
G37*
D28*
X167983314Y-6506894D03*
X167983314Y-7456894D03*
X167983314Y-5556894D03*
X165283314Y-5556894D03*
X165283314Y-6506894D03*
X165283314Y-7456894D03*
D29*
X171523314Y-12490894D03*
X172323314Y-12490894D03*
X173123314Y-12490894D03*
X173923314Y-12490894D03*
X174723314Y-12490894D03*
X175523314Y-12490894D03*
X176323314Y-12490894D03*
X177123314Y-12490894D03*
X177923314Y-12490894D03*
X178723314Y-12490894D03*
X179523314Y-12490894D03*
D30*
X181223314Y-14190894D03*
X181223314Y-14990894D03*
X181223314Y-15790894D03*
X181223314Y-16590894D03*
X181223314Y-17390894D03*
X181223314Y-18190894D03*
X181223314Y-18990894D03*
X181223314Y-19790894D03*
X181223314Y-20590894D03*
X181223314Y-21390894D03*
X181223314Y-22190894D03*
D29*
X179523314Y-23890894D03*
X178723314Y-23890894D03*
X177923314Y-23890894D03*
X177123314Y-23890894D03*
X176323314Y-23890894D03*
X175523314Y-23890894D03*
X174723314Y-23890894D03*
X173923314Y-23890894D03*
X173123314Y-23890894D03*
X172323314Y-23890894D03*
X171523314Y-23890894D03*
D30*
X169823314Y-22190894D03*
X169823314Y-21390894D03*
X169823314Y-20590894D03*
X169823314Y-19790894D03*
X169823314Y-18990894D03*
X169823314Y-18190894D03*
X169823314Y-17390894D03*
X169823314Y-16590894D03*
X169823314Y-15790894D03*
X169823314Y-14990894D03*
X169823314Y-14190894D03*
D23*
X151393314Y-2442894D03*
X146313314Y-2442894D03*
X148853314Y-2442894D03*
X143773314Y-2442894D03*
D20*
X56865000Y-48245000D03*
X51197500Y-114920000D03*
X120650000Y-6350000D03*
X109959436Y-120609368D03*
X228600000Y-6350000D03*
X341180000Y-43482516D03*
M02*
