G04 #@! TF.GenerationSoftware,KiCad,Pcbnew,(5.99.0-670-ga8d9fcb4e)*
G04 #@! TF.CreationDate,2020-04-27T16:46:55+02:00*
G04 #@! TF.ProjectId,adelheid,6164656c-6865-4696-942e-6b696361645f,1.0.1*
G04 #@! TF.SameCoordinates,Original*
G04 #@! TF.FileFunction,Legend,Bot*
G04 #@! TF.FilePolarity,Positive*
%FSLAX46Y46*%
G04 Gerber Fmt 4.6, Leading zero omitted, Abs format (unit mm)*
G04 Created by KiCad (PCBNEW (5.99.0-670-ga8d9fcb4e)) date 2020-04-27 16:46:55*
%MOMM*%
%LPD*%
G04 APERTURE LIST*
%ADD10C,0.250000*%
%ADD11C,0.300000*%
%ADD12C,0.200000*%
%ADD13C,0.120000*%
%ADD14C,0.150000*%
%ADD15C,1.802000*%
%ADD16C,4.102000*%
%ADD17C,2.302000*%
%ADD18C,1.202000*%
%ADD19O,1.302000X2.002000*%
%ADD20R,1.302000X1.002000*%
%ADD21C,4.502000*%
%ADD22R,1.352000X1.602000*%
%ADD23R,1.602000X1.352000*%
%ADD24R,1.802000X1.802000*%
%ADD25R,1.602000X1.402000*%
%ADD26R,1.402000X1.602000*%
%ADD27C,3.152000*%
%ADD28R,1.802000X1.102000*%
%ADD29R,1.662000X0.752000*%
%ADD30R,0.652000X1.602000*%
%ADD31R,1.602000X0.652000*%
G04 APERTURE END LIST*
D10*
X179008193Y-37984154D02*
X179008193Y-38174630D01*
X178960574Y-38174630D02*
X178960574Y-37984154D01*
X178912955Y-37936535D02*
X178912955Y-38222249D01*
X178865335Y-38174630D02*
X178865335Y-37984154D01*
X178817716Y-37984154D02*
X178817716Y-38174630D01*
X179008193Y-38127011D02*
X178912955Y-38222249D01*
X178817716Y-38127011D01*
X179008193Y-38031773D02*
X178912955Y-37936535D01*
X178817716Y-38031773D01*
X179008193Y-37984154D02*
X178912955Y-37936535D01*
X178817716Y-37984154D01*
X178770097Y-38079392D01*
X178817716Y-38174630D01*
X178912955Y-38222249D01*
X179008193Y-38174630D01*
X179055812Y-38079392D01*
X179008193Y-37984154D01*
D11*
X301108183Y-142739935D02*
X300536755Y-142739935D01*
X300893897Y-143739935D02*
X300893897Y-142454221D01*
X300822469Y-142311364D01*
X300679612Y-142239935D01*
X300536755Y-142239935D01*
X299822469Y-143739935D02*
X299965326Y-143668506D01*
X300036755Y-143597078D01*
X300108183Y-143454221D01*
X300108183Y-143025649D01*
X300036755Y-142882792D01*
X299965326Y-142811364D01*
X299822469Y-142739935D01*
X299608183Y-142739935D01*
X299465326Y-142811364D01*
X299393897Y-142882792D01*
X299322469Y-143025649D01*
X299322469Y-143454221D01*
X299393897Y-143597078D01*
X299465326Y-143668506D01*
X299608183Y-143739935D01*
X299822469Y-143739935D01*
X298679612Y-143739935D02*
X298679612Y-142739935D01*
X298679612Y-143025649D02*
X298608183Y-142882792D01*
X298536755Y-142811364D01*
X298393897Y-142739935D01*
X298251040Y-142739935D01*
X297751040Y-143739935D02*
X297751040Y-142239935D01*
X297608183Y-143168506D02*
X297179612Y-143739935D01*
X297179612Y-142739935D02*
X297751040Y-143311364D01*
X295179612Y-143739935D02*
X295322469Y-143668506D01*
X295393897Y-143597078D01*
X295465326Y-143454221D01*
X295465326Y-143025649D01*
X295393897Y-142882792D01*
X295322469Y-142811364D01*
X295179612Y-142739935D01*
X294965326Y-142739935D01*
X294822469Y-142811364D01*
X294751040Y-142882792D01*
X294679612Y-143025649D01*
X294679612Y-143454221D01*
X294751040Y-143597078D01*
X294822469Y-143668506D01*
X294965326Y-143739935D01*
X295179612Y-143739935D01*
X294251040Y-142739935D02*
X293679612Y-142739935D01*
X294036755Y-143739935D02*
X294036755Y-142454221D01*
X293965326Y-142311364D01*
X293822469Y-142239935D01*
X293679612Y-142239935D01*
X291536755Y-142954221D02*
X292036755Y-142954221D01*
X292036755Y-143739935D02*
X292036755Y-142239935D01*
X291322469Y-142239935D01*
X290108183Y-143739935D02*
X290108183Y-142954221D01*
X290179612Y-142811364D01*
X290322469Y-142739935D01*
X290608183Y-142739935D01*
X290751040Y-142811364D01*
X290108183Y-143668506D02*
X290251040Y-143739935D01*
X290608183Y-143739935D01*
X290751040Y-143668506D01*
X290822469Y-143525649D01*
X290822469Y-143382792D01*
X290751040Y-143239935D01*
X290608183Y-143168506D01*
X290251040Y-143168506D01*
X290108183Y-143097078D01*
X289608183Y-142739935D02*
X289036755Y-142739935D01*
X289393897Y-142239935D02*
X289393897Y-143525649D01*
X289322469Y-143668506D01*
X289179612Y-143739935D01*
X289036755Y-143739935D01*
X287965326Y-143668506D02*
X288108183Y-143739935D01*
X288393897Y-143739935D01*
X288536755Y-143668506D01*
X288608183Y-143525649D01*
X288608183Y-142954221D01*
X288536755Y-142811364D01*
X288393897Y-142739935D01*
X288108183Y-142739935D01*
X287965326Y-142811364D01*
X287893897Y-142954221D01*
X287893897Y-143097078D01*
X288608183Y-143239935D01*
X287251040Y-143739935D02*
X287251040Y-142239935D01*
X286393897Y-143739935D01*
X286393897Y-142239935D01*
X285465326Y-143739935D02*
X285608183Y-143668506D01*
X285679612Y-143597078D01*
X285751040Y-143454221D01*
X285751040Y-143025649D01*
X285679612Y-142882792D01*
X285608183Y-142811364D01*
X285465326Y-142739935D01*
X285251040Y-142739935D01*
X285108183Y-142811364D01*
X285036755Y-142882792D01*
X284965326Y-143025649D01*
X284965326Y-143454221D01*
X285036755Y-143597078D01*
X285108183Y-143668506D01*
X285251040Y-143739935D01*
X285465326Y-143739935D01*
X284465326Y-142739935D02*
X283679612Y-142739935D01*
X284465326Y-143739935D01*
X283679612Y-143739935D01*
X282893897Y-143739935D02*
X283036755Y-143668506D01*
X283108183Y-143597078D01*
X283179612Y-143454221D01*
X283179612Y-143025649D01*
X283108183Y-142882792D01*
X283036755Y-142811364D01*
X282893897Y-142739935D01*
X282679612Y-142739935D01*
X282536755Y-142811364D01*
X282465326Y-142882792D01*
X282393897Y-143025649D01*
X282393897Y-143454221D01*
X282465326Y-143597078D01*
X282536755Y-143668506D01*
X282679612Y-143739935D01*
X282893897Y-143739935D01*
X281751040Y-143739935D02*
X281751040Y-142739935D01*
X281751040Y-142882792D02*
X281679612Y-142811364D01*
X281536755Y-142739935D01*
X281322469Y-142739935D01*
X281179612Y-142811364D01*
X281108183Y-142954221D01*
X281108183Y-143739935D01*
X281108183Y-142954221D02*
X281036755Y-142811364D01*
X280893897Y-142739935D01*
X280679612Y-142739935D01*
X280536755Y-142811364D01*
X280465326Y-142954221D01*
X280465326Y-143739935D01*
X279751040Y-143739935D02*
X279751040Y-142739935D01*
X279751040Y-142239935D02*
X279822469Y-142311364D01*
X279751040Y-142382792D01*
X279679612Y-142311364D01*
X279751040Y-142239935D01*
X279751040Y-142382792D01*
X277965326Y-142168506D02*
X279251040Y-144097078D01*
X277536755Y-143311364D02*
X276822469Y-143311364D01*
X277679612Y-143739935D02*
X277179612Y-142239935D01*
X276679612Y-143739935D01*
X276179612Y-143739935D02*
X276179612Y-142739935D01*
X276179612Y-143025649D02*
X276108183Y-142882792D01*
X276036755Y-142811364D01*
X275893897Y-142739935D01*
X275751040Y-142739935D01*
X275251040Y-143739935D02*
X275251040Y-142739935D01*
X275251040Y-142239935D02*
X275322469Y-142311364D01*
X275251040Y-142382792D01*
X275179612Y-142311364D01*
X275251040Y-142239935D01*
X275251040Y-142382792D01*
X274608183Y-143668506D02*
X274465326Y-143739935D01*
X274179612Y-143739935D01*
X274036755Y-143668506D01*
X273965326Y-143525649D01*
X273965326Y-143454221D01*
X274036755Y-143311364D01*
X274179612Y-143239935D01*
X274393897Y-143239935D01*
X274536755Y-143168506D01*
X274608183Y-143025649D01*
X274608183Y-142954221D01*
X274536755Y-142811364D01*
X274393897Y-142739935D01*
X274179612Y-142739935D01*
X274036755Y-142811364D01*
X272679612Y-142739935D02*
X272679612Y-143739935D01*
X273322469Y-142739935D02*
X273322469Y-143525649D01*
X273251040Y-143668506D01*
X273108183Y-143739935D01*
X272893897Y-143739935D01*
X272751040Y-143668506D01*
X272679612Y-143597078D01*
X297965326Y-146154935D02*
X297965326Y-144654935D01*
X297965326Y-145226364D02*
X297822469Y-145154935D01*
X297536755Y-145154935D01*
X297393897Y-145226364D01*
X297322469Y-145297792D01*
X297251040Y-145440649D01*
X297251040Y-145869221D01*
X297322469Y-146012078D01*
X297393897Y-146083506D01*
X297536755Y-146154935D01*
X297822469Y-146154935D01*
X297965326Y-146083506D01*
X296751040Y-145154935D02*
X296393897Y-146154935D01*
X296036755Y-145154935D02*
X296393897Y-146154935D01*
X296536755Y-146512078D01*
X296608183Y-146583506D01*
X296751040Y-146654935D01*
X294536755Y-145154935D02*
X293965326Y-145154935D01*
X294322469Y-146154935D02*
X294322469Y-144869221D01*
X294251040Y-144726364D01*
X294108183Y-144654935D01*
X293965326Y-144654935D01*
X293251040Y-146154935D02*
X293393897Y-146083506D01*
X293465326Y-145940649D01*
X293465326Y-144654935D01*
X292465326Y-146154935D02*
X292608183Y-146083506D01*
X292679612Y-146012078D01*
X292751040Y-145869221D01*
X292751040Y-145440649D01*
X292679612Y-145297792D01*
X292608183Y-145226364D01*
X292465326Y-145154935D01*
X292251040Y-145154935D01*
X292108183Y-145226364D01*
X292036755Y-145297792D01*
X291965326Y-145440649D01*
X291965326Y-145869221D01*
X292036755Y-146012078D01*
X292108183Y-146083506D01*
X292251040Y-146154935D01*
X292465326Y-146154935D01*
X291108183Y-146154935D02*
X291251040Y-146083506D01*
X291322469Y-146012078D01*
X291393897Y-145869221D01*
X291393897Y-145440649D01*
X291322469Y-145297792D01*
X291251040Y-145226364D01*
X291108183Y-145154935D01*
X290893897Y-145154935D01*
X290751040Y-145226364D01*
X290679612Y-145297792D01*
X290608183Y-145440649D01*
X290608183Y-145869221D01*
X290679612Y-146012078D01*
X290751040Y-146083506D01*
X290893897Y-146154935D01*
X291108183Y-146154935D01*
X289751040Y-146154935D02*
X289893897Y-146083506D01*
X289965326Y-146012078D01*
X290036755Y-145869221D01*
X290036755Y-145440649D01*
X289965326Y-145297792D01*
X289893897Y-145226364D01*
X289751040Y-145154935D01*
X289536755Y-145154935D01*
X289393897Y-145226364D01*
X289322469Y-145297792D01*
X289251040Y-145440649D01*
X289251040Y-145869221D01*
X289322469Y-146012078D01*
X289393897Y-146083506D01*
X289536755Y-146154935D01*
X289751040Y-146154935D01*
X288608183Y-146154935D02*
X288608183Y-144654935D01*
X288465326Y-145583506D02*
X288036755Y-146154935D01*
X288036755Y-145154935D02*
X288608183Y-145726364D01*
X286751040Y-146154935D02*
X286751040Y-145369221D01*
X286822469Y-145226364D01*
X286965326Y-145154935D01*
X287251040Y-145154935D01*
X287393897Y-145226364D01*
X286751040Y-146083506D02*
X286893897Y-146154935D01*
X287251040Y-146154935D01*
X287393897Y-146083506D01*
X287465326Y-145940649D01*
X287465326Y-145797792D01*
X287393897Y-145654935D01*
X287251040Y-145583506D01*
X286893897Y-145583506D01*
X286751040Y-145512078D01*
X286179612Y-145154935D02*
X285822469Y-146154935D01*
X285465326Y-145154935D02*
X285822469Y-146154935D01*
X285965326Y-146512078D01*
X286036755Y-146583506D01*
X286179612Y-146654935D01*
X283322469Y-146654935D02*
X283679612Y-146654935D01*
X283679612Y-144512078D01*
X283322469Y-144512078D01*
X282893897Y-145154935D02*
X282536755Y-146154935D01*
X282179612Y-145154935D01*
X280822469Y-146154935D02*
X281679612Y-146154935D01*
X281251040Y-146154935D02*
X281251040Y-144654935D01*
X281393897Y-144869221D01*
X281536755Y-145012078D01*
X281679612Y-145083506D01*
X280179612Y-146012078D02*
X280108183Y-146083506D01*
X280179612Y-146154935D01*
X280251040Y-146083506D01*
X280179612Y-146012078D01*
X280179612Y-146154935D01*
X279179612Y-144654935D02*
X279036755Y-144654935D01*
X278893897Y-144726364D01*
X278822469Y-144797792D01*
X278751040Y-144940649D01*
X278679612Y-145226364D01*
X278679612Y-145583506D01*
X278751040Y-145869221D01*
X278822469Y-146012078D01*
X278893897Y-146083506D01*
X279036755Y-146154935D01*
X279179612Y-146154935D01*
X279322469Y-146083506D01*
X279393897Y-146012078D01*
X279465326Y-145869221D01*
X279536755Y-145583506D01*
X279536755Y-145226364D01*
X279465326Y-144940649D01*
X279393897Y-144797792D01*
X279322469Y-144726364D01*
X279179612Y-144654935D01*
X278036755Y-146012078D02*
X277965326Y-146083506D01*
X278036755Y-146154935D01*
X278108183Y-146083506D01*
X278036755Y-146012078D01*
X278036755Y-146154935D01*
X276536755Y-146154935D02*
X277393897Y-146154935D01*
X276965326Y-146154935D02*
X276965326Y-144654935D01*
X277108183Y-144869221D01*
X277251040Y-145012078D01*
X277393897Y-145083506D01*
X276036755Y-146654935D02*
X275679612Y-146654935D01*
X275679612Y-144512078D01*
X276036755Y-144512078D01*
G36*
X272290261Y-132165117D02*
G01*
X272553337Y-132242057D01*
X272767114Y-132386797D01*
X272910701Y-132584571D01*
X272963205Y-132820615D01*
X272956186Y-132916711D01*
X272877308Y-133191006D01*
X272727633Y-133462794D01*
X272528275Y-133689882D01*
X272468827Y-133739346D01*
X272340329Y-133828637D01*
X272254708Y-133864017D01*
X272188544Y-133846078D01*
X272047428Y-133765552D01*
X271884109Y-133643279D01*
X271731477Y-133504685D01*
X271622418Y-133375194D01*
X271513539Y-133160216D01*
X271457185Y-132884931D01*
X271487950Y-132628047D01*
X271599097Y-132409291D01*
X271783892Y-132248392D01*
X272035597Y-132165077D01*
X272290261Y-132165117D01*
G37*
G36*
X302824099Y-132240428D02*
G01*
X303145780Y-132255392D01*
X303401510Y-132296201D01*
X303634995Y-132369603D01*
X303931517Y-132509587D01*
X304325361Y-132786101D01*
X304652395Y-133129833D01*
X304900720Y-133524441D01*
X305058439Y-133953580D01*
X305113656Y-134400907D01*
X305112326Y-134475976D01*
X305042761Y-134931125D01*
X304872155Y-135339470D01*
X304606867Y-135692205D01*
X304253255Y-135980525D01*
X303817678Y-136195624D01*
X303757347Y-136218574D01*
X303616663Y-136286621D01*
X303548466Y-136362181D01*
X303523250Y-136473057D01*
X303549394Y-136627243D01*
X303668763Y-136807336D01*
X303865929Y-136972412D01*
X304122410Y-137103038D01*
X304204507Y-137138128D01*
X304319116Y-137204875D01*
X304371160Y-137258922D01*
X304349062Y-137284436D01*
X304241246Y-137265581D01*
X304079842Y-137211846D01*
X303666693Y-137009560D01*
X303344301Y-136739899D01*
X303109890Y-136400738D01*
X303078821Y-136337328D01*
X303011230Y-136156157D01*
X302978173Y-135957992D01*
X302970109Y-135694648D01*
X302979523Y-135493789D01*
X303069561Y-135063957D01*
X303254053Y-134697944D01*
X303531990Y-134397405D01*
X303902365Y-134163996D01*
X304188708Y-133999435D01*
X304423006Y-133791596D01*
X304554605Y-133569185D01*
X304579653Y-133339074D01*
X304494299Y-133108133D01*
X304468787Y-133069255D01*
X304253538Y-132852165D01*
X303981614Y-132720640D01*
X303677824Y-132682646D01*
X303366974Y-132746147D01*
X303276487Y-132785318D01*
X303033591Y-132949193D01*
X302833254Y-133186856D01*
X302673484Y-133504382D01*
X302552289Y-133907848D01*
X302467677Y-134403330D01*
X302417655Y-134996905D01*
X302400232Y-135694648D01*
X302400237Y-135875838D01*
X302408171Y-136309623D01*
X302435855Y-136659441D01*
X302493593Y-136947028D01*
X302591690Y-137194121D01*
X302740449Y-137422454D01*
X302950175Y-137653764D01*
X303231172Y-137909785D01*
X303593743Y-138212254D01*
X303805483Y-138400421D01*
X304020321Y-138619157D01*
X304216941Y-138844687D01*
X304382305Y-139059991D01*
X304503373Y-139248046D01*
X304567107Y-139391831D01*
X304560468Y-139474322D01*
X304536630Y-139489409D01*
X304467537Y-139459913D01*
X304372237Y-139330987D01*
X304310893Y-139244581D01*
X304081187Y-139035040D01*
X303798432Y-138893205D01*
X303501663Y-138841044D01*
X303201709Y-138890257D01*
X302869237Y-139031687D01*
X302524449Y-139254965D01*
X302186587Y-139549722D01*
X302021378Y-139712199D01*
X301903822Y-139816416D01*
X301825996Y-139861267D01*
X301767208Y-139858383D01*
X301706768Y-139819390D01*
X301705649Y-139818513D01*
X301625317Y-139750144D01*
X301476447Y-139618715D01*
X301274464Y-139438026D01*
X301034797Y-139221875D01*
X300772872Y-138984062D01*
X300751164Y-138964297D01*
X300497291Y-138734460D01*
X300272567Y-138533334D01*
X300090780Y-138373081D01*
X299965716Y-138265864D01*
X299911162Y-138223846D01*
X299884191Y-138260882D01*
X299852587Y-138384411D01*
X299825208Y-138566763D01*
X299732418Y-139011907D01*
X299561003Y-139379405D01*
X299310159Y-139666231D01*
X298978505Y-139874520D01*
X298959832Y-139882635D01*
X298905244Y-139897086D01*
X298843948Y-139889182D01*
X298762694Y-139850113D01*
X298648230Y-139771067D01*
X298487307Y-139643234D01*
X298266673Y-139457801D01*
X297973078Y-139205959D01*
X297930169Y-139168932D01*
X297674154Y-138944290D01*
X297454826Y-138745601D01*
X297284878Y-138584823D01*
X297177000Y-138473909D01*
X297143882Y-138424816D01*
X297154678Y-138418572D01*
X297230466Y-138445631D01*
X297345654Y-138527873D01*
X297428705Y-138589894D01*
X297596479Y-138651712D01*
X297742060Y-138602419D01*
X297874047Y-138440594D01*
X297876305Y-138436727D01*
X297903930Y-138384784D01*
X297926868Y-138325493D01*
X297945644Y-138248148D01*
X297960788Y-138142042D01*
X297972827Y-137996468D01*
X297982289Y-137800721D01*
X297989701Y-137544093D01*
X297995591Y-137215878D01*
X298000487Y-136805370D01*
X298004917Y-136301862D01*
X298009409Y-135694648D01*
X298012034Y-135254935D01*
X298013586Y-134594430D01*
X298011424Y-134045753D01*
X298005522Y-133607312D01*
X297995856Y-133277513D01*
X297982400Y-133054763D01*
X297965127Y-132937469D01*
X297961895Y-132926786D01*
X297835967Y-132694902D01*
X297624824Y-132538360D01*
X297327209Y-132456210D01*
X297209325Y-132437554D01*
X297074065Y-132400865D01*
X297040769Y-132366772D01*
X297101481Y-132341489D01*
X297248247Y-132331232D01*
X297473112Y-132342215D01*
X297493131Y-132344081D01*
X297997469Y-132425405D01*
X298470112Y-132565006D01*
X298890934Y-132753916D01*
X299239809Y-132983169D01*
X299496611Y-133243796D01*
X299700940Y-133517488D01*
X299820909Y-133101549D01*
X299824855Y-133087992D01*
X299911273Y-132836399D01*
X300008931Y-132619104D01*
X300106725Y-132454907D01*
X300193551Y-132362608D01*
X300258304Y-132361008D01*
X300268054Y-132382013D01*
X300255407Y-132490257D01*
X300194047Y-132648720D01*
X300141718Y-132759139D01*
X300076311Y-132909933D01*
X300022918Y-133059486D01*
X299980173Y-133220648D01*
X299946712Y-133406271D01*
X299921173Y-133629204D01*
X299902191Y-133902299D01*
X299888403Y-134238405D01*
X299878444Y-134650374D01*
X299870950Y-135151055D01*
X299864559Y-135753300D01*
X299843452Y-137957223D01*
X300279816Y-138349317D01*
X300387334Y-138445737D01*
X300548444Y-138586312D01*
X300652184Y-138664340D01*
X300716946Y-138689238D01*
X300761120Y-138670426D01*
X300803095Y-138617322D01*
X300953830Y-138432703D01*
X301145937Y-138266027D01*
X301392387Y-138114735D01*
X301712606Y-137966983D01*
X302126024Y-137810930D01*
X302731277Y-137597950D01*
X302162505Y-137305791D01*
X301864231Y-137146070D01*
X301449977Y-136889880D01*
X301128363Y-136633123D01*
X300887265Y-136360969D01*
X300714557Y-136058589D01*
X300598114Y-135711150D01*
X300525814Y-135303824D01*
X300501886Y-135064983D01*
X300497621Y-134457629D01*
X300583709Y-133919906D01*
X300760608Y-133450820D01*
X301028776Y-133049375D01*
X301388670Y-132714577D01*
X301840748Y-132445431D01*
X301993280Y-132374532D01*
X302180387Y-132299445D01*
X302346570Y-132258476D01*
X302536905Y-132241942D01*
X302796466Y-132240163D01*
X302824099Y-132240428D01*
G37*
G36*
X269816886Y-137029270D02*
G01*
X269819279Y-137504232D01*
X269826150Y-137879607D01*
X269839014Y-138167356D01*
X269859389Y-138379435D01*
X269888792Y-138527804D01*
X269928737Y-138624421D01*
X269980744Y-138681245D01*
X270046327Y-138710234D01*
X270070244Y-138717084D01*
X270152783Y-138768405D01*
X270123831Y-138834078D01*
X269984931Y-138912645D01*
X269737626Y-139002642D01*
X269687661Y-139019271D01*
X269399987Y-139138585D01*
X269087514Y-139299358D01*
X268783488Y-139481910D01*
X268521152Y-139666563D01*
X268333751Y-139833639D01*
X268314792Y-139854104D01*
X268221107Y-139947309D01*
X268169737Y-139985189D01*
X268140391Y-139965549D01*
X268049732Y-139883296D01*
X267924637Y-139758727D01*
X267755980Y-139604956D01*
X267514878Y-139442400D01*
X267211666Y-139294957D01*
X266820583Y-139148388D01*
X266541070Y-139044485D01*
X266211979Y-138885187D01*
X265987864Y-138719185D01*
X265863056Y-138542893D01*
X265849295Y-138503227D01*
X265827008Y-138392677D01*
X265809982Y-138227509D01*
X265797676Y-137995769D01*
X265789553Y-137685504D01*
X265785619Y-137333513D01*
X267356899Y-137333513D01*
X267356902Y-137366405D01*
X267357478Y-137773388D01*
X267358955Y-138139038D01*
X267361200Y-138448739D01*
X267364078Y-138687873D01*
X267367457Y-138841826D01*
X267371201Y-138895980D01*
X267412894Y-138862906D01*
X267516426Y-138771644D01*
X267657916Y-138642944D01*
X267797529Y-138527092D01*
X267968432Y-138413223D01*
X268101272Y-138354634D01*
X268272214Y-138317089D01*
X268272214Y-136719832D01*
X268272133Y-136483073D01*
X268271151Y-136063135D01*
X268268428Y-135739364D01*
X268263190Y-135499389D01*
X268254659Y-135330841D01*
X268242061Y-135221350D01*
X268224619Y-135158545D01*
X268201558Y-135130058D01*
X268172102Y-135123517D01*
X268159630Y-135124035D01*
X267998378Y-135172184D01*
X267806728Y-135280488D01*
X267623448Y-135423373D01*
X267487307Y-135575263D01*
X267453272Y-135628028D01*
X267422061Y-135689926D01*
X267398437Y-135766574D01*
X267381345Y-135872208D01*
X267369728Y-136021068D01*
X267362532Y-136227390D01*
X267358698Y-136505413D01*
X267357173Y-136869375D01*
X267356899Y-137333513D01*
X265785619Y-137333513D01*
X265785074Y-137284761D01*
X265783701Y-136781585D01*
X265783701Y-135208387D01*
X265946255Y-134877347D01*
X266067427Y-134676286D01*
X266296775Y-134421163D01*
X266609008Y-134179880D01*
X267011966Y-133947431D01*
X267513491Y-133718814D01*
X268121423Y-133489022D01*
X268417999Y-133380717D01*
X268719457Y-133253566D01*
X268935176Y-133135584D01*
X269079980Y-133018339D01*
X269168692Y-132893401D01*
X269195046Y-132822356D01*
X269181902Y-132663561D01*
X269067254Y-132528609D01*
X268859697Y-132425121D01*
X268567828Y-132360717D01*
X268502574Y-132351383D01*
X268359335Y-132322784D01*
X268286559Y-132295629D01*
X268263482Y-132249011D01*
X268317056Y-132217152D01*
X268442069Y-132211410D01*
X268617195Y-132228574D01*
X268821109Y-132265435D01*
X269032484Y-132318781D01*
X269229995Y-132385402D01*
X269392315Y-132462089D01*
X269672484Y-132683106D01*
X269870277Y-132964280D01*
X269973082Y-133283034D01*
X269974929Y-133620657D01*
X269869847Y-133958440D01*
X269839158Y-134016392D01*
X269650438Y-134272233D01*
X269388296Y-134526626D01*
X269082477Y-134753550D01*
X268762725Y-134926983D01*
X268744646Y-134934933D01*
X268563585Y-135023545D01*
X268435327Y-135102323D01*
X268386629Y-135155043D01*
X268425719Y-135254215D01*
X268556716Y-135356880D01*
X268756263Y-135438285D01*
X268999780Y-135491304D01*
X269262684Y-135508812D01*
X269520394Y-135483683D01*
X269816809Y-135425075D01*
X269816809Y-136900507D01*
X269816886Y-137029270D01*
G37*
G36*
X283732462Y-132173003D02*
G01*
X283748887Y-132176449D01*
X283883971Y-132203792D01*
X284086348Y-132243912D01*
X284318836Y-132289426D01*
X284624886Y-132354604D01*
X285079968Y-132482051D01*
X285438242Y-132631110D01*
X285710535Y-132807944D01*
X285907673Y-133018719D01*
X286040482Y-133269597D01*
X286138407Y-133526010D01*
X286288681Y-133251658D01*
X286310966Y-133211366D01*
X286459588Y-132962959D01*
X286591646Y-132775897D01*
X286696273Y-132664168D01*
X286762598Y-132641760D01*
X286773726Y-132696243D01*
X286724953Y-132796834D01*
X286627595Y-132947161D01*
X286480243Y-133217255D01*
X286339293Y-133517047D01*
X286227718Y-133800178D01*
X286207206Y-133863931D01*
X286183674Y-133956607D01*
X286164810Y-134066907D01*
X286150107Y-134206929D01*
X286139058Y-134388773D01*
X286131155Y-134624536D01*
X286125891Y-134926317D01*
X286122760Y-135306216D01*
X286121253Y-135776330D01*
X286120863Y-136348758D01*
X286120880Y-136570743D01*
X286121539Y-137131549D01*
X286124192Y-137591450D01*
X286130230Y-137960454D01*
X286141045Y-138248567D01*
X286158027Y-138465798D01*
X286182568Y-138622153D01*
X286216059Y-138727640D01*
X286259892Y-138792265D01*
X286315457Y-138826036D01*
X286384146Y-138838960D01*
X286467350Y-138841044D01*
X286585650Y-138852925D01*
X286626589Y-138896110D01*
X286560475Y-138967850D01*
X286388430Y-139064967D01*
X286318527Y-139104174D01*
X286138502Y-139228727D01*
X285926916Y-139396407D01*
X285716245Y-139582225D01*
X285589982Y-139698487D01*
X285424904Y-139844198D01*
X285302480Y-139944488D01*
X285242681Y-139982479D01*
X285213062Y-139969951D01*
X285106838Y-139899970D01*
X284947430Y-139782115D01*
X284756420Y-139631944D01*
X284682539Y-139573108D01*
X284429998Y-139380702D01*
X284173771Y-139196060D01*
X283959358Y-139052270D01*
X283927509Y-139032057D01*
X283765142Y-138923528D01*
X283656429Y-138841450D01*
X283623458Y-138802263D01*
X283641502Y-138798142D01*
X283743244Y-138808821D01*
X283898441Y-138841990D01*
X284053514Y-138871479D01*
X284272310Y-138859369D01*
X284423347Y-138760820D01*
X284515301Y-138572034D01*
X284521333Y-138541981D01*
X284536025Y-138388526D01*
X284548480Y-138140883D01*
X284558708Y-137813782D01*
X284566719Y-137421953D01*
X284572524Y-136980127D01*
X284576132Y-136503032D01*
X284577555Y-136005400D01*
X284576801Y-135501961D01*
X284573882Y-135007445D01*
X284568808Y-134536581D01*
X284561589Y-134104101D01*
X284552234Y-133724734D01*
X284540755Y-133413211D01*
X284527162Y-133184261D01*
X284511465Y-133052615D01*
X284490328Y-132969429D01*
X284350209Y-132675601D01*
X284130556Y-132455514D01*
X283843421Y-132322343D01*
X283773081Y-132300288D01*
X283656544Y-132244953D01*
X283602549Y-132194017D01*
X283623666Y-132164395D01*
X283732462Y-132173003D01*
G37*
G36*
X296132201Y-137029270D02*
G01*
X296134595Y-137504232D01*
X296141465Y-137879607D01*
X296154330Y-138167356D01*
X296174705Y-138379435D01*
X296204107Y-138527804D01*
X296244053Y-138624421D01*
X296296059Y-138681245D01*
X296361642Y-138710234D01*
X296385559Y-138717084D01*
X296468098Y-138768405D01*
X296439146Y-138834078D01*
X296300247Y-138912645D01*
X296052941Y-139002642D01*
X296002977Y-139019271D01*
X295715302Y-139138585D01*
X295402830Y-139299358D01*
X295098803Y-139481910D01*
X294836468Y-139666563D01*
X294649067Y-139833639D01*
X294630107Y-139854104D01*
X294536423Y-139947309D01*
X294485052Y-139985189D01*
X294455706Y-139965549D01*
X294365047Y-139883296D01*
X294239953Y-139758727D01*
X294071295Y-139604956D01*
X293830193Y-139442400D01*
X293526981Y-139294957D01*
X293135898Y-139148388D01*
X292856385Y-139044485D01*
X292527294Y-138885187D01*
X292303179Y-138719185D01*
X292178371Y-138542893D01*
X292164610Y-138503227D01*
X292142324Y-138392677D01*
X292125297Y-138227509D01*
X292112991Y-137995769D01*
X292104868Y-137685504D01*
X292100934Y-137333513D01*
X293672214Y-137333513D01*
X293672218Y-137366405D01*
X293672794Y-137773388D01*
X293674271Y-138139038D01*
X293676515Y-138448739D01*
X293679394Y-138687873D01*
X293682772Y-138841826D01*
X293686516Y-138895980D01*
X293728210Y-138862906D01*
X293831741Y-138771644D01*
X293973231Y-138642944D01*
X294112844Y-138527092D01*
X294283747Y-138413223D01*
X294416587Y-138354634D01*
X294587530Y-138317089D01*
X294587530Y-136719832D01*
X294587449Y-136483073D01*
X294586466Y-136063135D01*
X294583744Y-135739364D01*
X294578505Y-135499389D01*
X294569974Y-135330841D01*
X294557376Y-135221350D01*
X294539934Y-135158545D01*
X294516873Y-135130058D01*
X294487417Y-135123517D01*
X294474945Y-135124035D01*
X294313693Y-135172184D01*
X294122043Y-135280488D01*
X293938763Y-135423373D01*
X293802622Y-135575263D01*
X293768588Y-135628028D01*
X293737376Y-135689926D01*
X293713752Y-135766574D01*
X293696660Y-135872208D01*
X293685044Y-136021068D01*
X293677847Y-136227390D01*
X293674014Y-136505413D01*
X293672488Y-136869375D01*
X293672214Y-137333513D01*
X292100934Y-137333513D01*
X292100389Y-137284761D01*
X292099016Y-136781585D01*
X292099016Y-135208387D01*
X292261570Y-134877347D01*
X292382742Y-134676286D01*
X292612090Y-134421163D01*
X292924323Y-134179880D01*
X293327282Y-133947431D01*
X293828807Y-133718814D01*
X294436738Y-133489022D01*
X294733315Y-133380717D01*
X295034773Y-133253566D01*
X295250492Y-133135584D01*
X295395295Y-133018339D01*
X295484007Y-132893401D01*
X295510361Y-132822356D01*
X295497218Y-132663561D01*
X295382569Y-132528609D01*
X295175012Y-132425121D01*
X294883143Y-132360717D01*
X294817889Y-132351383D01*
X294674651Y-132322784D01*
X294601874Y-132295629D01*
X294578798Y-132249011D01*
X294632372Y-132217152D01*
X294757385Y-132211410D01*
X294932511Y-132228574D01*
X295136424Y-132265435D01*
X295347799Y-132318781D01*
X295545310Y-132385402D01*
X295707631Y-132462089D01*
X295987799Y-132683106D01*
X296185592Y-132964280D01*
X296288397Y-133283034D01*
X296290245Y-133620657D01*
X296185163Y-133958440D01*
X296154474Y-134016392D01*
X295965753Y-134272233D01*
X295703611Y-134526626D01*
X295397793Y-134753550D01*
X295078041Y-134926983D01*
X295059961Y-134934933D01*
X294878900Y-135023545D01*
X294750642Y-135102323D01*
X294701944Y-135155043D01*
X294741034Y-135254215D01*
X294872031Y-135356880D01*
X295071578Y-135438285D01*
X295315095Y-135491304D01*
X295577999Y-135508812D01*
X295835710Y-135483683D01*
X296132124Y-135425075D01*
X296132124Y-136900507D01*
X296132201Y-137029270D01*
G37*
G36*
X272362052Y-134372663D02*
G01*
X272392205Y-134401238D01*
X272657893Y-134635659D01*
X272942510Y-134861510D01*
X273213425Y-135054048D01*
X273438009Y-135188530D01*
X273473165Y-135207264D01*
X273593213Y-135295498D01*
X273607803Y-135356591D01*
X273523899Y-135378157D01*
X273348465Y-135347808D01*
X273173952Y-135318048D01*
X273021246Y-135350959D01*
X272993837Y-135367984D01*
X272965788Y-135399458D01*
X272944417Y-135454083D01*
X272928804Y-135544898D01*
X272918026Y-135684940D01*
X272911163Y-135887246D01*
X272907293Y-136164854D01*
X272905495Y-136530801D01*
X272904848Y-136998125D01*
X272902818Y-137531035D01*
X272895179Y-138053140D01*
X272879824Y-138482524D01*
X272854614Y-138830807D01*
X272817410Y-139109612D01*
X272766074Y-139330559D01*
X272698466Y-139505271D01*
X272612447Y-139645369D01*
X272505878Y-139762474D01*
X272376621Y-139868209D01*
X272322796Y-139906951D01*
X272233767Y-139960148D01*
X272147430Y-139983988D01*
X272051098Y-139971902D01*
X271932087Y-139917320D01*
X271777711Y-139813674D01*
X271575285Y-139654393D01*
X271312123Y-139432909D01*
X270975540Y-139142653D01*
X270784926Y-138972939D01*
X270659756Y-138848270D01*
X270626547Y-138791515D01*
X270685276Y-138802627D01*
X270835915Y-138881559D01*
X270898813Y-138915084D01*
X271024591Y-138948320D01*
X271152301Y-138912705D01*
X271158703Y-138909724D01*
X271236560Y-138858239D01*
X271297760Y-138778203D01*
X271343947Y-138657365D01*
X271376763Y-138483477D01*
X271397852Y-138244288D01*
X271408856Y-137927549D01*
X271411418Y-137521012D01*
X271407183Y-137012425D01*
X271404845Y-136828226D01*
X271399284Y-136439993D01*
X271392916Y-136145194D01*
X271384199Y-135928838D01*
X271371587Y-135775930D01*
X271353537Y-135671477D01*
X271328505Y-135600486D01*
X271294947Y-135547964D01*
X271251319Y-135498917D01*
X271128409Y-135402544D01*
X270950981Y-135351405D01*
X270895446Y-135349708D01*
X270809127Y-135326609D01*
X270816619Y-135271989D01*
X270921176Y-135180155D01*
X271126056Y-135045414D01*
X271135127Y-135039768D01*
X271349249Y-134887947D01*
X271586712Y-134692937D01*
X271797764Y-134495471D01*
X272132746Y-134153367D01*
X272362052Y-134372663D01*
G37*
G36*
X277960493Y-136732531D02*
G01*
X277976519Y-137241519D01*
X277941451Y-137738645D01*
X277856361Y-138193225D01*
X277722320Y-138574575D01*
X277518706Y-138935557D01*
X277191486Y-139328312D01*
X276781976Y-139649275D01*
X276281223Y-139906720D01*
X276139154Y-139965456D01*
X276008621Y-140018568D01*
X275953018Y-140039978D01*
X275943372Y-140034157D01*
X275862006Y-139974888D01*
X275708988Y-139859749D01*
X275497506Y-139698759D01*
X275240745Y-139501937D01*
X274951892Y-139279303D01*
X274851310Y-139201120D01*
X274564389Y-138972637D01*
X274317244Y-138767748D01*
X274122842Y-138597676D01*
X273994152Y-138473649D01*
X273944140Y-138406893D01*
X273944050Y-138406405D01*
X273942400Y-138346984D01*
X273984012Y-138359071D01*
X274087158Y-138447906D01*
X274246276Y-138574171D01*
X274575661Y-138736226D01*
X274925445Y-138800139D01*
X275276013Y-138768912D01*
X275607752Y-138645544D01*
X275901047Y-138433037D01*
X276136285Y-138134392D01*
X276177299Y-138059998D01*
X276263176Y-137873463D01*
X276312259Y-137721579D01*
X276315082Y-137706258D01*
X276319017Y-137653393D01*
X276303945Y-137601755D01*
X276258808Y-137542371D01*
X276172543Y-137466269D01*
X276034092Y-137364475D01*
X275832393Y-137228018D01*
X275556387Y-137047925D01*
X275195012Y-136815223D01*
X274977987Y-136675381D01*
X274947233Y-136655420D01*
X275358086Y-136655420D01*
X275375953Y-136697331D01*
X275410081Y-136724496D01*
X275533456Y-136809809D01*
X275714748Y-136927690D01*
X275928210Y-137061176D01*
X276058326Y-137140489D01*
X276242006Y-137250266D01*
X276372890Y-137325647D01*
X276428773Y-137353657D01*
X276431727Y-137344304D01*
X276438477Y-137247850D01*
X276444284Y-137060156D01*
X276448827Y-136797675D01*
X276451787Y-136476861D01*
X276452845Y-136114167D01*
X276452626Y-135957799D01*
X276450479Y-135613658D01*
X276446331Y-135320038D01*
X276440543Y-135092912D01*
X276433476Y-134948252D01*
X276425490Y-134902033D01*
X276395539Y-134944119D01*
X276311993Y-135068935D01*
X276186065Y-135260128D01*
X276028279Y-135501706D01*
X275849161Y-135777678D01*
X275681952Y-136038258D01*
X275528366Y-136285860D01*
X275427633Y-136462626D01*
X275373092Y-136581499D01*
X275358086Y-136655420D01*
X274947233Y-136655420D01*
X274675957Y-136479352D01*
X274416350Y-136309162D01*
X274212672Y-136173740D01*
X274078425Y-136082018D01*
X274027116Y-136042926D01*
X274029566Y-136029680D01*
X274075413Y-135938473D01*
X274168213Y-135778365D01*
X274296145Y-135567845D01*
X274447388Y-135325404D01*
X274610120Y-135069531D01*
X274772522Y-134818718D01*
X274922771Y-134591455D01*
X275049048Y-134406231D01*
X275139529Y-134281538D01*
X275182396Y-134235864D01*
X275183118Y-134235913D01*
X275250452Y-134259421D01*
X275404992Y-134321088D01*
X275629750Y-134413901D01*
X275907734Y-134530849D01*
X276221955Y-134664918D01*
X276386209Y-134736046D01*
X276787463Y-134918085D01*
X277099572Y-135077776D01*
X277336583Y-135226298D01*
X277512545Y-135374831D01*
X277641505Y-135534552D01*
X277737512Y-135716640D01*
X277814613Y-135932275D01*
X277860184Y-136114167D01*
X277892302Y-136242368D01*
X277960493Y-136732531D01*
G37*
G36*
X291118151Y-136732531D02*
G01*
X291134177Y-137241519D01*
X291099108Y-137738645D01*
X291014018Y-138193225D01*
X290879978Y-138574575D01*
X290676364Y-138935557D01*
X290349144Y-139328312D01*
X289939633Y-139649275D01*
X289438881Y-139906720D01*
X289296812Y-139965456D01*
X289166278Y-140018568D01*
X289110676Y-140039978D01*
X289101030Y-140034157D01*
X289019663Y-139974888D01*
X288866646Y-139859749D01*
X288655164Y-139698759D01*
X288398403Y-139501937D01*
X288109550Y-139279303D01*
X288008968Y-139201120D01*
X287722046Y-138972637D01*
X287474901Y-138767748D01*
X287280500Y-138597676D01*
X287151809Y-138473649D01*
X287101797Y-138406893D01*
X287101707Y-138406405D01*
X287100057Y-138346984D01*
X287141670Y-138359071D01*
X287244815Y-138447906D01*
X287403933Y-138574171D01*
X287733319Y-138736226D01*
X288083103Y-138800139D01*
X288433671Y-138768912D01*
X288765409Y-138645544D01*
X289058704Y-138433037D01*
X289293942Y-138134392D01*
X289334956Y-138059998D01*
X289420834Y-137873463D01*
X289469917Y-137721579D01*
X289472740Y-137706258D01*
X289476674Y-137653393D01*
X289461603Y-137601755D01*
X289416465Y-137542371D01*
X289330201Y-137466269D01*
X289191749Y-137364475D01*
X288990051Y-137228018D01*
X288714044Y-137047925D01*
X288352670Y-136815223D01*
X288135645Y-136675381D01*
X288104891Y-136655420D01*
X288515743Y-136655420D01*
X288533611Y-136697331D01*
X288567739Y-136724496D01*
X288691114Y-136809809D01*
X288872405Y-136927690D01*
X289085867Y-137061176D01*
X289215983Y-137140489D01*
X289399664Y-137250266D01*
X289530548Y-137325647D01*
X289586430Y-137353657D01*
X289589384Y-137344304D01*
X289596135Y-137247850D01*
X289601941Y-137060156D01*
X289606485Y-136797675D01*
X289609445Y-136476861D01*
X289610503Y-136114167D01*
X289610284Y-135957799D01*
X289608136Y-135613658D01*
X289603988Y-135320038D01*
X289598201Y-135092912D01*
X289591133Y-134948252D01*
X289583147Y-134902033D01*
X289553196Y-134944119D01*
X289469651Y-135068935D01*
X289343722Y-135260128D01*
X289185937Y-135501706D01*
X289006819Y-135777678D01*
X288839610Y-136038258D01*
X288686024Y-136285860D01*
X288585291Y-136462626D01*
X288530750Y-136581499D01*
X288515743Y-136655420D01*
X288104891Y-136655420D01*
X287833615Y-136479352D01*
X287574008Y-136309162D01*
X287370329Y-136173740D01*
X287236083Y-136082018D01*
X287184774Y-136042926D01*
X287187223Y-136029680D01*
X287233070Y-135938473D01*
X287325870Y-135778365D01*
X287453802Y-135567845D01*
X287605045Y-135325404D01*
X287767778Y-135069531D01*
X287930180Y-134818718D01*
X288080429Y-134591455D01*
X288206705Y-134406231D01*
X288297187Y-134281538D01*
X288340053Y-134235864D01*
X288340776Y-134235913D01*
X288408109Y-134259421D01*
X288562650Y-134321088D01*
X288787407Y-134413901D01*
X289065392Y-134530849D01*
X289379613Y-134664918D01*
X289543867Y-134736046D01*
X289945121Y-134918085D01*
X290257230Y-135077776D01*
X290494241Y-135226298D01*
X290670203Y-135374831D01*
X290799163Y-135534552D01*
X290895170Y-135716640D01*
X290972270Y-135932275D01*
X291017841Y-136114167D01*
X291049960Y-136242368D01*
X291118151Y-136732531D01*
G37*
G36*
X280849769Y-132152590D02*
G01*
X281329541Y-132214720D01*
X281776759Y-132342053D01*
X282175529Y-132526190D01*
X282509952Y-132758734D01*
X282764134Y-133031287D01*
X282922177Y-133335449D01*
X282987681Y-133533928D01*
X283144047Y-133247990D01*
X283294606Y-132987011D01*
X283433839Y-132778925D01*
X283540511Y-132659471D01*
X283608349Y-132636907D01*
X283617160Y-132653223D01*
X283592038Y-132739481D01*
X283512739Y-132864619D01*
X283498380Y-132884317D01*
X283400312Y-133046982D01*
X283288198Y-133267728D01*
X283183569Y-133504683D01*
X283003070Y-133949828D01*
X282985892Y-136331266D01*
X282982027Y-136869203D01*
X282979152Y-137385576D01*
X282979162Y-137806006D01*
X282983345Y-138140346D01*
X282992992Y-138398450D01*
X283009391Y-138590171D01*
X283033832Y-138725363D01*
X283067605Y-138813879D01*
X283111998Y-138865572D01*
X283168302Y-138890296D01*
X283237804Y-138897905D01*
X283321796Y-138898252D01*
X283375068Y-138900290D01*
X283471523Y-138932321D01*
X283462536Y-139001424D01*
X283349392Y-139105262D01*
X283133373Y-139241495D01*
X282938808Y-139364362D01*
X282685501Y-139549116D01*
X282465527Y-139733624D01*
X282150237Y-140025528D01*
X281783517Y-139714429D01*
X281768718Y-139701926D01*
X281544794Y-139521551D01*
X281308528Y-139344080D01*
X281108695Y-139206240D01*
X281073504Y-139183535D01*
X280892450Y-139055736D01*
X280813900Y-138974056D01*
X280836792Y-138936599D01*
X280960061Y-138941472D01*
X281074683Y-138938867D01*
X281260399Y-138850887D01*
X281401268Y-138736896D01*
X281418882Y-137166149D01*
X281436495Y-135595403D01*
X281165943Y-135416196D01*
X280996989Y-135313600D01*
X280828065Y-135249025D01*
X280696061Y-135261022D01*
X280576468Y-135346701D01*
X280553093Y-135372641D01*
X280513075Y-135436127D01*
X280480271Y-135524670D01*
X280454131Y-135648196D01*
X280434105Y-135816629D01*
X280419644Y-136039898D01*
X280410199Y-136327928D01*
X280405221Y-136690644D01*
X280404160Y-137137975D01*
X280406468Y-137679844D01*
X280411594Y-138326180D01*
X280414640Y-138657566D01*
X280419822Y-139168023D01*
X280425264Y-139582932D01*
X280431673Y-139914395D01*
X280439758Y-140174513D01*
X280450229Y-140375385D01*
X280463792Y-140529115D01*
X280481158Y-140647801D01*
X280503034Y-140743546D01*
X280530128Y-140828450D01*
X280563151Y-140914615D01*
X280678159Y-141148680D01*
X280937470Y-141505504D01*
X281265610Y-141816219D01*
X281634577Y-142051122D01*
X281651978Y-142059747D01*
X281828957Y-142154928D01*
X281954336Y-142235632D01*
X282001944Y-142285185D01*
X281993739Y-142305834D01*
X281931313Y-142310427D01*
X281799235Y-142268344D01*
X281587687Y-142176085D01*
X281286854Y-142030149D01*
X280781574Y-141750844D01*
X280269895Y-141405586D01*
X279822136Y-141034711D01*
X279454766Y-140651998D01*
X279184256Y-140271225D01*
X279173946Y-140253273D01*
X279095705Y-140107745D01*
X279031499Y-139962740D01*
X278979906Y-139805488D01*
X278939508Y-139623218D01*
X278908883Y-139403161D01*
X278886612Y-139132547D01*
X278871275Y-138798606D01*
X278861453Y-138388567D01*
X278855725Y-137889661D01*
X278852671Y-137289117D01*
X278845868Y-135252289D01*
X279000485Y-134944302D01*
X279020781Y-134904710D01*
X279152310Y-134677808D01*
X279295236Y-134470756D01*
X279433147Y-134303774D01*
X279549630Y-134197083D01*
X279628270Y-134170904D01*
X279652107Y-134183751D01*
X279760828Y-134253977D01*
X279935138Y-134372935D01*
X280156941Y-134528179D01*
X280408140Y-134707263D01*
X280518946Y-134786814D01*
X280773569Y-134968702D01*
X280998775Y-135128367D01*
X281173457Y-135250883D01*
X281276505Y-135321323D01*
X281437777Y-135426951D01*
X281419523Y-134107898D01*
X281415199Y-133812949D01*
X281408453Y-133456435D01*
X281400154Y-133189149D01*
X281388917Y-132995987D01*
X281373355Y-132861843D01*
X281352081Y-132771610D01*
X281323710Y-132710185D01*
X281286854Y-132662461D01*
X281110636Y-132515795D01*
X280825882Y-132374432D01*
X280498912Y-132289772D01*
X280452597Y-132282409D01*
X280290438Y-132244860D01*
X280236565Y-132208533D01*
X280285927Y-132177520D01*
X280433475Y-132155913D01*
X280674159Y-132147801D01*
X280849769Y-132152590D01*
G37*
D12*
X178676755Y-30638864D02*
X171376755Y-30638864D01*
X171376755Y-30638864D02*
X171376755Y-21438864D01*
X171376755Y-21438864D02*
X178676755Y-21438864D01*
X178676755Y-21438864D02*
X178676755Y-30638864D01*
D13*
X301211755Y-68363864D02*
X301211755Y-64463864D01*
X299211755Y-68363864D02*
X299211755Y-64463864D01*
X301211755Y-68363864D02*
X299211755Y-68363864D01*
X44881755Y-68363864D02*
X44881755Y-64463864D01*
X42881755Y-68363864D02*
X42881755Y-64463864D01*
X44881755Y-68363864D02*
X42881755Y-68363864D01*
X39196955Y-106463864D02*
X39196955Y-102563864D01*
X37196955Y-106463864D02*
X37196955Y-102563864D01*
X39196955Y-106463864D02*
X37196955Y-106463864D01*
X89290619Y-106768125D02*
X90101475Y-102953349D01*
X87334324Y-106352301D02*
X88145180Y-102537526D01*
X89290619Y-106768125D02*
X87334324Y-106352301D01*
X94646701Y-127382194D02*
X95457557Y-123567418D01*
X92690406Y-126966370D02*
X93501262Y-123151595D01*
X94646701Y-127382194D02*
X92690406Y-126966370D01*
X282161755Y-68363864D02*
X282161755Y-64463864D01*
X280161755Y-68363864D02*
X280161755Y-64463864D01*
X282161755Y-68363864D02*
X280161755Y-68363864D01*
X144494082Y-99026412D02*
X145304938Y-95211636D01*
X142537787Y-98610588D02*
X143348643Y-94795813D01*
X144494082Y-99026412D02*
X142537787Y-98610588D01*
X302510524Y-125513862D02*
X302510524Y-121613862D01*
X300510524Y-125513862D02*
X300510524Y-121613862D01*
X302510524Y-125513862D02*
X300510524Y-125513862D01*
X295851755Y-87413864D02*
X295851755Y-83513864D01*
X293851755Y-87413864D02*
X293851755Y-83513864D01*
X295851755Y-87413864D02*
X293851755Y-87413864D01*
X158490210Y-58375007D02*
X159301066Y-54560231D01*
X156533915Y-57959183D02*
X157344771Y-54144408D01*
X158490210Y-58375007D02*
X156533915Y-57959183D01*
X188312704Y-59011784D02*
X187501848Y-55197009D01*
X186356409Y-59427608D02*
X185545553Y-55612832D01*
X188312704Y-59011784D02*
X186356409Y-59427608D01*
X211262770Y-156346822D02*
X210451914Y-152532047D01*
X209306475Y-156762646D02*
X208495619Y-152947870D01*
X211262770Y-156346822D02*
X209306475Y-156762646D01*
X285841755Y-106463864D02*
X285841755Y-102563864D01*
X283841755Y-106463864D02*
X283841755Y-102563864D01*
X285841755Y-106463864D02*
X283841755Y-106463864D01*
X126558039Y-114689579D02*
X127368895Y-110874803D01*
X124601744Y-114273755D02*
X125412600Y-110458980D01*
X126558039Y-114689579D02*
X124601744Y-114273755D01*
X101870610Y-70490889D02*
X102681466Y-66676113D01*
X99914315Y-70075065D02*
X100725171Y-66260290D01*
X101870610Y-70490889D02*
X99914315Y-70075065D01*
X340016755Y-44518864D02*
X340016755Y-40618864D01*
X338016755Y-44518864D02*
X338016755Y-40618864D01*
X340016755Y-44518864D02*
X338016755Y-44518864D01*
X127953394Y-153937357D02*
X128764250Y-150122581D01*
X125997099Y-153521533D02*
X126807955Y-149706758D01*
X127953394Y-153937357D02*
X125997099Y-153521533D01*
X210328959Y-117594145D02*
X209518103Y-113779370D01*
X208372664Y-118009969D02*
X207561808Y-114195193D01*
X210328959Y-117594145D02*
X208372664Y-118009969D01*
X207125813Y-79264385D02*
X206314957Y-75449610D01*
X205169518Y-79680209D02*
X204358662Y-75865433D01*
X207125813Y-79264385D02*
X205169518Y-79680209D01*
X150547830Y-139264374D02*
X151358686Y-135449598D01*
X148591535Y-138848550D02*
X149402391Y-135033775D01*
X150547830Y-139264374D02*
X148591535Y-138848550D01*
X220343550Y-95989876D02*
X219532694Y-92175101D01*
X218387255Y-96405700D02*
X217576399Y-92590924D01*
X220343550Y-95989876D02*
X218387255Y-96405700D01*
X276801755Y-87413864D02*
X276801755Y-83513864D01*
X274801755Y-87413864D02*
X274801755Y-83513864D01*
X276801755Y-87413864D02*
X274801755Y-87413864D01*
X244333489Y-71415059D02*
X243522633Y-67600284D01*
X242377194Y-71830883D02*
X241566338Y-68016107D01*
X244333489Y-71415059D02*
X242377194Y-71830883D01*
X228962671Y-113633428D02*
X228151815Y-109818653D01*
X227006376Y-114049252D02*
X226195520Y-110234476D01*
X228962671Y-113633428D02*
X227006376Y-114049252D01*
X333466704Y-149326367D02*
X333466704Y-145426367D01*
X331466704Y-149326367D02*
X331466704Y-145426367D01*
X333466704Y-149326367D02*
X331466704Y-149326367D01*
X247596383Y-109672710D02*
X246785527Y-105857935D01*
X245640088Y-110088534D02*
X244829232Y-106273758D01*
X247596383Y-109672710D02*
X245640088Y-110088534D01*
X333466704Y-130276367D02*
X333466704Y-126376367D01*
X331466704Y-130276367D02*
X331466704Y-126376367D01*
X333466704Y-130276367D02*
X331466704Y-130276367D01*
X225699778Y-75375777D02*
X224888922Y-71561002D01*
X223743483Y-75791601D02*
X222932627Y-71976825D01*
X225699778Y-75375777D02*
X223743483Y-75791601D01*
X314416704Y-149326367D02*
X314416704Y-145426367D01*
X312416704Y-149326367D02*
X312416704Y-145426367D01*
X314416704Y-149326367D02*
X312416704Y-149326367D01*
X45481755Y-87413864D02*
X45481755Y-83513864D01*
X43481755Y-87413864D02*
X43481755Y-83513864D01*
X45481755Y-87413864D02*
X43481755Y-87413864D01*
X63931755Y-68363864D02*
X63931755Y-64463864D01*
X61931755Y-68363864D02*
X61931755Y-64463864D01*
X63931755Y-68363864D02*
X61931755Y-68363864D01*
X69291755Y-87413864D02*
X69291755Y-83513864D01*
X67291755Y-87413864D02*
X67291755Y-83513864D01*
X69291755Y-87413864D02*
X67291755Y-87413864D01*
X316798005Y-106463864D02*
X316798005Y-102563864D01*
X314798005Y-106463864D02*
X314798005Y-102563864D01*
X316798005Y-106463864D02*
X314798005Y-106463864D01*
X37251755Y-144563864D02*
X37251755Y-140663864D01*
X35251755Y-144563864D02*
X35251755Y-140663864D01*
X37251755Y-144563864D02*
X35251755Y-144563864D01*
X69991755Y-106463864D02*
X69991755Y-102563864D01*
X67991755Y-106463864D02*
X67991755Y-102563864D01*
X69991755Y-106463864D02*
X67991755Y-106463864D01*
X313966755Y-44393864D02*
X313966755Y-40493864D01*
X311966755Y-44393864D02*
X311966755Y-40493864D01*
X313966755Y-44393864D02*
X311966755Y-44393864D01*
X75341755Y-125513864D02*
X75341755Y-121613864D01*
X73341755Y-125513864D02*
X73341755Y-121613864D01*
X75341755Y-125513864D02*
X73341755Y-125513864D01*
X230275813Y-50164385D02*
X229464957Y-46349610D01*
X228319518Y-50580209D02*
X227508662Y-46765433D01*
X230275813Y-50164385D02*
X228319518Y-50580209D01*
X238977262Y-92029158D02*
X238166406Y-88214383D01*
X237020967Y-92444982D02*
X236210111Y-88630206D01*
X238977262Y-92029158D02*
X237020967Y-92444982D01*
X44385505Y-125513864D02*
X44385505Y-121613864D01*
X42385505Y-125513864D02*
X42385505Y-121613864D01*
X44385505Y-125513864D02*
X42385505Y-125513864D01*
X201709838Y-99950593D02*
X200898982Y-96135818D01*
X199753543Y-100366417D02*
X198942687Y-96551641D01*
X201709838Y-99950593D02*
X199753543Y-100366417D01*
X34716755Y-44568864D02*
X34716755Y-40668864D01*
X32716755Y-44568864D02*
X32716755Y-40668864D01*
X34716755Y-44568864D02*
X32716755Y-44568864D01*
X116613992Y-49730209D02*
X117424848Y-45915433D01*
X114657697Y-49314385D02*
X115468553Y-45499610D01*
X116613992Y-49730209D02*
X114657697Y-49314385D01*
X257610974Y-88068440D02*
X256800118Y-84253665D01*
X255654679Y-88484264D02*
X254843823Y-84669488D01*
X257610974Y-88068440D02*
X255654679Y-88484264D01*
X250859406Y-147930310D02*
X250048550Y-144115535D01*
X248903111Y-148346134D02*
X248092255Y-144531358D01*
X250859406Y-147930310D02*
X248903111Y-148346134D01*
X183076127Y-103911311D02*
X182265271Y-100096536D01*
X181119832Y-104327135D02*
X180308976Y-100512359D01*
X183076127Y-103911311D02*
X181119832Y-104327135D01*
X200314369Y-139198415D02*
X199503513Y-135383640D01*
X198358074Y-139614239D02*
X197547218Y-135799463D01*
X200314369Y-139198415D02*
X198358074Y-139614239D01*
X352516704Y-149326367D02*
X352516704Y-145426367D01*
X350516704Y-149326367D02*
X350516704Y-145426367D01*
X352516704Y-149326367D02*
X350516704Y-149326367D01*
X263111755Y-66863479D02*
X263111755Y-62963479D01*
X261111755Y-66863479D02*
X261111755Y-62963479D01*
X263111755Y-66863479D02*
X261111755Y-66863479D01*
X125860372Y-95065685D02*
X126671228Y-91250909D01*
X123904077Y-94649861D02*
X124714933Y-90835086D01*
X125860372Y-95065685D02*
X123904077Y-94649861D01*
X98127101Y-45527608D02*
X98937957Y-41712832D01*
X96170806Y-45111784D02*
X96981662Y-41297009D01*
X98127101Y-45527608D02*
X96170806Y-45111784D01*
X157771745Y-82373042D02*
X158582601Y-78558266D01*
X155815450Y-81957218D02*
X156626306Y-78142443D01*
X157771745Y-82373042D02*
X155815450Y-81957218D01*
X139923306Y-53921103D02*
X140734162Y-50106327D01*
X137967011Y-53505279D02*
X138777867Y-49690504D01*
X139923306Y-53921103D02*
X137967011Y-53505279D01*
X188432354Y-83297212D02*
X187621498Y-79482437D01*
X186476059Y-83713036D02*
X185665203Y-79898260D01*
X188432354Y-83297212D02*
X186476059Y-83713036D01*
X237581792Y-131276980D02*
X236770936Y-127462205D01*
X235625497Y-131692804D02*
X234814641Y-127878028D01*
X237581792Y-131276980D02*
X235625497Y-131692804D01*
X352516704Y-101701383D02*
X352516704Y-97801383D01*
X350516704Y-101701383D02*
X350516704Y-97801383D01*
X352516704Y-101701383D02*
X350516704Y-101701383D01*
X256215504Y-127316262D02*
X255404648Y-123501487D01*
X254259209Y-127732086D02*
X253448353Y-123917310D01*
X256215504Y-127316262D02*
X254259209Y-127732086D01*
X218948081Y-135237697D02*
X218137225Y-131422922D01*
X216991786Y-135653521D02*
X216180930Y-131838745D01*
X218948081Y-135237697D02*
X216991786Y-135653521D01*
X320261755Y-68363864D02*
X320261755Y-64463864D01*
X318261755Y-68363864D02*
X318261755Y-64463864D01*
X320261755Y-68363864D02*
X318261755Y-68363864D01*
X344074297Y-63601373D02*
X344074297Y-59701373D01*
X342074297Y-63601373D02*
X342074297Y-59701373D01*
X344074297Y-63601373D02*
X342074297Y-63601373D01*
X206775813Y-54964385D02*
X205964957Y-51149610D01*
X204819518Y-55380209D02*
X204008662Y-51565433D01*
X206775813Y-54964385D02*
X204819518Y-55380209D01*
X266791755Y-106463864D02*
X266791755Y-102563864D01*
X264791755Y-106463864D02*
X264791755Y-102563864D01*
X266791755Y-106463864D02*
X264791755Y-106463864D01*
X319671755Y-87413864D02*
X319671755Y-83513864D01*
X317671755Y-87413864D02*
X317671755Y-83513864D01*
X319671755Y-87413864D02*
X317671755Y-87413864D01*
X107924329Y-110728852D02*
X108735185Y-106914076D01*
X105968034Y-110313028D02*
X106778890Y-106498253D01*
X107924329Y-110728852D02*
X105968034Y-110313028D01*
X113280411Y-131342920D02*
X114091267Y-127528144D01*
X111324116Y-130927096D02*
X112134972Y-127112321D01*
X113280411Y-131342920D02*
X111324116Y-130927096D01*
X131914120Y-135303647D02*
X132724976Y-131488871D01*
X129957825Y-134887823D02*
X130768681Y-131073048D01*
X131914120Y-135303647D02*
X129957825Y-134887823D01*
X95344402Y-147006082D02*
X96155258Y-143191306D01*
X93388107Y-146590258D02*
X94198963Y-142775483D01*
X95344402Y-147006082D02*
X93388107Y-146590258D01*
X82981755Y-66863479D02*
X82981755Y-62963479D01*
X80981755Y-66863479D02*
X80981755Y-62963479D01*
X82981755Y-66863479D02*
X80981755Y-66863479D01*
X107226662Y-91104958D02*
X108037518Y-87290182D01*
X105270367Y-90689134D02*
X106081223Y-86874359D01*
X107226662Y-91104958D02*
X105270367Y-90689134D01*
X268316755Y-43593864D02*
X268316755Y-39693864D01*
X266316755Y-43593864D02*
X266316755Y-39693864D01*
X268316755Y-43593864D02*
X266316755Y-43593864D01*
X145191749Y-118650306D02*
X146002605Y-114835530D01*
X143235454Y-118234482D02*
X144046310Y-114419707D01*
X145191749Y-118650306D02*
X143235454Y-118234482D01*
X120504321Y-74451607D02*
X121315177Y-70636831D01*
X118548026Y-74035783D02*
X119358882Y-70221008D01*
X120504321Y-74451607D02*
X118548026Y-74035783D01*
X88592952Y-87144232D02*
X89403808Y-83329456D01*
X86636657Y-86728408D02*
X87447513Y-82913633D01*
X88592952Y-87144232D02*
X86636657Y-86728408D01*
X248875813Y-46164385D02*
X248064957Y-42349610D01*
X246919518Y-46580209D02*
X246108662Y-42765433D01*
X248875813Y-46164385D02*
X246919518Y-46580209D01*
X348246755Y-82651380D02*
X348246755Y-78751380D01*
X346246755Y-82651380D02*
X346246755Y-78751380D01*
X348246755Y-82651380D02*
X346246755Y-82651380D01*
X287266755Y-43643864D02*
X287266755Y-39743864D01*
X285266755Y-43643864D02*
X285266755Y-39743864D01*
X287266755Y-43643864D02*
X285266755Y-43643864D01*
X276316774Y-125513862D02*
X276316774Y-121613862D01*
X274316774Y-125513862D02*
X274316774Y-121613862D01*
X276316774Y-125513862D02*
X274316774Y-125513862D01*
X155903967Y-159878403D02*
X156714823Y-156063627D01*
X153947672Y-159462579D02*
X154758528Y-155647804D01*
X155903967Y-159878403D02*
X153947672Y-159462579D01*
X191695248Y-121554863D02*
X190884392Y-117740088D01*
X189738953Y-121970687D02*
X188928097Y-118155911D01*
X191695248Y-121554863D02*
X189738953Y-121970687D01*
X59116755Y-43493864D02*
X59116755Y-39593864D01*
X57116755Y-43493864D02*
X57116755Y-39593864D01*
X59116755Y-43493864D02*
X57116755Y-43493864D01*
X78416755Y-43593864D02*
X78416755Y-39693864D01*
X76416755Y-43593864D02*
X76416755Y-39693864D01*
X78416755Y-43593864D02*
X76416755Y-43593864D01*
X139138033Y-78327608D02*
X139948889Y-74512832D01*
X137181738Y-77911784D02*
X137992594Y-74097009D01*
X139138033Y-78327608D02*
X137181738Y-77911784D01*
X185792069Y-40039758D02*
X185792069Y-41039758D01*
X184092069Y-41039758D02*
X184092069Y-40039758D01*
X186378069Y-39896758D02*
X186378069Y-38896758D01*
X188078069Y-38896758D02*
X188078069Y-39896758D01*
X182060069Y-30371758D02*
X182060069Y-29371758D01*
X183760069Y-29371758D02*
X183760069Y-30371758D01*
X180028069Y-30371758D02*
X180028069Y-29371758D01*
X181728069Y-29371758D02*
X181728069Y-30371758D01*
X166158069Y-36817758D02*
X165158069Y-36817758D01*
X165158069Y-35117758D02*
X166158069Y-35117758D01*
X166158069Y-38849758D02*
X165158069Y-38849758D01*
X165158069Y-37149758D02*
X166158069Y-37149758D01*
X180124069Y-49087758D02*
X181124069Y-49087758D01*
X181124069Y-50787758D02*
X180124069Y-50787758D01*
X164386755Y-44612864D02*
X165386755Y-44612864D01*
X165386755Y-46312864D02*
X164386755Y-46312864D01*
X187724069Y-34863758D02*
X188724069Y-34863758D01*
X188724069Y-36563758D02*
X187724069Y-36563758D01*
X218996069Y-27389758D02*
X220326069Y-27389758D01*
X218996069Y-26059758D02*
X218996069Y-27389758D01*
X218996069Y-24789758D02*
X221656069Y-24789758D01*
X221656069Y-24789758D02*
X221656069Y-24729758D01*
X218996069Y-24789758D02*
X218996069Y-24729758D01*
X218996069Y-24729758D02*
X221656069Y-24729758D01*
X216632069Y-27391758D02*
X217962069Y-27391758D01*
X216632069Y-26061758D02*
X216632069Y-27391758D01*
X216632069Y-24791758D02*
X219292069Y-24791758D01*
X219292069Y-24791758D02*
X219292069Y-24731758D01*
X216632069Y-24791758D02*
X216632069Y-24731758D01*
X216632069Y-24731758D02*
X219292069Y-24731758D01*
X214092069Y-27391758D02*
X215422069Y-27391758D01*
X214092069Y-26061758D02*
X214092069Y-27391758D01*
X214092069Y-24791758D02*
X216752069Y-24791758D01*
X216752069Y-24791758D02*
X216752069Y-24731758D01*
X214092069Y-24791758D02*
X214092069Y-24731758D01*
X214092069Y-24731758D02*
X216752069Y-24731758D01*
X211552069Y-27391758D02*
X212882069Y-27391758D01*
X211552069Y-26061758D02*
X211552069Y-27391758D01*
X211552069Y-24791758D02*
X214212069Y-24791758D01*
X214212069Y-24791758D02*
X214212069Y-24731758D01*
X211552069Y-24791758D02*
X211552069Y-24731758D01*
X211552069Y-24731758D02*
X214212069Y-24731758D01*
X209012069Y-27391758D02*
X210342069Y-27391758D01*
X209012069Y-26061758D02*
X209012069Y-27391758D01*
X209012069Y-24791758D02*
X211672069Y-24791758D01*
X211672069Y-24791758D02*
X211672069Y-24731758D01*
X209012069Y-24791758D02*
X209012069Y-24731758D01*
X209012069Y-24731758D02*
X211672069Y-24731758D01*
X206472069Y-27391758D02*
X207802069Y-27391758D01*
X206472069Y-26061758D02*
X206472069Y-27391758D01*
X206472069Y-24791758D02*
X209132069Y-24791758D01*
X209132069Y-24791758D02*
X209132069Y-24731758D01*
X206472069Y-24791758D02*
X206472069Y-24731758D01*
X206472069Y-24731758D02*
X209132069Y-24731758D01*
X137130069Y-27391758D02*
X138460069Y-27391758D01*
X137130069Y-26061758D02*
X137130069Y-27391758D01*
X137130069Y-24791758D02*
X139790069Y-24791758D01*
X139790069Y-24791758D02*
X139790069Y-24731758D01*
X137130069Y-24791758D02*
X137130069Y-24731758D01*
X137130069Y-24731758D02*
X139790069Y-24731758D01*
X134590069Y-27391758D02*
X135920069Y-27391758D01*
X134590069Y-26061758D02*
X134590069Y-27391758D01*
X134590069Y-24791758D02*
X137250069Y-24791758D01*
X137250069Y-24791758D02*
X137250069Y-24731758D01*
X134590069Y-24791758D02*
X134590069Y-24731758D01*
X134590069Y-24731758D02*
X137250069Y-24731758D01*
X139686755Y-27391758D02*
X141016755Y-27391758D01*
X139686755Y-26061758D02*
X139686755Y-27391758D01*
X139686755Y-24791758D02*
X142346755Y-24791758D01*
X142346755Y-24791758D02*
X142346755Y-24731758D01*
X139686755Y-24791758D02*
X139686755Y-24731758D01*
X139686755Y-24731758D02*
X142346755Y-24731758D01*
X161158069Y-30261758D02*
X159958069Y-30261758D01*
X159958069Y-32021758D02*
X161158069Y-32021758D01*
X159958069Y-29989758D02*
X161158069Y-29989758D01*
X161158069Y-28229758D02*
X159958069Y-28229758D01*
X193206069Y-28001758D02*
X193206069Y-29201758D01*
X194966069Y-29201758D02*
X194966069Y-28001758D01*
X168568069Y-50781758D02*
X168568069Y-51981758D01*
X170328069Y-51981758D02*
X170328069Y-50781758D01*
X202194069Y-25851758D02*
X199694069Y-25851758D01*
X203694069Y-27601758D02*
X203694069Y-29601758D01*
X202194069Y-31351758D02*
X199694069Y-31351758D01*
X198194069Y-27601758D02*
X198194069Y-29601758D01*
X202644069Y-26301758D02*
X202194069Y-25851758D01*
X199244069Y-26301758D02*
X199694069Y-25851758D01*
X199244069Y-30901758D02*
X199694069Y-31351758D01*
X202644069Y-30901758D02*
X202194069Y-31351758D01*
X194308338Y-42525014D02*
X189631800Y-39825014D01*
X196508338Y-38714502D02*
X194308338Y-42525014D01*
X165500069Y-28515758D02*
X167300069Y-28515758D01*
X167300069Y-31735758D02*
X164350069Y-31735758D01*
D14*
X170690069Y-36634758D02*
X170690069Y-35359758D01*
X170115069Y-46984758D02*
X170115069Y-46309758D01*
X180465069Y-46984758D02*
X180465069Y-46309758D01*
X180465069Y-36634758D02*
X180465069Y-37309758D01*
X170115069Y-36634758D02*
X170115069Y-37309758D01*
X180465069Y-36634758D02*
X179790069Y-36634758D01*
X180465069Y-46984758D02*
X179790069Y-46984758D01*
X170115069Y-46984758D02*
X170790069Y-46984758D01*
X170115069Y-36634758D02*
X170690069Y-36634758D01*
D13*
X149830069Y-27391758D02*
X151160069Y-27391758D01*
X149830069Y-26061758D02*
X149830069Y-27391758D01*
X149830069Y-24791758D02*
X152490069Y-24791758D01*
X152490069Y-24791758D02*
X152490069Y-24731758D01*
X149830069Y-24791758D02*
X149830069Y-24731758D01*
X149830069Y-24731758D02*
X152490069Y-24731758D01*
X144750069Y-27391758D02*
X146080069Y-27391758D01*
X144750069Y-26061758D02*
X144750069Y-27391758D01*
X144750069Y-24791758D02*
X147410069Y-24791758D01*
X147410069Y-24791758D02*
X147410069Y-24731758D01*
X144750069Y-24791758D02*
X144750069Y-24731758D01*
X144750069Y-24731758D02*
X147410069Y-24731758D01*
X147290069Y-24731758D02*
X149950069Y-24731758D01*
X147290069Y-24791758D02*
X147290069Y-24731758D01*
X149950069Y-24791758D02*
X149950069Y-24731758D01*
X147290069Y-24791758D02*
X149950069Y-24791758D01*
X147290069Y-26061758D02*
X147290069Y-27391758D01*
X147290069Y-27391758D02*
X148620069Y-27391758D01*
X142210069Y-24731758D02*
X144870069Y-24731758D01*
X142210069Y-24791758D02*
X142210069Y-24731758D01*
X144870069Y-24791758D02*
X144870069Y-24731758D01*
X142210069Y-24791758D02*
X144870069Y-24791758D01*
X142210069Y-26061758D02*
X142210069Y-27391758D01*
X142210069Y-27391758D02*
X143540069Y-27391758D01*
D14*
X175313421Y-27740768D02*
X175313421Y-28312197D01*
X175351516Y-28426483D01*
X175427707Y-28502673D01*
X175541993Y-28540768D01*
X175618183Y-28540768D01*
X174513421Y-28540768D02*
X174970564Y-28540768D01*
X174741993Y-28540768D02*
X174741993Y-27740768D01*
X174818183Y-27855054D01*
X174894374Y-27931244D01*
X174970564Y-27969340D01*
X302664135Y-64899578D02*
X301664135Y-64899578D01*
X301664135Y-65137673D01*
X301711755Y-65280530D01*
X301806993Y-65375768D01*
X301902231Y-65423387D01*
X302092707Y-65471006D01*
X302235564Y-65471006D01*
X302426040Y-65423387D01*
X302521278Y-65375768D01*
X302616516Y-65280530D01*
X302664135Y-65137673D01*
X302664135Y-64899578D01*
X301664135Y-66375768D02*
X301664135Y-65899578D01*
X302140326Y-65851959D01*
X302092707Y-65899578D01*
X302045088Y-65994816D01*
X302045088Y-66232911D01*
X302092707Y-66328149D01*
X302140326Y-66375768D01*
X302235564Y-66423387D01*
X302473659Y-66423387D01*
X302568897Y-66375768D01*
X302616516Y-66328149D01*
X302664135Y-66232911D01*
X302664135Y-65994816D01*
X302616516Y-65899578D01*
X302568897Y-65851959D01*
X302664135Y-66899578D02*
X302664135Y-67090054D01*
X302616516Y-67185292D01*
X302568897Y-67232911D01*
X302426040Y-67328149D01*
X302235564Y-67375768D01*
X301854612Y-67375768D01*
X301759374Y-67328149D01*
X301711755Y-67280530D01*
X301664135Y-67185292D01*
X301664135Y-66994816D01*
X301711755Y-66899578D01*
X301759374Y-66851959D01*
X301854612Y-66804340D01*
X302092707Y-66804340D01*
X302187945Y-66851959D01*
X302235564Y-66899578D01*
X302283183Y-66994816D01*
X302283183Y-67185292D01*
X302235564Y-67280530D01*
X302187945Y-67328149D01*
X302092707Y-67375768D01*
X46334135Y-65375768D02*
X45334135Y-65375768D01*
X45334135Y-65613864D01*
X45381755Y-65756721D01*
X45476993Y-65851959D01*
X45572231Y-65899578D01*
X45762707Y-65947197D01*
X45905564Y-65947197D01*
X46096040Y-65899578D01*
X46191278Y-65851959D01*
X46286516Y-65756721D01*
X46334135Y-65613864D01*
X46334135Y-65375768D01*
X46334135Y-66899578D02*
X46334135Y-66328149D01*
X46334135Y-66613864D02*
X45334135Y-66613864D01*
X45476993Y-66518625D01*
X45572231Y-66423387D01*
X45619850Y-66328149D01*
X40649335Y-103475768D02*
X39649335Y-103475768D01*
X39649335Y-103713864D01*
X39696955Y-103856721D01*
X39792193Y-103951959D01*
X39887431Y-103999578D01*
X40077907Y-104047197D01*
X40220764Y-104047197D01*
X40411240Y-103999578D01*
X40506478Y-103951959D01*
X40601716Y-103856721D01*
X40649335Y-103713864D01*
X40649335Y-103475768D01*
X39649335Y-104380530D02*
X39649335Y-104999578D01*
X40030288Y-104666244D01*
X40030288Y-104809102D01*
X40077907Y-104904340D01*
X40125526Y-104951959D01*
X40220764Y-104999578D01*
X40458859Y-104999578D01*
X40554097Y-104951959D01*
X40601716Y-104904340D01*
X40649335Y-104809102D01*
X40649335Y-104523387D01*
X40601716Y-104428149D01*
X40554097Y-104380530D01*
X91431527Y-103681508D02*
X90453379Y-103473596D01*
X90403877Y-103706489D01*
X90420753Y-103856125D01*
X90494109Y-103969083D01*
X90577366Y-104035462D01*
X90753779Y-104121643D01*
X90893514Y-104151345D01*
X91089729Y-104144368D01*
X91192786Y-104117591D01*
X91305744Y-104044235D01*
X91382024Y-103914400D01*
X91431527Y-103681508D01*
X91114709Y-105172019D02*
X91233516Y-104613077D01*
X91174113Y-104892548D02*
X90195965Y-104684636D01*
X90355501Y-104621181D01*
X90468459Y-104547825D01*
X90534839Y-104464569D01*
X90150514Y-105356536D02*
X90094035Y-105393214D01*
X90027656Y-105476470D01*
X89978153Y-105709362D01*
X90004930Y-105812420D01*
X90041608Y-105868899D01*
X90124864Y-105935278D01*
X90218021Y-105955080D01*
X90367657Y-105938203D01*
X91045405Y-105498068D01*
X90916698Y-106103588D01*
X96787609Y-124295577D02*
X95809461Y-124087665D01*
X95759959Y-124320558D01*
X95776835Y-124470194D01*
X95850191Y-124583152D01*
X95933448Y-124649531D01*
X96109861Y-124735712D01*
X96249596Y-124765414D01*
X96445811Y-124758437D01*
X96548868Y-124731660D01*
X96661826Y-124658304D01*
X96738106Y-124528469D01*
X96787609Y-124295577D01*
X96470791Y-125786088D02*
X96589598Y-125227146D01*
X96530195Y-125506617D02*
X95552047Y-125298705D01*
X95711583Y-125235250D01*
X95824541Y-125161894D01*
X95890921Y-125078638D01*
X95423340Y-125904225D02*
X95294632Y-126509745D01*
X95736564Y-126262900D01*
X95706862Y-126402636D01*
X95733640Y-126505693D01*
X95770318Y-126562172D01*
X95853574Y-126628552D01*
X96086466Y-126678055D01*
X96189524Y-126651277D01*
X96246003Y-126614599D01*
X96312382Y-126531343D01*
X96371786Y-126251872D01*
X96345008Y-126148815D01*
X96308330Y-126092336D01*
X283614135Y-64899578D02*
X282614135Y-64899578D01*
X282614135Y-65137673D01*
X282661755Y-65280530D01*
X282756993Y-65375768D01*
X282852231Y-65423387D01*
X283042707Y-65471006D01*
X283185564Y-65471006D01*
X283376040Y-65423387D01*
X283471278Y-65375768D01*
X283566516Y-65280530D01*
X283614135Y-65137673D01*
X283614135Y-64899578D01*
X282614135Y-66375768D02*
X282614135Y-65899578D01*
X283090326Y-65851959D01*
X283042707Y-65899578D01*
X282995088Y-65994816D01*
X282995088Y-66232911D01*
X283042707Y-66328149D01*
X283090326Y-66375768D01*
X283185564Y-66423387D01*
X283423659Y-66423387D01*
X283518897Y-66375768D01*
X283566516Y-66328149D01*
X283614135Y-66232911D01*
X283614135Y-65994816D01*
X283566516Y-65899578D01*
X283518897Y-65851959D01*
X282614135Y-67328149D02*
X282614135Y-66851959D01*
X283090326Y-66804340D01*
X283042707Y-66851959D01*
X282995088Y-66947197D01*
X282995088Y-67185292D01*
X283042707Y-67280530D01*
X283090326Y-67328149D01*
X283185564Y-67375768D01*
X283423659Y-67375768D01*
X283518897Y-67328149D01*
X283566516Y-67280530D01*
X283614135Y-67185292D01*
X283614135Y-66947197D01*
X283566516Y-66851959D01*
X283518897Y-66804340D01*
X146634990Y-95939795D02*
X145656842Y-95731883D01*
X145607340Y-95964776D01*
X145624216Y-96114412D01*
X145697572Y-96227370D01*
X145780829Y-96293749D01*
X145957242Y-96379930D01*
X146096977Y-96409632D01*
X146293192Y-96402655D01*
X146396249Y-96375878D01*
X146509207Y-96302522D01*
X146585487Y-96172687D01*
X146634990Y-95939795D01*
X145551988Y-96683254D02*
X145495509Y-96719932D01*
X145429130Y-96803188D01*
X145379627Y-97036080D01*
X145406404Y-97139138D01*
X145443082Y-97195617D01*
X145526338Y-97261996D01*
X145619495Y-97281797D01*
X145769131Y-97264921D01*
X146446879Y-96824786D01*
X146318172Y-97430306D01*
X145151914Y-98107385D02*
X145250920Y-97641600D01*
X145726605Y-97694027D01*
X145670126Y-97730705D01*
X145603746Y-97813962D01*
X145554243Y-98046854D01*
X145581021Y-98149911D01*
X145617699Y-98206390D01*
X145700955Y-98272770D01*
X145933847Y-98322273D01*
X146036905Y-98295495D01*
X146093384Y-98258817D01*
X146159763Y-98175561D01*
X146209266Y-97942669D01*
X146182489Y-97839611D01*
X146145811Y-97783132D01*
X303962904Y-122049576D02*
X302962904Y-122049576D01*
X302962904Y-122287671D01*
X303010524Y-122430528D01*
X303105762Y-122525766D01*
X303201000Y-122573385D01*
X303391476Y-122621004D01*
X303534333Y-122621004D01*
X303724809Y-122573385D01*
X303820047Y-122525766D01*
X303915285Y-122430528D01*
X303962904Y-122287671D01*
X303962904Y-122049576D01*
X302962904Y-123525766D02*
X302962904Y-123049576D01*
X303439095Y-123001957D01*
X303391476Y-123049576D01*
X303343857Y-123144814D01*
X303343857Y-123382909D01*
X303391476Y-123478147D01*
X303439095Y-123525766D01*
X303534333Y-123573385D01*
X303772428Y-123573385D01*
X303867666Y-123525766D01*
X303915285Y-123478147D01*
X303962904Y-123382909D01*
X303962904Y-123144814D01*
X303915285Y-123049576D01*
X303867666Y-123001957D01*
X303296238Y-124430528D02*
X303962904Y-124430528D01*
X302915285Y-124192433D02*
X303629571Y-123954338D01*
X303629571Y-124573385D01*
X297304135Y-83949578D02*
X296304135Y-83949578D01*
X296304135Y-84187673D01*
X296351755Y-84330530D01*
X296446993Y-84425768D01*
X296542231Y-84473387D01*
X296732707Y-84521006D01*
X296875564Y-84521006D01*
X297066040Y-84473387D01*
X297161278Y-84425768D01*
X297256516Y-84330530D01*
X297304135Y-84187673D01*
X297304135Y-83949578D01*
X296304135Y-85425768D02*
X296304135Y-84949578D01*
X296780326Y-84901959D01*
X296732707Y-84949578D01*
X296685088Y-85044816D01*
X296685088Y-85282911D01*
X296732707Y-85378149D01*
X296780326Y-85425768D01*
X296875564Y-85473387D01*
X297113659Y-85473387D01*
X297208897Y-85425768D01*
X297256516Y-85378149D01*
X297304135Y-85282911D01*
X297304135Y-85044816D01*
X297256516Y-84949578D01*
X297208897Y-84901959D01*
X296304135Y-86330530D02*
X296304135Y-86140054D01*
X296351755Y-86044816D01*
X296399374Y-85997197D01*
X296542231Y-85901959D01*
X296732707Y-85854340D01*
X297113659Y-85854340D01*
X297208897Y-85901959D01*
X297256516Y-85949578D01*
X297304135Y-86044816D01*
X297304135Y-86235292D01*
X297256516Y-86330530D01*
X297208897Y-86378149D01*
X297113659Y-86425768D01*
X296875564Y-86425768D01*
X296780326Y-86378149D01*
X296732707Y-86330530D01*
X296685088Y-86235292D01*
X296685088Y-86044816D01*
X296732707Y-85949578D01*
X296780326Y-85901959D01*
X296875564Y-85854340D01*
X160631118Y-55288390D02*
X159652970Y-55080478D01*
X159603468Y-55313371D01*
X159620344Y-55463007D01*
X159693700Y-55575965D01*
X159776957Y-55642344D01*
X159953370Y-55728525D01*
X160093105Y-55758227D01*
X160289320Y-55751250D01*
X160392377Y-55724473D01*
X160505335Y-55651117D01*
X160581615Y-55521282D01*
X160631118Y-55288390D01*
X159464860Y-55965469D02*
X159326252Y-56617568D01*
X160393505Y-56406273D01*
X159483992Y-57478705D02*
X160136090Y-57617313D01*
X159160867Y-57166608D02*
X159909047Y-57082225D01*
X159780339Y-57687744D01*
X188633018Y-57884846D02*
X189611166Y-57676935D01*
X189561663Y-57444042D01*
X189485383Y-57314208D01*
X189372425Y-57240852D01*
X189269368Y-57214075D01*
X189073153Y-57207098D01*
X188933418Y-57236800D01*
X188757005Y-57322981D01*
X188673748Y-57389360D01*
X188600392Y-57502318D01*
X188583516Y-57651954D01*
X188633018Y-57884846D01*
X189423055Y-56791944D02*
X189284448Y-56139846D01*
X188395405Y-56766963D01*
X189106238Y-55301433D02*
X189205243Y-55767218D01*
X188749359Y-55912802D01*
X188786037Y-55856323D01*
X188812814Y-55753266D01*
X188763312Y-55520373D01*
X188696932Y-55437117D01*
X188640453Y-55400439D01*
X188537396Y-55373662D01*
X188304503Y-55423164D01*
X188221247Y-55489544D01*
X188184569Y-55546023D01*
X188157792Y-55649081D01*
X188207294Y-55881973D01*
X188273674Y-55965229D01*
X188330153Y-56001907D01*
X211583084Y-155219884D02*
X212561232Y-155011973D01*
X212511729Y-154779080D01*
X212435449Y-154649246D01*
X212322491Y-154575890D01*
X212219434Y-154549113D01*
X212023219Y-154542136D01*
X211883484Y-154571838D01*
X211707071Y-154658019D01*
X211623814Y-154724398D01*
X211550458Y-154837356D01*
X211533582Y-154986992D01*
X211583084Y-155219884D01*
X212373121Y-154126982D02*
X212244414Y-153521462D01*
X211941090Y-153926716D01*
X211911389Y-153786980D01*
X211845009Y-153703724D01*
X211788530Y-153667046D01*
X211685473Y-153640269D01*
X211452580Y-153689772D01*
X211369324Y-153756151D01*
X211332646Y-153812630D01*
X211305869Y-153915688D01*
X211365272Y-154195158D01*
X211431652Y-154278415D01*
X211488131Y-154315093D01*
X212175110Y-153195413D02*
X212036502Y-152543315D01*
X211147460Y-153170432D01*
X287294135Y-102999578D02*
X286294135Y-102999578D01*
X286294135Y-103237673D01*
X286341755Y-103380530D01*
X286436993Y-103475768D01*
X286532231Y-103523387D01*
X286722707Y-103571006D01*
X286865564Y-103571006D01*
X287056040Y-103523387D01*
X287151278Y-103475768D01*
X287246516Y-103380530D01*
X287294135Y-103237673D01*
X287294135Y-102999578D01*
X286294135Y-104475768D02*
X286294135Y-103999578D01*
X286770326Y-103951959D01*
X286722707Y-103999578D01*
X286675088Y-104094816D01*
X286675088Y-104332911D01*
X286722707Y-104428149D01*
X286770326Y-104475768D01*
X286865564Y-104523387D01*
X287103659Y-104523387D01*
X287198897Y-104475768D01*
X287246516Y-104428149D01*
X287294135Y-104332911D01*
X287294135Y-104094816D01*
X287246516Y-103999578D01*
X287198897Y-103951959D01*
X286294135Y-104856721D02*
X286294135Y-105475768D01*
X286675088Y-105142435D01*
X286675088Y-105285292D01*
X286722707Y-105380530D01*
X286770326Y-105428149D01*
X286865564Y-105475768D01*
X287103659Y-105475768D01*
X287198897Y-105428149D01*
X287246516Y-105380530D01*
X287294135Y-105285292D01*
X287294135Y-104999578D01*
X287246516Y-104904340D01*
X287198897Y-104856721D01*
X128698947Y-111602962D02*
X127720799Y-111395050D01*
X127671297Y-111627943D01*
X127688173Y-111777579D01*
X127761529Y-111890537D01*
X127844786Y-111956916D01*
X128021199Y-112043097D01*
X128160934Y-112072799D01*
X128357149Y-112065822D01*
X128460206Y-112039045D01*
X128573164Y-111965689D01*
X128649444Y-111835854D01*
X128698947Y-111602962D01*
X127615945Y-112346421D02*
X127559466Y-112383099D01*
X127493087Y-112466355D01*
X127443584Y-112699247D01*
X127470361Y-112802305D01*
X127507039Y-112858784D01*
X127590295Y-112925163D01*
X127683452Y-112944964D01*
X127833088Y-112928088D01*
X128510836Y-112487953D01*
X128382129Y-113093473D01*
X128184118Y-114025042D02*
X128302925Y-113466100D01*
X128243521Y-113745571D02*
X127265374Y-113537659D01*
X127424910Y-113474204D01*
X127537868Y-113400848D01*
X127604248Y-113317592D01*
X104011518Y-67404272D02*
X103033370Y-67196360D01*
X102983868Y-67429253D01*
X103000744Y-67578889D01*
X103074100Y-67691847D01*
X103157357Y-67758226D01*
X103333770Y-67844407D01*
X103473505Y-67874109D01*
X103669720Y-67867132D01*
X103772777Y-67840355D01*
X103885735Y-67766999D01*
X103962015Y-67637164D01*
X104011518Y-67404272D01*
X103694700Y-68894783D02*
X103813507Y-68335841D01*
X103754104Y-68615312D02*
X102775956Y-68407400D01*
X102935492Y-68343945D01*
X103048450Y-68270589D01*
X103114830Y-68187333D01*
X102528442Y-69571862D02*
X102627448Y-69106077D01*
X103103133Y-69158504D01*
X103046654Y-69195182D01*
X102980274Y-69278439D01*
X102930771Y-69511331D01*
X102957549Y-69614388D01*
X102994227Y-69670867D01*
X103077483Y-69737247D01*
X103310375Y-69786750D01*
X103413433Y-69759972D01*
X103469912Y-69723294D01*
X103536291Y-69640038D01*
X103585794Y-69407146D01*
X103559017Y-69304088D01*
X103522339Y-69247609D01*
X341469135Y-41054578D02*
X340469135Y-41054578D01*
X340469135Y-41292673D01*
X340516755Y-41435530D01*
X340611993Y-41530768D01*
X340707231Y-41578387D01*
X340897707Y-41626006D01*
X341040564Y-41626006D01*
X341231040Y-41578387D01*
X341326278Y-41530768D01*
X341421516Y-41435530D01*
X341469135Y-41292673D01*
X341469135Y-41054578D01*
X340897707Y-42197435D02*
X340850088Y-42102197D01*
X340802469Y-42054578D01*
X340707231Y-42006959D01*
X340659612Y-42006959D01*
X340564374Y-42054578D01*
X340516755Y-42102197D01*
X340469135Y-42197435D01*
X340469135Y-42387911D01*
X340516755Y-42483149D01*
X340564374Y-42530768D01*
X340659612Y-42578387D01*
X340707231Y-42578387D01*
X340802469Y-42530768D01*
X340850088Y-42483149D01*
X340897707Y-42387911D01*
X340897707Y-42197435D01*
X340945326Y-42102197D01*
X340992945Y-42054578D01*
X341088183Y-42006959D01*
X341278659Y-42006959D01*
X341373897Y-42054578D01*
X341421516Y-42102197D01*
X341469135Y-42197435D01*
X341469135Y-42387911D01*
X341421516Y-42483149D01*
X341373897Y-42530768D01*
X341278659Y-42578387D01*
X341088183Y-42578387D01*
X340992945Y-42530768D01*
X340945326Y-42483149D01*
X340897707Y-42387911D01*
X340564374Y-42959340D02*
X340516755Y-43006959D01*
X340469135Y-43102197D01*
X340469135Y-43340292D01*
X340516755Y-43435530D01*
X340564374Y-43483149D01*
X340659612Y-43530768D01*
X340754850Y-43530768D01*
X340897707Y-43483149D01*
X341469135Y-42911721D01*
X341469135Y-43530768D01*
X130094302Y-150850740D02*
X129116154Y-150642828D01*
X129066652Y-150875721D01*
X129083528Y-151025357D01*
X129156884Y-151138315D01*
X129240141Y-151204694D01*
X129416554Y-151290875D01*
X129556289Y-151320577D01*
X129752504Y-151313600D01*
X129855561Y-151286823D01*
X129968519Y-151213467D01*
X130044799Y-151083632D01*
X130094302Y-150850740D01*
X129011300Y-151594199D02*
X128954821Y-151630877D01*
X128888442Y-151714133D01*
X128838939Y-151947025D01*
X128865716Y-152050083D01*
X128902394Y-152106562D01*
X128985650Y-152172941D01*
X129078807Y-152192742D01*
X129228443Y-152175866D01*
X129906191Y-151735731D01*
X129777484Y-152341251D01*
X128730033Y-152459388D02*
X128601325Y-153064908D01*
X129043257Y-152818063D01*
X129013555Y-152957799D01*
X129040333Y-153060856D01*
X129077011Y-153117335D01*
X129160267Y-153183715D01*
X129393159Y-153233218D01*
X129496217Y-153206440D01*
X129552696Y-153169762D01*
X129619075Y-153086506D01*
X129678479Y-152807035D01*
X129651701Y-152703978D01*
X129615023Y-152647499D01*
X210649273Y-116467207D02*
X211627421Y-116259296D01*
X211577918Y-116026403D01*
X211501638Y-115896569D01*
X211388680Y-115823213D01*
X211285623Y-115796436D01*
X211089408Y-115789459D01*
X210949673Y-115819161D01*
X210773260Y-115905342D01*
X210690003Y-115971721D01*
X210616647Y-116084679D01*
X210599771Y-116234315D01*
X210649273Y-116467207D01*
X211439310Y-115374305D02*
X211310603Y-114768785D01*
X211007279Y-115174039D01*
X210977578Y-115034303D01*
X210911198Y-114951047D01*
X210854719Y-114914369D01*
X210751662Y-114887592D01*
X210518769Y-114937095D01*
X210435513Y-115003474D01*
X210398835Y-115059953D01*
X210372058Y-115163011D01*
X210431461Y-115442481D01*
X210497841Y-115525738D01*
X210554320Y-115562416D01*
X211122493Y-113883794D02*
X211221498Y-114349579D01*
X210765614Y-114495163D01*
X210802292Y-114438684D01*
X210829069Y-114335627D01*
X210779567Y-114102734D01*
X210713187Y-114019478D01*
X210656708Y-113982800D01*
X210553651Y-113956023D01*
X210320758Y-114005525D01*
X210237502Y-114071905D01*
X210200824Y-114128384D01*
X210174047Y-114231442D01*
X210223549Y-114464334D01*
X210289929Y-114547590D01*
X210346408Y-114584268D01*
X207446127Y-78137447D02*
X208424275Y-77929536D01*
X208374772Y-77696643D01*
X208298492Y-77566809D01*
X208185534Y-77493453D01*
X208082477Y-77466676D01*
X207886262Y-77459699D01*
X207746527Y-77489401D01*
X207570114Y-77575582D01*
X207486857Y-77641961D01*
X207413501Y-77754919D01*
X207396625Y-77904555D01*
X207446127Y-78137447D01*
X208236164Y-77044545D02*
X208107457Y-76439025D01*
X207804133Y-76844279D01*
X207774432Y-76704543D01*
X207708052Y-76621287D01*
X207651573Y-76584609D01*
X207548516Y-76557832D01*
X207315623Y-76607335D01*
X207232367Y-76673714D01*
X207195689Y-76730193D01*
X207168912Y-76833251D01*
X207228315Y-77112721D01*
X207294695Y-77195978D01*
X207351174Y-77232656D01*
X207569444Y-75969189D02*
X207635824Y-76052445D01*
X207692303Y-76089123D01*
X207795360Y-76115900D01*
X207841939Y-76106000D01*
X207925195Y-76039620D01*
X207961873Y-75983141D01*
X207988650Y-75880084D01*
X207949048Y-75693770D01*
X207882669Y-75610513D01*
X207826190Y-75573836D01*
X207723132Y-75547058D01*
X207676554Y-75556959D01*
X207593297Y-75623338D01*
X207556619Y-75679817D01*
X207529842Y-75782875D01*
X207569444Y-75969189D01*
X207542667Y-76072246D01*
X207505989Y-76128725D01*
X207422733Y-76195105D01*
X207236419Y-76234707D01*
X207133361Y-76207930D01*
X207076882Y-76171252D01*
X207010503Y-76087995D01*
X206970901Y-75901682D01*
X206997678Y-75798624D01*
X207034356Y-75742145D01*
X207117612Y-75675765D01*
X207303926Y-75636163D01*
X207406984Y-75662941D01*
X207463463Y-75699618D01*
X207529842Y-75782875D01*
X152688738Y-136177757D02*
X151710590Y-135969845D01*
X151661088Y-136202738D01*
X151677964Y-136352374D01*
X151751320Y-136465332D01*
X151834577Y-136531711D01*
X152010990Y-136617892D01*
X152150725Y-136647594D01*
X152346940Y-136640617D01*
X152449997Y-136613840D01*
X152562955Y-136540484D01*
X152639235Y-136410649D01*
X152688738Y-136177757D01*
X151605736Y-136921216D02*
X151549257Y-136957894D01*
X151482878Y-137041150D01*
X151433375Y-137274042D01*
X151460152Y-137377100D01*
X151496830Y-137433579D01*
X151580086Y-137499958D01*
X151673243Y-137519759D01*
X151822879Y-137502883D01*
X152500627Y-137062748D01*
X152371920Y-137668268D01*
X151324469Y-137786405D02*
X151185861Y-138438504D01*
X152253114Y-138227209D01*
X220663864Y-94862938D02*
X221642012Y-94655027D01*
X221592509Y-94422134D01*
X221516229Y-94292300D01*
X221403271Y-94218944D01*
X221300214Y-94192167D01*
X221103999Y-94185190D01*
X220964264Y-94214892D01*
X220787851Y-94301073D01*
X220704594Y-94367452D01*
X220631238Y-94480410D01*
X220614362Y-94630046D01*
X220663864Y-94862938D01*
X221453901Y-93770036D02*
X221325194Y-93164516D01*
X221021870Y-93569770D01*
X220992169Y-93430034D01*
X220925789Y-93346778D01*
X220869310Y-93310100D01*
X220766253Y-93283323D01*
X220533360Y-93332826D01*
X220450104Y-93399205D01*
X220413426Y-93455684D01*
X220386649Y-93558742D01*
X220446052Y-93838212D01*
X220512432Y-93921469D01*
X220568911Y-93958147D01*
X220248041Y-92906643D02*
X220208439Y-92720329D01*
X220235216Y-92617272D01*
X220271894Y-92560793D01*
X220391828Y-92437934D01*
X220568242Y-92351754D01*
X220940869Y-92272549D01*
X221043927Y-92299327D01*
X221100406Y-92336004D01*
X221166785Y-92419261D01*
X221206387Y-92605575D01*
X221179610Y-92708632D01*
X221142932Y-92765111D01*
X221059676Y-92831491D01*
X220826784Y-92880993D01*
X220723726Y-92854216D01*
X220667247Y-92817538D01*
X220600868Y-92734282D01*
X220561265Y-92547968D01*
X220588043Y-92444911D01*
X220624721Y-92388432D01*
X220707977Y-92322052D01*
X278254135Y-83949578D02*
X277254135Y-83949578D01*
X277254135Y-84187673D01*
X277301755Y-84330530D01*
X277396993Y-84425768D01*
X277492231Y-84473387D01*
X277682707Y-84521006D01*
X277825564Y-84521006D01*
X278016040Y-84473387D01*
X278111278Y-84425768D01*
X278206516Y-84330530D01*
X278254135Y-84187673D01*
X278254135Y-83949578D01*
X277254135Y-85425768D02*
X277254135Y-84949578D01*
X277730326Y-84901959D01*
X277682707Y-84949578D01*
X277635088Y-85044816D01*
X277635088Y-85282911D01*
X277682707Y-85378149D01*
X277730326Y-85425768D01*
X277825564Y-85473387D01*
X278063659Y-85473387D01*
X278158897Y-85425768D01*
X278206516Y-85378149D01*
X278254135Y-85282911D01*
X278254135Y-85044816D01*
X278206516Y-84949578D01*
X278158897Y-84901959D01*
X277349374Y-85854340D02*
X277301755Y-85901959D01*
X277254135Y-85997197D01*
X277254135Y-86235292D01*
X277301755Y-86330530D01*
X277349374Y-86378149D01*
X277444612Y-86425768D01*
X277539850Y-86425768D01*
X277682707Y-86378149D01*
X278254135Y-85806721D01*
X278254135Y-86425768D01*
X244653803Y-70288121D02*
X245631951Y-70080210D01*
X245582448Y-69847317D01*
X245506168Y-69717483D01*
X245393210Y-69644127D01*
X245290153Y-69617350D01*
X245093938Y-69610373D01*
X244954203Y-69640075D01*
X244777790Y-69726256D01*
X244694533Y-69792635D01*
X244621177Y-69905593D01*
X244604301Y-70055229D01*
X244653803Y-70288121D01*
X245008885Y-68752160D02*
X244356787Y-68890768D01*
X245431015Y-68905848D02*
X244781841Y-69287248D01*
X244653134Y-68681728D01*
X245245829Y-68263650D02*
X245107221Y-67611552D01*
X244218179Y-68238669D01*
X229282985Y-112506490D02*
X230261133Y-112298579D01*
X230211630Y-112065686D01*
X230135350Y-111935852D01*
X230022392Y-111862496D01*
X229919335Y-111835719D01*
X229723120Y-111828742D01*
X229583385Y-111858444D01*
X229406972Y-111944625D01*
X229323715Y-112011004D01*
X229250359Y-112123962D01*
X229233483Y-112273598D01*
X229282985Y-112506490D01*
X229638067Y-110970529D02*
X228985969Y-111109137D01*
X230060197Y-111124217D02*
X229411023Y-111505617D01*
X229282316Y-110900097D01*
X229815608Y-110202548D02*
X229795807Y-110109391D01*
X229729427Y-110026135D01*
X229672948Y-109989457D01*
X229569891Y-109962680D01*
X229373676Y-109955703D01*
X229140784Y-110005206D01*
X228964371Y-110091387D01*
X228881114Y-110157766D01*
X228844437Y-110214245D01*
X228817659Y-110317303D01*
X228837460Y-110410460D01*
X228903840Y-110493716D01*
X228960319Y-110530394D01*
X229063376Y-110557171D01*
X229259591Y-110564148D01*
X229492483Y-110514645D01*
X229668896Y-110428464D01*
X229752153Y-110362085D01*
X229788831Y-110305606D01*
X229815608Y-110202548D01*
X334919084Y-145862081D02*
X333919084Y-145862081D01*
X333919084Y-146100176D01*
X333966704Y-146243033D01*
X334061942Y-146338271D01*
X334157180Y-146385890D01*
X334347656Y-146433509D01*
X334490513Y-146433509D01*
X334680989Y-146385890D01*
X334776227Y-146338271D01*
X334871465Y-146243033D01*
X334919084Y-146100176D01*
X334919084Y-145862081D01*
X333919084Y-147290652D02*
X333919084Y-147100176D01*
X333966704Y-147004938D01*
X334014323Y-146957319D01*
X334157180Y-146862081D01*
X334347656Y-146814462D01*
X334728608Y-146814462D01*
X334823846Y-146862081D01*
X334871465Y-146909700D01*
X334919084Y-147004938D01*
X334919084Y-147195414D01*
X334871465Y-147290652D01*
X334823846Y-147338271D01*
X334728608Y-147385890D01*
X334490513Y-147385890D01*
X334395275Y-147338271D01*
X334347656Y-147290652D01*
X334300037Y-147195414D01*
X334300037Y-147004938D01*
X334347656Y-146909700D01*
X334395275Y-146862081D01*
X334490513Y-146814462D01*
X334014323Y-147766843D02*
X333966704Y-147814462D01*
X333919084Y-147909700D01*
X333919084Y-148147795D01*
X333966704Y-148243033D01*
X334014323Y-148290652D01*
X334109561Y-148338271D01*
X334204799Y-148338271D01*
X334347656Y-148290652D01*
X334919084Y-147719224D01*
X334919084Y-148338271D01*
X247916697Y-108545772D02*
X248894845Y-108337861D01*
X248845342Y-108104968D01*
X248769062Y-107975134D01*
X248656104Y-107901778D01*
X248553047Y-107875001D01*
X248356832Y-107868024D01*
X248217097Y-107897726D01*
X248040684Y-107983907D01*
X247957427Y-108050286D01*
X247884071Y-108163244D01*
X247867195Y-108312880D01*
X247916697Y-108545772D01*
X248271779Y-107009811D02*
X247619681Y-107148419D01*
X248693909Y-107163499D02*
X248044735Y-107544899D01*
X247916028Y-106939379D01*
X248073768Y-106078242D02*
X247421670Y-106216850D01*
X248495898Y-106231930D02*
X247846724Y-106613330D01*
X247718017Y-106007810D01*
X334919084Y-126812081D02*
X333919084Y-126812081D01*
X333919084Y-127050176D01*
X333966704Y-127193033D01*
X334061942Y-127288271D01*
X334157180Y-127335890D01*
X334347656Y-127383509D01*
X334490513Y-127383509D01*
X334680989Y-127335890D01*
X334776227Y-127288271D01*
X334871465Y-127193033D01*
X334919084Y-127050176D01*
X334919084Y-126812081D01*
X333919084Y-128240652D02*
X333919084Y-128050176D01*
X333966704Y-127954938D01*
X334014323Y-127907319D01*
X334157180Y-127812081D01*
X334347656Y-127764462D01*
X334728608Y-127764462D01*
X334823846Y-127812081D01*
X334871465Y-127859700D01*
X334919084Y-127954938D01*
X334919084Y-128145414D01*
X334871465Y-128240652D01*
X334823846Y-128288271D01*
X334728608Y-128335890D01*
X334490513Y-128335890D01*
X334395275Y-128288271D01*
X334347656Y-128240652D01*
X334300037Y-128145414D01*
X334300037Y-127954938D01*
X334347656Y-127859700D01*
X334395275Y-127812081D01*
X334490513Y-127764462D01*
X334919084Y-129288271D02*
X334919084Y-128716843D01*
X334919084Y-129002557D02*
X333919084Y-129002557D01*
X334061942Y-128907319D01*
X334157180Y-128812081D01*
X334204799Y-128716843D01*
X226020092Y-74248839D02*
X226998240Y-74040928D01*
X226948737Y-73808035D01*
X226872457Y-73678201D01*
X226759499Y-73604845D01*
X226656442Y-73578068D01*
X226460227Y-73571091D01*
X226320492Y-73600793D01*
X226144079Y-73686974D01*
X226060822Y-73753353D01*
X225987466Y-73866311D01*
X225970590Y-74015947D01*
X226020092Y-74248839D01*
X226375174Y-72712878D02*
X225723076Y-72851486D01*
X226797304Y-72866566D02*
X226148130Y-73247966D01*
X226019423Y-72642446D01*
X226509061Y-72197591D02*
X226545739Y-72141112D01*
X226572516Y-72038054D01*
X226523013Y-71805162D01*
X226456634Y-71721905D01*
X226400155Y-71685228D01*
X226297097Y-71658450D01*
X226203940Y-71678251D01*
X226074105Y-71754531D01*
X225633971Y-72432280D01*
X225505263Y-71826760D01*
X315869084Y-145862081D02*
X314869084Y-145862081D01*
X314869084Y-146100176D01*
X314916704Y-146243033D01*
X315011942Y-146338271D01*
X315107180Y-146385890D01*
X315297656Y-146433509D01*
X315440513Y-146433509D01*
X315630989Y-146385890D01*
X315726227Y-146338271D01*
X315821465Y-146243033D01*
X315869084Y-146100176D01*
X315869084Y-145862081D01*
X314869084Y-147338271D02*
X314869084Y-146862081D01*
X315345275Y-146814462D01*
X315297656Y-146862081D01*
X315250037Y-146957319D01*
X315250037Y-147195414D01*
X315297656Y-147290652D01*
X315345275Y-147338271D01*
X315440513Y-147385890D01*
X315678608Y-147385890D01*
X315773846Y-147338271D01*
X315821465Y-147290652D01*
X315869084Y-147195414D01*
X315869084Y-146957319D01*
X315821465Y-146862081D01*
X315773846Y-146814462D01*
X315297656Y-147957319D02*
X315250037Y-147862081D01*
X315202418Y-147814462D01*
X315107180Y-147766843D01*
X315059561Y-147766843D01*
X314964323Y-147814462D01*
X314916704Y-147862081D01*
X314869084Y-147957319D01*
X314869084Y-148147795D01*
X314916704Y-148243033D01*
X314964323Y-148290652D01*
X315059561Y-148338271D01*
X315107180Y-148338271D01*
X315202418Y-148290652D01*
X315250037Y-148243033D01*
X315297656Y-148147795D01*
X315297656Y-147957319D01*
X315345275Y-147862081D01*
X315392894Y-147814462D01*
X315488132Y-147766843D01*
X315678608Y-147766843D01*
X315773846Y-147814462D01*
X315821465Y-147862081D01*
X315869084Y-147957319D01*
X315869084Y-148147795D01*
X315821465Y-148243033D01*
X315773846Y-148290652D01*
X315678608Y-148338271D01*
X315488132Y-148338271D01*
X315392894Y-148290652D01*
X315345275Y-148243033D01*
X315297656Y-148147795D01*
X46934135Y-84425768D02*
X45934135Y-84425768D01*
X45934135Y-84663864D01*
X45981755Y-84806721D01*
X46076993Y-84901959D01*
X46172231Y-84949578D01*
X46362707Y-84997197D01*
X46505564Y-84997197D01*
X46696040Y-84949578D01*
X46791278Y-84901959D01*
X46886516Y-84806721D01*
X46934135Y-84663864D01*
X46934135Y-84425768D01*
X46029374Y-85378149D02*
X45981755Y-85425768D01*
X45934135Y-85521006D01*
X45934135Y-85759102D01*
X45981755Y-85854340D01*
X46029374Y-85901959D01*
X46124612Y-85949578D01*
X46219850Y-85949578D01*
X46362707Y-85901959D01*
X46934135Y-85330530D01*
X46934135Y-85949578D01*
X65384135Y-65375768D02*
X64384135Y-65375768D01*
X64384135Y-65613864D01*
X64431755Y-65756721D01*
X64526993Y-65851959D01*
X64622231Y-65899578D01*
X64812707Y-65947197D01*
X64955564Y-65947197D01*
X65146040Y-65899578D01*
X65241278Y-65851959D01*
X65336516Y-65756721D01*
X65384135Y-65613864D01*
X65384135Y-65375768D01*
X64384135Y-66804340D02*
X64384135Y-66613864D01*
X64431755Y-66518625D01*
X64479374Y-66471006D01*
X64622231Y-66375768D01*
X64812707Y-66328149D01*
X65193659Y-66328149D01*
X65288897Y-66375768D01*
X65336516Y-66423387D01*
X65384135Y-66518625D01*
X65384135Y-66709102D01*
X65336516Y-66804340D01*
X65288897Y-66851959D01*
X65193659Y-66899578D01*
X64955564Y-66899578D01*
X64860326Y-66851959D01*
X64812707Y-66804340D01*
X64765088Y-66709102D01*
X64765088Y-66518625D01*
X64812707Y-66423387D01*
X64860326Y-66375768D01*
X64955564Y-66328149D01*
X70744135Y-84425768D02*
X69744135Y-84425768D01*
X69744135Y-84663864D01*
X69791755Y-84806721D01*
X69886993Y-84901959D01*
X69982231Y-84949578D01*
X70172707Y-84997197D01*
X70315564Y-84997197D01*
X70506040Y-84949578D01*
X70601278Y-84901959D01*
X70696516Y-84806721D01*
X70744135Y-84663864D01*
X70744135Y-84425768D01*
X69744135Y-85330530D02*
X69744135Y-85997197D01*
X70744135Y-85568625D01*
X318250385Y-102999578D02*
X317250385Y-102999578D01*
X317250385Y-103237673D01*
X317298005Y-103380530D01*
X317393243Y-103475768D01*
X317488481Y-103523387D01*
X317678957Y-103571006D01*
X317821814Y-103571006D01*
X318012290Y-103523387D01*
X318107528Y-103475768D01*
X318202766Y-103380530D01*
X318250385Y-103237673D01*
X318250385Y-102999578D01*
X317250385Y-104475768D02*
X317250385Y-103999578D01*
X317726576Y-103951959D01*
X317678957Y-103999578D01*
X317631338Y-104094816D01*
X317631338Y-104332911D01*
X317678957Y-104428149D01*
X317726576Y-104475768D01*
X317821814Y-104523387D01*
X318059909Y-104523387D01*
X318155147Y-104475768D01*
X318202766Y-104428149D01*
X318250385Y-104332911D01*
X318250385Y-104094816D01*
X318202766Y-103999578D01*
X318155147Y-103951959D01*
X317250385Y-104856721D02*
X317250385Y-105523387D01*
X318250385Y-105094816D01*
X38704135Y-141575768D02*
X37704135Y-141575768D01*
X37704135Y-141813864D01*
X37751755Y-141956721D01*
X37846993Y-142051959D01*
X37942231Y-142099578D01*
X38132707Y-142147197D01*
X38275564Y-142147197D01*
X38466040Y-142099578D01*
X38561278Y-142051959D01*
X38656516Y-141956721D01*
X38704135Y-141813864D01*
X38704135Y-141575768D01*
X37704135Y-143051959D02*
X37704135Y-142575768D01*
X38180326Y-142528149D01*
X38132707Y-142575768D01*
X38085088Y-142671006D01*
X38085088Y-142909102D01*
X38132707Y-143004340D01*
X38180326Y-143051959D01*
X38275564Y-143099578D01*
X38513659Y-143099578D01*
X38608897Y-143051959D01*
X38656516Y-143004340D01*
X38704135Y-142909102D01*
X38704135Y-142671006D01*
X38656516Y-142575768D01*
X38608897Y-142528149D01*
X71444135Y-103475768D02*
X70444135Y-103475768D01*
X70444135Y-103713864D01*
X70491755Y-103856721D01*
X70586993Y-103951959D01*
X70682231Y-103999578D01*
X70872707Y-104047197D01*
X71015564Y-104047197D01*
X71206040Y-103999578D01*
X71301278Y-103951959D01*
X71396516Y-103856721D01*
X71444135Y-103713864D01*
X71444135Y-103475768D01*
X70872707Y-104618625D02*
X70825088Y-104523387D01*
X70777469Y-104475768D01*
X70682231Y-104428149D01*
X70634612Y-104428149D01*
X70539374Y-104475768D01*
X70491755Y-104523387D01*
X70444135Y-104618625D01*
X70444135Y-104809102D01*
X70491755Y-104904340D01*
X70539374Y-104951959D01*
X70634612Y-104999578D01*
X70682231Y-104999578D01*
X70777469Y-104951959D01*
X70825088Y-104904340D01*
X70872707Y-104809102D01*
X70872707Y-104618625D01*
X70920326Y-104523387D01*
X70967945Y-104475768D01*
X71063183Y-104428149D01*
X71253659Y-104428149D01*
X71348897Y-104475768D01*
X71396516Y-104523387D01*
X71444135Y-104618625D01*
X71444135Y-104809102D01*
X71396516Y-104904340D01*
X71348897Y-104951959D01*
X71253659Y-104999578D01*
X71063183Y-104999578D01*
X70967945Y-104951959D01*
X70920326Y-104904340D01*
X70872707Y-104809102D01*
X315419135Y-40929578D02*
X314419135Y-40929578D01*
X314419135Y-41167673D01*
X314466755Y-41310530D01*
X314561993Y-41405768D01*
X314657231Y-41453387D01*
X314847707Y-41501006D01*
X314990564Y-41501006D01*
X315181040Y-41453387D01*
X315276278Y-41405768D01*
X315371516Y-41310530D01*
X315419135Y-41167673D01*
X315419135Y-40929578D01*
X314847707Y-42072435D02*
X314800088Y-41977197D01*
X314752469Y-41929578D01*
X314657231Y-41881959D01*
X314609612Y-41881959D01*
X314514374Y-41929578D01*
X314466755Y-41977197D01*
X314419135Y-42072435D01*
X314419135Y-42262911D01*
X314466755Y-42358149D01*
X314514374Y-42405768D01*
X314609612Y-42453387D01*
X314657231Y-42453387D01*
X314752469Y-42405768D01*
X314800088Y-42358149D01*
X314847707Y-42262911D01*
X314847707Y-42072435D01*
X314895326Y-41977197D01*
X314942945Y-41929578D01*
X315038183Y-41881959D01*
X315228659Y-41881959D01*
X315323897Y-41929578D01*
X315371516Y-41977197D01*
X315419135Y-42072435D01*
X315419135Y-42262911D01*
X315371516Y-42358149D01*
X315323897Y-42405768D01*
X315228659Y-42453387D01*
X315038183Y-42453387D01*
X314942945Y-42405768D01*
X314895326Y-42358149D01*
X314847707Y-42262911D01*
X315419135Y-43405768D02*
X315419135Y-42834340D01*
X315419135Y-43120054D02*
X314419135Y-43120054D01*
X314561993Y-43024816D01*
X314657231Y-42929578D01*
X314704850Y-42834340D01*
X76794135Y-122525768D02*
X75794135Y-122525768D01*
X75794135Y-122763864D01*
X75841755Y-122906721D01*
X75936993Y-123001959D01*
X76032231Y-123049578D01*
X76222707Y-123097197D01*
X76365564Y-123097197D01*
X76556040Y-123049578D01*
X76651278Y-123001959D01*
X76746516Y-122906721D01*
X76794135Y-122763864D01*
X76794135Y-122525768D01*
X76794135Y-123573387D02*
X76794135Y-123763864D01*
X76746516Y-123859102D01*
X76698897Y-123906721D01*
X76556040Y-124001959D01*
X76365564Y-124049578D01*
X75984612Y-124049578D01*
X75889374Y-124001959D01*
X75841755Y-123954340D01*
X75794135Y-123859102D01*
X75794135Y-123668625D01*
X75841755Y-123573387D01*
X75889374Y-123525768D01*
X75984612Y-123478149D01*
X76222707Y-123478149D01*
X76317945Y-123525768D01*
X76365564Y-123573387D01*
X76413183Y-123668625D01*
X76413183Y-123859102D01*
X76365564Y-123954340D01*
X76317945Y-124001959D01*
X76222707Y-124049578D01*
X230596127Y-49037447D02*
X231574275Y-48829536D01*
X231524772Y-48596643D01*
X231448492Y-48466809D01*
X231335534Y-48393453D01*
X231232477Y-48366676D01*
X231036262Y-48359699D01*
X230896527Y-48389401D01*
X230720114Y-48475582D01*
X230636857Y-48541961D01*
X230563501Y-48654919D01*
X230546625Y-48804555D01*
X230596127Y-49037447D01*
X231386164Y-47944545D02*
X231247557Y-47292447D01*
X230358514Y-47919564D01*
X231188153Y-47012976D02*
X231049545Y-46360878D01*
X230160503Y-46987995D01*
X239297576Y-90902220D02*
X240275724Y-90694309D01*
X240226221Y-90461416D01*
X240149941Y-90331582D01*
X240036983Y-90258226D01*
X239933926Y-90231449D01*
X239737711Y-90224472D01*
X239597976Y-90254174D01*
X239421563Y-90340355D01*
X239338306Y-90406734D01*
X239264950Y-90519692D01*
X239248074Y-90669328D01*
X239297576Y-90902220D01*
X239652658Y-89366259D02*
X239000560Y-89504867D01*
X240074788Y-89519947D02*
X239425614Y-89901347D01*
X239296907Y-89295827D01*
X239889602Y-88877749D02*
X239760895Y-88272229D01*
X239457571Y-88677483D01*
X239427870Y-88537747D01*
X239361490Y-88454491D01*
X239305011Y-88417813D01*
X239201954Y-88391036D01*
X238969061Y-88440538D01*
X238885805Y-88506918D01*
X238849127Y-88563397D01*
X238822350Y-88666455D01*
X238881753Y-88945925D01*
X238948133Y-89029182D01*
X239004612Y-89065860D01*
X45837885Y-122525768D02*
X44837885Y-122525768D01*
X44837885Y-122763864D01*
X44885505Y-122906721D01*
X44980743Y-123001959D01*
X45075981Y-123049578D01*
X45266457Y-123097197D01*
X45409314Y-123097197D01*
X45599790Y-123049578D01*
X45695028Y-123001959D01*
X45790266Y-122906721D01*
X45837885Y-122763864D01*
X45837885Y-122525768D01*
X45171219Y-123954340D02*
X45837885Y-123954340D01*
X44790266Y-123716244D02*
X45504552Y-123478149D01*
X45504552Y-124097197D01*
X202030152Y-98823655D02*
X203008300Y-98615744D01*
X202958797Y-98382851D01*
X202882517Y-98253017D01*
X202769559Y-98179661D01*
X202666502Y-98152884D01*
X202470287Y-98145907D01*
X202330552Y-98175609D01*
X202154139Y-98261790D01*
X202070882Y-98328169D01*
X201997526Y-98441127D01*
X201980650Y-98590763D01*
X202030152Y-98823655D01*
X202820189Y-97730753D02*
X202691482Y-97125233D01*
X202388158Y-97530487D01*
X202358457Y-97390751D01*
X202292077Y-97307495D01*
X202235598Y-97270817D01*
X202132541Y-97244040D01*
X201899648Y-97293543D01*
X201816392Y-97359922D01*
X201779714Y-97416401D01*
X201752937Y-97519459D01*
X201812340Y-97798929D01*
X201878720Y-97882186D01*
X201935199Y-97918864D01*
X202187223Y-96356125D02*
X201535125Y-96494733D01*
X202609353Y-96509813D02*
X201960179Y-96891213D01*
X201831472Y-96285693D01*
X36169135Y-41104578D02*
X35169135Y-41104578D01*
X35169135Y-41342673D01*
X35216755Y-41485530D01*
X35311993Y-41580768D01*
X35407231Y-41628387D01*
X35597707Y-41676006D01*
X35740564Y-41676006D01*
X35931040Y-41628387D01*
X36026278Y-41580768D01*
X36121516Y-41485530D01*
X36169135Y-41342673D01*
X36169135Y-41104578D01*
X35169135Y-42533149D02*
X35169135Y-42342673D01*
X35216755Y-42247435D01*
X35264374Y-42199816D01*
X35407231Y-42104578D01*
X35597707Y-42056959D01*
X35978659Y-42056959D01*
X36073897Y-42104578D01*
X36121516Y-42152197D01*
X36169135Y-42247435D01*
X36169135Y-42437911D01*
X36121516Y-42533149D01*
X36073897Y-42580768D01*
X35978659Y-42628387D01*
X35740564Y-42628387D01*
X35645326Y-42580768D01*
X35597707Y-42533149D01*
X35550088Y-42437911D01*
X35550088Y-42247435D01*
X35597707Y-42152197D01*
X35645326Y-42104578D01*
X35740564Y-42056959D01*
X35597707Y-43199816D02*
X35550088Y-43104578D01*
X35502469Y-43056959D01*
X35407231Y-43009340D01*
X35359612Y-43009340D01*
X35264374Y-43056959D01*
X35216755Y-43104578D01*
X35169135Y-43199816D01*
X35169135Y-43390292D01*
X35216755Y-43485530D01*
X35264374Y-43533149D01*
X35359612Y-43580768D01*
X35407231Y-43580768D01*
X35502469Y-43533149D01*
X35550088Y-43485530D01*
X35597707Y-43390292D01*
X35597707Y-43199816D01*
X35645326Y-43104578D01*
X35692945Y-43056959D01*
X35788183Y-43009340D01*
X35978659Y-43009340D01*
X36073897Y-43056959D01*
X36121516Y-43104578D01*
X36169135Y-43199816D01*
X36169135Y-43390292D01*
X36121516Y-43485530D01*
X36073897Y-43533149D01*
X35978659Y-43580768D01*
X35788183Y-43580768D01*
X35692945Y-43533149D01*
X35645326Y-43485530D01*
X35597707Y-43390292D01*
X118754900Y-46643592D02*
X117776752Y-46435680D01*
X117727250Y-46668573D01*
X117744126Y-46818209D01*
X117817482Y-46931167D01*
X117900739Y-46997546D01*
X118077152Y-47083727D01*
X118216887Y-47113429D01*
X118413102Y-47106452D01*
X118516159Y-47079675D01*
X118629117Y-47006319D01*
X118705397Y-46876484D01*
X118754900Y-46643592D01*
X117588642Y-47320671D02*
X117450034Y-47972770D01*
X118517287Y-47761475D01*
X117473887Y-48318620D02*
X117417408Y-48355298D01*
X117351029Y-48438554D01*
X117301526Y-48671446D01*
X117328303Y-48774504D01*
X117364981Y-48830983D01*
X117448237Y-48897362D01*
X117541394Y-48917164D01*
X117691030Y-48900287D01*
X118368778Y-48460152D01*
X118240071Y-49065672D01*
X257931288Y-86941502D02*
X258909436Y-86733591D01*
X258859933Y-86500698D01*
X258783653Y-86370864D01*
X258670695Y-86297508D01*
X258567638Y-86270731D01*
X258371423Y-86263754D01*
X258231688Y-86293456D01*
X258055275Y-86379637D01*
X257972018Y-86446016D01*
X257898662Y-86558974D01*
X257881786Y-86708610D01*
X257931288Y-86941502D01*
X258286370Y-85405541D02*
X257634272Y-85544149D01*
X258708500Y-85559229D02*
X258059326Y-85940629D01*
X257930619Y-85335109D01*
X258054605Y-84773244D02*
X258120985Y-84856500D01*
X258177464Y-84893178D01*
X258280521Y-84919955D01*
X258327100Y-84910055D01*
X258410356Y-84843675D01*
X258447034Y-84787196D01*
X258473811Y-84684139D01*
X258434209Y-84497825D01*
X258367830Y-84414568D01*
X258311351Y-84377891D01*
X258208293Y-84351113D01*
X258161715Y-84361014D01*
X258078458Y-84427393D01*
X258041780Y-84483872D01*
X258015003Y-84586930D01*
X258054605Y-84773244D01*
X258027828Y-84876301D01*
X257991150Y-84932780D01*
X257907894Y-84999160D01*
X257721580Y-85038762D01*
X257618522Y-85011985D01*
X257562043Y-84975307D01*
X257495664Y-84892050D01*
X257456062Y-84705737D01*
X257482839Y-84602679D01*
X257519517Y-84546200D01*
X257602773Y-84479820D01*
X257789087Y-84440218D01*
X257892145Y-84466996D01*
X257948624Y-84503673D01*
X258015003Y-84586930D01*
X251179720Y-146803372D02*
X252157868Y-146595461D01*
X252108365Y-146362568D01*
X252032085Y-146232734D01*
X251919127Y-146159378D01*
X251816070Y-146132601D01*
X251619855Y-146125624D01*
X251480120Y-146155326D01*
X251303707Y-146241507D01*
X251220450Y-146307886D01*
X251147094Y-146420844D01*
X251130218Y-146570480D01*
X251179720Y-146803372D01*
X251534802Y-145267411D02*
X250882704Y-145406019D01*
X251956932Y-145421099D02*
X251307758Y-145802499D01*
X251179051Y-145196979D01*
X251662840Y-144266538D02*
X251702442Y-144452852D01*
X251675665Y-144555909D01*
X251638987Y-144612388D01*
X251519053Y-144735247D01*
X251342640Y-144821427D01*
X250970012Y-144900632D01*
X250866954Y-144873855D01*
X250810475Y-144837177D01*
X250744096Y-144753920D01*
X250704494Y-144567607D01*
X250731271Y-144464549D01*
X250767949Y-144408070D01*
X250851205Y-144341690D01*
X251084098Y-144292188D01*
X251187155Y-144318965D01*
X251243634Y-144355643D01*
X251310014Y-144438899D01*
X251349616Y-144625213D01*
X251322838Y-144728271D01*
X251286161Y-144784750D01*
X251202904Y-144851129D01*
X183396441Y-102784373D02*
X184374589Y-102576462D01*
X184325086Y-102343569D01*
X184248806Y-102213735D01*
X184135848Y-102140379D01*
X184032791Y-102113602D01*
X183836576Y-102106625D01*
X183696841Y-102136327D01*
X183520428Y-102222508D01*
X183437171Y-102288887D01*
X183363815Y-102401845D01*
X183346939Y-102551481D01*
X183396441Y-102784373D01*
X184186478Y-101691471D02*
X184057771Y-101085951D01*
X183754447Y-101491205D01*
X183724746Y-101351469D01*
X183658366Y-101268213D01*
X183601887Y-101231535D01*
X183498830Y-101204758D01*
X183265937Y-101254261D01*
X183182681Y-101320640D01*
X183146003Y-101377119D01*
X183119226Y-101480177D01*
X183178629Y-101759647D01*
X183245009Y-101842904D01*
X183301488Y-101879582D01*
X183929064Y-100480431D02*
X183909263Y-100387274D01*
X183842883Y-100304018D01*
X183786404Y-100267340D01*
X183683347Y-100240563D01*
X183487132Y-100233586D01*
X183254240Y-100283089D01*
X183077827Y-100369270D01*
X182994570Y-100435649D01*
X182957893Y-100492128D01*
X182931115Y-100595186D01*
X182950916Y-100688343D01*
X183017296Y-100771599D01*
X183073775Y-100808277D01*
X183176832Y-100835054D01*
X183373047Y-100842031D01*
X183605939Y-100792528D01*
X183782352Y-100706347D01*
X183865609Y-100639968D01*
X183902287Y-100583489D01*
X183929064Y-100480431D01*
X200634683Y-138071477D02*
X201612831Y-137863566D01*
X201563328Y-137630673D01*
X201487048Y-137500839D01*
X201374090Y-137427483D01*
X201271033Y-137400706D01*
X201074818Y-137393729D01*
X200935083Y-137423431D01*
X200758670Y-137509612D01*
X200675413Y-137575991D01*
X200602057Y-137688949D01*
X200585181Y-137838585D01*
X200634683Y-138071477D01*
X201424720Y-136978575D02*
X201296013Y-136373055D01*
X200992689Y-136778309D01*
X200962988Y-136638573D01*
X200896608Y-136555317D01*
X200840129Y-136518639D01*
X200737072Y-136491862D01*
X200504179Y-136541365D01*
X200420923Y-136607744D01*
X200384245Y-136664223D01*
X200357468Y-136767281D01*
X200416871Y-137046751D01*
X200483251Y-137130008D01*
X200539730Y-137166686D01*
X201123652Y-136020229D02*
X201160330Y-135963750D01*
X201187107Y-135860692D01*
X201137604Y-135627800D01*
X201071225Y-135544543D01*
X201014746Y-135507866D01*
X200911688Y-135481088D01*
X200818531Y-135500889D01*
X200688696Y-135577169D01*
X200248562Y-136254918D01*
X200119854Y-135649398D01*
X353969084Y-145862081D02*
X352969084Y-145862081D01*
X352969084Y-146100176D01*
X353016704Y-146243033D01*
X353111942Y-146338271D01*
X353207180Y-146385890D01*
X353397656Y-146433509D01*
X353540513Y-146433509D01*
X353730989Y-146385890D01*
X353826227Y-146338271D01*
X353921465Y-146243033D01*
X353969084Y-146100176D01*
X353969084Y-145862081D01*
X352969084Y-147290652D02*
X352969084Y-147100176D01*
X353016704Y-147004938D01*
X353064323Y-146957319D01*
X353207180Y-146862081D01*
X353397656Y-146814462D01*
X353778608Y-146814462D01*
X353873846Y-146862081D01*
X353921465Y-146909700D01*
X353969084Y-147004938D01*
X353969084Y-147195414D01*
X353921465Y-147290652D01*
X353873846Y-147338271D01*
X353778608Y-147385890D01*
X353540513Y-147385890D01*
X353445275Y-147338271D01*
X353397656Y-147290652D01*
X353350037Y-147195414D01*
X353350037Y-147004938D01*
X353397656Y-146909700D01*
X353445275Y-146862081D01*
X353540513Y-146814462D01*
X352969084Y-147719224D02*
X352969084Y-148385890D01*
X353969084Y-147957319D01*
X264564135Y-63399193D02*
X263564135Y-63399193D01*
X263564135Y-63637288D01*
X263611755Y-63780145D01*
X263706993Y-63875383D01*
X263802231Y-63923002D01*
X263992707Y-63970621D01*
X264135564Y-63970621D01*
X264326040Y-63923002D01*
X264421278Y-63875383D01*
X264516516Y-63780145D01*
X264564135Y-63637288D01*
X264564135Y-63399193D01*
X263564135Y-64875383D02*
X263564135Y-64399193D01*
X264040326Y-64351574D01*
X263992707Y-64399193D01*
X263945088Y-64494431D01*
X263945088Y-64732526D01*
X263992707Y-64827764D01*
X264040326Y-64875383D01*
X264135564Y-64923002D01*
X264373659Y-64923002D01*
X264468897Y-64875383D01*
X264516516Y-64827764D01*
X264564135Y-64732526D01*
X264564135Y-64494431D01*
X264516516Y-64399193D01*
X264468897Y-64351574D01*
X264564135Y-65875383D02*
X264564135Y-65303955D01*
X264564135Y-65589669D02*
X263564135Y-65589669D01*
X263706993Y-65494431D01*
X263802231Y-65399193D01*
X263849850Y-65303955D01*
X128001280Y-91979068D02*
X127023132Y-91771156D01*
X126973630Y-92004049D01*
X126990506Y-92153685D01*
X127063862Y-92266643D01*
X127147119Y-92333022D01*
X127323532Y-92419203D01*
X127463267Y-92448905D01*
X127659482Y-92441928D01*
X127762539Y-92415151D01*
X127875497Y-92341795D01*
X127951777Y-92211960D01*
X128001280Y-91979068D01*
X126918278Y-92722527D02*
X126861799Y-92759205D01*
X126795420Y-92842461D01*
X126745917Y-93075353D01*
X126772694Y-93178411D01*
X126809372Y-93234890D01*
X126892628Y-93301269D01*
X126985785Y-93321070D01*
X127135421Y-93304194D01*
X127813169Y-92864059D01*
X127684462Y-93469579D01*
X126577607Y-93867187D02*
X126557806Y-93960344D01*
X126584584Y-94063401D01*
X126621262Y-94119880D01*
X126704518Y-94186260D01*
X126880931Y-94272441D01*
X127113823Y-94321943D01*
X127310038Y-94314967D01*
X127413095Y-94288190D01*
X127469574Y-94251512D01*
X127535954Y-94168256D01*
X127555755Y-94075099D01*
X127528978Y-93972041D01*
X127492300Y-93915562D01*
X127409043Y-93849183D01*
X127232630Y-93763002D01*
X126999738Y-93713499D01*
X126803523Y-93720475D01*
X126700466Y-93747253D01*
X126643987Y-93783931D01*
X126577607Y-93867187D01*
X100268009Y-42440991D02*
X99289861Y-42233079D01*
X99240359Y-42465972D01*
X99257235Y-42615608D01*
X99330591Y-42728566D01*
X99413848Y-42794945D01*
X99590261Y-42881126D01*
X99729996Y-42910828D01*
X99926211Y-42903851D01*
X100029268Y-42877074D01*
X100142226Y-42803718D01*
X100218506Y-42673883D01*
X100268009Y-42440991D01*
X99101751Y-43118070D02*
X98963143Y-43770169D01*
X100030396Y-43558874D01*
X99753180Y-44863071D02*
X99871987Y-44304129D01*
X99812583Y-44583600D02*
X98834436Y-44375688D01*
X98993972Y-44312233D01*
X99106930Y-44238877D01*
X99173310Y-44155621D01*
X159912653Y-79286425D02*
X158934505Y-79078513D01*
X158885003Y-79311406D01*
X158901879Y-79461042D01*
X158975235Y-79574000D01*
X159058492Y-79640379D01*
X159234905Y-79726560D01*
X159374640Y-79756262D01*
X159570855Y-79749285D01*
X159673912Y-79722508D01*
X159786870Y-79649152D01*
X159863150Y-79519317D01*
X159912653Y-79286425D01*
X158829651Y-80029884D02*
X158773172Y-80066562D01*
X158706793Y-80149818D01*
X158657290Y-80382710D01*
X158684067Y-80485768D01*
X158720745Y-80542247D01*
X158804001Y-80608626D01*
X158897158Y-80628427D01*
X159046794Y-80611551D01*
X159724542Y-80171416D01*
X159595835Y-80776936D01*
X159496830Y-81242720D02*
X159457227Y-81429034D01*
X159390848Y-81512291D01*
X159334369Y-81548968D01*
X159174832Y-81612424D01*
X158978618Y-81619400D01*
X158605990Y-81540195D01*
X158522734Y-81473816D01*
X158486056Y-81417337D01*
X158459279Y-81314279D01*
X158498881Y-81127966D01*
X158565261Y-81044709D01*
X158621740Y-81008031D01*
X158724797Y-80981254D01*
X158957689Y-81030757D01*
X159040946Y-81097136D01*
X159077624Y-81153615D01*
X159104401Y-81256673D01*
X159064799Y-81442987D01*
X158998419Y-81526243D01*
X158941940Y-81562921D01*
X158838883Y-81589698D01*
X142064214Y-50834486D02*
X141086066Y-50626574D01*
X141036564Y-50859467D01*
X141053440Y-51009103D01*
X141126796Y-51122061D01*
X141210053Y-51188440D01*
X141386466Y-51274621D01*
X141526201Y-51304323D01*
X141722416Y-51297346D01*
X141825473Y-51270569D01*
X141938431Y-51197213D01*
X142014711Y-51067378D01*
X142064214Y-50834486D01*
X140897956Y-51511565D02*
X140759348Y-52163664D01*
X141826601Y-51952369D01*
X140699945Y-52443134D02*
X140571237Y-53048654D01*
X141013169Y-52801809D01*
X140983467Y-52941545D01*
X141010245Y-53044602D01*
X141046923Y-53101081D01*
X141130179Y-53167461D01*
X141363071Y-53216964D01*
X141466129Y-53190186D01*
X141522608Y-53153508D01*
X141588987Y-53070252D01*
X141648391Y-52790781D01*
X141621613Y-52687724D01*
X141584935Y-52631245D01*
X188752668Y-82170274D02*
X189730816Y-81962363D01*
X189681313Y-81729470D01*
X189605033Y-81599636D01*
X189492075Y-81526280D01*
X189389018Y-81499503D01*
X189192803Y-81492526D01*
X189053068Y-81522228D01*
X188876655Y-81608409D01*
X188793398Y-81674788D01*
X188720042Y-81787746D01*
X188703166Y-81937382D01*
X188752668Y-82170274D01*
X189542705Y-81077372D02*
X189413998Y-80471852D01*
X189110674Y-80877106D01*
X189080973Y-80737370D01*
X189014593Y-80654114D01*
X188958114Y-80617436D01*
X188855057Y-80590659D01*
X188622164Y-80640162D01*
X188538908Y-80706541D01*
X188502230Y-80763020D01*
X188475453Y-80866078D01*
X188534856Y-81145548D01*
X188601236Y-81228805D01*
X188657715Y-81265483D01*
X189344694Y-80145803D02*
X189215987Y-79540283D01*
X188912663Y-79945537D01*
X188882962Y-79805801D01*
X188816582Y-79722545D01*
X188760103Y-79685867D01*
X188657046Y-79659090D01*
X188424153Y-79708592D01*
X188340897Y-79774972D01*
X188304219Y-79831451D01*
X188277442Y-79934509D01*
X188336845Y-80213979D01*
X188403225Y-80297236D01*
X188459704Y-80333914D01*
X237902106Y-130150042D02*
X238880254Y-129942131D01*
X238830751Y-129709238D01*
X238754471Y-129579404D01*
X238641513Y-129506048D01*
X238538456Y-129479271D01*
X238342241Y-129472294D01*
X238202506Y-129501996D01*
X238026093Y-129588177D01*
X237942836Y-129654556D01*
X237869480Y-129767514D01*
X237852604Y-129917150D01*
X237902106Y-130150042D01*
X238257188Y-128614081D02*
X237605090Y-128752689D01*
X238679318Y-128767769D02*
X238030144Y-129149169D01*
X237901437Y-128543649D01*
X237387277Y-127727963D02*
X237506084Y-128286904D01*
X237446681Y-128007433D02*
X238424828Y-127799522D01*
X238304894Y-127922380D01*
X238231538Y-128035338D01*
X238204761Y-128138396D01*
X353969084Y-98237097D02*
X352969084Y-98237097D01*
X352969084Y-98475192D01*
X353016704Y-98618049D01*
X353111942Y-98713287D01*
X353207180Y-98760906D01*
X353397656Y-98808525D01*
X353540513Y-98808525D01*
X353730989Y-98760906D01*
X353826227Y-98713287D01*
X353921465Y-98618049D01*
X353969084Y-98475192D01*
X353969084Y-98237097D01*
X352969084Y-99665668D02*
X352969084Y-99475192D01*
X353016704Y-99379954D01*
X353064323Y-99332335D01*
X353207180Y-99237097D01*
X353397656Y-99189478D01*
X353778608Y-99189478D01*
X353873846Y-99237097D01*
X353921465Y-99284716D01*
X353969084Y-99379954D01*
X353969084Y-99570430D01*
X353921465Y-99665668D01*
X353873846Y-99713287D01*
X353778608Y-99760906D01*
X353540513Y-99760906D01*
X353445275Y-99713287D01*
X353397656Y-99665668D01*
X353350037Y-99570430D01*
X353350037Y-99379954D01*
X353397656Y-99284716D01*
X353445275Y-99237097D01*
X353540513Y-99189478D01*
X352969084Y-100618049D02*
X352969084Y-100427573D01*
X353016704Y-100332335D01*
X353064323Y-100284716D01*
X353207180Y-100189478D01*
X353397656Y-100141859D01*
X353778608Y-100141859D01*
X353873846Y-100189478D01*
X353921465Y-100237097D01*
X353969084Y-100332335D01*
X353969084Y-100522811D01*
X353921465Y-100618049D01*
X353873846Y-100665668D01*
X353778608Y-100713287D01*
X353540513Y-100713287D01*
X353445275Y-100665668D01*
X353397656Y-100618049D01*
X353350037Y-100522811D01*
X353350037Y-100332335D01*
X353397656Y-100237097D01*
X353445275Y-100189478D01*
X353540513Y-100141859D01*
X256535818Y-126189324D02*
X257513966Y-125981413D01*
X257464463Y-125748520D01*
X257388183Y-125618686D01*
X257275225Y-125545330D01*
X257172168Y-125518553D01*
X256975953Y-125511576D01*
X256836218Y-125541278D01*
X256659805Y-125627459D01*
X256576548Y-125693838D01*
X256503192Y-125806796D01*
X256486316Y-125956432D01*
X256535818Y-126189324D01*
X256890900Y-124653363D02*
X256238802Y-124791971D01*
X257313030Y-124807051D02*
X256663856Y-125188451D01*
X256535149Y-124582931D01*
X257009038Y-123605911D02*
X257108043Y-124071696D01*
X256652159Y-124217280D01*
X256688837Y-124160801D01*
X256715614Y-124057744D01*
X256666112Y-123824851D01*
X256599732Y-123741595D01*
X256543253Y-123704917D01*
X256440196Y-123678140D01*
X256207303Y-123727642D01*
X256124047Y-123794022D01*
X256087369Y-123850501D01*
X256060592Y-123953559D01*
X256110094Y-124186451D01*
X256176474Y-124269707D01*
X256232953Y-124306385D01*
X219268395Y-134110759D02*
X220246543Y-133902848D01*
X220197040Y-133669955D01*
X220120760Y-133540121D01*
X220007802Y-133466765D01*
X219904745Y-133439988D01*
X219708530Y-133433011D01*
X219568795Y-133462713D01*
X219392382Y-133548894D01*
X219309125Y-133615273D01*
X219235769Y-133728231D01*
X219218893Y-133877867D01*
X219268395Y-134110759D01*
X220058432Y-133017857D02*
X219929725Y-132412337D01*
X219626401Y-132817591D01*
X219596700Y-132677855D01*
X219530320Y-132594599D01*
X219473841Y-132557921D01*
X219370784Y-132531144D01*
X219137891Y-132580647D01*
X219054635Y-132647026D01*
X219017957Y-132703505D01*
X218991180Y-132806563D01*
X219050583Y-133086033D01*
X219116963Y-133169290D01*
X219173442Y-133205968D01*
X219751515Y-131573925D02*
X219791117Y-131760239D01*
X219764340Y-131863296D01*
X219727662Y-131919775D01*
X219607728Y-132042634D01*
X219431315Y-132128814D01*
X219058687Y-132208019D01*
X218955629Y-132181242D01*
X218899150Y-132144564D01*
X218832771Y-132061307D01*
X218793169Y-131874994D01*
X218819946Y-131771936D01*
X218856624Y-131715457D01*
X218939880Y-131649077D01*
X219172773Y-131599575D01*
X219275830Y-131626352D01*
X219332309Y-131663030D01*
X219398689Y-131746286D01*
X219438291Y-131932600D01*
X219411513Y-132035658D01*
X219374836Y-132092137D01*
X219291579Y-132158516D01*
X321714135Y-64899578D02*
X320714135Y-64899578D01*
X320714135Y-65137673D01*
X320761755Y-65280530D01*
X320856993Y-65375768D01*
X320952231Y-65423387D01*
X321142707Y-65471006D01*
X321285564Y-65471006D01*
X321476040Y-65423387D01*
X321571278Y-65375768D01*
X321666516Y-65280530D01*
X321714135Y-65137673D01*
X321714135Y-64899578D01*
X320714135Y-66328149D02*
X320714135Y-66137673D01*
X320761755Y-66042435D01*
X320809374Y-65994816D01*
X320952231Y-65899578D01*
X321142707Y-65851959D01*
X321523659Y-65851959D01*
X321618897Y-65899578D01*
X321666516Y-65947197D01*
X321714135Y-66042435D01*
X321714135Y-66232911D01*
X321666516Y-66328149D01*
X321618897Y-66375768D01*
X321523659Y-66423387D01*
X321285564Y-66423387D01*
X321190326Y-66375768D01*
X321142707Y-66328149D01*
X321095088Y-66232911D01*
X321095088Y-66042435D01*
X321142707Y-65947197D01*
X321190326Y-65899578D01*
X321285564Y-65851959D01*
X320714135Y-66756721D02*
X320714135Y-67375768D01*
X321095088Y-67042435D01*
X321095088Y-67185292D01*
X321142707Y-67280530D01*
X321190326Y-67328149D01*
X321285564Y-67375768D01*
X321523659Y-67375768D01*
X321618897Y-67328149D01*
X321666516Y-67280530D01*
X321714135Y-67185292D01*
X321714135Y-66899578D01*
X321666516Y-66804340D01*
X321618897Y-66756721D01*
X345526677Y-60137087D02*
X344526677Y-60137087D01*
X344526677Y-60375182D01*
X344574297Y-60518039D01*
X344669535Y-60613277D01*
X344764773Y-60660896D01*
X344955249Y-60708515D01*
X345098106Y-60708515D01*
X345288582Y-60660896D01*
X345383820Y-60613277D01*
X345479058Y-60518039D01*
X345526677Y-60375182D01*
X345526677Y-60137087D01*
X344526677Y-61565658D02*
X344526677Y-61375182D01*
X344574297Y-61279944D01*
X344621916Y-61232325D01*
X344764773Y-61137087D01*
X344955249Y-61089468D01*
X345336201Y-61089468D01*
X345431439Y-61137087D01*
X345479058Y-61184706D01*
X345526677Y-61279944D01*
X345526677Y-61470420D01*
X345479058Y-61565658D01*
X345431439Y-61613277D01*
X345336201Y-61660896D01*
X345098106Y-61660896D01*
X345002868Y-61613277D01*
X344955249Y-61565658D01*
X344907630Y-61470420D01*
X344907630Y-61279944D01*
X344955249Y-61184706D01*
X345002868Y-61137087D01*
X345098106Y-61089468D01*
X344860011Y-62518039D02*
X345526677Y-62518039D01*
X344479058Y-62279944D02*
X345193344Y-62041849D01*
X345193344Y-62660896D01*
X207096127Y-53837447D02*
X208074275Y-53629536D01*
X208024772Y-53396643D01*
X207948492Y-53266809D01*
X207835534Y-53193453D01*
X207732477Y-53166676D01*
X207536262Y-53159699D01*
X207396527Y-53189401D01*
X207220114Y-53275582D01*
X207136857Y-53341961D01*
X207063501Y-53454919D01*
X207046625Y-53604555D01*
X207096127Y-53837447D01*
X207886164Y-52744545D02*
X207747557Y-52092447D01*
X206858514Y-52719564D01*
X207579247Y-51300613D02*
X207618849Y-51486927D01*
X207592072Y-51589984D01*
X207555394Y-51646463D01*
X207435460Y-51769322D01*
X207259047Y-51855502D01*
X206886419Y-51934707D01*
X206783361Y-51907930D01*
X206726882Y-51871252D01*
X206660503Y-51787995D01*
X206620901Y-51601682D01*
X206647678Y-51498624D01*
X206684356Y-51442145D01*
X206767612Y-51375765D01*
X207000505Y-51326263D01*
X207103562Y-51353040D01*
X207160041Y-51389718D01*
X207226421Y-51472974D01*
X207266023Y-51659288D01*
X207239245Y-51762346D01*
X207202568Y-51818825D01*
X207119311Y-51885204D01*
X268244135Y-102999578D02*
X267244135Y-102999578D01*
X267244135Y-103237673D01*
X267291755Y-103380530D01*
X267386993Y-103475768D01*
X267482231Y-103523387D01*
X267672707Y-103571006D01*
X267815564Y-103571006D01*
X268006040Y-103523387D01*
X268101278Y-103475768D01*
X268196516Y-103380530D01*
X268244135Y-103237673D01*
X268244135Y-102999578D01*
X267577469Y-104428149D02*
X268244135Y-104428149D01*
X267196516Y-104190054D02*
X267910802Y-103951959D01*
X267910802Y-104571006D01*
X268244135Y-104999578D02*
X268244135Y-105190054D01*
X268196516Y-105285292D01*
X268148897Y-105332911D01*
X268006040Y-105428149D01*
X267815564Y-105475768D01*
X267434612Y-105475768D01*
X267339374Y-105428149D01*
X267291755Y-105380530D01*
X267244135Y-105285292D01*
X267244135Y-105094816D01*
X267291755Y-104999578D01*
X267339374Y-104951959D01*
X267434612Y-104904340D01*
X267672707Y-104904340D01*
X267767945Y-104951959D01*
X267815564Y-104999578D01*
X267863183Y-105094816D01*
X267863183Y-105285292D01*
X267815564Y-105380530D01*
X267767945Y-105428149D01*
X267672707Y-105475768D01*
X321124135Y-83949578D02*
X320124135Y-83949578D01*
X320124135Y-84187673D01*
X320171755Y-84330530D01*
X320266993Y-84425768D01*
X320362231Y-84473387D01*
X320552707Y-84521006D01*
X320695564Y-84521006D01*
X320886040Y-84473387D01*
X320981278Y-84425768D01*
X321076516Y-84330530D01*
X321124135Y-84187673D01*
X321124135Y-83949578D01*
X320124135Y-85378149D02*
X320124135Y-85187673D01*
X320171755Y-85092435D01*
X320219374Y-85044816D01*
X320362231Y-84949578D01*
X320552707Y-84901959D01*
X320933659Y-84901959D01*
X321028897Y-84949578D01*
X321076516Y-84997197D01*
X321124135Y-85092435D01*
X321124135Y-85282911D01*
X321076516Y-85378149D01*
X321028897Y-85425768D01*
X320933659Y-85473387D01*
X320695564Y-85473387D01*
X320600326Y-85425768D01*
X320552707Y-85378149D01*
X320505088Y-85282911D01*
X320505088Y-85092435D01*
X320552707Y-84997197D01*
X320600326Y-84949578D01*
X320695564Y-84901959D01*
X320124135Y-86092435D02*
X320124135Y-86187673D01*
X320171755Y-86282911D01*
X320219374Y-86330530D01*
X320314612Y-86378149D01*
X320505088Y-86425768D01*
X320743183Y-86425768D01*
X320933659Y-86378149D01*
X321028897Y-86330530D01*
X321076516Y-86282911D01*
X321124135Y-86187673D01*
X321124135Y-86092435D01*
X321076516Y-85997197D01*
X321028897Y-85949578D01*
X320933659Y-85901959D01*
X320743183Y-85854340D01*
X320505088Y-85854340D01*
X320314612Y-85901959D01*
X320219374Y-85949578D01*
X320171755Y-85997197D01*
X320124135Y-86092435D01*
X110065237Y-107642235D02*
X109087089Y-107434323D01*
X109037587Y-107667216D01*
X109054463Y-107816852D01*
X109127819Y-107929810D01*
X109211076Y-107996189D01*
X109387489Y-108082370D01*
X109527224Y-108112072D01*
X109723439Y-108105095D01*
X109826496Y-108078318D01*
X109939454Y-108004962D01*
X110015734Y-107875127D01*
X110065237Y-107642235D01*
X109748419Y-109132746D02*
X109867226Y-108573804D01*
X109807823Y-108853275D02*
X108829675Y-108645363D01*
X108989211Y-108581908D01*
X109102169Y-108508552D01*
X109168549Y-108425296D01*
X108700968Y-109250883D02*
X108562360Y-109902982D01*
X109629613Y-109691687D01*
X115421319Y-128256303D02*
X114443171Y-128048391D01*
X114393669Y-128281284D01*
X114410545Y-128430920D01*
X114483901Y-128543878D01*
X114567158Y-128610257D01*
X114743571Y-128696438D01*
X114883306Y-128726140D01*
X115079521Y-128719163D01*
X115182578Y-128692386D01*
X115295536Y-128619030D01*
X115371816Y-128489195D01*
X115421319Y-128256303D01*
X115104501Y-129746814D02*
X115223308Y-129187872D01*
X115163905Y-129467343D02*
X114185757Y-129259431D01*
X114345293Y-129195976D01*
X114458251Y-129122620D01*
X114524631Y-129039364D01*
X114426753Y-130186949D02*
X114399976Y-130083891D01*
X114363298Y-130027412D01*
X114280041Y-129961033D01*
X114233463Y-129951132D01*
X114130406Y-129977909D01*
X114073927Y-130014587D01*
X114007547Y-130097844D01*
X113967945Y-130284157D01*
X113994722Y-130387215D01*
X114031400Y-130443694D01*
X114114656Y-130510073D01*
X114161235Y-130519974D01*
X114264292Y-130493197D01*
X114320771Y-130456519D01*
X114387151Y-130373262D01*
X114426753Y-130186949D01*
X114493133Y-130103692D01*
X114549612Y-130067014D01*
X114652669Y-130040237D01*
X114838983Y-130079839D01*
X114922239Y-130146219D01*
X114958917Y-130202698D01*
X114985695Y-130305755D01*
X114946092Y-130492069D01*
X114879713Y-130575325D01*
X114823234Y-130612003D01*
X114720176Y-130638781D01*
X114533862Y-130599178D01*
X114450606Y-130532799D01*
X114413928Y-130476320D01*
X114387151Y-130373262D01*
X134055028Y-132217030D02*
X133076880Y-132009118D01*
X133027378Y-132242011D01*
X133044254Y-132391647D01*
X133117610Y-132504605D01*
X133200867Y-132570984D01*
X133377280Y-132657165D01*
X133517015Y-132686867D01*
X133713230Y-132679890D01*
X133816287Y-132653113D01*
X133929245Y-132579757D01*
X134005525Y-132449922D01*
X134055028Y-132217030D01*
X132972026Y-132960489D02*
X132915547Y-132997167D01*
X132849168Y-133080423D01*
X132799665Y-133313315D01*
X132826442Y-133416373D01*
X132863120Y-133472852D01*
X132946376Y-133539231D01*
X133039533Y-133559032D01*
X133189169Y-133542156D01*
X133866917Y-133102021D01*
X133738210Y-133707541D01*
X132774015Y-133892058D02*
X132717536Y-133928736D01*
X132651157Y-134011992D01*
X132601654Y-134244884D01*
X132628431Y-134347942D01*
X132665109Y-134404421D01*
X132748365Y-134470800D01*
X132841522Y-134490602D01*
X132991158Y-134473725D01*
X133668906Y-134033590D01*
X133540199Y-134639110D01*
X97485310Y-143919465D02*
X96507162Y-143711553D01*
X96457660Y-143944446D01*
X96474536Y-144094082D01*
X96547892Y-144207040D01*
X96631149Y-144273419D01*
X96807562Y-144359600D01*
X96947297Y-144389302D01*
X97143512Y-144382325D01*
X97246569Y-144355548D01*
X97359527Y-144282192D01*
X97435807Y-144152357D01*
X97485310Y-143919465D01*
X97168492Y-145409976D02*
X97287299Y-144851034D01*
X97227896Y-145130505D02*
X96249748Y-144922593D01*
X96409284Y-144859138D01*
X96522242Y-144785782D01*
X96588622Y-144702526D01*
X96338184Y-146109780D02*
X96990282Y-146248388D01*
X96015059Y-145797683D02*
X96763239Y-145713300D01*
X96634531Y-146318819D01*
X84434135Y-63399193D02*
X83434135Y-63399193D01*
X83434135Y-63637288D01*
X83481755Y-63780145D01*
X83576993Y-63875383D01*
X83672231Y-63923002D01*
X83862707Y-63970621D01*
X84005564Y-63970621D01*
X84196040Y-63923002D01*
X84291278Y-63875383D01*
X84386516Y-63780145D01*
X84434135Y-63637288D01*
X84434135Y-63399193D01*
X84434135Y-64923002D02*
X84434135Y-64351574D01*
X84434135Y-64637288D02*
X83434135Y-64637288D01*
X83576993Y-64542050D01*
X83672231Y-64446812D01*
X83719850Y-64351574D01*
X83434135Y-65542050D02*
X83434135Y-65637288D01*
X83481755Y-65732526D01*
X83529374Y-65780145D01*
X83624612Y-65827764D01*
X83815088Y-65875383D01*
X84053183Y-65875383D01*
X84243659Y-65827764D01*
X84338897Y-65780145D01*
X84386516Y-65732526D01*
X84434135Y-65637288D01*
X84434135Y-65542050D01*
X84386516Y-65446812D01*
X84338897Y-65399193D01*
X84243659Y-65351574D01*
X84053183Y-65303955D01*
X83815088Y-65303955D01*
X83624612Y-65351574D01*
X83529374Y-65399193D01*
X83481755Y-65446812D01*
X83434135Y-65542050D01*
X109367570Y-88018341D02*
X108389422Y-87810429D01*
X108339920Y-88043322D01*
X108356796Y-88192958D01*
X108430152Y-88305916D01*
X108513409Y-88372295D01*
X108689822Y-88458476D01*
X108829557Y-88488178D01*
X109025772Y-88481201D01*
X109128829Y-88454424D01*
X109241787Y-88381068D01*
X109318067Y-88251233D01*
X109367570Y-88018341D01*
X109050752Y-89508852D02*
X109169559Y-88949910D01*
X109110156Y-89229381D02*
X108132008Y-89021469D01*
X108291544Y-88958014D01*
X108404502Y-88884658D01*
X108470882Y-88801402D01*
X107894395Y-90139352D02*
X107933997Y-89953038D01*
X108000376Y-89869782D01*
X108056855Y-89833104D01*
X108216392Y-89769649D01*
X108412606Y-89762673D01*
X108785234Y-89841877D01*
X108868490Y-89908257D01*
X108905168Y-89964736D01*
X108931946Y-90067793D01*
X108892343Y-90254107D01*
X108825964Y-90337363D01*
X108769485Y-90374041D01*
X108666427Y-90400819D01*
X108433535Y-90351316D01*
X108350279Y-90284936D01*
X108313601Y-90228457D01*
X108286823Y-90125400D01*
X108326426Y-89939086D01*
X108392805Y-89855830D01*
X108449284Y-89819152D01*
X108552342Y-89792374D01*
X269769135Y-40129578D02*
X268769135Y-40129578D01*
X268769135Y-40367673D01*
X268816755Y-40510530D01*
X268911993Y-40605768D01*
X269007231Y-40653387D01*
X269197707Y-40701006D01*
X269340564Y-40701006D01*
X269531040Y-40653387D01*
X269626278Y-40605768D01*
X269721516Y-40510530D01*
X269769135Y-40367673D01*
X269769135Y-40129578D01*
X268769135Y-41034340D02*
X268769135Y-41701006D01*
X269769135Y-41272435D01*
X269769135Y-42129578D02*
X269769135Y-42320054D01*
X269721516Y-42415292D01*
X269673897Y-42462911D01*
X269531040Y-42558149D01*
X269340564Y-42605768D01*
X268959612Y-42605768D01*
X268864374Y-42558149D01*
X268816755Y-42510530D01*
X268769135Y-42415292D01*
X268769135Y-42224816D01*
X268816755Y-42129578D01*
X268864374Y-42081959D01*
X268959612Y-42034340D01*
X269197707Y-42034340D01*
X269292945Y-42081959D01*
X269340564Y-42129578D01*
X269388183Y-42224816D01*
X269388183Y-42415292D01*
X269340564Y-42510530D01*
X269292945Y-42558149D01*
X269197707Y-42605768D01*
X147332657Y-115563689D02*
X146354509Y-115355777D01*
X146305007Y-115588670D01*
X146321883Y-115738306D01*
X146395239Y-115851264D01*
X146478496Y-115917643D01*
X146654909Y-116003824D01*
X146794644Y-116033526D01*
X146990859Y-116026549D01*
X147093916Y-115999772D01*
X147206874Y-115926416D01*
X147283154Y-115796581D01*
X147332657Y-115563689D01*
X146249655Y-116307148D02*
X146193176Y-116343826D01*
X146126797Y-116427082D01*
X146077294Y-116659974D01*
X146104071Y-116763032D01*
X146140749Y-116819511D01*
X146224005Y-116885890D01*
X146317162Y-116905691D01*
X146466798Y-116888815D01*
X147144546Y-116448680D01*
X147015839Y-117054200D01*
X145859482Y-117684700D02*
X145899084Y-117498386D01*
X145965463Y-117415130D01*
X146021942Y-117378452D01*
X146181479Y-117314997D01*
X146377693Y-117308021D01*
X146750321Y-117387225D01*
X146833577Y-117453605D01*
X146870255Y-117510084D01*
X146897033Y-117613141D01*
X146857430Y-117799455D01*
X146791051Y-117882711D01*
X146734572Y-117919389D01*
X146631514Y-117946167D01*
X146398622Y-117896664D01*
X146315366Y-117830284D01*
X146278688Y-117773805D01*
X146251910Y-117670748D01*
X146291513Y-117484434D01*
X146357892Y-117401178D01*
X146414371Y-117364500D01*
X146517429Y-117337722D01*
X122645229Y-71364990D02*
X121667081Y-71157078D01*
X121617579Y-71389971D01*
X121634455Y-71539607D01*
X121707811Y-71652565D01*
X121791068Y-71718944D01*
X121967481Y-71805125D01*
X122107216Y-71834827D01*
X122303431Y-71827850D01*
X122406488Y-71801073D01*
X122519446Y-71727717D01*
X122595726Y-71597882D01*
X122645229Y-71364990D01*
X122328411Y-72855501D02*
X122447218Y-72296559D01*
X122387815Y-72576030D02*
X121409667Y-72368118D01*
X121569203Y-72304663D01*
X121682161Y-72231307D01*
X121748541Y-72148051D01*
X122229406Y-73321285D02*
X122189803Y-73507599D01*
X122123424Y-73590856D01*
X122066945Y-73627533D01*
X121907408Y-73690989D01*
X121711194Y-73697965D01*
X121338566Y-73618760D01*
X121255310Y-73552381D01*
X121218632Y-73495902D01*
X121191855Y-73392844D01*
X121231457Y-73206531D01*
X121297837Y-73123274D01*
X121354316Y-73086596D01*
X121457373Y-73059819D01*
X121690265Y-73109322D01*
X121773522Y-73175701D01*
X121810200Y-73232180D01*
X121836977Y-73335238D01*
X121797375Y-73521552D01*
X121730995Y-73604808D01*
X121674516Y-73641486D01*
X121571459Y-73668263D01*
X90733860Y-84057615D02*
X89755712Y-83849703D01*
X89706210Y-84082596D01*
X89723086Y-84232232D01*
X89796442Y-84345190D01*
X89879699Y-84411569D01*
X90056112Y-84497750D01*
X90195847Y-84527452D01*
X90392062Y-84520475D01*
X90495119Y-84493698D01*
X90608077Y-84420342D01*
X90684357Y-84290507D01*
X90733860Y-84057615D01*
X90417042Y-85548126D02*
X90535849Y-84989184D01*
X90476446Y-85268655D02*
X89498298Y-85060743D01*
X89657834Y-84997288D01*
X89770792Y-84923932D01*
X89837172Y-84840676D01*
X90219031Y-86479695D02*
X90337838Y-85920753D01*
X90278434Y-86200224D02*
X89300287Y-85992312D01*
X89459823Y-85928857D01*
X89572781Y-85855501D01*
X89639161Y-85772245D01*
X249196127Y-45037447D02*
X250174275Y-44829536D01*
X250124772Y-44596643D01*
X250048492Y-44466809D01*
X249935534Y-44393453D01*
X249832477Y-44366676D01*
X249636262Y-44359699D01*
X249496527Y-44389401D01*
X249320114Y-44475582D01*
X249236857Y-44541961D01*
X249163501Y-44654919D01*
X249146625Y-44804555D01*
X249196127Y-45037447D01*
X249986164Y-43944545D02*
X249847557Y-43292447D01*
X248958514Y-43919564D01*
X249319444Y-42869189D02*
X249385824Y-42952445D01*
X249442303Y-42989123D01*
X249545360Y-43015900D01*
X249591939Y-43006000D01*
X249675195Y-42939620D01*
X249711873Y-42883141D01*
X249738650Y-42780084D01*
X249699048Y-42593770D01*
X249632669Y-42510513D01*
X249576190Y-42473836D01*
X249473132Y-42447058D01*
X249426554Y-42456959D01*
X249343297Y-42523338D01*
X249306619Y-42579817D01*
X249279842Y-42682875D01*
X249319444Y-42869189D01*
X249292667Y-42972246D01*
X249255989Y-43028725D01*
X249172733Y-43095105D01*
X248986419Y-43134707D01*
X248883361Y-43107930D01*
X248826882Y-43071252D01*
X248760503Y-42987995D01*
X248720901Y-42801682D01*
X248747678Y-42698624D01*
X248784356Y-42642145D01*
X248867612Y-42575765D01*
X249053926Y-42536163D01*
X249156984Y-42562941D01*
X249213463Y-42599618D01*
X249279842Y-42682875D01*
X349699135Y-79187094D02*
X348699135Y-79187094D01*
X348699135Y-79425189D01*
X348746755Y-79568046D01*
X348841993Y-79663284D01*
X348937231Y-79710903D01*
X349127707Y-79758522D01*
X349270564Y-79758522D01*
X349461040Y-79710903D01*
X349556278Y-79663284D01*
X349651516Y-79568046D01*
X349699135Y-79425189D01*
X349699135Y-79187094D01*
X348699135Y-80615665D02*
X348699135Y-80425189D01*
X348746755Y-80329951D01*
X348794374Y-80282332D01*
X348937231Y-80187094D01*
X349127707Y-80139475D01*
X349508659Y-80139475D01*
X349603897Y-80187094D01*
X349651516Y-80234713D01*
X349699135Y-80329951D01*
X349699135Y-80520427D01*
X349651516Y-80615665D01*
X349603897Y-80663284D01*
X349508659Y-80710903D01*
X349270564Y-80710903D01*
X349175326Y-80663284D01*
X349127707Y-80615665D01*
X349080088Y-80520427D01*
X349080088Y-80329951D01*
X349127707Y-80234713D01*
X349175326Y-80187094D01*
X349270564Y-80139475D01*
X348699135Y-81615665D02*
X348699135Y-81139475D01*
X349175326Y-81091856D01*
X349127707Y-81139475D01*
X349080088Y-81234713D01*
X349080088Y-81472808D01*
X349127707Y-81568046D01*
X349175326Y-81615665D01*
X349270564Y-81663284D01*
X349508659Y-81663284D01*
X349603897Y-81615665D01*
X349651516Y-81568046D01*
X349699135Y-81472808D01*
X349699135Y-81234713D01*
X349651516Y-81139475D01*
X349603897Y-81091856D01*
X288719135Y-40179578D02*
X287719135Y-40179578D01*
X287719135Y-40417673D01*
X287766755Y-40560530D01*
X287861993Y-40655768D01*
X287957231Y-40703387D01*
X288147707Y-40751006D01*
X288290564Y-40751006D01*
X288481040Y-40703387D01*
X288576278Y-40655768D01*
X288671516Y-40560530D01*
X288719135Y-40417673D01*
X288719135Y-40179578D01*
X288147707Y-41322435D02*
X288100088Y-41227197D01*
X288052469Y-41179578D01*
X287957231Y-41131959D01*
X287909612Y-41131959D01*
X287814374Y-41179578D01*
X287766755Y-41227197D01*
X287719135Y-41322435D01*
X287719135Y-41512911D01*
X287766755Y-41608149D01*
X287814374Y-41655768D01*
X287909612Y-41703387D01*
X287957231Y-41703387D01*
X288052469Y-41655768D01*
X288100088Y-41608149D01*
X288147707Y-41512911D01*
X288147707Y-41322435D01*
X288195326Y-41227197D01*
X288242945Y-41179578D01*
X288338183Y-41131959D01*
X288528659Y-41131959D01*
X288623897Y-41179578D01*
X288671516Y-41227197D01*
X288719135Y-41322435D01*
X288719135Y-41512911D01*
X288671516Y-41608149D01*
X288623897Y-41655768D01*
X288528659Y-41703387D01*
X288338183Y-41703387D01*
X288242945Y-41655768D01*
X288195326Y-41608149D01*
X288147707Y-41512911D01*
X287719135Y-42322435D02*
X287719135Y-42417673D01*
X287766755Y-42512911D01*
X287814374Y-42560530D01*
X287909612Y-42608149D01*
X288100088Y-42655768D01*
X288338183Y-42655768D01*
X288528659Y-42608149D01*
X288623897Y-42560530D01*
X288671516Y-42512911D01*
X288719135Y-42417673D01*
X288719135Y-42322435D01*
X288671516Y-42227197D01*
X288623897Y-42179578D01*
X288528659Y-42131959D01*
X288338183Y-42084340D01*
X288100088Y-42084340D01*
X287909612Y-42131959D01*
X287814374Y-42179578D01*
X287766755Y-42227197D01*
X287719135Y-42322435D01*
X277769154Y-122049576D02*
X276769154Y-122049576D01*
X276769154Y-122287671D01*
X276816774Y-122430528D01*
X276912012Y-122525766D01*
X277007250Y-122573385D01*
X277197726Y-122621004D01*
X277340583Y-122621004D01*
X277531059Y-122573385D01*
X277626297Y-122525766D01*
X277721535Y-122430528D01*
X277769154Y-122287671D01*
X277769154Y-122049576D01*
X276769154Y-123525766D02*
X276769154Y-123049576D01*
X277245345Y-123001957D01*
X277197726Y-123049576D01*
X277150107Y-123144814D01*
X277150107Y-123382909D01*
X277197726Y-123478147D01*
X277245345Y-123525766D01*
X277340583Y-123573385D01*
X277578678Y-123573385D01*
X277673916Y-123525766D01*
X277721535Y-123478147D01*
X277769154Y-123382909D01*
X277769154Y-123144814D01*
X277721535Y-123049576D01*
X277673916Y-123001957D01*
X276769154Y-124192433D02*
X276769154Y-124287671D01*
X276816774Y-124382909D01*
X276864393Y-124430528D01*
X276959631Y-124478147D01*
X277150107Y-124525766D01*
X277388202Y-124525766D01*
X277578678Y-124478147D01*
X277673916Y-124430528D01*
X277721535Y-124382909D01*
X277769154Y-124287671D01*
X277769154Y-124192433D01*
X277721535Y-124097195D01*
X277673916Y-124049576D01*
X277578678Y-124001957D01*
X277388202Y-123954338D01*
X277150107Y-123954338D01*
X276959631Y-124001957D01*
X276864393Y-124049576D01*
X276816774Y-124097195D01*
X276769154Y-124192433D01*
X158044875Y-156791786D02*
X157066727Y-156583874D01*
X157017225Y-156816767D01*
X157034101Y-156966403D01*
X157107457Y-157079361D01*
X157190714Y-157145740D01*
X157367127Y-157231921D01*
X157506862Y-157261623D01*
X157703077Y-157254646D01*
X157806134Y-157227869D01*
X157919092Y-157154513D01*
X157995372Y-157024678D01*
X158044875Y-156791786D01*
X156961873Y-157535245D02*
X156905394Y-157571923D01*
X156839015Y-157655179D01*
X156789512Y-157888071D01*
X156816289Y-157991129D01*
X156852967Y-158047608D01*
X156936223Y-158113987D01*
X157029380Y-158133788D01*
X157179016Y-158116912D01*
X157856764Y-157676777D01*
X157728057Y-158282297D01*
X157050309Y-158722432D02*
X157023532Y-158619374D01*
X156986854Y-158562895D01*
X156903597Y-158496516D01*
X156857019Y-158486615D01*
X156753962Y-158513392D01*
X156697483Y-158550070D01*
X156631103Y-158633327D01*
X156591501Y-158819640D01*
X156618278Y-158922698D01*
X156654956Y-158979177D01*
X156738212Y-159045556D01*
X156784791Y-159055457D01*
X156887848Y-159028680D01*
X156944327Y-158992002D01*
X157010707Y-158908745D01*
X157050309Y-158722432D01*
X157116689Y-158639175D01*
X157173168Y-158602497D01*
X157276225Y-158575720D01*
X157462539Y-158615322D01*
X157545795Y-158681702D01*
X157582473Y-158738181D01*
X157609251Y-158841238D01*
X157569648Y-159027552D01*
X157503269Y-159110808D01*
X157446790Y-159147486D01*
X157343732Y-159174264D01*
X157157418Y-159134661D01*
X157074162Y-159068282D01*
X157037484Y-159011803D01*
X157010707Y-158908745D01*
X192015562Y-120427925D02*
X192993710Y-120220014D01*
X192944207Y-119987121D01*
X192867927Y-119857287D01*
X192754969Y-119783931D01*
X192651912Y-119757154D01*
X192455697Y-119750177D01*
X192315962Y-119779879D01*
X192139549Y-119866060D01*
X192056292Y-119932439D01*
X191982936Y-120045397D01*
X191966060Y-120195033D01*
X192015562Y-120427925D01*
X192805599Y-119335023D02*
X192676892Y-118729503D01*
X192373568Y-119134757D01*
X192343867Y-118995021D01*
X192277487Y-118911765D01*
X192221008Y-118875087D01*
X192117951Y-118848310D01*
X191885058Y-118897813D01*
X191801802Y-118964192D01*
X191765124Y-119020671D01*
X191738347Y-119123729D01*
X191797750Y-119403199D01*
X191864130Y-119486456D01*
X191920609Y-119523134D01*
X191500733Y-118005846D02*
X191619540Y-118564787D01*
X191560137Y-118285316D02*
X192538284Y-118077405D01*
X192418350Y-118200263D01*
X192344994Y-118313221D01*
X192318217Y-118416279D01*
X60569135Y-40029578D02*
X59569135Y-40029578D01*
X59569135Y-40267673D01*
X59616755Y-40410530D01*
X59711993Y-40505768D01*
X59807231Y-40553387D01*
X59997707Y-40601006D01*
X60140564Y-40601006D01*
X60331040Y-40553387D01*
X60426278Y-40505768D01*
X60521516Y-40410530D01*
X60569135Y-40267673D01*
X60569135Y-40029578D01*
X59569135Y-41458149D02*
X59569135Y-41267673D01*
X59616755Y-41172435D01*
X59664374Y-41124816D01*
X59807231Y-41029578D01*
X59997707Y-40981959D01*
X60378659Y-40981959D01*
X60473897Y-41029578D01*
X60521516Y-41077197D01*
X60569135Y-41172435D01*
X60569135Y-41362911D01*
X60521516Y-41458149D01*
X60473897Y-41505768D01*
X60378659Y-41553387D01*
X60140564Y-41553387D01*
X60045326Y-41505768D01*
X59997707Y-41458149D01*
X59950088Y-41362911D01*
X59950088Y-41172435D01*
X59997707Y-41077197D01*
X60045326Y-41029578D01*
X60140564Y-40981959D01*
X60569135Y-42029578D02*
X60569135Y-42220054D01*
X60521516Y-42315292D01*
X60473897Y-42362911D01*
X60331040Y-42458149D01*
X60140564Y-42505768D01*
X59759612Y-42505768D01*
X59664374Y-42458149D01*
X59616755Y-42410530D01*
X59569135Y-42315292D01*
X59569135Y-42124816D01*
X59616755Y-42029578D01*
X59664374Y-41981959D01*
X59759612Y-41934340D01*
X59997707Y-41934340D01*
X60092945Y-41981959D01*
X60140564Y-42029578D01*
X60188183Y-42124816D01*
X60188183Y-42315292D01*
X60140564Y-42410530D01*
X60092945Y-42458149D01*
X59997707Y-42505768D01*
X79869135Y-40129578D02*
X78869135Y-40129578D01*
X78869135Y-40367673D01*
X78916755Y-40510530D01*
X79011993Y-40605768D01*
X79107231Y-40653387D01*
X79297707Y-40701006D01*
X79440564Y-40701006D01*
X79631040Y-40653387D01*
X79726278Y-40605768D01*
X79821516Y-40510530D01*
X79869135Y-40367673D01*
X79869135Y-40129578D01*
X78869135Y-41034340D02*
X78869135Y-41701006D01*
X79869135Y-41272435D01*
X78869135Y-42272435D02*
X78869135Y-42367673D01*
X78916755Y-42462911D01*
X78964374Y-42510530D01*
X79059612Y-42558149D01*
X79250088Y-42605768D01*
X79488183Y-42605768D01*
X79678659Y-42558149D01*
X79773897Y-42510530D01*
X79821516Y-42462911D01*
X79869135Y-42367673D01*
X79869135Y-42272435D01*
X79821516Y-42177197D01*
X79773897Y-42129578D01*
X79678659Y-42081959D01*
X79488183Y-42034340D01*
X79250088Y-42034340D01*
X79059612Y-42081959D01*
X78964374Y-42129578D01*
X78916755Y-42177197D01*
X78869135Y-42272435D01*
X141278941Y-75240991D02*
X140300793Y-75033079D01*
X140251291Y-75265972D01*
X140268167Y-75415608D01*
X140341523Y-75528566D01*
X140424780Y-75594945D01*
X140601193Y-75681126D01*
X140740928Y-75710828D01*
X140937143Y-75703851D01*
X141040200Y-75677074D01*
X141153158Y-75603718D01*
X141229438Y-75473883D01*
X141278941Y-75240991D01*
X140195939Y-75984450D02*
X140139460Y-76021128D01*
X140073081Y-76104384D01*
X140023578Y-76337276D01*
X140050355Y-76440334D01*
X140087033Y-76496813D01*
X140170289Y-76563192D01*
X140263446Y-76582993D01*
X140413082Y-76566117D01*
X141090830Y-76125982D01*
X140962123Y-76731502D01*
X140131815Y-77431306D02*
X140783913Y-77569914D01*
X139808690Y-77119209D02*
X140556870Y-77034826D01*
X140428162Y-77640345D01*
X182834926Y-40706424D02*
X182787307Y-40754043D01*
X182739688Y-40896900D01*
X182739688Y-40992138D01*
X182787307Y-41134996D01*
X182882545Y-41230234D01*
X182977783Y-41277853D01*
X183168259Y-41325472D01*
X183311116Y-41325472D01*
X183501592Y-41277853D01*
X183596830Y-41230234D01*
X183692069Y-41134996D01*
X183739688Y-40992138D01*
X183739688Y-40896900D01*
X183692069Y-40754043D01*
X183644449Y-40706424D01*
X182739688Y-39754043D02*
X182739688Y-40325472D01*
X182739688Y-40039758D02*
X183739688Y-40039758D01*
X183596830Y-40134996D01*
X183501592Y-40230234D01*
X183453973Y-40325472D01*
X189335211Y-39230091D02*
X189382830Y-39182472D01*
X189430449Y-39039615D01*
X189430449Y-38944377D01*
X189382830Y-38801519D01*
X189287592Y-38706281D01*
X189192354Y-38658662D01*
X189001878Y-38611043D01*
X188859021Y-38611043D01*
X188668545Y-38658662D01*
X188573307Y-38706281D01*
X188478069Y-38801519D01*
X188430449Y-38944377D01*
X188430449Y-39039615D01*
X188478069Y-39182472D01*
X188525688Y-39230091D01*
X188525688Y-39611043D02*
X188478069Y-39658662D01*
X188430449Y-39753900D01*
X188430449Y-39991996D01*
X188478069Y-40087234D01*
X188525688Y-40134853D01*
X188620926Y-40182472D01*
X188716164Y-40182472D01*
X188859021Y-40134853D01*
X189430449Y-39563424D01*
X189430449Y-40182472D01*
X185017211Y-29705091D02*
X185064830Y-29657472D01*
X185112449Y-29514615D01*
X185112449Y-29419377D01*
X185064830Y-29276519D01*
X184969592Y-29181281D01*
X184874354Y-29133662D01*
X184683878Y-29086043D01*
X184541021Y-29086043D01*
X184350545Y-29133662D01*
X184255307Y-29181281D01*
X184160069Y-29276519D01*
X184112449Y-29419377D01*
X184112449Y-29514615D01*
X184160069Y-29657472D01*
X184207688Y-29705091D01*
X184112449Y-30038424D02*
X184112449Y-30657472D01*
X184493402Y-30324138D01*
X184493402Y-30466996D01*
X184541021Y-30562234D01*
X184588640Y-30609853D01*
X184683878Y-30657472D01*
X184921973Y-30657472D01*
X185017211Y-30609853D01*
X185064830Y-30562234D01*
X185112449Y-30466996D01*
X185112449Y-30181281D01*
X185064830Y-30086043D01*
X185017211Y-30038424D01*
X179485211Y-29705091D02*
X179532830Y-29657472D01*
X179580449Y-29514615D01*
X179580449Y-29419377D01*
X179532830Y-29276519D01*
X179437592Y-29181281D01*
X179342354Y-29133662D01*
X179151878Y-29086043D01*
X179009021Y-29086043D01*
X178818545Y-29133662D01*
X178723307Y-29181281D01*
X178628069Y-29276519D01*
X178580449Y-29419377D01*
X178580449Y-29514615D01*
X178628069Y-29657472D01*
X178675688Y-29705091D01*
X178913783Y-30562234D02*
X179580449Y-30562234D01*
X178532830Y-30324138D02*
X179247116Y-30086043D01*
X179247116Y-30705091D01*
X165824735Y-34574900D02*
X165872354Y-34622519D01*
X166015211Y-34670138D01*
X166110449Y-34670138D01*
X166253307Y-34622519D01*
X166348545Y-34527281D01*
X166396164Y-34432043D01*
X166443783Y-34241567D01*
X166443783Y-34098710D01*
X166396164Y-33908234D01*
X166348545Y-33812996D01*
X166253307Y-33717758D01*
X166110449Y-33670138D01*
X166015211Y-33670138D01*
X165872354Y-33717758D01*
X165824735Y-33765377D01*
X164919973Y-33670138D02*
X165396164Y-33670138D01*
X165443783Y-34146329D01*
X165396164Y-34098710D01*
X165300926Y-34051091D01*
X165062830Y-34051091D01*
X164967592Y-34098710D01*
X164919973Y-34146329D01*
X164872354Y-34241567D01*
X164872354Y-34479662D01*
X164919973Y-34574900D01*
X164967592Y-34622519D01*
X165062830Y-34670138D01*
X165300926Y-34670138D01*
X165396164Y-34622519D01*
X165443783Y-34574900D01*
X165824735Y-40106900D02*
X165872354Y-40154519D01*
X166015211Y-40202138D01*
X166110449Y-40202138D01*
X166253307Y-40154519D01*
X166348545Y-40059281D01*
X166396164Y-39964043D01*
X166443783Y-39773567D01*
X166443783Y-39630710D01*
X166396164Y-39440234D01*
X166348545Y-39344996D01*
X166253307Y-39249758D01*
X166110449Y-39202138D01*
X166015211Y-39202138D01*
X165872354Y-39249758D01*
X165824735Y-39297377D01*
X164967592Y-39202138D02*
X165158069Y-39202138D01*
X165253307Y-39249758D01*
X165300926Y-39297377D01*
X165396164Y-39440234D01*
X165443783Y-39630710D01*
X165443783Y-40011662D01*
X165396164Y-40106900D01*
X165348545Y-40154519D01*
X165253307Y-40202138D01*
X165062830Y-40202138D01*
X164967592Y-40154519D01*
X164919973Y-40106900D01*
X164872354Y-40011662D01*
X164872354Y-39773567D01*
X164919973Y-39678329D01*
X164967592Y-39630710D01*
X165062830Y-39583091D01*
X165253307Y-39583091D01*
X165348545Y-39630710D01*
X165396164Y-39678329D01*
X165443783Y-39773567D01*
X180790735Y-52044900D02*
X180838354Y-52092519D01*
X180981211Y-52140138D01*
X181076449Y-52140138D01*
X181219307Y-52092519D01*
X181314545Y-51997281D01*
X181362164Y-51902043D01*
X181409783Y-51711567D01*
X181409783Y-51568710D01*
X181362164Y-51378234D01*
X181314545Y-51282996D01*
X181219307Y-51187758D01*
X181076449Y-51140138D01*
X180981211Y-51140138D01*
X180838354Y-51187758D01*
X180790735Y-51235377D01*
X180457402Y-51140138D02*
X179790735Y-51140138D01*
X180219307Y-52140138D01*
X165553421Y-44070006D02*
X165601040Y-44117625D01*
X165743897Y-44165244D01*
X165839135Y-44165244D01*
X165981993Y-44117625D01*
X166077231Y-44022387D01*
X166124850Y-43927149D01*
X166172469Y-43736673D01*
X166172469Y-43593816D01*
X166124850Y-43403340D01*
X166077231Y-43308102D01*
X165981993Y-43212864D01*
X165839135Y-43165244D01*
X165743897Y-43165244D01*
X165601040Y-43212864D01*
X165553421Y-43260483D01*
X164981993Y-43593816D02*
X165077231Y-43546197D01*
X165124850Y-43498578D01*
X165172469Y-43403340D01*
X165172469Y-43355721D01*
X165124850Y-43260483D01*
X165077231Y-43212864D01*
X164981993Y-43165244D01*
X164791516Y-43165244D01*
X164696278Y-43212864D01*
X164648659Y-43260483D01*
X164601040Y-43355721D01*
X164601040Y-43403340D01*
X164648659Y-43498578D01*
X164696278Y-43546197D01*
X164791516Y-43593816D01*
X164981993Y-43593816D01*
X165077231Y-43641435D01*
X165124850Y-43689054D01*
X165172469Y-43784292D01*
X165172469Y-43974768D01*
X165124850Y-44070006D01*
X165077231Y-44117625D01*
X164981993Y-44165244D01*
X164791516Y-44165244D01*
X164696278Y-44117625D01*
X164648659Y-44070006D01*
X164601040Y-43974768D01*
X164601040Y-43784292D01*
X164648659Y-43689054D01*
X164696278Y-43641435D01*
X164791516Y-43593816D01*
X188390735Y-34320900D02*
X188438354Y-34368519D01*
X188581211Y-34416138D01*
X188676449Y-34416138D01*
X188819307Y-34368519D01*
X188914545Y-34273281D01*
X188962164Y-34178043D01*
X189009783Y-33987567D01*
X189009783Y-33844710D01*
X188962164Y-33654234D01*
X188914545Y-33558996D01*
X188819307Y-33463758D01*
X188676449Y-33416138D01*
X188581211Y-33416138D01*
X188438354Y-33463758D01*
X188390735Y-33511377D01*
X187914545Y-34416138D02*
X187724069Y-34416138D01*
X187628830Y-34368519D01*
X187581211Y-34320900D01*
X187485973Y-34178043D01*
X187438354Y-33987567D01*
X187438354Y-33606615D01*
X187485973Y-33511377D01*
X187533592Y-33463758D01*
X187628830Y-33416138D01*
X187819307Y-33416138D01*
X187914545Y-33463758D01*
X187962164Y-33511377D01*
X188009783Y-33606615D01*
X188009783Y-33844710D01*
X187962164Y-33939948D01*
X187914545Y-33987567D01*
X187819307Y-34035186D01*
X187628830Y-34035186D01*
X187533592Y-33987567D01*
X187485973Y-33939948D01*
X187438354Y-33844710D01*
X220559402Y-28006424D02*
X220559402Y-28506424D01*
X220592735Y-28606424D01*
X220659402Y-28673091D01*
X220759402Y-28706424D01*
X220826069Y-28706424D01*
X220259402Y-28073091D02*
X220226069Y-28039758D01*
X220159402Y-28006424D01*
X219992735Y-28006424D01*
X219926069Y-28039758D01*
X219892735Y-28073091D01*
X219859402Y-28139758D01*
X219859402Y-28206424D01*
X219892735Y-28306424D01*
X220292735Y-28706424D01*
X219859402Y-28706424D01*
X218195402Y-28008424D02*
X218195402Y-28508424D01*
X218228735Y-28608424D01*
X218295402Y-28675091D01*
X218395402Y-28708424D01*
X218462069Y-28708424D01*
X217928735Y-28008424D02*
X217495402Y-28008424D01*
X217728735Y-28275091D01*
X217628735Y-28275091D01*
X217562069Y-28308424D01*
X217528735Y-28341758D01*
X217495402Y-28408424D01*
X217495402Y-28575091D01*
X217528735Y-28641758D01*
X217562069Y-28675091D01*
X217628735Y-28708424D01*
X217828735Y-28708424D01*
X217895402Y-28675091D01*
X217928735Y-28641758D01*
X215655402Y-28008424D02*
X215655402Y-28508424D01*
X215688735Y-28608424D01*
X215755402Y-28675091D01*
X215855402Y-28708424D01*
X215922069Y-28708424D01*
X215022069Y-28241758D02*
X215022069Y-28708424D01*
X215188735Y-27975091D02*
X215355402Y-28475091D01*
X214922069Y-28475091D01*
X213115402Y-28008424D02*
X213115402Y-28508424D01*
X213148735Y-28608424D01*
X213215402Y-28675091D01*
X213315402Y-28708424D01*
X213382069Y-28708424D01*
X212448735Y-28008424D02*
X212782069Y-28008424D01*
X212815402Y-28341758D01*
X212782069Y-28308424D01*
X212715402Y-28275091D01*
X212548735Y-28275091D01*
X212482069Y-28308424D01*
X212448735Y-28341758D01*
X212415402Y-28408424D01*
X212415402Y-28575091D01*
X212448735Y-28641758D01*
X212482069Y-28675091D01*
X212548735Y-28708424D01*
X212715402Y-28708424D01*
X212782069Y-28675091D01*
X212815402Y-28641758D01*
X210575402Y-28008424D02*
X210575402Y-28508424D01*
X210608735Y-28608424D01*
X210675402Y-28675091D01*
X210775402Y-28708424D01*
X210842069Y-28708424D01*
X209942069Y-28008424D02*
X210075402Y-28008424D01*
X210142069Y-28041758D01*
X210175402Y-28075091D01*
X210242069Y-28175091D01*
X210275402Y-28308424D01*
X210275402Y-28575091D01*
X210242069Y-28641758D01*
X210208735Y-28675091D01*
X210142069Y-28708424D01*
X210008735Y-28708424D01*
X209942069Y-28675091D01*
X209908735Y-28641758D01*
X209875402Y-28575091D01*
X209875402Y-28408424D01*
X209908735Y-28341758D01*
X209942069Y-28308424D01*
X210008735Y-28275091D01*
X210142069Y-28275091D01*
X210208735Y-28308424D01*
X210242069Y-28341758D01*
X210275402Y-28408424D01*
X208035402Y-28008424D02*
X208035402Y-28508424D01*
X208068735Y-28608424D01*
X208135402Y-28675091D01*
X208235402Y-28708424D01*
X208302069Y-28708424D01*
X207768735Y-28008424D02*
X207302069Y-28008424D01*
X207602069Y-28708424D01*
X138693402Y-28008424D02*
X138693402Y-28508424D01*
X138726735Y-28608424D01*
X138793402Y-28675091D01*
X138893402Y-28708424D01*
X138960069Y-28708424D01*
X138326735Y-28708424D02*
X138193402Y-28708424D01*
X138126735Y-28675091D01*
X138093402Y-28641758D01*
X138026735Y-28541758D01*
X137993402Y-28408424D01*
X137993402Y-28141758D01*
X138026735Y-28075091D01*
X138060069Y-28041758D01*
X138126735Y-28008424D01*
X138260069Y-28008424D01*
X138326735Y-28041758D01*
X138360069Y-28075091D01*
X138393402Y-28141758D01*
X138393402Y-28308424D01*
X138360069Y-28375091D01*
X138326735Y-28408424D01*
X138260069Y-28441758D01*
X138126735Y-28441758D01*
X138060069Y-28408424D01*
X138026735Y-28375091D01*
X137993402Y-28308424D01*
X136486735Y-28008424D02*
X136486735Y-28508424D01*
X136520069Y-28608424D01*
X136586735Y-28675091D01*
X136686735Y-28708424D01*
X136753402Y-28708424D01*
X135786735Y-28708424D02*
X136186735Y-28708424D01*
X135986735Y-28708424D02*
X135986735Y-28008424D01*
X136053402Y-28108424D01*
X136120069Y-28175091D01*
X136186735Y-28208424D01*
X135353402Y-28008424D02*
X135286735Y-28008424D01*
X135220069Y-28041758D01*
X135186735Y-28075091D01*
X135153402Y-28141758D01*
X135120069Y-28275091D01*
X135120069Y-28441758D01*
X135153402Y-28575091D01*
X135186735Y-28641758D01*
X135220069Y-28675091D01*
X135286735Y-28708424D01*
X135353402Y-28708424D01*
X135420069Y-28675091D01*
X135453402Y-28641758D01*
X135486735Y-28575091D01*
X135520069Y-28441758D01*
X135520069Y-28275091D01*
X135486735Y-28141758D01*
X135453402Y-28075091D01*
X135420069Y-28041758D01*
X135353402Y-28008424D01*
X141583421Y-28008424D02*
X141583421Y-28508424D01*
X141616755Y-28608424D01*
X141683421Y-28675091D01*
X141783421Y-28708424D01*
X141850088Y-28708424D01*
X140883421Y-28708424D02*
X141283421Y-28708424D01*
X141083421Y-28708424D02*
X141083421Y-28008424D01*
X141150088Y-28108424D01*
X141216755Y-28175091D01*
X141283421Y-28208424D01*
X140216755Y-28708424D02*
X140616755Y-28708424D01*
X140416755Y-28708424D02*
X140416755Y-28008424D01*
X140483421Y-28108424D01*
X140550088Y-28175091D01*
X140616755Y-28208424D01*
X160724735Y-33344138D02*
X161058069Y-32867948D01*
X161296164Y-33344138D02*
X161296164Y-32344138D01*
X160915211Y-32344138D01*
X160819973Y-32391758D01*
X160772354Y-32439377D01*
X160724735Y-32534615D01*
X160724735Y-32677472D01*
X160772354Y-32772710D01*
X160819973Y-32820329D01*
X160915211Y-32867948D01*
X161296164Y-32867948D01*
X159772354Y-33344138D02*
X160343783Y-33344138D01*
X160058069Y-33344138D02*
X160058069Y-32344138D01*
X160153307Y-32486996D01*
X160248545Y-32582234D01*
X160343783Y-32629853D01*
X160724735Y-27812138D02*
X161058069Y-27335948D01*
X161296164Y-27812138D02*
X161296164Y-26812138D01*
X160915211Y-26812138D01*
X160819973Y-26859758D01*
X160772354Y-26907377D01*
X160724735Y-27002615D01*
X160724735Y-27145472D01*
X160772354Y-27240710D01*
X160819973Y-27288329D01*
X160915211Y-27335948D01*
X161296164Y-27335948D01*
X160343783Y-26907377D02*
X160296164Y-26859758D01*
X160200926Y-26812138D01*
X159962830Y-26812138D01*
X159867592Y-26859758D01*
X159819973Y-26907377D01*
X159772354Y-27002615D01*
X159772354Y-27097853D01*
X159819973Y-27240710D01*
X160391402Y-27812138D01*
X159772354Y-27812138D01*
X191933688Y-28768424D02*
X192409878Y-29101758D01*
X191933688Y-29339853D02*
X192933688Y-29339853D01*
X192933688Y-28958900D01*
X192886069Y-28863662D01*
X192838449Y-28816043D01*
X192743211Y-28768424D01*
X192600354Y-28768424D01*
X192505116Y-28816043D01*
X192457497Y-28863662D01*
X192409878Y-28958900D01*
X192409878Y-29339853D01*
X192933688Y-28435091D02*
X192933688Y-27816043D01*
X192552735Y-28149377D01*
X192552735Y-28006519D01*
X192505116Y-27911281D01*
X192457497Y-27863662D01*
X192362259Y-27816043D01*
X192124164Y-27816043D01*
X192028926Y-27863662D01*
X191981307Y-27911281D01*
X191933688Y-28006519D01*
X191933688Y-28292234D01*
X191981307Y-28387472D01*
X192028926Y-28435091D01*
X167295688Y-51548424D02*
X167771878Y-51881758D01*
X167295688Y-52119853D02*
X168295688Y-52119853D01*
X168295688Y-51738900D01*
X168248069Y-51643662D01*
X168200449Y-51596043D01*
X168105211Y-51548424D01*
X167962354Y-51548424D01*
X167867116Y-51596043D01*
X167819497Y-51643662D01*
X167771878Y-51738900D01*
X167771878Y-52119853D01*
X167962354Y-50691281D02*
X167295688Y-50691281D01*
X168343307Y-50929377D02*
X167629021Y-51167472D01*
X167629021Y-50548424D01*
X202777402Y-32756519D02*
X202634545Y-32804138D01*
X202396449Y-32804138D01*
X202301211Y-32756519D01*
X202253592Y-32708900D01*
X202205973Y-32613662D01*
X202205973Y-32518424D01*
X202253592Y-32423186D01*
X202301211Y-32375567D01*
X202396449Y-32327948D01*
X202586926Y-32280329D01*
X202682164Y-32232710D01*
X202729783Y-32185091D01*
X202777402Y-32089853D01*
X202777402Y-31994615D01*
X202729783Y-31899377D01*
X202682164Y-31851758D01*
X202586926Y-31804138D01*
X202348830Y-31804138D01*
X202205973Y-31851758D01*
X201872640Y-31804138D02*
X201634545Y-32804138D01*
X201444069Y-32089853D01*
X201253592Y-32804138D01*
X201015497Y-31804138D01*
X200063116Y-32804138D02*
X200396449Y-32327948D01*
X200634545Y-32804138D02*
X200634545Y-31804138D01*
X200253592Y-31804138D01*
X200158354Y-31851758D01*
X200110735Y-31899377D01*
X200063116Y-31994615D01*
X200063116Y-32137472D01*
X200110735Y-32232710D01*
X200158354Y-32280329D01*
X200253592Y-32327948D01*
X200634545Y-32327948D01*
X199110735Y-32804138D02*
X199682164Y-32804138D01*
X199396449Y-32804138D02*
X199396449Y-31804138D01*
X199491688Y-31946996D01*
X199586926Y-32042234D01*
X199682164Y-32089853D01*
X194994366Y-36889157D02*
X194756271Y-37301550D01*
X195544946Y-36602191D02*
X194994366Y-36889157D01*
X194967596Y-36268858D01*
X193725288Y-36706312D02*
X194220160Y-36992026D01*
X193972724Y-36849169D02*
X194472724Y-35983144D01*
X194483774Y-36154481D01*
X194518634Y-36284578D01*
X194577303Y-36373437D01*
X167161973Y-26678138D02*
X167161973Y-27487662D01*
X167114354Y-27582900D01*
X167066735Y-27630519D01*
X166971497Y-27678138D01*
X166781021Y-27678138D01*
X166685783Y-27630519D01*
X166638164Y-27582900D01*
X166590545Y-27487662D01*
X166590545Y-26678138D01*
X165590545Y-27678138D02*
X166161973Y-27678138D01*
X165876259Y-27678138D02*
X165876259Y-26678138D01*
X165971497Y-26820996D01*
X166066735Y-26916234D01*
X166161973Y-26963853D01*
X168387688Y-42571662D02*
X167578164Y-42571662D01*
X167482926Y-42524043D01*
X167435307Y-42476424D01*
X167387688Y-42381186D01*
X167387688Y-42190710D01*
X167435307Y-42095472D01*
X167482926Y-42047853D01*
X167578164Y-42000234D01*
X168387688Y-42000234D01*
X168292449Y-41571662D02*
X168340069Y-41524043D01*
X168387688Y-41428805D01*
X168387688Y-41190710D01*
X168340069Y-41095472D01*
X168292449Y-41047853D01*
X168197211Y-41000234D01*
X168101973Y-41000234D01*
X167959116Y-41047853D01*
X167387688Y-41619281D01*
X167387688Y-41000234D01*
X151726735Y-28008424D02*
X151726735Y-28508424D01*
X151760069Y-28608424D01*
X151826735Y-28675091D01*
X151926735Y-28708424D01*
X151993402Y-28708424D01*
X151026735Y-28708424D02*
X151426735Y-28708424D01*
X151226735Y-28708424D02*
X151226735Y-28008424D01*
X151293402Y-28108424D01*
X151360069Y-28175091D01*
X151426735Y-28208424D01*
X150760069Y-28075091D02*
X150726735Y-28041758D01*
X150660069Y-28008424D01*
X150493402Y-28008424D01*
X150426735Y-28041758D01*
X150393402Y-28075091D01*
X150360069Y-28141758D01*
X150360069Y-28208424D01*
X150393402Y-28308424D01*
X150793402Y-28708424D01*
X150360069Y-28708424D01*
X146646735Y-28008424D02*
X146646735Y-28508424D01*
X146680069Y-28608424D01*
X146746735Y-28675091D01*
X146846735Y-28708424D01*
X146913402Y-28708424D01*
X145946735Y-28708424D02*
X146346735Y-28708424D01*
X146146735Y-28708424D02*
X146146735Y-28008424D01*
X146213402Y-28108424D01*
X146280069Y-28175091D01*
X146346735Y-28208424D01*
X145713402Y-28008424D02*
X145280069Y-28008424D01*
X145513402Y-28275091D01*
X145413402Y-28275091D01*
X145346735Y-28308424D01*
X145313402Y-28341758D01*
X145280069Y-28408424D01*
X145280069Y-28575091D01*
X145313402Y-28641758D01*
X145346735Y-28675091D01*
X145413402Y-28708424D01*
X145613402Y-28708424D01*
X145680069Y-28675091D01*
X145713402Y-28641758D01*
X149186735Y-28008424D02*
X149186735Y-28508424D01*
X149220069Y-28608424D01*
X149286735Y-28675091D01*
X149386735Y-28708424D01*
X149453402Y-28708424D01*
X148486735Y-28708424D02*
X148886735Y-28708424D01*
X148686735Y-28708424D02*
X148686735Y-28008424D01*
X148753402Y-28108424D01*
X148820069Y-28175091D01*
X148886735Y-28208424D01*
X147886735Y-28241758D02*
X147886735Y-28708424D01*
X148053402Y-27975091D02*
X148220069Y-28475091D01*
X147786735Y-28475091D01*
X144106735Y-28008424D02*
X144106735Y-28508424D01*
X144140069Y-28608424D01*
X144206735Y-28675091D01*
X144306735Y-28708424D01*
X144373402Y-28708424D01*
X143406735Y-28708424D02*
X143806735Y-28708424D01*
X143606735Y-28708424D02*
X143606735Y-28008424D01*
X143673402Y-28108424D01*
X143740069Y-28175091D01*
X143806735Y-28208424D01*
X142773402Y-28008424D02*
X143106735Y-28008424D01*
X143140069Y-28341758D01*
X143106735Y-28308424D01*
X143040069Y-28275091D01*
X142873402Y-28275091D01*
X142806735Y-28308424D01*
X142773402Y-28341758D01*
X142740069Y-28408424D01*
X142740069Y-28575091D01*
X142773402Y-28641758D01*
X142806735Y-28675091D01*
X142873402Y-28708424D01*
X143040069Y-28708424D01*
X143106735Y-28675091D01*
X143140069Y-28641758D01*
%LPC*%
D15*
X46432155Y-100466564D03*
X36272155Y-100466564D03*
D16*
X41352155Y-100466564D03*
D17*
X37542155Y-97926564D03*
X43892155Y-95386564D03*
D18*
X173426755Y-31238864D03*
X174226755Y-30038864D03*
X175026755Y-31238864D03*
X175826755Y-30038864D03*
X176626755Y-31238864D03*
D19*
X171376755Y-25818864D03*
X178676755Y-25818864D03*
D17*
X209195059Y-43221778D03*
X203511917Y-47026512D03*
D16*
X207766755Y-48718864D03*
D15*
X202797766Y-49775055D03*
X212735745Y-47662672D03*
D20*
X300211755Y-64463864D03*
X300211755Y-67763864D03*
X43881755Y-64463864D03*
X43881755Y-67763864D03*
X38196955Y-102563864D03*
X38196955Y-105863864D03*
G36*
X89655937Y-103370839D02*
G01*
X88382389Y-103100138D01*
X88590717Y-102120035D01*
X89864265Y-102390736D01*
X89655937Y-103370839D01*
G37*
G36*
X88969829Y-106598727D02*
G01*
X87696281Y-106328026D01*
X87904609Y-105347923D01*
X89178157Y-105618624D01*
X88969829Y-106598727D01*
G37*
G36*
X95012019Y-123984908D02*
G01*
X93738471Y-123714207D01*
X93946799Y-122734104D01*
X95220347Y-123004805D01*
X95012019Y-123984908D01*
G37*
G36*
X94325911Y-127212796D02*
G01*
X93052363Y-126942095D01*
X93260691Y-125961992D01*
X94534239Y-126232693D01*
X94325911Y-127212796D01*
G37*
X281161755Y-64463864D03*
X281161755Y-67763864D03*
G36*
X144859400Y-95629126D02*
G01*
X143585852Y-95358425D01*
X143794180Y-94378322D01*
X145067728Y-94649023D01*
X144859400Y-95629126D01*
G37*
G36*
X144173292Y-98857014D02*
G01*
X142899744Y-98586313D01*
X143108072Y-97606210D01*
X144381620Y-97876911D01*
X144173292Y-98857014D01*
G37*
X301510524Y-121613862D03*
X301510524Y-124913862D03*
X294851755Y-83513864D03*
X294851755Y-86813864D03*
G36*
X158855528Y-54977721D02*
G01*
X157581980Y-54707020D01*
X157790308Y-53726917D01*
X159063856Y-53997618D01*
X158855528Y-54977721D01*
G37*
G36*
X158169420Y-58205609D02*
G01*
X156895872Y-57934908D01*
X157104200Y-56954805D01*
X158377748Y-57225506D01*
X158169420Y-58205609D01*
G37*
G36*
X187264639Y-55759621D02*
G01*
X185991091Y-56030322D01*
X185782763Y-55050219D01*
X187056311Y-54779518D01*
X187264639Y-55759621D01*
G37*
G36*
X187950747Y-58987509D02*
G01*
X186677199Y-59258210D01*
X186468871Y-58278107D01*
X187742419Y-58007406D01*
X187950747Y-58987509D01*
G37*
G36*
X210214705Y-153094659D02*
G01*
X208941157Y-153365360D01*
X208732829Y-152385257D01*
X210006377Y-152114556D01*
X210214705Y-153094659D01*
G37*
G36*
X210900813Y-156322547D02*
G01*
X209627265Y-156593248D01*
X209418937Y-155613145D01*
X210692485Y-155342444D01*
X210900813Y-156322547D01*
G37*
X284841755Y-102563864D03*
X284841755Y-105863864D03*
G36*
X126923357Y-111292293D02*
G01*
X125649809Y-111021592D01*
X125858137Y-110041489D01*
X127131685Y-110312190D01*
X126923357Y-111292293D01*
G37*
G36*
X126237249Y-114520181D02*
G01*
X124963701Y-114249480D01*
X125172029Y-113269377D01*
X126445577Y-113540078D01*
X126237249Y-114520181D01*
G37*
G36*
X102235928Y-67093603D02*
G01*
X100962380Y-66822902D01*
X101170708Y-65842799D01*
X102444256Y-66113500D01*
X102235928Y-67093603D01*
G37*
G36*
X101549820Y-70321491D02*
G01*
X100276272Y-70050790D01*
X100484600Y-69070687D01*
X101758148Y-69341388D01*
X101549820Y-70321491D01*
G37*
X339016755Y-40618864D03*
X339016755Y-43918864D03*
G36*
X128318712Y-150540071D02*
G01*
X127045164Y-150269370D01*
X127253492Y-149289267D01*
X128527040Y-149559968D01*
X128318712Y-150540071D01*
G37*
G36*
X127632604Y-153767959D02*
G01*
X126359056Y-153497258D01*
X126567384Y-152517155D01*
X127840932Y-152787856D01*
X127632604Y-153767959D01*
G37*
G36*
X209280894Y-114341982D02*
G01*
X208007346Y-114612683D01*
X207799018Y-113632580D01*
X209072566Y-113361879D01*
X209280894Y-114341982D01*
G37*
G36*
X209967002Y-117569870D02*
G01*
X208693454Y-117840571D01*
X208485126Y-116860468D01*
X209758674Y-116589767D01*
X209967002Y-117569870D01*
G37*
G36*
X206077748Y-76012222D02*
G01*
X204804200Y-76282923D01*
X204595872Y-75302820D01*
X205869420Y-75032119D01*
X206077748Y-76012222D01*
G37*
G36*
X206763856Y-79240110D02*
G01*
X205490308Y-79510811D01*
X205281980Y-78530708D01*
X206555528Y-78260007D01*
X206763856Y-79240110D01*
G37*
G36*
X150913148Y-135867088D02*
G01*
X149639600Y-135596387D01*
X149847928Y-134616284D01*
X151121476Y-134886985D01*
X150913148Y-135867088D01*
G37*
G36*
X150227040Y-139094976D02*
G01*
X148953492Y-138824275D01*
X149161820Y-137844172D01*
X150435368Y-138114873D01*
X150227040Y-139094976D01*
G37*
G36*
X219295485Y-92737713D02*
G01*
X218021937Y-93008414D01*
X217813609Y-92028311D01*
X219087157Y-91757610D01*
X219295485Y-92737713D01*
G37*
G36*
X219981593Y-95965601D02*
G01*
X218708045Y-96236302D01*
X218499717Y-95256199D01*
X219773265Y-94985498D01*
X219981593Y-95965601D01*
G37*
X275801755Y-83513864D03*
X275801755Y-86813864D03*
G36*
X243285424Y-68162896D02*
G01*
X242011876Y-68433597D01*
X241803548Y-67453494D01*
X243077096Y-67182793D01*
X243285424Y-68162896D01*
G37*
G36*
X243971532Y-71390784D02*
G01*
X242697984Y-71661485D01*
X242489656Y-70681382D01*
X243763204Y-70410681D01*
X243971532Y-71390784D01*
G37*
G36*
X227914606Y-110381265D02*
G01*
X226641058Y-110651966D01*
X226432730Y-109671863D01*
X227706278Y-109401162D01*
X227914606Y-110381265D01*
G37*
G36*
X228600714Y-113609153D02*
G01*
X227327166Y-113879854D01*
X227118838Y-112899751D01*
X228392386Y-112629050D01*
X228600714Y-113609153D01*
G37*
X332466704Y-145426367D03*
X332466704Y-148726367D03*
G36*
X246548318Y-106420547D02*
G01*
X245274770Y-106691248D01*
X245066442Y-105711145D01*
X246339990Y-105440444D01*
X246548318Y-106420547D01*
G37*
G36*
X247234426Y-109648435D02*
G01*
X245960878Y-109919136D01*
X245752550Y-108939033D01*
X247026098Y-108668332D01*
X247234426Y-109648435D01*
G37*
X332466704Y-126376367D03*
X332466704Y-129676367D03*
G36*
X224651713Y-72123614D02*
G01*
X223378165Y-72394315D01*
X223169837Y-71414212D01*
X224443385Y-71143511D01*
X224651713Y-72123614D01*
G37*
G36*
X225337821Y-75351502D02*
G01*
X224064273Y-75622203D01*
X223855945Y-74642100D01*
X225129493Y-74371399D01*
X225337821Y-75351502D01*
G37*
X313416704Y-145426367D03*
X313416704Y-148726367D03*
X44481755Y-83513864D03*
X44481755Y-86813864D03*
X62931755Y-64463864D03*
X62931755Y-67763864D03*
X68291755Y-83513864D03*
X68291755Y-86813864D03*
X315798005Y-102563864D03*
X315798005Y-105863864D03*
X36251755Y-140663864D03*
X36251755Y-143963864D03*
X68991755Y-102563864D03*
X68991755Y-105863864D03*
X312966755Y-40493864D03*
X312966755Y-43793864D03*
X74341755Y-121613864D03*
X74341755Y-124913864D03*
G36*
X229227748Y-46912222D02*
G01*
X227954200Y-47182923D01*
X227745872Y-46202820D01*
X229019420Y-45932119D01*
X229227748Y-46912222D01*
G37*
G36*
X229913856Y-50140110D02*
G01*
X228640308Y-50410811D01*
X228431980Y-49430708D01*
X229705528Y-49160007D01*
X229913856Y-50140110D01*
G37*
G36*
X237929197Y-88776995D02*
G01*
X236655649Y-89047696D01*
X236447321Y-88067593D01*
X237720869Y-87796892D01*
X237929197Y-88776995D01*
G37*
G36*
X238615305Y-92004883D02*
G01*
X237341757Y-92275584D01*
X237133429Y-91295481D01*
X238406977Y-91024780D01*
X238615305Y-92004883D01*
G37*
X43385505Y-121613864D03*
X43385505Y-124913864D03*
G36*
X200661773Y-96698430D02*
G01*
X199388225Y-96969131D01*
X199179897Y-95989028D01*
X200453445Y-95718327D01*
X200661773Y-96698430D01*
G37*
G36*
X201347881Y-99926318D02*
G01*
X200074333Y-100197019D01*
X199866005Y-99216916D01*
X201139553Y-98946215D01*
X201347881Y-99926318D01*
G37*
X33716755Y-40668864D03*
X33716755Y-43968864D03*
G36*
X116979310Y-46332923D02*
G01*
X115705762Y-46062222D01*
X115914090Y-45082119D01*
X117187638Y-45352820D01*
X116979310Y-46332923D01*
G37*
G36*
X116293202Y-49560811D02*
G01*
X115019654Y-49290110D01*
X115227982Y-48310007D01*
X116501530Y-48580708D01*
X116293202Y-49560811D01*
G37*
G36*
X256562909Y-84816277D02*
G01*
X255289361Y-85086978D01*
X255081033Y-84106875D01*
X256354581Y-83836174D01*
X256562909Y-84816277D01*
G37*
G36*
X257249017Y-88044165D02*
G01*
X255975469Y-88314866D01*
X255767141Y-87334763D01*
X257040689Y-87064062D01*
X257249017Y-88044165D01*
G37*
G36*
X249811341Y-144678147D02*
G01*
X248537793Y-144948848D01*
X248329465Y-143968745D01*
X249603013Y-143698044D01*
X249811341Y-144678147D01*
G37*
G36*
X250497449Y-147906035D02*
G01*
X249223901Y-148176736D01*
X249015573Y-147196633D01*
X250289121Y-146925932D01*
X250497449Y-147906035D01*
G37*
G36*
X182028062Y-100659148D02*
G01*
X180754514Y-100929849D01*
X180546186Y-99949746D01*
X181819734Y-99679045D01*
X182028062Y-100659148D01*
G37*
G36*
X182714170Y-103887036D02*
G01*
X181440622Y-104157737D01*
X181232294Y-103177634D01*
X182505842Y-102906933D01*
X182714170Y-103887036D01*
G37*
G36*
X199266304Y-135946252D02*
G01*
X197992756Y-136216953D01*
X197784428Y-135236850D01*
X199057976Y-134966149D01*
X199266304Y-135946252D01*
G37*
G36*
X199952412Y-139174140D02*
G01*
X198678864Y-139444841D01*
X198470536Y-138464738D01*
X199744084Y-138194037D01*
X199952412Y-139174140D01*
G37*
X351516704Y-145426367D03*
X351516704Y-148726367D03*
X262111755Y-62963479D03*
X262111755Y-66263479D03*
G36*
X126225690Y-91668399D02*
G01*
X124952142Y-91397698D01*
X125160470Y-90417595D01*
X126434018Y-90688296D01*
X126225690Y-91668399D01*
G37*
G36*
X125539582Y-94896287D02*
G01*
X124266034Y-94625586D01*
X124474362Y-93645483D01*
X125747910Y-93916184D01*
X125539582Y-94896287D01*
G37*
G36*
X98492419Y-42130322D02*
G01*
X97218871Y-41859621D01*
X97427199Y-40879518D01*
X98700747Y-41150219D01*
X98492419Y-42130322D01*
G37*
G36*
X97806311Y-45358210D02*
G01*
X96532763Y-45087509D01*
X96741091Y-44107406D01*
X98014639Y-44378107D01*
X97806311Y-45358210D01*
G37*
G36*
X158137063Y-78975756D02*
G01*
X156863515Y-78705055D01*
X157071843Y-77724952D01*
X158345391Y-77995653D01*
X158137063Y-78975756D01*
G37*
G36*
X157450955Y-82203644D02*
G01*
X156177407Y-81932943D01*
X156385735Y-80952840D01*
X157659283Y-81223541D01*
X157450955Y-82203644D01*
G37*
G36*
X140288624Y-50523817D02*
G01*
X139015076Y-50253116D01*
X139223404Y-49273013D01*
X140496952Y-49543714D01*
X140288624Y-50523817D01*
G37*
G36*
X139602516Y-53751705D02*
G01*
X138328968Y-53481004D01*
X138537296Y-52500901D01*
X139810844Y-52771602D01*
X139602516Y-53751705D01*
G37*
G36*
X187384289Y-80045049D02*
G01*
X186110741Y-80315750D01*
X185902413Y-79335647D01*
X187175961Y-79064946D01*
X187384289Y-80045049D01*
G37*
G36*
X188070397Y-83272937D02*
G01*
X186796849Y-83543638D01*
X186588521Y-82563535D01*
X187862069Y-82292834D01*
X188070397Y-83272937D01*
G37*
G36*
X236533727Y-128024817D02*
G01*
X235260179Y-128295518D01*
X235051851Y-127315415D01*
X236325399Y-127044714D01*
X236533727Y-128024817D01*
G37*
G36*
X237219835Y-131252705D02*
G01*
X235946287Y-131523406D01*
X235737959Y-130543303D01*
X237011507Y-130272602D01*
X237219835Y-131252705D01*
G37*
X351516704Y-97801383D03*
X351516704Y-101101383D03*
G36*
X255167439Y-124064099D02*
G01*
X253893891Y-124334800D01*
X253685563Y-123354697D01*
X254959111Y-123083996D01*
X255167439Y-124064099D01*
G37*
G36*
X255853547Y-127291987D02*
G01*
X254579999Y-127562688D01*
X254371671Y-126582585D01*
X255645219Y-126311884D01*
X255853547Y-127291987D01*
G37*
G36*
X217900016Y-131985534D02*
G01*
X216626468Y-132256235D01*
X216418140Y-131276132D01*
X217691688Y-131005431D01*
X217900016Y-131985534D01*
G37*
G36*
X218586124Y-135213422D02*
G01*
X217312576Y-135484123D01*
X217104248Y-134504020D01*
X218377796Y-134233319D01*
X218586124Y-135213422D01*
G37*
X319261755Y-64463864D03*
X319261755Y-67763864D03*
X343074297Y-59701373D03*
X343074297Y-63001373D03*
G36*
X205727748Y-51712222D02*
G01*
X204454200Y-51982923D01*
X204245872Y-51002820D01*
X205519420Y-50732119D01*
X205727748Y-51712222D01*
G37*
G36*
X206413856Y-54940110D02*
G01*
X205140308Y-55210811D01*
X204931980Y-54230708D01*
X206205528Y-53960007D01*
X206413856Y-54940110D01*
G37*
X265791755Y-102563864D03*
X265791755Y-105863864D03*
X318671755Y-83513864D03*
X318671755Y-86813864D03*
G36*
X108289647Y-107331566D02*
G01*
X107016099Y-107060865D01*
X107224427Y-106080762D01*
X108497975Y-106351463D01*
X108289647Y-107331566D01*
G37*
G36*
X107603539Y-110559454D02*
G01*
X106329991Y-110288753D01*
X106538319Y-109308650D01*
X107811867Y-109579351D01*
X107603539Y-110559454D01*
G37*
G36*
X113645729Y-127945634D02*
G01*
X112372181Y-127674933D01*
X112580509Y-126694830D01*
X113854057Y-126965531D01*
X113645729Y-127945634D01*
G37*
G36*
X112959621Y-131173522D02*
G01*
X111686073Y-130902821D01*
X111894401Y-129922718D01*
X113167949Y-130193419D01*
X112959621Y-131173522D01*
G37*
G36*
X132279438Y-131906361D02*
G01*
X131005890Y-131635660D01*
X131214218Y-130655557D01*
X132487766Y-130926258D01*
X132279438Y-131906361D01*
G37*
G36*
X131593330Y-135134249D02*
G01*
X130319782Y-134863548D01*
X130528110Y-133883445D01*
X131801658Y-134154146D01*
X131593330Y-135134249D01*
G37*
G36*
X95709720Y-143608796D02*
G01*
X94436172Y-143338095D01*
X94644500Y-142357992D01*
X95918048Y-142628693D01*
X95709720Y-143608796D01*
G37*
G36*
X95023612Y-146836684D02*
G01*
X93750064Y-146565983D01*
X93958392Y-145585880D01*
X95231940Y-145856581D01*
X95023612Y-146836684D01*
G37*
X81981755Y-62963479D03*
X81981755Y-66263479D03*
G36*
X107591980Y-87707672D02*
G01*
X106318432Y-87436971D01*
X106526760Y-86456868D01*
X107800308Y-86727569D01*
X107591980Y-87707672D01*
G37*
G36*
X106905872Y-90935560D02*
G01*
X105632324Y-90664859D01*
X105840652Y-89684756D01*
X107114200Y-89955457D01*
X106905872Y-90935560D01*
G37*
X267316755Y-39693864D03*
X267316755Y-42993864D03*
G36*
X145557067Y-115253020D02*
G01*
X144283519Y-114982319D01*
X144491847Y-114002216D01*
X145765395Y-114272917D01*
X145557067Y-115253020D01*
G37*
G36*
X144870959Y-118480908D02*
G01*
X143597411Y-118210207D01*
X143805739Y-117230104D01*
X145079287Y-117500805D01*
X144870959Y-118480908D01*
G37*
G36*
X120869639Y-71054321D02*
G01*
X119596091Y-70783620D01*
X119804419Y-69803517D01*
X121077967Y-70074218D01*
X120869639Y-71054321D01*
G37*
G36*
X120183531Y-74282209D02*
G01*
X118909983Y-74011508D01*
X119118311Y-73031405D01*
X120391859Y-73302106D01*
X120183531Y-74282209D01*
G37*
G36*
X88958270Y-83746946D02*
G01*
X87684722Y-83476245D01*
X87893050Y-82496142D01*
X89166598Y-82766843D01*
X88958270Y-83746946D01*
G37*
G36*
X88272162Y-86974834D02*
G01*
X86998614Y-86704133D01*
X87206942Y-85724030D01*
X88480490Y-85994731D01*
X88272162Y-86974834D01*
G37*
G36*
X247827748Y-42912222D02*
G01*
X246554200Y-43182923D01*
X246345872Y-42202820D01*
X247619420Y-41932119D01*
X247827748Y-42912222D01*
G37*
G36*
X248513856Y-46140110D02*
G01*
X247240308Y-46410811D01*
X247031980Y-45430708D01*
X248305528Y-45160007D01*
X248513856Y-46140110D01*
G37*
X347246755Y-78751380D03*
X347246755Y-82051380D03*
X286266755Y-39743864D03*
X286266755Y-43043864D03*
X275316774Y-121613862D03*
X275316774Y-124913862D03*
G36*
X156269285Y-156481117D02*
G01*
X154995737Y-156210416D01*
X155204065Y-155230313D01*
X156477613Y-155501014D01*
X156269285Y-156481117D01*
G37*
G36*
X155583177Y-159709005D02*
G01*
X154309629Y-159438304D01*
X154517957Y-158458201D01*
X155791505Y-158728902D01*
X155583177Y-159709005D01*
G37*
G36*
X190647183Y-118302700D02*
G01*
X189373635Y-118573401D01*
X189165307Y-117593298D01*
X190438855Y-117322597D01*
X190647183Y-118302700D01*
G37*
G36*
X191333291Y-121530588D02*
G01*
X190059743Y-121801289D01*
X189851415Y-120821186D01*
X191124963Y-120550485D01*
X191333291Y-121530588D01*
G37*
X58116755Y-39593864D03*
X58116755Y-42893864D03*
X77416755Y-39693864D03*
X77416755Y-42993864D03*
G36*
X139503351Y-74930322D02*
G01*
X138229803Y-74659621D01*
X138438131Y-73679518D01*
X139711679Y-73950219D01*
X139503351Y-74930322D01*
G37*
G36*
X138817243Y-78158210D02*
G01*
X137543695Y-77887509D01*
X137752023Y-76907406D01*
X139025571Y-77178107D01*
X138817243Y-78158210D01*
G37*
D15*
X207635745Y-92612672D03*
X197697766Y-94725055D03*
D16*
X202666755Y-93668864D03*
D17*
X198411917Y-91976512D03*
X204095059Y-88171778D03*
D15*
X216285745Y-110212672D03*
X206347766Y-112325055D03*
D16*
X211316755Y-111268864D03*
D17*
X207061917Y-109576512D03*
X212745059Y-105771778D03*
D15*
X224885745Y-127862672D03*
X214947766Y-129975055D03*
D16*
X219916755Y-128918864D03*
D17*
X215661917Y-127226512D03*
X221345059Y-123421778D03*
D15*
X128935745Y-70125056D03*
X118997765Y-68012673D03*
D16*
X123966755Y-69068864D03*
D17*
X120768108Y-65792226D03*
X127507441Y-64627970D03*
D15*
X197635745Y-114162672D03*
X187697766Y-116275055D03*
D16*
X192666755Y-115218864D03*
D17*
X188411917Y-113526512D03*
X194095059Y-109721778D03*
D15*
X115668325Y-86803602D03*
X105730345Y-84691219D03*
D16*
X110699335Y-85747410D03*
D17*
X107500688Y-82470772D03*
X114240021Y-81306516D03*
D15*
X194385745Y-75912672D03*
X184447766Y-78025055D03*
D16*
X189416755Y-76968864D03*
D17*
X185161917Y-75276512D03*
X190845059Y-71471778D03*
D15*
X340796755Y-124318864D03*
X330636755Y-124318864D03*
D16*
X335716755Y-124318864D03*
D17*
X331906755Y-121778864D03*
X338256755Y-119238864D03*
D15*
X226235745Y-88662672D03*
X216297766Y-90775055D03*
D16*
X221266755Y-89718864D03*
D17*
X217011917Y-88026512D03*
X222695059Y-84221778D03*
D15*
X289491806Y-62406361D03*
X279331806Y-62406361D03*
D16*
X284411806Y-62406361D03*
D17*
X280601806Y-59866361D03*
X286951806Y-57326361D03*
D15*
X340796755Y-143368864D03*
X330636755Y-143368864D03*
D16*
X335716755Y-143368864D03*
D17*
X331906755Y-140828864D03*
X338256755Y-138288864D03*
D15*
X327591806Y-62406361D03*
X317431806Y-62406361D03*
D16*
X322511806Y-62406361D03*
D17*
X318701806Y-59866361D03*
X325051806Y-57326361D03*
D15*
X308541806Y-62406361D03*
X298381806Y-62406361D03*
D16*
X303461806Y-62406361D03*
D17*
X299651806Y-59866361D03*
X306001806Y-57326361D03*
D15*
X253535745Y-102312672D03*
X243597766Y-104425055D03*
D16*
X248566755Y-103368864D03*
D17*
X244311917Y-101676512D03*
X249995059Y-97871778D03*
D15*
X284131806Y-81456361D03*
X273971806Y-81456361D03*
D16*
X279051806Y-81456361D03*
D17*
X275241806Y-78916361D03*
X281591806Y-76376361D03*
D15*
X274121806Y-100506361D03*
X263961806Y-100506361D03*
D16*
X269041806Y-100506361D03*
D17*
X265231806Y-97966361D03*
X271581806Y-95426361D03*
D15*
X262107441Y-119959758D03*
X252169462Y-122072141D03*
D16*
X257138451Y-121015950D03*
D17*
X252883613Y-119323598D03*
X258566755Y-115518864D03*
D15*
X303181806Y-81456361D03*
X293021806Y-81456361D03*
D16*
X298101806Y-81456361D03*
D17*
X294291806Y-78916361D03*
X300641806Y-76376361D03*
D15*
X321746755Y-143368864D03*
X311586755Y-143368864D03*
D16*
X316666755Y-143368864D03*
D17*
X312856755Y-140828864D03*
X319206755Y-138288864D03*
D15*
X263535745Y-80712672D03*
X253597766Y-82825055D03*
D16*
X258566755Y-81768864D03*
D17*
X254311917Y-80076512D03*
X259995059Y-76271778D03*
D15*
X351404348Y-57643870D03*
X341244348Y-57643870D03*
D16*
X346324348Y-57643870D03*
D17*
X342514348Y-55103870D03*
X348864348Y-52563870D03*
D15*
X355576806Y-76693877D03*
X345416806Y-76693877D03*
D16*
X350496806Y-76693877D03*
D17*
X346686806Y-74153877D03*
X353036806Y-71613877D03*
D15*
X231635745Y-68012672D03*
X221697766Y-70125055D03*
D16*
X226666755Y-69068864D03*
D17*
X222411917Y-67376512D03*
X228095059Y-63571778D03*
D15*
X293171806Y-100506361D03*
X283011806Y-100506361D03*
D16*
X288091806Y-100506361D03*
D17*
X284281806Y-97966361D03*
X290631806Y-95426361D03*
D15*
X76646755Y-81418864D03*
X66486755Y-81418864D03*
D16*
X71566755Y-81418864D03*
D17*
X67756755Y-78878864D03*
X74106755Y-76338864D03*
D15*
X52246755Y-62368864D03*
X42086755Y-62368864D03*
D16*
X47166755Y-62368864D03*
D17*
X43356755Y-59828864D03*
X49706755Y-57288864D03*
D15*
X90346755Y-60868864D03*
X80186755Y-60868864D03*
D16*
X85266755Y-60868864D03*
D17*
X81456755Y-58328864D03*
X87806755Y-55788864D03*
D15*
X71296755Y-62368864D03*
X61136755Y-62368864D03*
D16*
X66216755Y-62368864D03*
D17*
X62406755Y-59828864D03*
X68756755Y-57288864D03*
D15*
X77356755Y-100498864D03*
X67196755Y-100498864D03*
D16*
X72276755Y-100498864D03*
D17*
X68466755Y-97958864D03*
X74816755Y-95418864D03*
D15*
X82671806Y-119556361D03*
X72511806Y-119556361D03*
D16*
X77591806Y-119556361D03*
D17*
X73781806Y-117016361D03*
X80131806Y-114476361D03*
D15*
X121685745Y-127025056D03*
X111747765Y-124912673D03*
D16*
X116716755Y-125968864D03*
D17*
X113518108Y-122692226D03*
X120257441Y-121527970D03*
D15*
X158985745Y-134925056D03*
X149047765Y-132812673D03*
D16*
X154016755Y-133868864D03*
D17*
X150818108Y-130592226D03*
X157557441Y-129427970D03*
D15*
X189035745Y-96512672D03*
X179097766Y-98625055D03*
D16*
X184066755Y-97568864D03*
D17*
X179811917Y-95876512D03*
X185495059Y-92071778D03*
D15*
X166235745Y-78025056D03*
X156297765Y-75912673D03*
D16*
X161266755Y-76968864D03*
D17*
X158068108Y-73692226D03*
X164807441Y-72527970D03*
D15*
X213035745Y-71962672D03*
X203097766Y-74075055D03*
D16*
X208066755Y-73018864D03*
D17*
X203811917Y-71326512D03*
X209495059Y-67521778D03*
D15*
X97732282Y-102466769D03*
X87794302Y-100354386D03*
D16*
X92763292Y-101410577D03*
D17*
X89564645Y-98133939D03*
X96303978Y-96969683D03*
D15*
X140335745Y-130975056D03*
X130397765Y-128862673D03*
D16*
X135366755Y-129918864D03*
D17*
X132168108Y-126642226D03*
X138907441Y-125477970D03*
D15*
X153633412Y-114348950D03*
X143695432Y-112236567D03*
D16*
X148664422Y-113292758D03*
D17*
X145465775Y-110016120D03*
X152205108Y-108851864D03*
D15*
X152935745Y-94725056D03*
X142997765Y-92612673D03*
D16*
X147966755Y-93668864D03*
D17*
X144768108Y-90392226D03*
X151507441Y-89227970D03*
D15*
X164335745Y-155525056D03*
X154397765Y-153412673D03*
D16*
X159366755Y-154468864D03*
D17*
X156168108Y-151192226D03*
X162907441Y-150027970D03*
D15*
X97034615Y-82842876D03*
X87096635Y-80730493D03*
D16*
X92065625Y-81786684D03*
D17*
X88866978Y-78510046D03*
X95606311Y-77345790D03*
D15*
X147585745Y-74075056D03*
X137647765Y-71962673D03*
D16*
X142616755Y-73018864D03*
D17*
X139418108Y-69742226D03*
X146157441Y-68577970D03*
D15*
X103085745Y-123075056D03*
X93147765Y-120962673D03*
D16*
X98116755Y-122018864D03*
D17*
X94918108Y-118742226D03*
X101657441Y-117577970D03*
D15*
X206235745Y-131812672D03*
X196297766Y-133925055D03*
D16*
X201266755Y-132868864D03*
D17*
X197011917Y-131176512D03*
X202695059Y-127371778D03*
D15*
X116365992Y-106427496D03*
X106428012Y-104315113D03*
D16*
X111397002Y-105371304D03*
D17*
X108198355Y-102094666D03*
X114937688Y-100930410D03*
D15*
X134302035Y-90764329D03*
X124364055Y-88651946D03*
D16*
X129333045Y-89708137D03*
D17*
X126134398Y-86431499D03*
X132873731Y-85267243D03*
D15*
X110335745Y-66175056D03*
X100397765Y-64062673D03*
D16*
X105366755Y-65118864D03*
D17*
X102168108Y-61842226D03*
X108907441Y-60677970D03*
D15*
X134999702Y-110388223D03*
X125061722Y-108275840D03*
D16*
X130030712Y-109332031D03*
D17*
X126832065Y-106055393D03*
X133571398Y-104891137D03*
D15*
X234885745Y-106262672D03*
X224947766Y-108375055D03*
D16*
X229916755Y-107318864D03*
D17*
X225661917Y-105626512D03*
X231345059Y-101821778D03*
D15*
X250285745Y-64062672D03*
X240347766Y-66175055D03*
D16*
X245316755Y-65118864D03*
D17*
X241061917Y-63426512D03*
X246745059Y-59621778D03*
D15*
X359846755Y-143368864D03*
X349686755Y-143368864D03*
D16*
X354766755Y-143368864D03*
D17*
X350956755Y-140828864D03*
X357306755Y-138288864D03*
D15*
X243535745Y-123912672D03*
X233597766Y-126025055D03*
D16*
X238566755Y-124968864D03*
D17*
X234311917Y-123276512D03*
X239995059Y-119471778D03*
D15*
X283646825Y-119556359D03*
X273486825Y-119556359D03*
D16*
X278566825Y-119556359D03*
D17*
X274756825Y-117016359D03*
X281106825Y-114476359D03*
D15*
X359846755Y-95743880D03*
X349686755Y-95743880D03*
D16*
X354766755Y-95743880D03*
D17*
X350956755Y-93203880D03*
X357306755Y-90663880D03*
D15*
X244885745Y-84662672D03*
X234947766Y-86775055D03*
D16*
X239916755Y-85718864D03*
D17*
X235661917Y-84026512D03*
X241345059Y-80221778D03*
D15*
X270441806Y-60905976D03*
X260281806Y-60905976D03*
D16*
X265361806Y-60905976D03*
D17*
X261551806Y-58365976D03*
X267901806Y-55825976D03*
D15*
X44546755Y-138668864D03*
X34386755Y-138668864D03*
D16*
X39466755Y-138668864D03*
D17*
X35656755Y-136128864D03*
X42006755Y-133588864D03*
D15*
X52796755Y-81418864D03*
X42636755Y-81418864D03*
D16*
X47716755Y-81418864D03*
D17*
X43906755Y-78878864D03*
X50256755Y-76338864D03*
D15*
X256785745Y-140512672D03*
X246847766Y-142625055D03*
D16*
X251816755Y-141568864D03*
D17*
X247561917Y-139876512D03*
X253245059Y-136071778D03*
D15*
X103785745Y-142675056D03*
X93847765Y-140562673D03*
D16*
X98816755Y-141618864D03*
D17*
X95618108Y-138342226D03*
X102357441Y-137177970D03*
D15*
X327046755Y-81468864D03*
X316886755Y-81468864D03*
D16*
X321966755Y-81468864D03*
D17*
X318156755Y-78928864D03*
X324506755Y-76388864D03*
D15*
X66246755Y-37068864D03*
X56086755Y-37068864D03*
D16*
X61166755Y-37068864D03*
D17*
X57356755Y-34528864D03*
X63706755Y-31988864D03*
X39706755Y-33488864D03*
X33356755Y-36028864D03*
D16*
X37166755Y-38568864D03*
D15*
X32086755Y-38568864D03*
X42246755Y-38568864D03*
D17*
X82756755Y-31988864D03*
X76406755Y-34528864D03*
D16*
X80216755Y-37068864D03*
D15*
X75136755Y-37068864D03*
X85296755Y-37068864D03*
D17*
X165057441Y-48277970D03*
X158318108Y-49442226D03*
D16*
X161516755Y-52718864D03*
D15*
X156547765Y-51662673D03*
X166485745Y-53775056D03*
D17*
X146407441Y-44327970D03*
X139668108Y-45492226D03*
D16*
X142866755Y-48768864D03*
D15*
X137897765Y-47712673D03*
X147835745Y-49825056D03*
D17*
X232495059Y-38271778D03*
X226811917Y-42076512D03*
D16*
X231066755Y-43768864D03*
D15*
X226097766Y-44825055D03*
X236035745Y-42712672D03*
D17*
X318656755Y-33488864D03*
X312306755Y-36028864D03*
D16*
X316116755Y-38568864D03*
D15*
X311036755Y-38568864D03*
X321196755Y-38568864D03*
D17*
X272956755Y-31988864D03*
X266606755Y-34528864D03*
D16*
X270416755Y-37068864D03*
D15*
X265336755Y-37068864D03*
X275496755Y-37068864D03*
D17*
X190545059Y-47221778D03*
X184861917Y-51026512D03*
D16*
X189116755Y-52718864D03*
D15*
X184147766Y-53775055D03*
X194085745Y-51662672D03*
D17*
X104557441Y-35427970D03*
X97818108Y-36592226D03*
D16*
X101016755Y-39868864D03*
D15*
X96047765Y-38812673D03*
X105985745Y-40925056D03*
D17*
X251095059Y-34321778D03*
X245411917Y-38126512D03*
D16*
X249666755Y-39818864D03*
D15*
X244697766Y-40875055D03*
X254635745Y-38762672D03*
D17*
X123157441Y-39377970D03*
X116418108Y-40542226D03*
D16*
X119616755Y-43818864D03*
D15*
X114647765Y-42762673D03*
X124585745Y-44875056D03*
D17*
X344656755Y-33488864D03*
X338306755Y-36028864D03*
D16*
X342116755Y-38568864D03*
D15*
X337036755Y-38568864D03*
X347196755Y-38568864D03*
D17*
X292006755Y-31988864D03*
X285656755Y-34528864D03*
D16*
X289466755Y-37068864D03*
D15*
X284386755Y-37068864D03*
X294546755Y-37068864D03*
D21*
X240827021Y-144227584D03*
X345216704Y-133776367D03*
D22*
X184942069Y-39289758D03*
X184942069Y-41789758D03*
X187228069Y-40646758D03*
X187228069Y-38146758D03*
X182910069Y-31121758D03*
X182910069Y-28621758D03*
X180878069Y-31121758D03*
X180878069Y-28621758D03*
D23*
X166908069Y-35967758D03*
X164408069Y-35967758D03*
X166908069Y-37999758D03*
X164408069Y-37999758D03*
X179374069Y-49937758D03*
X181874069Y-49937758D03*
X163636755Y-45462864D03*
X166136755Y-45462864D03*
X186974069Y-35713758D03*
X189474069Y-35713758D03*
D24*
X220326069Y-26059758D03*
X217962069Y-26061758D03*
X215422069Y-26061758D03*
X212882069Y-26061758D03*
X210342069Y-26061758D03*
X207802069Y-26061758D03*
X138460069Y-26061758D03*
X135920069Y-26061758D03*
X141016755Y-26061758D03*
D25*
X161908069Y-31141758D03*
X159208069Y-31141758D03*
X159208069Y-29109758D03*
X161908069Y-29109758D03*
D26*
X194086069Y-27251758D03*
X194086069Y-29951758D03*
X169448069Y-50031758D03*
X169448069Y-52731758D03*
D15*
X51196755Y-100468864D03*
X41036755Y-100468864D03*
D16*
X46116755Y-100468864D03*
D17*
X42306755Y-97928864D03*
X48656755Y-95388864D03*
D27*
X58516755Y-112568864D03*
X34716755Y-112568864D03*
D16*
X34716755Y-127808864D03*
X58516755Y-127808864D03*
D15*
X51696755Y-119568864D03*
X41536755Y-119568864D03*
D16*
X46616755Y-119568864D03*
D17*
X42806755Y-117028864D03*
X49156755Y-114488864D03*
D27*
X141564119Y-157826988D03*
X118284206Y-152878690D03*
D16*
X121452780Y-137971720D03*
X144732693Y-142920018D03*
D15*
X136348534Y-149561997D03*
X126410554Y-147449614D03*
D16*
X131379544Y-148505806D03*
D17*
X128180897Y-145229167D03*
X134920230Y-144064911D03*
D27*
X225281359Y-154363286D03*
X202001446Y-159311584D03*
D16*
X198832872Y-144404615D03*
X222112785Y-139456317D03*
D15*
X217155010Y-148934211D03*
X207217031Y-151046593D03*
D16*
X212186021Y-149990402D03*
D17*
X207931183Y-148298051D03*
X213614324Y-144493317D03*
D15*
X309815524Y-119488862D03*
X299655524Y-119488862D03*
D16*
X304735524Y-119488862D03*
D17*
X300925524Y-116948862D03*
X307275524Y-114408862D03*
D27*
X330966755Y-107518864D03*
X307166755Y-107518864D03*
D16*
X307166755Y-92278864D03*
X330966755Y-92278864D03*
D15*
X324146755Y-100518864D03*
X313986755Y-100518864D03*
D16*
X319066755Y-100518864D03*
D17*
X315256755Y-97978864D03*
X321606755Y-95438864D03*
D28*
X204094069Y-26701758D03*
X197794069Y-26701758D03*
X204094069Y-30501758D03*
X197794069Y-30501758D03*
G36*
X195204800Y-40674296D02*
G01*
X194253800Y-42321476D01*
X192346812Y-41220476D01*
X193297812Y-39573296D01*
X195204800Y-40674296D01*
G37*
G36*
X192693326Y-39224296D02*
G01*
X191742326Y-40871476D01*
X189835338Y-39770476D01*
X190786338Y-38123296D01*
X192693326Y-39224296D01*
G37*
G36*
X193793326Y-37319040D02*
G01*
X192842326Y-38966220D01*
X190935338Y-37865220D01*
X191886338Y-36218040D01*
X193793326Y-37319040D01*
G37*
G36*
X196304800Y-38769040D02*
G01*
X195353800Y-40416220D01*
X193446812Y-39315220D01*
X194397812Y-37668040D01*
X196304800Y-38769040D01*
G37*
D29*
X167750069Y-30125758D03*
X167750069Y-31075758D03*
X167750069Y-29175758D03*
X165050069Y-29175758D03*
X165050069Y-30125758D03*
X165050069Y-31075758D03*
D30*
X171290069Y-36109758D03*
X172090069Y-36109758D03*
X172890069Y-36109758D03*
X173690069Y-36109758D03*
X174490069Y-36109758D03*
X175290069Y-36109758D03*
X176090069Y-36109758D03*
X176890069Y-36109758D03*
X177690069Y-36109758D03*
X178490069Y-36109758D03*
X179290069Y-36109758D03*
D31*
X180990069Y-37809758D03*
X180990069Y-38609758D03*
X180990069Y-39409758D03*
X180990069Y-40209758D03*
X180990069Y-41009758D03*
X180990069Y-41809758D03*
X180990069Y-42609758D03*
X180990069Y-43409758D03*
X180990069Y-44209758D03*
X180990069Y-45009758D03*
X180990069Y-45809758D03*
D30*
X179290069Y-47509758D03*
X178490069Y-47509758D03*
X177690069Y-47509758D03*
X176890069Y-47509758D03*
X176090069Y-47509758D03*
X175290069Y-47509758D03*
X174490069Y-47509758D03*
X173690069Y-47509758D03*
X172890069Y-47509758D03*
X172090069Y-47509758D03*
X171290069Y-47509758D03*
D31*
X169590069Y-45809758D03*
X169590069Y-45009758D03*
X169590069Y-44209758D03*
X169590069Y-43409758D03*
X169590069Y-42609758D03*
X169590069Y-41809758D03*
X169590069Y-41009758D03*
X169590069Y-40209758D03*
X169590069Y-39409758D03*
X169590069Y-38609758D03*
X169590069Y-37809758D03*
D24*
X151160069Y-26061758D03*
X146080069Y-26061758D03*
X148620069Y-26061758D03*
X143540069Y-26061758D03*
D21*
X56631755Y-71863864D03*
X50964255Y-138538864D03*
X120416755Y-29968864D03*
X109726191Y-144228232D03*
X228366755Y-29968864D03*
X340946755Y-67101380D03*
M02*
