M48
; DRILL file {KiCad (5.99.0-670-ga8d9fcb4e)} date 2020-04-16 07:58:49
; FORMAT={-:-/ absolute / inch / decimal}
; #@! TF.CreationDate,2020-04-16T07:58:49+02:00
; #@! TF.GenerationSoftware,Kicad,Pcbnew,(5.99.0-670-ga8d9fcb4e)
FMAT,2
INCH
T1C0.0157
T2C0.0276
T3C0.0315
T4C0.0394
T5C0.0591
T6C0.0866
T7C0.0669
T8C0.1201
T9C0.1575
%
G90
G05
T1
X5.9507Y-0.6853
X5.9511Y-0.7779
X5.9512Y-0.7358
X6.0805Y-0.5248
X6.0971Y-0.0949
X6.4204Y-0.4849
X6.4204Y-0.5649
X6.4504Y-0.2549
X6.54Y-2.3395
X6.5821Y-0.6181
X6.61Y-0.42
X6.67Y-0.35
X6.685Y-0.255
X6.6941Y-0.5011
X6.7Y-1.4
X6.7234Y-0.1616
X6.75Y-1.11
X6.825Y-0.63
X6.8307Y-3.0118
X6.88Y-0.55
X6.9Y-0.85
X7.033Y-2.34
X7.075Y-1.4
X7.1457Y-3.0906
X7.1604Y-0.4249
X7.2081Y-0.4271
X7.2104Y-0.1349
X7.2596Y-0.4256
X7.2933Y-3.7402
X7.3104Y-0.4749
X7.3106Y-0.4246
X7.3396Y-0.3456
X7.4803Y-3.7795
X7.5518Y-0.2438
X7.6504Y-0.3201
X7.715Y-0.91
X7.74Y-0.88
X7.765Y-0.85
X7.79Y-0.82
X7.7904Y-0.1749
X7.815Y-0.79
X7.8248Y-2.1787
X8.0Y-0.425
X8.35Y-0.325
X8.3563Y-2.8343
X8.75Y-4.9799
X8.7795Y-3.529
X8.9075Y-4.2236
T2
X6.837Y-0.3
X6.8685Y-0.2528
X6.9Y-0.3
X6.9315Y-0.2528
X6.963Y-0.3
T4
X8.6834Y-0.0961
X5.9604Y-0.0962
X5.4604Y-0.0962
X8.5904Y-0.0962
X8.4904Y-0.0962
X5.7604Y-0.0962
X8.1904Y-0.0962
X5.561Y-0.0962
X5.6604Y-0.0962
X8.2904Y-0.0962
X8.3904Y-0.0962
X5.3604Y-0.0962
X5.8604Y-0.0962
T5
X5.2127Y-4.056
X11.5955Y-2.1771
X11.8455Y-2.0771
X4.4784Y-3.9005
X4.269Y-3.0896
X4.5343Y-3.0438
X4.7437Y-3.8547
X11.0565Y-1.4271
X11.3065Y-1.3271
X5.9469Y-4.2115
X6.2122Y-4.1657
X5.0026Y-3.2455
X5.478Y-4.0102
X8.553Y-2.5357
X8.7767Y-2.3859
X5.7087Y-2.6289
X5.974Y-2.583
X10.3065Y-1.368
X10.5565Y-1.268
X10.8264Y-3.6771
X11.0764Y-3.5771
X3.5079Y-2.1611
X13.494Y-1.2396
X13.744Y-1.1396
X12.535Y-2.1776
X12.785Y-2.0776
X4.9751Y-2.4729
X5.2404Y-2.4271
X2.2673Y-0.4295
X2.5173Y-0.3295
X4.7638Y-1.6604
X5.0292Y-1.6145
X8.9388Y-0.7267
X9.1625Y-0.5769
X7.7656Y-4.2346
X7.9893Y-4.0848
X5.2679Y-3.1997
X8.1612Y-3.3842
X8.385Y-3.2344
X3.7737Y-4.5167
X4.039Y-4.4708
X12.3047Y-0.4886
X12.5547Y-0.3886
X9.7557Y-4.5771
X3.8603Y-0.5108
X4.1256Y-0.4649
X12.3264Y-4.6146
X12.5764Y-4.5146
X10.4514Y-2.9271
X10.7014Y-2.8271
X5.7362Y-3.4015
X3.7732Y-2.1152
X3.2161Y-1.3665
X3.4661Y-1.2665
X2.7047Y-2.9268
X2.9547Y-2.8268
X13.8264Y-4.6146
X14.0764Y-4.5146
X1.413Y-4.4295
X8.4998Y-4.079
X6.2323Y-1.9714
X6.4977Y-1.9256
X8.7236Y-3.9292
X9.9795Y-4.4273
X1.663Y-4.3295
X1.7378Y-2.1756
X7.8207Y-2.6912
X8.0444Y-2.5415
X11.8065Y-1.4271
X6.0015Y-3.3556
X12.0565Y-1.3271
X1.7372Y-2.8255
X4.0315Y-1.5049
X4.2969Y-1.459
X8.7656Y-1.7227
X8.9893Y-1.5729
X4.5926Y-0.6663
X3.5353Y-2.9337
X1.9878Y-2.0756
X10.5055Y-0.4295
X10.7555Y-0.3295
X1.4872Y-2.9255
X6.2422Y-1.0167
X6.5075Y-0.9708
X4.8579Y-0.6204
X5.5079Y-0.8612
X5.7733Y-0.8153
X7.427Y-3.5397
X7.6507Y-3.3899
X2.6768Y-2.1756
X2.9268Y-2.0756
X11.2014Y-2.9271
X11.4514Y-2.8271
X9.2872Y-2.3783
X9.511Y-2.2285
X13.8264Y-2.7396
X14.0764Y-2.6396
X8.8935Y-3.2286
X9.6278Y-3.0731
X9.8515Y-2.9233
X3.8007Y-2.8878
X3.7461Y-3.745
X4.0114Y-3.6992
X7.0884Y-2.8448
X7.3121Y-2.695
X1.6748Y-2.9256
X1.9248Y-2.8256
X7.299Y-2.0338
X7.5228Y-1.884
X2.7161Y-1.3256
X5.7634Y-1.77
X11.5055Y-0.3295
X9.1173Y-3.0789
X2.4661Y-1.4256
X9.2341Y-3.9235
X9.4578Y-3.7737
X5.4981Y-1.8159
X3.164Y-3.5771
X8.0215Y-0.9216
X8.2452Y-0.7718
X11.2555Y-0.4295
X13.0764Y-3.8646
X13.3264Y-3.7646
X11.8566Y-3.6744
X12.1066Y-3.5744
X12.4209Y-2.9276
X12.6709Y-2.8276
X9.9652Y-3.7679
X10.189Y-3.6181
X1.7161Y-1.4256
X1.9661Y-1.3256
X1.3224Y-0.4886
X1.5724Y-0.3886
X10.0215Y-2.2227
X10.2452Y-2.0729
X7.2872Y-1.079
X7.511Y-0.9292
X1.6945Y-3.6776
X1.9445Y-3.5776
X6.1575Y-5.0226
X6.4229Y-4.9767
X9.4998Y-1.5672
X9.7236Y-1.4174
X2.914Y-3.6771
X10.8455Y-2.1771
X11.0955Y-2.0771
X8.0333Y-1.8783
X12.8065Y-1.3271
X5.0557Y-4.7878
X12.5565Y-1.4271
X13.9083Y-1.8896
X5.321Y-4.742
X8.1954Y-4.9086
X8.4192Y-4.7588
X4.2415Y-2.317
X13.0764Y-4.6146
X13.3264Y-4.5146
X13.6583Y-1.9896
X8.257Y-1.7285
X3.0173Y-0.4295
X3.2673Y-0.3295
X13.3283Y-0.4886
X13.5783Y-0.3886
X9.6711Y-0.5712
X9.8948Y-0.4214
X4.5068Y-2.2712
T6
X4.3291Y-4.7484
X13.6004Y-4.3369
X9.0Y-0.25
X2.0156Y-4.5244
X13.4323Y-1.7119
X2.2388Y-1.8994
X4.75Y-0.25
X9.4906Y-4.7484
T7
X3.7906Y-0.5982
X4.1818Y-0.6813
X13.7764Y-4.7146
X14.1764Y-4.7146
X2.6173Y-0.5295
X3.9619Y-1.5923
X2.2173Y-0.5295
X4.6941Y-1.7478
X5.0854Y-1.831
X2.0661Y-1.5256
X8.8654Y-3.3369
X9.2567Y-3.2537
X1.2724Y-0.5886
X1.6724Y-0.5886
X2.4161Y-1.5256
X2.8161Y-1.5256
X9.2059Y-4.0317
X9.5972Y-3.9486
X5.4284Y-1.9033
X5.8196Y-1.9865
X6.0878Y-5.11
X6.4791Y-5.1932
X4.986Y-4.8752
X12.2764Y-4.7146
X12.6764Y-4.7146
X5.6665Y-3.4889
X6.0577Y-3.5721
X4.3531Y-1.6754
X3.6764Y-3.8324
X11.8066Y-3.7744
X12.2066Y-3.7744
X3.8569Y-3.1042
X10.3284Y-3.7929
X1.6661Y-1.5256
X10.3846Y-2.2478
X5.3772Y-4.9584
X8.1673Y-5.0168
X8.5586Y-4.9337
X9.5996Y-3.1813
X12.3709Y-3.0276
X12.7709Y-3.0276
X9.9371Y-3.8761
X10.7955Y-2.2771
X11.1955Y-2.2771
X8.0052Y-1.9865
X12.5065Y-1.5271
X3.4657Y-3.0211
X9.9933Y-2.331
X4.0677Y-3.9156
X7.0603Y-2.953
X7.4515Y-2.8698
X7.2591Y-1.1873
X7.6504Y-1.1041
X1.6445Y-3.7776
X2.0445Y-3.7776
X9.4717Y-1.6754
X9.863Y-1.5923
X7.2709Y-2.142
X7.6622Y-2.0588
X13.7764Y-2.8396
X14.1764Y-2.8396
X8.1331Y-3.4924
X8.5244Y-3.4092
X2.864Y-3.7771
X3.264Y-3.7771
X9.9909Y-3.0982
X12.9065Y-1.5271
X13.6083Y-2.0896
X14.0083Y-2.0896
X8.9107Y-0.8349
X9.3019Y-0.7517
X8.9161Y-2.5608
X6.0303Y-2.7995
X11.5455Y-2.2771
X11.9455Y-2.2771
X4.4087Y-3.9879
X10.2565Y-1.468
X10.6565Y-1.468
X10.7764Y-3.7771
X11.1764Y-3.7771
X7.7374Y-4.3428
X8.1287Y-4.2596
X11.0065Y-1.5271
X11.4065Y-1.5271
X5.8772Y-4.299
X6.2685Y-4.3821
X8.3964Y-1.9033
X2.9673Y-0.5295
X3.3673Y-0.5295
X13.2783Y-0.5886
X4.9329Y-3.333
X5.3241Y-3.4161
X13.6783Y-0.5886
X4.8Y-4.0711
X9.643Y-0.6794
X10.0342Y-0.5962
X3.5661Y-1.4665
X7.9933Y-1.0298
X13.0264Y-3.9646
X8.4717Y-4.1873
X11.7565Y-1.5271
X8.863Y-4.1041
X10.8014Y-3.0271
X4.1718Y-2.4044
X4.5631Y-2.4876
X3.1661Y-1.4665
X10.4014Y-3.0271
X6.1725Y-1.1041
X6.5637Y-1.1873
X5.143Y-4.1435
X5.5342Y-4.2266
X3.704Y-4.6041
X4.0952Y-4.6873
X12.2547Y-0.5886
X12.6547Y-0.5886
X13.444Y-1.3396
X4.9054Y-2.5604
X5.2967Y-2.6435
X1.8372Y-3.0255
X13.4264Y-3.9646
X8.3846Y-0.9466
X8.7374Y-1.831
X13.0264Y-4.7146
X13.4264Y-4.7146
X7.7926Y-2.7995
X8.1838Y-2.7163
X4.1993Y-3.177
X4.5905Y-3.2602
X12.1565Y-1.5271
X9.1287Y-1.7478
X7.3989Y-3.6479
X7.7901Y-3.5647
X3.4382Y-2.2485
X3.8294Y-2.3317
X13.844Y-1.3396
X9.7276Y-4.6853
X10.1189Y-4.6021
X1.363Y-4.5295
X1.763Y-4.5295
X2.6547Y-3.0268
X5.4382Y-0.9486
X5.8295Y-1.0317
X3.0547Y-3.0268
X10.4555Y-0.5295
X10.8555Y-0.5295
X12.485Y-2.2776
X1.6878Y-2.2756
X2.0878Y-2.2756
X4.5229Y-0.7537
X4.9141Y-0.8369
X12.885Y-2.2776
X1.6248Y-3.0256
X2.0248Y-3.0256
X2.6268Y-2.2756
X3.0268Y-2.2756
X11.1514Y-3.0271
X11.5514Y-3.0271
X9.2591Y-2.4865
X9.6504Y-2.4033
X1.4372Y-3.0255
X6.1626Y-2.0588
X11.2055Y-0.5295
X11.6055Y-0.5295
X6.5539Y-2.142
X8.5248Y-2.6439
X5.639Y-2.7163
T8
X12.1024Y-3.3031
X13.0394Y-3.3031
X1.376Y-3.502
X2.313Y-3.502
X4.666Y-5.089
X5.5826Y-5.2838
X7.962Y-5.3422
X8.8785Y-5.1474
T9
X9.6673Y-1.6339
X8.6673Y-4.1457
X3.3661Y-1.4665
X6.3681Y-1.1457
X8.363Y-4.9753
X8.3287Y-3.4508
X3.064Y-3.7771
X4.1575Y-1.6339
X8.189Y-0.9882
X8.9331Y-1.7894
X1.8878Y-2.2756
X10.6555Y-0.5295
X4.7185Y-0.7953
X3.872Y-3.874
X7.2559Y-2.9114
X10.1327Y-3.8345
X5.6339Y-0.9902
X1.6372Y-3.0255
X6.3583Y-2.1004
X1.8661Y-1.5256
X9.061Y-3.2953
X10.189Y-2.2894
X1.8248Y-3.0256
X13.2264Y-3.9646
X2.4173Y-0.5295
X12.0066Y-3.7744
X12.1024Y-2.7031
X12.5709Y-3.0276
X13.0394Y-2.7031
X4.8898Y-1.7894
X3.6613Y-3.0627
X1.4724Y-0.5886
X13.9764Y-2.8396
X9.4016Y-3.9902
X7.4547Y-1.1457
X1.8445Y-3.7776
X2.313Y-4.102
X7.4665Y-2.1004
X2.6161Y-1.5256
X1.376Y-4.102
X5.624Y-1.9449
X7.5945Y-3.6063
X2.8268Y-2.2756
X9.4547Y-2.4449
X6.2835Y-5.1516
X11.3514Y-3.0271
X11.4055Y-0.5295
X8.7538Y-4.5605
X9.7953Y-3.1398
X7.8372Y-4.7553
X11.2065Y-1.5271
X4.7908Y-4.5021
X5.1816Y-4.9168
X5.7073Y-4.6969
X9.1063Y-0.7933
X8.2008Y-1.9449
X12.7065Y-1.5271
X10.9955Y-2.2771
X3.1673Y-0.5295
X13.2264Y-4.7146
X13.8083Y-2.0896
X8.7205Y-2.6024
X13.4783Y-0.5886
X9.8386Y-0.6378
X4.3674Y-2.446
X5.3386Y-4.185
X3.8996Y-4.6457
X5.8346Y-2.7579
X12.4547Y-0.5886
X11.7455Y-2.2771
X4.6043Y-4.0295
X10.4565Y-1.468
X10.9764Y-3.7771
X3.6338Y-2.2901
X7.9331Y-4.3012
X13.644Y-1.3396
X5.1285Y-3.3745
X3.9862Y-0.6398
X7.9882Y-2.7579
X11.9565Y-1.5271
X12.4764Y-4.7146
X13.9764Y-4.7146
X5.8621Y-3.5305
X1.563Y-4.5295
X10.6014Y-3.0271
X9.9232Y-4.6437
X4.3949Y-3.2186
X2.8547Y-3.0268
X12.685Y-2.2776
X5.101Y-2.6019
X6.0728Y-4.3406
T3
G00X6.7563Y-0.0728
M15
G01X6.7563Y-0.1004
M16
G05
G00X7.0437Y-0.0728
M15
G01X7.0437Y-0.1004
M16
G05
T0
M30
