<?xml version="1.0" encoding="UTF-8" standalone="no"?>
<svg
   xmlns:dc="http://purl.org/dc/elements/1.1/"
   xmlns:cc="http://creativecommons.org/ns#"
   xmlns:rdf="http://www.w3.org/1999/02/22-rdf-syntax-ns#"
   xmlns:svg="http://www.w3.org/2000/svg"
   xmlns="http://www.w3.org/2000/svg"
   xmlns:sodipodi="http://sodipodi.sourceforge.net/DTD/sodipodi-0.dtd"
   xmlns:inkscape="http://www.inkscape.org/namespaces/inkscape"
   width="793.700787402"
   height="1122.51968504"
   version="1.1"
   id="svg955"
   sodipodi:docname="wrist-rest_hipro_angled.svg"
   inkscape:version="0.92.4 (5da689c313, 2019-01-14)">
  <metadata
     id="metadata959">
    <rdf:RDF>
      <cc:Work
         rdf:about="">
        <dc:format>image/svg+xml</dc:format>
        <dc:type
           rdf:resource="http://purl.org/dc/dcmitype/StillImage" />
        <dc:title></dc:title>
      </cc:Work>
    </rdf:RDF>
  </metadata>
  <sodipodi:namedview
     pagecolor="#ffffff"
     bordercolor="#666666"
     borderopacity="1"
     objecttolerance="10"
     gridtolerance="10"
     guidetolerance="10"
     inkscape:pageopacity="0"
     inkscape:pageshadow="2"
     inkscape:window-width="1920"
     inkscape:window-height="1017"
     id="namedview957"
     showgrid="false"
     inkscape:zoom="0.12882032"
     inkscape:cx="306.98741"
     inkscape:cy="-55.547051"
     inkscape:window-x="1072"
     inkscape:window-y="843"
     inkscape:window-maximized="1"
     inkscape:current-layer="g953" />
  <desc
     id="desc815">D:\User\git\arisu\arisu-case\arisu_hipro_layer_P2_ponoko.dxf - scale = 1.000000, origin = (0.000000, 0.000000), method = manual</desc>
  <defs
     id="defs829">
    <marker
       id="DistanceX"
       orient="auto"
       refX="0.0"
       refY="0.0"
       style="overflow:visible">
      <path
         d="M 3,-3 L -3,3 M 0,-5 L  0,5"
         style="stroke:#000000; stroke-width:0.5"
         id="path817" />
    </marker>
    <pattern
       height="8"
       id="Hatch"
       patternUnits="userSpaceOnUse"
       width="8"
       x="0"
       y="0">
      <path
         d="M8 4 l-4,4"
         linecap="square"
         stroke="#000000"
         stroke-width="0.25"
         id="path820" />
      <path
         d="M6 2 l-4,4"
         linecap="square"
         stroke="#000000"
         stroke-width="0.25"
         id="path822" />
      <path
         d="M4 0 l-4,4"
         linecap="square"
         stroke="#000000"
         stroke-width="0.25"
         id="path824" />
    </pattern>
    <symbol
       id="*MODEL_SPACE" />
    <symbol
       id="*PAPER_SPACE" />
  </defs>
  <g
     inkscape:groupmode="layer"
     inkscape:label="0"
     id="g831" />
  <g
     inkscape:groupmode="layer"
     inkscape:label="CASE_LAYER"
     id="g953">
    <path
       d="m 851.26216,1492.8793 c 0,0 0,0 0,0 -2.8063,0 -5.1023,-2.2961 -5.1023,-5.1024 0,0 0,0 0,0 0,-2.8063 2.296,-5.1024 5.1023,-5.1024 0,0 0,0 0,0 2.8063,0 5.1024,2.2961 5.1024,5.1024 0,0 0,0 0,0 0,2.8063 -2.2961,5.1024 -5.1024,5.1024 z"
       style="fill:none;stroke:#000000"
       id="path903-3"
       inkscape:connector-curvature="0" />
    <path
       d="m 1338.7839,1471.725 c 0,0 0,0 0,0 -2.8063,0 -5.1024,-2.296 -5.1024,-5.1023 0,0 0,0 0,0 0,-2.8063 2.2961,-5.1024 5.1024,-5.1024 0,0 0,0 0,0 2.8063,0 5.1023,2.2961 5.1023,5.1024 0,0 0,0 0,0 0,2.8063 -2.296,5.1023 -5.1023,5.1023 z"
       style="fill:none;stroke:#000000"
       id="path905-0"
       inkscape:connector-curvature="0" />
    <path
       d="m 19.3982,1471.725 c 0,0 0,0 0,0 -2.8063,0 -5.1023,-2.296 -5.1023,-5.1023 0,0 0,0 0,0 0,-2.8063 2.296,-5.1024 5.1023,-5.1024 0,0 0,0 0,0 2.8063,0 5.1024,2.2961 5.1024,5.1024 0,0 0,0 0,0 0,2.8063 -2.2961,5.1023 -5.1024,5.1023 z"
       style="fill:none;stroke:#000000"
       id="path915-2"
       inkscape:connector-curvature="0" />
    <path
       d="m 359.9237,1492.8793 c 0,0 0,0 0,0 -2.8063,0 -5.1024,-2.2961 -5.1024,-5.1024 0,0 0,0 0,0 0,-2.8063 2.2961,-5.1024 5.1024,-5.1024 0,0 0,0 0,0 2.8063,0 5.1023,2.2961 5.1023,5.1024 0,0 0,0 0,0 0,2.8063 -2.296,5.1024 -5.1023,5.1024 z"
       style="fill:none;stroke:#000000"
       id="path917-1"
       inkscape:connector-curvature="0" />
    <path
       inkscape:connector-curvature="0"
       d="m 1350.122,1814.7055 c 4.1747,6e-4 7.559,-3.9376 7.559,-8.1123 v -352.3364 c 0,-4.1747 -3.3843,-6.9356 -7.559,-6.9356 H 955.05386 L 643.3876,1511.5807 H 567.7971 L 256.1308,1447.3212 H 8.0591 c -4.1748,0 -7.5591,3.3066 -7.5591,7.4813 v 352.1165 c 0,4.1747 3.3843,7.5932 7.5591,7.5938 z"
       style="fill:none;stroke:#000000"
       id="path901-7-3"
       sodipodi:nodetypes="ssssccccsssss" />
    <path
       d="m 851.26224,1866.0597 c 0,0 -10e-6,0 -10e-6,0 -2.8063,0 -5.10236,-2.2961 -5.10236,-5.1024 0,0 0,0 0,0 0,-2.8063 2.29606,-5.1024 5.10236,-5.1024 0,0 10e-6,0 10e-6,0 2.8063,0 5.10236,2.2961 5.10236,5.1024 0,0 0,0 0,0 0,2.8063 -2.29606,5.1024 -5.10236,5.1024 z"
       style="fill:none;stroke:#000000"
       id="path903-5"
       inkscape:connector-curvature="0" />
    <path
       d="m 1338.7839,1844.9054 c 0,0 0,0 0,0 -2.8063,0 -5.1024,-2.296 -5.1024,-5.1023 0,0 0,0 0,0 0,-2.8063 2.2961,-5.1024 5.1024,-5.1024 0,0 0,0 0,0 2.8063,0 5.1023,2.2961 5.1023,5.1024 0,0 0,0 0,0 0,2.8063 -2.296,5.1023 -5.1023,5.1023 z"
       style="fill:none;stroke:#000000"
       id="path905-8"
       inkscape:connector-curvature="0" />
    <path
       d="m 19.3983,1844.9054 c 0,0 0,0 0,0 -2.8063,0 -5.1024,-2.296 -5.1024,-5.1023 0,0 0,0 0,0 0,-2.8063 2.2961,-5.1024 5.1024,-5.1024 0,0 0,0 0,0 2.8063,0 5.1023,2.2961 5.1023,5.1024 0,0 0,0 0,0 0,2.8063 -2.296,5.1023 -5.1023,5.1023 z"
       style="fill:none;stroke:#000000"
       id="path915-8"
       inkscape:connector-curvature="0" />
    <path
       d="m 359.9237,1866.0597 c 0,0 0,0 0,0 -2.8063,0 -5.1024,-2.2961 -5.1024,-5.1024 0,0 0,0 0,0 0,-2.8063 2.2961,-5.1024 5.1024,-5.1024 0,0 0,0 0,0 2.8063,0 5.1024,2.2961 5.1024,5.1024 0,0 0,0 0,0 0,2.8063 -2.2961,5.1024 -5.1024,5.1024 z"
       style="fill:none;stroke:#000000"
       id="path917-7"
       inkscape:connector-curvature="0" />
    <path
       inkscape:connector-curvature="0"
       d="m 1350.122,2187.8859 c 4.1747,6e-4 7.559,-3.9376 7.559,-8.1123 v -352.3364 c 0,-4.1747 -3.3843,-6.9356 -7.559,-6.9356 H 955.05387 L 643.3877,1884.7611 H 567.7971 L 256.1309,1820.5016 H 8.0591 c -4.1748,0 -7.5591,3.3066 -7.5591,7.4813 v 352.1165 c 0,4.1747 3.3843,7.5932 7.5591,7.5938 z"
       style="fill:none;stroke:#000000"
       id="path901-7-39"
       sodipodi:nodetypes="ssssccccsssss" />
    <path
       d="m 851.26217,1120.8189 c 0,0 0,0 0,0 -2.8063,0 -5.1023,-2.2961 -5.1023,-5.1024 0,0 0,0 0,0 0,-2.8063 2.296,-5.1024 5.1023,-5.1024 0,0 0,0 0,0 2.8063,0 5.1024,2.2961 5.1024,5.1024 0,0 0,0 0,0 0,2.8063 -2.2961,5.1024 -5.1024,5.1024 z"
       style="fill:none;stroke:#000000"
       id="path903-2"
       inkscape:connector-curvature="0" />
    <path
       d="m 1338.7839,1099.6646 c 0,0 0,0 0,0 -2.8063,0 -5.1024,-2.296 -5.1024,-5.1023 0,0 0,0 0,0 0,-2.8063 2.2961,-5.1024 5.1024,-5.1024 0,0 0,0 0,0 2.8063,0 5.1023,2.2961 5.1023,5.1024 0,0 0,0 0,0 0,2.8063 -2.296,5.1023 -5.1023,5.1023 z"
       style="fill:none;stroke:#000000"
       id="path905-5"
       inkscape:connector-curvature="0" />
    <path
       d="m 19.3982,1099.6646 c 0,0 0,0 0,0 -2.8063,0 -5.1023,-2.296 -5.1023,-5.1023 0,0 0,0 0,0 0,-2.8063 2.296,-5.1024 5.1023,-5.1024 0,0 0,0 0,0 2.8063,0 5.1024,2.2961 5.1024,5.1024 0,0 0,0 0,0 0,2.8063 -2.2961,5.1023 -5.1024,5.1023 z"
       style="fill:none;stroke:#000000"
       id="path915-6"
       inkscape:connector-curvature="0" />
    <path
       d="m 359.9237,1120.8189 c 0,0 0,0 0,0 -2.8063,0 -5.1024,-2.2961 -5.1024,-5.1024 0,0 0,0 0,0 0,-2.8063 2.2961,-5.1024 5.1024,-5.1024 0,0 0,0 0,0 2.8063,0 5.1023,2.2961 5.1023,5.1024 0,0 0,0 0,0 0,2.8063 -2.296,5.1024 -5.1023,5.1024 z"
       style="fill:none;stroke:#000000"
       id="path917-70"
       inkscape:connector-curvature="0" />
    <path
       inkscape:connector-curvature="0"
       d="m 1350.122,1442.6451 c 4.1747,6e-4 7.559,-3.9376 7.559,-8.1123 v -352.3364 c 0,-4.1747 -3.3843,-6.9356 -7.559,-6.9356 H 955.05387 L 643.3876,1139.5203 H 567.7971 L 256.1308,1075.2608 H 8.0591 c -4.1748,0 -7.5591,3.3066 -7.5591,7.4813 v 352.1165 c 0,4.1747 3.3843,7.5932 7.5591,7.5938 z"
       style="fill:none;stroke:#000000"
       id="path901-7-1"
       sodipodi:nodetypes="ssssccccsssss" />
    <path
       d="m -509.96502,1492.8223 c 0,0 0,0 0,0 -2.8063,0 -5.1023,-2.2961 -5.1023,-5.1024 0,0 0,0 0,0 0,-2.8063 2.296,-5.1024 5.1023,-5.1024 0,0 0,0 0,0 2.8063,0 5.1024,2.2961 5.1024,5.1024 0,0 0,0 0,0 0,2.8063 -2.2961,5.1024 -5.1024,5.1024 z"
       style="fill:none;stroke:#000000"
       id="path903-3-1"
       inkscape:connector-curvature="0" />
    <path
       d="m -22.443321,1471.668 c 0,0 0,0 0,0 -2.8063,0 -5.1024,-2.296 -5.1024,-5.1023 0,0 0,0 0,0 0,-2.8063 2.2961,-5.1024 5.1024,-5.1024 0,0 0,0 0,0 2.8063,0 5.1023,2.2961 5.1023,5.1024 0,0 0,0 0,0 0,2.8063 -2.296,5.1023 -5.1023,5.1023 z"
       style="fill:none;stroke:#000000"
       id="path905-0-4"
       inkscape:connector-curvature="0" />
    <path
       d="m -1341.829,1471.668 c 0,0 0,0 0,0 -2.8063,0 -5.1023,-2.296 -5.1023,-5.1023 0,0 0,0 0,0 0,-2.8063 2.296,-5.1024 5.1023,-5.1024 0,0 0,0 0,0 2.8063,0 5.1024,2.2961 5.1024,5.1024 0,0 0,0 0,0 0,2.8063 -2.2961,5.1023 -5.1024,5.1023 z"
       style="fill:none;stroke:#000000"
       id="path915-2-6"
       inkscape:connector-curvature="0" />
    <path
       d="m -1001.3035,1492.8223 c 0,0 0,0 0,0 -2.8063,0 -5.1024,-2.2961 -5.1024,-5.1024 0,0 0,0 0,0 0,-2.8063 2.2961,-5.1024 5.1024,-5.1024 0,0 0,0 0,0 2.8063,0 5.1023,2.2961 5.1023,5.1024 0,0 0,0 0,0 0,2.8063 -2.296,5.1024 -5.1023,5.1024 z"
       style="fill:none;stroke:#000000"
       id="path917-1-3"
       inkscape:connector-curvature="0" />
    <path
       inkscape:connector-curvature="0"
       d="m -11.105221,1814.6485 c 4.1747,6e-4 7.559,-3.9376 7.559,-8.1123 v -352.3364 c 0,-4.1747 -3.3843,-6.9356 -7.559,-6.9356 H -406.17332 l -311.6663,64.2595 h -75.5905 l -311.66628,-64.2595 h -248.0717 c -4.1748,0 -7.5591,3.3066 -7.5591,7.4813 v 352.1165 c 0,4.1747 3.3843,7.5932 7.5591,7.5938 z"
       style="fill:none;stroke:#000000"
       id="path901-7-3-2"
       sodipodi:nodetypes="ssssccccsssss" />
    <path
       d="m -509.96492,1866.0027 c 0,0 -10e-5,0 -10e-5,0 -2.8063,0 -5.1023,-2.2961 -5.1023,-5.1024 0,0 0,0 0,0 0,-2.8063 2.296,-5.1024 5.1023,-5.1024 0,0 10e-5,0 10e-5,0 2.8063,0 5.1023,2.2961 5.1023,5.1024 0,0 0,0 0,0 0,2.8063 -2.296,5.1024 -5.1023,5.1024 z"
       style="fill:none;stroke:#000000"
       id="path903-5-7"
       inkscape:connector-curvature="0" />
    <path
       d="m -22.443321,1844.8484 c 0,0 0,0 0,0 -2.8063,0 -5.1024,-2.296 -5.1024,-5.1023 0,0 0,0 0,0 0,-2.8063 2.2961,-5.1024 5.1024,-5.1024 0,0 0,0 0,0 2.8063,0 5.1023,2.2961 5.1023,5.1024 0,0 0,0 0,0 0,2.8063 -2.296,5.1023 -5.1023,5.1023 z"
       style="fill:none;stroke:#000000"
       id="path905-8-0"
       inkscape:connector-curvature="0" />
    <path
       d="m -1341.8289,1844.8484 c 0,0 0,0 0,0 -2.8063,0 -5.1024,-2.296 -5.1024,-5.1023 0,0 0,0 0,0 0,-2.8063 2.2961,-5.1024 5.1024,-5.1024 0,0 0,0 0,0 2.8063,0 5.1023,2.2961 5.1023,5.1024 0,0 0,0 0,0 0,2.8063 -2.296,5.1023 -5.1023,5.1023 z"
       style="fill:none;stroke:#000000"
       id="path915-8-0"
       inkscape:connector-curvature="0" />
    <path
       d="m -1001.3035,1866.0027 c 0,0 0,0 0,0 -2.8063,0 -5.1024,-2.2961 -5.1024,-5.1024 0,0 0,0 0,0 0,-2.8063 2.2961,-5.1024 5.1024,-5.1024 0,0 0,0 0,0 2.8063,0 5.1024,2.2961 5.1024,5.1024 0,0 0,0 0,0 0,2.8063 -2.2961,5.1024 -5.1024,5.1024 z"
       style="fill:none;stroke:#000000"
       id="path917-7-0"
       inkscape:connector-curvature="0" />
    <path
       inkscape:connector-curvature="0"
       d="m -11.105221,2187.8289 c 4.1747,6e-4 7.559,-3.9376 7.559,-8.1123 v -352.3364 c 0,-4.1747 -3.3843,-6.9356 -7.559,-6.9356 H -406.17332 l -311.6662,64.2595 h -75.5906 l -311.66618,-64.2595 h -248.0718 c -4.1748,0 -7.5591,3.3066 -7.5591,7.4813 v 352.1165 c 0,4.1747 3.3843,7.5932 7.5591,7.5938 z"
       style="fill:none;stroke:#000000"
       id="path901-7-39-9"
       sodipodi:nodetypes="ssssccccsssss" />
    <path
       d="m -509.96502,1120.7619 c 0,0 0,0 0,0 -2.8063,0 -5.1023,-2.2961 -5.1023,-5.1024 0,0 0,0 0,0 0,-2.8063 2.296,-5.1024 5.1023,-5.1024 0,0 0,0 0,0 2.8063,0 5.1024,2.2961 5.1024,5.1024 0,0 0,0 0,0 0,2.8063 -2.2961,5.1024 -5.1024,5.1024 z"
       style="fill:none;stroke:#000000"
       id="path903-2-1"
       inkscape:connector-curvature="0" />
    <path
       d="m -22.443321,1099.6076 c 0,0 0,0 0,0 -2.8063,0 -5.1024,-2.296 -5.1024,-5.1023 0,0 0,0 0,0 0,-2.8063 2.2961,-5.1024 5.1024,-5.1024 0,0 0,0 0,0 2.8063,0 5.1023,2.2961 5.1023,5.1024 0,0 0,0 0,0 0,2.8063 -2.296,5.1023 -5.1023,5.1023 z"
       style="fill:none;stroke:#000000"
       id="path905-5-0"
       inkscape:connector-curvature="0" />
    <path
       d="m -1341.829,1099.6076 c 0,0 0,0 0,0 -2.8063,0 -5.1023,-2.296 -5.1023,-5.1023 0,0 0,0 0,0 0,-2.8063 2.296,-5.1024 5.1023,-5.1024 0,0 0,0 0,0 2.8063,0 5.1024,2.2961 5.1024,5.1024 0,0 0,0 0,0 0,2.8063 -2.2961,5.1023 -5.1024,5.1023 z"
       style="fill:none;stroke:#000000"
       id="path915-6-5"
       inkscape:connector-curvature="0" />
    <path
       d="m -1001.3035,1120.7619 c 0,0 0,0 0,0 -2.8063,0 -5.1024,-2.2961 -5.1024,-5.1024 0,0 0,0 0,0 0,-2.8063 2.2961,-5.1024 5.1024,-5.1024 0,0 0,0 0,0 2.8063,0 5.1023,2.2961 5.1023,5.1024 0,0 0,0 0,0 0,2.8063 -2.296,5.1024 -5.1023,5.1024 z"
       style="fill:none;stroke:#000000"
       id="path917-70-6"
       inkscape:connector-curvature="0" />
    <path
       inkscape:connector-curvature="0"
       d="m -11.105221,1442.5881 c 4.1747,6e-4 7.559,-3.9376 7.559,-8.1123 v -352.3364 c 0,-4.1747 -3.3843,-6.9356 -7.559,-6.9356 H -406.17332 l -311.6663,64.2595 h -75.5905 l -311.66628,-64.2595 h -248.0717 c -4.1748,0 -7.5591,3.3066 -7.5591,7.4813 v 352.1165 c 0,4.1747 3.3843,7.5932 7.5591,7.5938 z"
       style="fill:none;stroke:#000000"
       id="path901-7-1-2"
       sodipodi:nodetypes="ssssccccsssss" />
  </g>
</svg>
